<?xml version="1.0" encoding="UTF-8" standalone="no"?>
<!-- Created with Inkscape (http://www.inkscape.org/) -->

<svg
   width="1023.9999"
   height="1023.9999"
   viewBox="0 0 270.93333 270.93333"
   version="1.1"
   id="svg1"
   xml:space="preserve"
   inkscape:export-filename="ibrahimlive_fr.svg"
   inkscape:export-xdpi="96"
   inkscape:export-ydpi="96"
   xmlns:inkscape="http://www.inkscape.org/namespaces/inkscape"
   xmlns:sodipodi="http://sodipodi.sourceforge.net/DTD/sodipodi-0.dtd"
   xmlns="http://www.w3.org/2000/svg"
   xmlns:svg="http://www.w3.org/2000/svg"><sodipodi:namedview
     id="namedview1"
     pagecolor="#ffffff"
     bordercolor="#ffffff"
     borderopacity="1"
     inkscape:showpageshadow="0"
     inkscape:pageopacity="0"
     inkscape:pagecheckerboard="false"
     inkscape:deskcolor="#505050"
     inkscape:document-units="mm"
     inkscape:zoom="0.38130453"
     inkscape:cx="784.15015"
     inkscape:cy="792.01787"
     inkscape:window-width="1920"
     inkscape:window-height="1043"
     inkscape:window-x="0"
     inkscape:window-y="0"
     inkscape:window-maximized="1"
     inkscape:current-layer="layer1"><inkscape:page
       x="0"
       y="0"
       width="270.93332"
       height="270.93332"
       id="page2"
       margin="0"
       bleed="0" /></sodipodi:namedview><defs
     id="defs1" /><g
     inkscape:label="Слой 1"
     inkscape:groupmode="layer"
     id="layer1"><g
       id="g55"
       transform="translate(0.13312638,15.542944)"><path
         style="display:inline;fill:#fcc200;stroke-width:0.755632"
         d="m 172.32006,208.34338 c -8.73207,-0.7183 -18.11004,-3.39217 -26.2642,-7.48851 -9.70746,-4.87667 -18.23253,-11.92263 -24.92647,-20.60168 -3.71709,-4.81943 -7.08814,-10.69519 -9.25264,-16.12748 -0.55498,-1.39283 -1.09409,-2.65237 -1.19803,-2.79898 -0.18953,-0.26734 -1.93282,-6.02188 -2.24097,-7.39732 l -0.16423,-0.73307 H 91.264201 74.254874 c 0,0 -1.123081,-0.17493 -1.958144,-0.23028 -1.127312,-0.0747 -11.887142,0.22825 -26.723642,0.22568 -29.374782,-0.005 -28.794118,0.0244 -32.156526,-1.62693 -2.484041,-1.21987 -5.3965922,-4.08638 -6.573927,-6.46999 -1.4737689,-2.98377 -1.7148305,-4.27945 -1.718382,-9.23614 -0.00378,-4.93708 0.2816391,-6.54008 1.6489093,-9.26844 1.4979713,-2.98916 4.9619827,-6.02266 8.3443027,-7.30724 l 1.599416,-0.60746 45.957146,-0.13328 45.957143,-0.13328 0.60169,-2.26585 c 1.923,-7.24164 7.16331,-17.360971 12.46793,-24.076271 2.54651,-3.223706 8.02602,-8.941796 10.17433,-10.617326 0.73307,-0.571741 2.1313,-1.666432 3.10718,-2.43265 6.20087,-4.868624 15.7684,-9.648833 23.63895,-11.810679 9.0877,-2.496169 18.57139,-3.245316 28.03401,-2.214484 5.69462,0.620351 13.87775,2.597468 17.39741,4.203367 0.91428,0.417161 1.96224,0.851982 2.32876,0.966278 1.11893,0.348898 7.23917,3.40984 8.7955,4.398917 6.48624,4.122143 11.52101,8.155863 15.3043,12.261398 1.01266,1.098916 1.97232,2.117975 2.13256,2.26459 1.03134,0.94358 5.52975,7.023973 7.07451,9.562453 1.9596,3.220167 5.27687,10.073417 6.2745,12.962717 3.14357,9.10428 4.40269,16.23232 4.40269,24.92431 0,5.60854 -0.88474,13.40882 -1.87461,16.52733 -0.13961,0.43984 -0.68358,2.29917 -1.20882,4.13183 -1.73156,6.04175 -3.62832,10.33635 -7.50181,16.98536 -0.78733,1.3515 -1.57672,2.61106 -1.75418,2.79899 -0.43132,0.45677 -1.55101,1.96461 -2.43183,3.27484 -2.40284,3.57428 -9.9689,10.97572 -14.59651,14.27893 -1.51467,1.08117 -2.8139,2.03226 -2.88722,2.11353 -0.0733,0.0813 -1.27286,0.82041 -2.66568,1.64253 -13.25951,7.82639 -28.11228,11.28924 -43.12477,10.05431 z"
         id="path53"
         sodipodi:nodetypes="sssssscccsccscsscccssssssssssssssssssssscss" /><path
         style="display:inline;fill:#5c02b5;stroke-width:0.755632"
         d="m 251.47155,109.57672 c -1.74373,-0.89225 -2.88446,-3.69633 -2.10025,-5.16271 0.34088,-0.63736 0.31001,-0.68966 -0.70809,-1.19955 -0.58549,-0.29323 -1.29844,-0.85409 -1.58434,-1.24636 -0.60129,-0.82501 -0.92843,-3.253349 -0.47594,-3.533003 0.51601,-0.318914 0.3226,-0.887715 -0.36013,-1.059069 -0.36151,-0.09073 -0.99127,-0.596164 -1.39949,-1.123187 -0.40822,-0.527022 -1.1479,-1.455437 -1.64373,-2.063138 -1.07888,-1.32228 -2.00669,-3.225549 -2.57009,-5.272177 -0.3768,-1.368812 -0.54801,-1.590363 -1.93628,-2.505735 -0.83762,-0.552283 -2.44921,-1.915836 -3.58133,-3.030112 -1.13212,-1.114285 -2.39316,-2.281395 -2.80233,-2.593592 -0.40914,-0.312189 -1.02648,-1.133395 -1.37182,-1.824896 -1.12706,-2.256723 -0.50025,-4.601017 1.95368,-7.306767 0.74654,-0.823163 1.82362,-2.079657 2.39353,-2.792226 0.56989,-0.712568 1.82701,-2.155015 2.7936,-3.205442 0.96659,-1.050418 2.06931,-2.322342 2.4505,-2.826485 0.76979,-1.018122 0.79314,-1.012924 2.76786,0.616015 l 0.79523,0.655978 -1.37668,1.428333 c -0.75717,0.785585 -2.07884,2.268035 -2.93704,3.294327 -0.8582,1.026298 -1.90027,2.225864 -2.3157,2.665701 -1.84541,1.953852 -2.61201,3.088432 -2.74005,4.055346 -0.12202,0.921379 -0.021,1.126594 1.15697,2.351246 0.70985,0.737972 1.93658,2.031333 2.72606,2.874143 0.78947,0.8428 1.46819,1.498553 1.50827,1.45722 0.04,-0.04134 0.25015,-0.73492 0.46682,-1.541292 0.21666,-0.806372 0.47385,-1.658913 0.57153,-1.894535 0.12889,-0.310905 -0.0502,-0.522746 -0.65291,-0.772406 l -0.8305,-0.344002 1.12999,-1.151385 1.13,-1.151379 1.33813,0.72422 c 1.30088,0.704067 3.94343,3.104089 5.2,4.722772 0.87668,1.129345 2.16458,3.880629 2.16483,4.624692 6.6e-4,1.951433 -1.93105,3.505693 -4.35703,3.505693 h -1.25665 l 0.60774,1.068394 c 0.33426,0.587617 0.9342,1.454198 1.33322,1.925735 0.39901,0.471536 0.8575,1.176102 1.01889,1.565698 0.39736,0.959327 1.78094,1.669304 2.98024,1.529293 0.90162,-0.105259 0.98704,-0.04625 1.51912,1.0489 0.64396,1.325483 0.58221,1.551644 -0.48788,1.786676 -2.6693,0.586279 -1.58654,3.316346 1.19111,3.003266 l 1.20524,-0.13585 0.6272,1.23411 0.62719,1.2341 -1.10029,0.40644 c -1.45019,0.5357 -1.85908,1.52933 -1.06755,2.59418 0.86485,1.16348 1.69042,1.08288 3.19153,-0.31164 0.71434,-0.66362 1.35878,-1.20421 1.43209,-1.20134 0.0733,0.003 0.57928,0.56409 1.12436,1.24713 1.18191,1.481 1.10112,1.6479 -1.45787,3.01184 -2.04085,1.08775 -4.83518,1.36175 -6.29096,0.61683 z M 247.0811,85.859114 c 0.34484,-0.898627 -2.87378,-5.782538 -3.43861,-5.217711 -0.42986,0.429872 -0.53713,3.3108 -0.15066,4.046437 0.65777,1.252029 3.23549,2.093213 3.58927,1.171274 z m 15.51818,13.037825 c -0.74774,-0.699419 -1.94799,-1.950934 -2.66721,-2.781154 l -1.30768,-1.50948 0.86874,-0.552623 0.86874,-0.552623 2.73716,2.724134 c 2.49424,2.482358 2.69535,2.755443 2.26585,3.076889 -1.24842,0.934338 -1.34941,0.919548 -2.7656,-0.405143 z M 254.05851,76.09096 c -1.26518,-0.769724 -2.70364,-1.726232 -3.19659,-2.125583 l -0.89628,-0.726087 0.70241,-0.703335 0.70241,-0.703333 1.96329,1.192038 c 1.07981,0.655624 2.41707,1.500102 2.97169,1.876634 0.55464,0.376523 1.1451,0.730144 1.31215,0.785827 0.28985,0.09662 -0.75756,1.803329 -1.10671,1.803329 -0.0836,0 -1.1872,-0.629773 -2.45237,-1.39949 z M 127.34343,72.073856 c -0.73306,-0.355894 -1.65595,-0.992136 -2.05085,-1.413869 -0.89203,-0.952647 -2.0374,-3.415825 -2.29969,-4.945616 -0.19642,-1.145613 -0.19136,-1.155383 0.83937,-1.619062 1.35233,-0.608366 1.41864,-0.59728 1.59444,0.266565 0.23934,1.17608 1.7215,3.175345 2.69738,3.638426 1.30665,0.620049 2.26047,0.529637 4.09765,-0.388409 1.89511,-0.947003 2.85434,-1.972796 3.26262,-3.489061 0.26645,-0.989522 0.22963,-1.169899 -0.43443,-2.128123 -0.61439,-0.886583 -2.7484,-2.6726 -5.09848,-4.267081 l -0.59085,-0.400878 1.29772,-1.278196 1.29772,-1.278203 1.20022,0.825768 c 1.6549,1.138609 4.05359,3.878703 4.90568,5.6039 1.83538,3.716068 0.036,8.153264 -4.22793,10.425909 -2.27324,1.211633 -4.58842,1.371411 -6.49057,0.44793 z m 95.1655,-0.813958 c -1.78636,-0.455495 -3.1989,-1.214103 -5.01452,-2.693101 -2.22916,-1.815873 -2.26257,-1.946786 -1.06401,-4.170414 l 1.01369,-1.880646 0.93299,1.041812 c 1.68668,1.883389 4.63913,3.803238 5.84886,3.803238 0.71427,0 0.91612,-0.878853 0.75452,-3.285018 -0.0818,-1.218108 -0.37705,-2.494127 -0.81269,-3.512516 l -0.68418,-1.599422 1.77851,-0.282984 1.77852,-0.282984 0.66642,1.349264 c 0.58869,1.19188 0.66643,1.6913 0.66643,4.281537 0,3.264335 -0.38881,4.458724 -2.0711,6.362289 -1.01212,1.145242 -1.90645,1.350101 -3.79344,0.868945 z m -76.98565,-3.371053 c -1.28489,-0.230763 -1.41472,-0.38591 -1.61285,-1.927548 l -0.16275,-1.266205 1.26112,-0.0015 c 1.65561,-0.0023 3.1046,-0.421007 4.38451,-1.26801 1.12588,-0.745067 2.34128,-2.557118 2.34128,-3.490625 0,-0.503379 -0.0984,-0.555525 -0.73306,-0.388417 -1.40045,0.368733 -3.69386,0.19397 -4.63011,-0.352827 -2.84711,-1.662805 -3.60261,-6.335109 -1.40275,-8.675171 2.04006,-2.170076 4.66711,-2.036903 7.02256,0.355993 0.73128,0.742899 1.47915,1.764331 1.66195,2.269841 0.26847,0.742438 0.43628,0.887845 0.87294,0.756403 0.29732,-0.08949 1.26034,-0.267978 2.14002,-0.396631 2.30028,-0.336423 4.73527,-1.033613 5.19147,-1.486441 0.34651,-0.343971 0.34165,-0.477015 -0.041,-1.120503 -0.40297,-0.677643 -4.27828,-3.860446 -4.98874,-4.097269 -0.4521,-0.150695 -0.71127,-3.718961 -0.32284,-4.44476 0.16948,-0.316678 1.41465,-1.222423 2.76705,-2.012776 2.82341,-1.650027 7.96819,-4.214549 8.13012,-4.052633 0.0601,0.06007 0.0264,0.992665 -0.0747,2.072418 l -0.18397,1.963176 -2.17312,0.875421 c -1.81345,0.730537 -5.77182,2.856711 -5.77182,3.100243 0,0.03884 0.6591,0.568295 1.46465,1.176489 0.80554,0.608192 2.49298,2.086419 3.74986,3.284941 2.99405,2.855033 3.10638,2.923923 4.87154,2.98785 3.57708,0.129538 3.67807,-0.12282 3.27952,-8.194393 -0.16794,-3.401346 -0.30497,-6.454165 -0.3045,-6.784044 7.6e-4,-0.560392 0.11465,-0.599782 1.73357,-0.599782 1.7129,0 1.73268,0.0084 1.73113,0.733068 -7.5e-4,0.40319 0.1347,3.737564 0.30126,7.409722 0.27035,5.960709 0.25631,6.836652 -0.13094,8.168725 -0.78733,2.708326 -2.78294,3.81275 -6.57764,3.640231 -1.91517,-0.08708 -2.11497,-0.15668 -3.54165,-1.23384 -0.97841,-0.738713 -1.51197,-1.00462 -1.51197,-0.753516 0,0.663331 -1.39646,2.08648 -2.54657,2.595224 -0.60392,0.267146 -2.25346,0.659288 -3.66563,0.871433 -2.58568,0.388431 -3.2159,0.578896 -3.01976,0.912613 0.25633,0.436113 -0.41972,3.663257 -1.04373,4.982317 -1.46265,3.091764 -5.1235,4.990773 -8.4644,4.390764 z m 5.07255,-12.755008 c 0.51875,-0.290321 -1.05164,-2.371851 -1.96177,-2.600286 -1.05271,-0.264207 -2.01618,0.185454 -2.31383,1.07988 -0.22902,0.688222 -0.17072,0.857325 0.49219,1.427532 0.66025,0.567925 0.91521,0.625186 2.08989,0.46936 0.73585,-0.09762 1.49793,-0.267032 1.69352,-0.376486 z m 55.72139,7.849093 c -1.5465,-0.551959 -2.28168,-1.137007 -2.86463,-2.279672 -0.62838,-1.231756 -0.70878,-3.346836 -0.17536,-4.613615 0.55518,-1.318441 2.21679,-3.151043 3.66391,-4.040966 0.71845,-0.441833 1.30801,-0.985971 1.31013,-1.209207 0.002,-0.223229 0.61381,-0.742378 1.35934,-1.153661 1.58825,-0.87617 1.56338,-0.892212 2.91665,1.881848 1.62297,3.326879 1.81222,6.326887 0.55458,8.791047 -0.64432,1.262427 -1.2024,1.767566 -2.70664,2.449886 -1.37855,0.6253 -2.64232,0.679592 -4.05798,0.17434 z m 3.95622,-4.089818 c 1.03548,-0.69141 1.04442,-2.147497 0.026,-4.243574 l -0.54202,-1.115637 -1.05741,0.539445 c -2.47079,1.260507 -2.93012,2.599623 -1.41231,4.117436 0.89817,0.898174 2.22495,1.210272 2.98566,0.70233 z m -87.47382,-2.31629 c -0.63926,-0.639257 -0.82125,-1.532739 -0.48872,-2.399305 0.2158,-0.562355 1.62309,-1.285819 2.04145,-1.049458 1.58885,0.897667 2.02577,2.54944 0.94154,3.559546 -0.77985,0.726547 -1.6977,0.685781 -2.49427,-0.110783 z m 60.43996,0.193638 -0.88328,-0.108774 0.15479,-1.381339 c 0.0851,-0.759742 0.3903,-4.560191 0.67818,-8.445444 0.28787,-3.885261 0.5993,-7.769524 0.69206,-8.6317 l 0.16866,-1.567595 1.61426,0.168717 c 0.88783,0.0928 1.64073,0.198436 1.67309,0.234745 0.0324,0.03627 -0.28453,4.384461 -0.70421,9.662547 -0.41968,5.278086 -0.76633,9.74646 -0.77032,9.929731 -0.008,0.331004 -0.74664,0.370214 -2.62323,0.139112 z m 47.26644,-3.135644 c -3.94168,-1.058844 -5.25871,-1.440257 -5.37508,-1.556631 -0.13567,-0.135666 0.64001,-1.777873 0.83976,-1.777873 0.17858,0 7.46194,1.637665 7.50807,1.688194 0.0224,0.02448 -0.15794,0.462787 -0.40064,0.974017 -0.51455,1.083885 -0.78081,1.153486 -2.57211,0.672293 z M 116.86473,53.104377 c -0.26252,-0.576184 -0.22512,-0.700523 0.29043,-0.965568 0.72178,-0.371068 2.05789,-1.592833 2.05789,-1.881772 0,-0.115559 -0.3252,-0.08646 -0.72267,0.06468 -0.93984,0.357323 -1.76237,0.135046 -2.60007,-0.702646 -0.9482,-0.948213 -0.91104,-2.245904 0.0966,-3.373669 1.00609,-1.126004 2.55323,-1.212697 3.64308,-0.204134 0.70888,0.656025 1.7156,2.622442 1.7156,3.351075 0,0.895477 -1.19366,2.821535 -2.21337,3.571439 -1.32583,0.975022 -1.87189,1.00889 -2.2675,0.140616 z m 2.34832,-4.943666 c 0,-0.451876 -0.88382,-1.084966 -1.4055,-1.006788 -0.29663,0.04443 -0.67154,0.297779 -0.83313,0.562938 -0.44929,0.737285 0.42465,1.297661 1.46058,0.93653 0.42793,-0.14917 0.77805,-0.37088 0.77805,-0.49268 z m 94.67881,-0.609923 c -0.76992,-0.819543 -0.75339,-2.059111 0.0374,-2.80198 0.77402,-0.727152 1.51215,-0.735448 2.41264,-0.02713 0.89309,0.702503 0.89715,1.574252 0.0122,2.625895 -0.82552,0.981075 -1.66629,1.050456 -2.46225,0.203205 z m -3.77844,-1.434023 c -1.13965,-0.4073 -1.43757,-2.248207 -0.52276,-3.23015 0.71444,-0.766861 1.87087,-0.751982 2.60886,0.03355 1.41507,1.506276 -0.14157,3.891555 -2.0861,3.196593 z m -69.21388,-2.260562 c -1.55868,-0.754445 -1.88504,-4.289515 -0.50554,-5.476107 2.34981,-2.021223 5.98441,1.345591 4.6394,4.297578 -0.55495,1.218011 -2.75593,1.845488 -4.13386,1.178529 z m 2.32233,-1.828945 c 0.59312,-0.317426 0.64428,-0.749429 0.20335,-1.717173 -0.3625,-0.795589 -1.38412,-1.14519 -1.95704,-0.669701 -0.47569,0.394779 -0.52466,1.894784 -0.0765,2.342941 0.39299,0.392989 1.14428,0.411026 1.8302,0.0439 z m 12.32665,-6.481558 -0.27404,-0.89296 2.02867,-0.996406 c 1.11578,-0.548022 2.60547,-1.362751 3.31043,-1.810501 1.44169,-0.915674 1.80666,-0.794728 1.87461,0.62122 0.0416,0.865932 -0.0205,0.917941 -2.88979,2.421316 -1.61274,0.845007 -3.12206,1.539508 -3.35404,1.543339 -0.24914,0.0038 -0.53395,-0.358531 -0.69584,-0.886008 z"
         id="path51" /><path
         style="display:inline;fill:#00091d;stroke-width:0.755632"
         d="m 170.887,200.38195 c 0.29048,-0.47766 0.85409,-1.08229 1.25246,-1.34362 l 0.7243,-0.47513 -0.76877,-0.39754 c -2.59174,-1.34025 -2.5559,-3.94414 0.0869,-6.30945 1.60981,-1.44082 3.6418,-2.06228 4.95244,-1.51466 1.15797,0.48383 1.44672,1.42758 0.83269,2.72155 -0.45581,0.96054 -0.90823,1.42589 -0.90823,0.93418 0,-0.63993 -1.08638,-1.34856 -2.06591,-1.34758 -1.09552,7.5e-4 -2.73235,0.84861 -2.73235,1.41475 0,0.54158 1.13559,1.49469 2.15651,1.80999 0.49997,0.1544 2.19858,0.27748 3.77467,0.27349 1.85218,-0.005 2.86563,0.093 2.86563,0.27638 0,0.156 -0.24543,0.71982 -0.54539,1.25292 -0.51964,0.92352 -0.65498,0.99066 -2.86564,1.42185 -1.27612,0.2489 -3.21991,0.76758 -4.3195,1.15264 -3.2681,1.14439 -3.0494,1.13271 -2.43976,0.13023 z M 61.305488,179.66015 c 0.479123,-0.0593 1.198862,-0.0581 1.599422,0.003 0.40056,0.0609 0.0085,0.10937 -0.871129,0.10787 -0.879677,-0.002 -1.20741,-0.0513 -0.728293,-0.11059 z m 14.260392,0.002 c 0.405199,-0.0612 1.004982,-0.0596 1.332851,0.004 0.32786,0.0633 -0.0038,0.11341 -0.736733,0.11141 -0.733069,-0.002 -1.001326,-0.0538 -0.596118,-0.11504 z m 11.729078,0 c 0.405201,-0.0612 1.004983,-0.0596 1.332851,0.004 0.327861,0.0633 -0.0038,0.11341 -0.736733,0.11141 -0.733069,-0.002 -1.001325,-0.0538 -0.596118,-0.11504 z m -3.78124,-6.62846 c 0.01277,-0.31054 0.07596,-0.37371 0.161047,-0.16105 0.07701,0.19243 0.06756,0.42234 -0.02108,0.51092 -0.08858,0.0885 -0.15158,-0.0689 -0.140003,-0.34987 z m -3.731981,-0.53314 c 0.01277,-0.31054 0.07596,-0.3737 0.161047,-0.16106 0.07701,0.19243 0.06755,0.42235 -0.02108,0.51093 -0.08858,0.0885 -0.15158,-0.0689 -0.140004,-0.34987 z M 57.38985,171.43386 c 0.01277,-0.31054 0.07596,-0.3737 0.161056,-0.16106 0.07701,0.19243 0.06756,0.42235 -0.02108,0.51093 -0.08858,0.0885 -0.15158,-0.0689 -0.140011,-0.34987 z m 7.442918,0.32142 c 0,-0.0554 0.209922,-0.26528 0.466497,-0.46649 0.422798,-0.33158 0.432221,-0.32215 0.10065,0.10064 -0.348241,0.44404 -0.567147,0.58525 -0.567147,0.36585 z m -7.709482,-3.78683 c 0.01277,-0.31054 0.07596,-0.37371 0.161048,-0.16106 0.07701,0.19243 0.06755,0.42235 -0.02108,0.51094 -0.08858,0.0885 -0.15158,-0.0689 -0.140003,-0.34988 z m -3.731981,-0.26657 c 0.01277,-0.31055 0.07596,-0.37371 0.161047,-0.16106 0.07701,0.19244 0.06755,0.42235 -0.02108,0.51094 -0.08858,0.0885 -0.15158,-0.0689 -0.140004,-0.34988 z m 29.855841,-1.59943 c 0.01277,-0.31054 0.07596,-0.3737 0.161048,-0.16105 0.07701,0.19244 0.06755,0.42236 -0.02108,0.51093 -0.08858,0.0885 -0.15158,-0.0689 -0.140003,-0.34988 z m -3.731981,-0.53313 c 0.01277,-0.31054 0.07596,-0.37371 0.161055,-0.16105 0.077,0.19243 0.06755,0.42234 -0.02108,0.51093 -0.08858,0.0885 -0.151587,-0.0689 -0.140011,-0.34988 z m -6.698999,-11.10709 c -0.183392,-0.76972 -1.028181,-3.45897 -1.877298,-5.97609 -2.158635,-6.39905 -2.486338,-8.11454 -1.997709,-10.45801 0.574741,-2.75648 1.182729,-3.68056 4.371125,-6.6437 l 2.918581,-2.7124 1.872697,1.73382 c 1.029987,0.95362 2.558274,2.68602 3.396201,3.8498 1.009275,1.40176 1.850149,2.27209 2.491272,2.57855 2.014536,0.96294 5.180731,0.71751 6.551605,-0.50786 0.399797,-0.35736 0.800229,-1.15927 1.013816,-2.03028 0.270107,-1.10147 0.566051,-1.60238 1.259955,-2.13256 0.771673,-0.58959 0.87821,-0.61671 0.714389,-0.18183 -0.105894,0.2811 -0.261343,1.18077 -0.345444,1.99927 -0.128171,1.24746 -0.0637,1.60069 0.398466,2.18377 0.788071,0.99418 2.550932,1.4173 5.050316,1.21215 3.166722,-0.25993 3.300102,-0.32392 3.071682,-1.47389 -0.60098,-3.02552 0.0874,-5.50036 2.14037,-7.69516 0.659,-0.70454 1.35132,-1.77161 1.53847,-2.3713 l 0.3403,-1.09033 2.01243,1.6485 c 1.10683,0.90668 2.97207,2.29972 4.14498,3.09563 3.24294,2.2006 4.53961,3.60101 4.90294,5.29517 0.55309,2.57893 -0.33234,4.40021 -2.55115,5.24758 -1.48376,0.56666 -4.31658,0.37478 -7.60775,-0.5153 l -2.3237,-0.62843 -1.94143,0.67809 c -1.63342,0.57054 -2.427752,0.67984 -5.006969,0.68903 -2.746048,0.01 -3.16831,-0.053 -4.051432,-0.60209 -0.542227,-0.33716 -1.059146,-0.84387 -1.148696,-1.12604 -0.147907,-0.466 -0.246404,-0.42942 -1.075007,0.39918 -2.009896,2.00989 -6.760982,2.01264 -8.340335,0.005 -0.56955,-0.72405 -0.673828,-0.67548 -0.939288,0.4376 -0.09207,0.38608 -0.516663,1.07583 -0.94352,1.53278 -0.630392,0.67485 -0.986181,0.83083 -1.895078,0.83083 -2.274852,0 -4.119092,-1.51185 -5.195852,-4.2594 -0.367766,-0.93842 -0.668666,-2.00773 -0.668666,-2.37621 0,-0.65345 -0.02705,-0.64398 -1.097305,0.38376 -0.603516,0.57956 -1.251152,1.41361 -1.439191,1.85344 -0.538524,1.25965 -0.414132,1.79554 3.093487,13.32674 0.435411,1.43142 0.220063,5.19988 -0.297152,5.19988 -0.113662,0 -0.356711,-0.62977 -0.54011,-1.3995 z m 7.495185,-15.93693 c 1.178529,-0.63073 0.119994,-2.58211 -2.948912,-5.43626 l -1.412653,-1.3138 -0.626963,0.72887 c -1.291133,1.50104 -0.610165,3.63518 1.729293,5.41954 1.19182,0.90903 2.301964,1.11397 3.259235,0.60165 z m 34.490749,-1.0997 c 0.77495,-0.35307 0.83917,-0.74015 0.29685,-1.7889 -0.37614,-0.72736 -2.52505,-2.69846 -3.93867,-3.61275 -0.72079,-0.46619 -0.72238,-0.46566 -0.87848,0.2895 -0.34144,1.65187 -0.74817,2.93527 -1.23062,3.88303 l -0.50595,0.99393 0.73558,0.1623 c 0.40456,0.0893 0.85552,0.20234 1.00214,0.25124 0.67752,0.22601 3.91183,0.0984 4.51915,-0.17835 z m -7.38742,-2.25097 c 1.74076,-1.01321 1.87735,-2.98689 0.32194,-4.65196 -0.69669,-0.74581 -0.91853,-0.83303 -1.76825,-0.69513 -1.13141,0.1836 -2.63558,1.49574 -3.1862,2.77945 -0.32283,0.75263 -0.31989,0.97276 0.0218,1.63358 0.54481,1.05356 1.97327,1.93973 2.81398,1.74572 0.36653,-0.0845 1.17505,-0.44984 1.7967,-0.81166 z m -19.005293,13.38326 -1.259253,-1.17273 0.557951,-0.78358 c 1.05276,-1.47847 1.166143,-1.48865 2.593267,-0.23285 l 1.309963,1.15272 -0.730976,1.10458 c -0.402041,0.60752 -0.839144,1.10459 -0.971342,1.10459 -0.132198,0 -0.807021,-0.52774 -1.49961,-1.17273 z m 68.056813,-0.009 c -0.6964,-0.64416 -1.26442,-1.27165 -1.26223,-1.39446 0.002,-0.12279 0.39203,-0.67071 0.86634,-1.21758 l 0.86239,-0.99431 1.42327,1.26644 1.42328,1.26644 -1.02342,1.12231 -1.02341,1.12232 z m -63.467977,-0.3134 -1.284172,-1.16263 0.54184,-0.76095 c 1.017443,-1.42888 1.131921,-1.43766 2.562339,-0.19674 l 1.320252,1.14535 -0.65829,0.96407 c -0.362066,0.53024 -0.779682,1.0112 -0.928042,1.06881 -0.148362,0.0575 -0.84763,-0.41845 -1.553927,-1.05791 z m 48.340137,0.51838 c -2.15042,-0.3863 -4.82097,-1.58665 -4.63105,-2.08156 0.10909,-0.28431 0.30745,-0.31526 0.80582,-0.12579 1.72291,0.65506 4.25907,0.0901 6.40949,-1.4277 1.19103,-0.84066 2.71944,-2.93195 3.23459,-4.4258 0.27785,-0.80572 0.23841,-1.03591 -0.35395,-2.06593 -0.36665,-0.63754 -0.96816,-1.68354 -1.33669,-2.32444 l -0.67005,-1.16528 0.64911,-1.40102 0.6491,-1.40103 0.79547,1.56667 c 0.88075,1.73463 1.92322,2.85199 3.06239,3.28241 0.96595,0.36495 4.57343,0.36527 6.27411,5.4e-4 0.72573,-0.15564 1.52814,-0.51353 1.78314,-0.7953 0.4416,-0.48796 0.4349,-0.59174 -0.14101,-2.18279 -0.33256,-0.91876 -0.88026,-2.2187 -1.21711,-2.88878 l -0.61244,-1.21829 0.82968,-1.27546 c 0.77824,-1.19641 0.85322,-1.24482 1.20961,-0.78099 0.61076,0.79492 1.54981,3.04482 1.91533,4.58911 0.60035,2.53637 -0.14962,5.41202 -1.73711,6.66074 -0.37953,0.29854 -1.34257,0.67826 -2.14007,0.84382 -1.55505,0.32284 -5.81268,0.253 -6.58133,-0.10794 -0.3879,-0.18214 -0.4665,-0.0877 -0.4665,0.5608 0,2.25676 -2.15955,6.05544 -4.19907,7.38626 -1.04503,0.6819 -2.40172,0.98069 -3.53146,0.77775 z m -12.93855,-14.57022 c -0.005,-3.69134 -0.16438,-8.60802 -0.35315,-10.92593 l -0.34324,-4.21441 1.01958,-1.15853 c 0.56075,-0.63719 1.09799,-1.16983 1.19384,-1.18363 0.3439,-0.0496 0.61287,5.84584 0.61909,13.56995 0.006,7.66328 -0.009,7.88806 -0.58484,8.81437 -0.32514,0.52279 -0.80497,1.14384 -1.06628,1.38012 -0.45453,0.41098 -0.47553,0.13895 -0.485,-6.28194 z"
         id="path49" /><path
         style="display:inline;fill:#000000;stroke-width:0.755632"
         d="m 40.323746,191.82422 c -0.651286,-0.12732 -1.610938,-0.57962 -2.132559,-1.0051 -0.792279,-0.64627 -0.936242,-0.92139 -0.874454,-1.67123 0.160723,-1.95063 0.28278,-2.16991 1.070564,-1.92322 0.396805,0.12425 1.62114,0.22591 2.720742,0.22591 2.353081,0 3.186808,-0.45235 4.506903,-2.44533 1.357032,-2.04874 1.015584,-4.44655 -1.382178,-9.70626 l -0.921749,-2.02194 1.630857,-0.71045 c 0.896964,-0.39073 1.766024,-0.71041 1.931235,-0.71039 0.768651,8e-5 2.744718,6.17221 2.954103,9.22699 0.254595,3.71434 -0.826139,6.71169 -3.109204,8.62318 -2.308916,1.93314 -4.175892,2.55149 -6.39426,2.11784 z m 133.155924,-4.85946 c -0.44171,-0.32298 -0.45742,-0.54094 -0.18748,-2.59906 1.11828,-8.52593 1.13094,-33.36732 0.0274,-53.82782 -0.63436,-11.76198 -2.42398,-36.60349 -2.79655,-38.818578 -0.18942,-1.126231 1.10307,-2.809575 6.179,-8.047499 3.48405,-3.595257 4.00821,-4.039939 4.39894,-3.731981 0.54551,0.429955 1.12233,6.963545 1.94884,22.075068 0.78608,14.37217 1.33214,48.01696 0.94988,58.52652 -0.44463,12.22451 -0.92207,14.8055 -3.48962,18.86422 -1.54101,2.436 -5.85546,7.87255 -6.26606,7.89573 -0.15524,0.009 -0.49922,-0.1427 -0.76439,-0.3366 z M 57.932734,184.2673 c -1.521661,-0.49518 -2.835417,-1.79231 -3.365432,-3.32286 -0.455653,-1.3158 -0.777401,-5.47286 -1.079949,-13.9531 l -0.187834,-5.26475 h 0.664593 c 0.365521,0 1.202119,-0.0737 1.859103,-0.16374 l 1.194517,-0.16373 0.186203,4.76207 c 0.102418,2.61913 0.281911,6.29681 0.398875,8.17262 0.242905,3.89555 0.560323,4.60688 2.323877,5.2077 0.991365,0.33775 3.911813,0.32868 4.253699,-0.0132 0.08721,-0.0872 -0.05562,-0.55956 -0.317365,-1.04967 -0.669845,-1.25425 -0.618152,-3.76635 0.106484,-5.17444 0.659915,-1.28233 2.426272,-2.94798 3.683129,-3.47313 1.060415,-0.44307 2.202326,-0.47832 3.20056,-0.0988 1.015765,0.3862 2.699395,2.14116 3.197273,3.33275 0.602269,1.44145 0.56133,4.13292 -0.08267,5.43455 l -0.521325,1.0537 1.677268,0.17963 c 2.418701,0.25901 3.817941,-0.23351 4.472727,-1.5744 0.479137,-0.98119 0.488039,-1.37769 0.193865,-8.63524 -0.169587,-4.18377 -0.275617,-7.63478 -0.235629,-7.66894 0.03997,-0.0342 0.882411,-0.14638 1.872054,-0.24941 l 1.799348,-0.18733 v 1.23109 c 0,0.6771 0.12817,4.19538 0.284827,7.81839 0.258562,5.97976 0.338924,6.68564 0.871365,7.65357 0.784814,1.42672 1.988874,1.83241 4.731243,1.59412 2.781744,-0.24173 2.831524,-0.28609 2.436194,-2.17083 -0.177619,-0.8468 -0.739779,-2.41739 -1.249256,-3.49019 l -0.926314,-1.95056 0.72459,-0.28386 c 2.733173,-1.07074 2.690918,-1.06685 3.093934,-0.28423 0.20421,0.39656 0.714306,1.68067 1.133538,2.85358 0.6685,1.87029 0.762237,2.50448 0.762237,5.15674 0,3.00318 -0.0049,3.02837 -0.757333,3.62806 -1.133999,0.90422 -2.412135,1.22799 -5.510171,1.39582 -2.517892,0.13641 -2.944318,0.0906 -4.204273,-0.4514 -0.850086,-0.3657 -1.57568,-0.89693 -1.84285,-1.34921 l -0.440676,-0.74601 -1.163015,1.02373 c -0.761986,0.67072 -1.633714,1.13664 -2.528041,1.35119 -1.892215,0.45393 -5.553061,0.17724 -7.837834,-0.59241 l -1.83966,-0.6197 -1.865995,0.63948 c -2.350641,0.80558 -7.313667,1.0451 -9.165878,0.44235 z m 12.51851,-6.25944 c 1.111744,-1.11175 1.098249,-2.67475 -0.03287,-3.80587 -0.701656,-0.70165 -0.946322,-0.79071 -1.799347,-0.65492 -2.571241,0.4093 -2.930498,3.47204 -0.555699,4.73741 1.227599,0.65411 1.487264,0.62402 2.387916,-0.27662 z m -27.391598,-9.93392 c -1.700776,-0.82225 -1.259464,-4.02924 0.580809,-4.22072 1.77426,-0.18461 2.585725,0.54443 2.585725,2.32314 0,1.68971 -1.605929,2.65207 -3.166534,1.89758 z m 42.761823,-0.81603 c -0.994403,-0.75513 -1.12506,-2.69745 -0.234857,-3.49133 0.791637,-0.70598 2.21675,-0.66158 2.970885,0.0925 1.215797,1.21578 0.248604,3.73198 -1.434528,3.73198 -0.474484,0 -1.060159,-0.14995 -1.3015,-0.33321 z m 5.13256,-0.14844 c -1.192229,-0.9654 -0.575867,-3.60859 0.89679,-3.84583 2.069947,-0.33342 3.339392,1.94615 2.01873,3.62511 -0.66655,0.84738 -2.015511,0.94951 -2.91552,0.22072 z M 67.57042,166.04896 c -0.846956,-0.13242 -1.671373,-1.30202 -1.671373,-2.37117 0,-2.30117 3.116784,-3.11441 4.16529,-1.08681 0.973329,1.88221 -0.399298,3.78547 -2.493917,3.45798 z"
         id="path48" /></g></g></svg>
