<?xml version="1.0" encoding="UTF-8" standalone="no"?>
<!-- Created with Inkscape (http://www.inkscape.org/) -->

<svg
   width="1023.9999"
   height="1023.9999"
   viewBox="0 0 270.93333 270.93333"
   version="1.1"
   id="svg1"
   xml:space="preserve"
   inkscape:export-filename="ibrahimlive_ru.png"
   inkscape:export-xdpi="96"
   inkscape:export-ydpi="96"
   xmlns:inkscape="http://www.inkscape.org/namespaces/inkscape"
   xmlns:sodipodi="http://sodipodi.sourceforge.net/DTD/sodipodi-0.dtd"
   xmlns="http://www.w3.org/2000/svg"
   xmlns:svg="http://www.w3.org/2000/svg"><sodipodi:namedview
     id="namedview1"
     pagecolor="#ffffff"
     bordercolor="#ffffff"
     borderopacity="1"
     inkscape:showpageshadow="0"
     inkscape:pageopacity="0"
     inkscape:pagecheckerboard="false"
     inkscape:deskcolor="#505050"
     inkscape:document-units="mm"
     inkscape:zoom="0.38130453"
     inkscape:cx="784.15015"
     inkscape:cy="792.01787"
     inkscape:window-width="1920"
     inkscape:window-height="1043"
     inkscape:window-x="0"
     inkscape:window-y="0"
     inkscape:window-maximized="1"
     inkscape:current-layer="layer1"><inkscape:page
       x="0"
       y="0"
       width="270.93332"
       height="270.93332"
       id="page2"
       margin="0"
       bleed="0" /></sodipodi:namedview><defs
     id="defs1" /><g
     inkscape:label="Слой 1"
     inkscape:groupmode="layer"
     id="layer1"><g
       id="g16"
       transform="translate(-1.7733802,2.9910398)"><path
         style="display:inline;fill:#fbc100;stroke-width:0.768308"
         d="m 95.295435,213.2452 c -0.44722,-0.0609 -1.91084,-0.24578 -3.2525,-0.41074 -9.44667,-1.16145 -20.42004,-5.03295 -27.6581,-9.75801 -1.12077,-0.73164 -2.10843,-1.33027 -2.1948,-1.33027 -0.16012,0 -3.91625,-2.66912 -4.16287,-2.95815 -0.0745,-0.0873 -1.29423,-1.12222 -2.71042,-2.2997 -1.4162,-1.17749 -2.80126,-2.39717 -3.07791,-2.71042 -0.27666,-0.31326 -1.55733,-1.66918 -2.84595,-3.01318 -2.27216,-2.36982 -5.0468,-5.96377 -7.69854,-9.97181 -1.66179,-2.51176 -5.28162,-9.85102 -6.57628,-13.33355 -2.83729,-7.63202 -4.45335,-18.09659 -4.09604,-26.52317 0.76439,-18.0266 7.81198,-34.18418 20.35129,-46.658164 2.09796,-2.087024 4.71268,-4.513226 5.8105,-5.391563 2.04014,-1.63227 6.09413,-4.501471 6.36026,-4.501471 0.0813,0 0.67227,-0.350686 1.31331,-0.779302 2.0182,-1.349441 8.10218,-4.325175 10.92303,-5.342561 9.43633,-3.403366 15.89889,-4.572734 25.206895,-4.561062 8.30088,0.01041 13.9395,0.929991 21.9544,3.580463 4.85175,1.604435 7.9985,2.974489 11.65481,5.074337 1.49073,0.856133 2.95436,1.693197 3.2525,1.860127 1.18871,0.66557 5.48505,3.744088 6.50501,4.661125 0.59629,0.536125 1.70296,1.45045 2.45926,2.031821 2.17921,1.675196 10.1442,10.37198 10.1442,11.07622 0,0.10196 0.2185,0.42183 0.48555,0.71081 3.14763,3.4061 8.28044,13.80909 10.48969,21.26015 l 0.60273,2.03281 42.52425,0.13553 42.52424,0.13552 2.4024,0.87156 c 2.89398,1.0499 4.80744,2.43474 6.52962,4.72576 2.73896,3.64362 3.26072,5.43694 3.26072,11.20728 0,5.89314 -0.73551,8.25635 -3.66529,11.77685 -1.66803,2.00435 -3.51473,3.27298 -6.22359,4.27546 l -2.03281,0.75229 -42.48584,0.0735 c -37.879,0.0655 -42.48583,0.0288 -42.48583,-0.3388 0,-0.33669 -0.2107,0.40083 -0.2107,0.40083 l -0.1888,1.01641 c -0.366,1.97034 -2.35331,7.48799 -4.11031,11.41204 -3.12068,6.96962 -7.1029,12.89926 -12.6607,18.85208 -5.36374,5.74497 -11.53798,10.43164 -18.90765,14.35221 -6.02124,3.20322 -14.71128,5.97515 -22.29894,7.11287 -2.58588,0.38775 -13.410595,0.73921 -15.210785,0.49388 z"
         id="path15"
         sodipodi:nodetypes="ssssssssssssssssssssssssscccssssscsscsssssss" /><path
         style="display:inline;fill:#4f358c;stroke-width:0.768308"
         d="m 10.051195,174.99448 c -1.2962601,-4.03539 -1.5435001,-5.59659 -1.0994201,-6.94217 0.42903,-1.29997 1.8650401,-2.50969 3.5857101,-3.02069 2.19285,-0.6512 3.38328,-0.55478 4.28515,0.34709 l 0.76529,0.76528 0.15919,-0.99555 c 0.30737,-1.92219 1.34862,-2.67048 5.31477,-3.81947 4.26891,-1.23669 4.79407,-0.70206 7.44845,7.58272 0.5425,1.69322 0.94875,3.11479 0.90277,3.15904 -0.0819,0.0788 -14.22702,4.57529 -17.43026,5.54072 -0.89445,0.26958 -1.89421,0.57168 -2.22172,0.67134 -0.55682,0.16942 -0.6678,-0.044 -1.70993,-3.28831 z m 5.87357,-3.7262 c 1.59744,-0.47506 1.65818,-0.52479 1.38184,-1.13129 -0.15898,-0.34891 -0.50742,-0.70369 -0.7743,-0.7884 -0.72496,-0.2301 -3.60766,0.99594 -3.72061,1.58241 -0.16701,0.8672 0.1359,1.25071 0.81647,1.03369 0.34414,-0.10973 1.37762,-0.42312 2.2966,-0.69641 z m 7.87155,-2.39704 2.76639,-0.88105 -0.34058,-0.67197 c -0.28118,-0.55475 -0.52735,-0.6665 -1.41118,-0.64054 -0.58883,0.0173 -1.77192,0.30047 -2.62908,0.62931 -1.47795,0.56699 -1.5585,0.64591 -1.5585,1.52706 0,0.51105 0.0915,0.92672 0.20329,0.9237 0.1118,-0.003 1.44815,-0.40193 2.96966,-0.88651 z m -11.71077,-9.18182 c -2.3713101,-1.31153 -3.6294101,-4.63862 -2.8489301,-7.5341 0.41514,-1.54007 1.9563601,-3.11724 3.4008401,-3.48014 2.75605,-0.69241 2.45588,-0.8814 2.79698,1.76099 0.16675,1.29181 0.25385,2.39808 0.19355,2.45838 -0.0603,0.0603 -0.63808,0.17694 -1.28396,0.25919 -0.64587,0.0822 -1.38776,0.25923 -1.64864,0.39331 -0.56083,0.28823 -0.63102,1.19074 -0.1082,1.39136 0.3949,0.15154 10.04387,-1.01448 10.79341,-1.30431 0.64077,-0.24778 0.80447,-0.84848 0.33695,-1.2365 -0.27122,-0.22508 -0.98781,-0.28008 -2.2597,-0.17346 l -1.86253,0.15615 -0.16358,-1.20156 c -0.09,-0.66087 -0.23841,-1.75043 -0.32987,-2.42126 l -0.1663,-1.21969 h 2.07229 c 2.33507,0 3.4756,0.38313 4.5515,1.52896 1.4479,1.54197 2.0556,5.20672 1.19739,7.22085 -0.85106,1.99736 -2.31309,2.61109 -7.88706,3.31083 -3.80796,0.47804 -6.03044,0.50785 -6.78414,0.091 z m 3.78931,-14.33009 c -5.57719,-0.37615 -7.1837801,-1.75334 -7.1713801,-6.14738 0.006,-2.23238 0.53051,-3.86764 1.5142601,-4.72368 0.95328,-0.82953 3.00815,-1.31571 5.56092,-1.31571 h 2.45447 l -0.19542,3.53341 -0.19542,3.53342 2.81351,-0.0776 c 2.63247,-0.0726 2.8188,-0.11465 2.89561,-0.65298 0.10076,-0.70625 -0.3453,-0.89708 -2.5859,-1.10631 l -1.69735,-0.1585 0.002,-0.97722 c 0.002,-0.53746 0.0793,-1.61755 0.17328,-2.40017 0.16765,-1.39572 0.18811,-1.42297 1.06847,-1.42297 3.37178,0 5.50687,1.46916 6.0688,4.17594 0.53705,2.58696 -0.24182,5.37107 -1.89074,6.75856 -1.51481,1.27461 -2.62803,1.39853 -8.81547,0.98122 z m -0.83684,-5.83946 c 0.41666,-1.08581 0.22875,-1.22645 -1.52678,-1.14269 -1.40387,0.067 -1.7078,0.1673 -1.78844,0.5903 -0.13265,0.69581 0.4024,0.97206 1.89224,0.97697 0.90024,0.003 1.30528,-0.11788 1.42298,-0.42458 z m 9.96937,-6.69372 c -0.96715,-0.23208 -1.1483,-0.37328 -1.03495,-0.80672 0.32668,-1.24922 -0.0813,-1.423 -7.68574,-3.27344 -2.16156,-0.52599 -4.41798,-1.06221 -5.01428,-1.19159 -0.94694,-0.20548 -1.07228,-0.31937 -0.99027,-0.89985 0.12593,-0.89127 2.77059,-11.20545 2.90918,-11.34582 0.0993,-0.10051 11.22807,2.62941 15.17258,3.72186 l 1.64052,0.45434 -0.65761,2.47139 -0.6576,2.47138 -4.64277,-1.18425 c -2.55352,-0.65133 -5.54711,-1.37226 -6.65243,-1.60207 -2.16705,-0.45054 -2.44967,-0.35161 -2.45838,0.86049 -0.004,0.52452 0.46589,0.69478 5.11409,1.85395 5.45778,1.36107 6.65231,1.87479 7.10887,3.05721 0.28039,0.72619 -0.0545,4.87 -0.44464,5.50121 -0.17955,0.29051 -0.11483,0.29385 -1.70657,-0.0881 z m -0.0473,-17.03258 c -5.56352,-2.23701 -7.54236,-3.4766 -8.40954,-5.26798 -0.4668,-0.96426 -0.56557,-1.51811 -0.43746,-2.45281 0.53532,-3.90561 3.45153,-6.7097 6.47515,-6.22621 0.99239,0.15869 2.85837,0.82028 4.47561,1.58686 0.73401,0.34791 0.71307,0.4442 -0.87669,4.02911 l -1.15912,2.61386 2.40774,1.14421 c 1.97023,0.9363 2.48119,1.08326 2.81197,0.80874 0.97301,-0.80753 -0.15896,-2.20346 -2.12621,-2.62202 -0.42277,-0.09 -0.83268,-0.33039 -0.91094,-0.5343 -0.18212,-0.47459 1.54689,-4.43343 1.93186,-4.42331 0.1594,0.004 1.01714,0.4006 1.90609,0.88089 2.55342,1.37961 3.39253,3.34274 2.66098,6.22536 -0.56509,2.2267 -1.23412,3.27508 -2.71668,4.25708 -1.66145,1.1005 -3.26017,1.09534 -6.03276,-0.0195 z m -1.9069,-8.16533 c 0.0155,-0.3259 -2.35426,-1.34313 -2.88904,-1.24014 -0.97805,0.18835 -0.54583,1.13836 0.86446,1.90003 l 1.35383,0.7312 0.33057,-0.5946 c 0.18182,-0.32703 0.3349,-0.68544 0.34018,-0.79649 z m 143.928675,0.6495 c -1.82916,-0.9704 -3.79938,-4.29768 -3.78441,-6.39105 0.0131,-1.82495 1.81121,-4.191189 3.78414,-4.979627 0.22114,-0.08838 1.66378,-0.925765 3.20588,-1.860865 2.95002,-1.788836 4.01979,-2.144939 5.74748,-1.91321 1.45308,0.194897 2.58784,1.079565 3.80974,2.970071 2.44326,3.780203 1.49231,6.503771 -3.21024,9.194291 -1.19867,0.68582 -1.52091,0.77375 -1.7179,0.46878 -0.13335,-0.20646 -0.92971,-1.50359 -1.76969,-2.88252 -0.83996,-1.37892 -1.57368,-2.50713 -1.63045,-2.50713 -0.0568,0 -1.0827,0.62984 -2.2798,1.39965 -1.71352,1.10188 -2.15939,1.51994 -2.09579,1.96505 0.11762,0.82323 1.16783,0.86074 2.34209,0.0837 1.93383,-1.27975 2.02154,-1.25398 3.38698,0.99508 1.36976,2.25618 1.40202,2.12961 -0.82828,3.24912 -1.70827,0.85747 -3.58779,0.93656 -4.95975,0.20871 z m 9.62621,-9.152122 c 0.76025,-0.491118 0.89906,-1.391594 0.25276,-1.639604 -0.44182,-0.169543 -1.16333,0.137819 -2.23607,0.952567 -0.56186,0.426734 -0.59289,0.554304 -0.29436,1.209525 0.36665,0.804714 0.1442,0.855744 2.27767,-0.522488 z M 33.984165,104.5726 c -1.07422,-0.81714 -2.01795,-1.48569 -2.0972,-1.48569 -0.0792,0 -2.07123,-1.37216 -4.42666,-3.04923 -2.35542,-1.677074 -4.60538,-3.218027 -4.99992,-3.424341 l -0.71734,-0.375111 1.44493,-2.054909 c 0.79471,-1.130197 1.56007,-2.093286 1.7008,-2.140199 0.14074,-0.04694 1.22059,0.627585 2.39969,1.498877 1.17909,0.871292 2.28439,1.66762 2.45621,1.769621 0.18275,0.108492 0.53956,-0.173331 0.85982,-0.679154 l 0.54743,-0.864608 -1.94399,-1.357815 c -1.0692,-0.746795 -2.00498,-1.433701 -2.07951,-1.526451 -0.0745,-0.09275 -0.34886,-0.247349 -0.60961,-0.343557 -0.41288,-0.152332 -0.29567,-0.455937 0.90801,-2.351845 0.76016,-1.197315 1.46804,-2.176931 1.57309,-2.176931 0.17745,0 2.75877,1.759948 4.34724,2.963955 0.38105,0.288838 1.99239,1.417175 3.58073,2.507427 4.98463,3.421491 6.19201,4.300274 6.19201,4.506803 0,0.11026 -0.45738,0.811402 -1.01641,1.558098 -0.55902,0.746684 -1.21657,1.658181 -1.46121,2.025517 l -0.44481,0.667903 -0.63936,-0.57198 c -0.83178,-0.744129 -4.30006,-3.087088 -4.56981,-3.087088 -0.20024,0 -1.08383,1.19674 -1.08383,1.467948 0,0.07253 1.15871,0.939672 2.5749,1.927048 1.4162,0.987382 2.5749,1.857442 2.5749,1.933472 0,0.20743 -2.82477,4.12911 -2.98146,4.1392 -0.0745,0.005 -1.01442,-0.65983 -2.08864,-1.47696 z M 159.7882,97.392196 c -0.6943,-0.343511 -2.10652,-1.735447 -4.02951,-3.971607 l -2.96058,-3.442735 1.08931,-0.966892 c 0.59913,-0.531792 1.93139,-1.717345 2.96058,-2.634559 1.0292,-0.917222 2.88892,-2.563798 4.13272,-3.659067 1.24379,-1.095269 2.8443,-2.507319 3.55667,-3.137893 l 1.29523,-1.146492 1.66088,1.868786 c 0.91349,1.027835 1.65992,1.970649 1.65873,2.095145 -0.002,0.124489 -0.96717,1.013929 -2.14663,1.976534 l -2.14446,1.750183 0.85918,1.043362 c 3.10106,3.765877 3.10039,4.950024 -0.005,7.787624 -3.01144,2.752279 -4.25671,3.26436 -5.92772,2.437611 z m 2.02372,-5.966404 c 1.41414,-1.117819 1.64633,-1.693581 1.0254,-2.542746 -0.32702,-0.447217 -0.49438,-0.36311 -2.18472,1.097912 l -1.83057,1.582239 0.58849,0.476535 c 0.32367,0.262093 0.686,0.476528 0.80517,0.476528 0.11917,0 0.83747,-0.490711 1.59623,-1.090468 z M 42.405625,92.379255 c -0.87147,-0.434279 -2.44785,-1.777826 -4.37267,-3.726832 -4.16897,-4.221353 -4.25568,-4.346833 -4.25162,-6.152349 0.005,-1.901731 0.80534,-3.389045 2.53635,-4.709129 2.80439,-2.138662 4.96656,-2.08906 7.61851,0.174767 l 0.8942,0.763322 -1.72712,1.742607 -1.72713,1.742607 -1.10345,-1.082961 c -1.26331,-1.239849 -2.30263,-1.44793 -2.30263,-0.461015 0,0.440632 1.13868,1.750904 3.906,4.49464 3.52691,3.496846 3.96093,3.843284 4.47219,3.569674 0.8554,-0.457804 0.69467,-1.002703 -0.73911,-2.505729 l -1.30531,-1.368349 1.59322,-1.660721 1.59323,-1.660728 1.33077,1.43364 c 2.00315,2.158015 2.28878,3.884281 1.04823,6.335398 -0.87475,1.728355 -3.82264,3.75025 -5.4678,3.75025 -0.34821,0 -1.24634,-0.305595 -1.99586,-0.679092 z m 105.411065,-6.394343 -1.9582,-1.626147 4.38944,-5.435372 4.38945,-5.435377 -0.66947,-0.495211 c -1.91703,-1.418026 -1.84422,-1.126765 -0.66745,-2.669836 0.58191,-0.763048 1.10649,-1.38736 1.16574,-1.38736 0.0592,0 0.93298,0.701321 1.94163,1.558491 1.00863,0.857171 2.75194,2.266696 3.87403,3.132279 3.20676,2.47372 3.15494,2.372257 1.95779,3.833218 -0.55593,0.678439 -1.10128,1.233526 -1.2119,1.233526 -0.11062,0 -0.66561,-0.369134 -1.23332,-0.820292 -0.56771,-0.451158 -1.12143,-0.78657 -1.23049,-0.745366 -0.20765,0.07846 -5.19831,6.154723 -7.29832,8.885905 -0.67083,0.872452 -1.28067,1.588845 -1.35521,1.59198 -0.0745,0.0031 -1.01671,-0.726066 -2.09372,-1.620438 z M 52.199775,84.049044 c -0.59629,-0.92754 -2.27337,-3.361055 -3.72683,-5.407812 -1.45346,-2.046758 -2.64265,-3.792372 -2.64265,-3.879135 0,-0.08676 -0.48853,-0.819047 -1.08562,-1.627294 l -1.08561,-1.46954 1.42442,-1.047529 c 0.78342,-0.576141 1.73379,-1.24827 2.11193,-1.493621 l 0.68753,-0.446091 1.88737,2.695901 c 1.03806,1.482745 1.98146,2.699407 2.09647,2.703692 0.115,0.0043 0.33996,-0.279426 0.4999,-0.63047 0.3204,-0.703193 -0.0715,-1.650209 -1.64231,-3.969452 -1.21675,-1.796382 -1.11748,-2.108951 1.13807,-3.583474 1.82717,-1.194472 1.97067,-1.243775 2.15668,-0.74095 0.10959,0.296267 0.69142,1.263388 1.29292,2.149159 0.60152,0.88577 1.20841,1.91228 1.34865,2.281132 0.3443,0.905566 -0.0546,2.191012 -1.07299,3.45835 l -0.82172,1.022514 1.12259,-0.396072 c 1.32312,-0.466824 2.50848,-0.507307 3.24906,-0.110963 0.293,0.15681 1.21752,1.224038 2.05448,2.371615 0.83697,1.147584 1.75137,2.272586 2.032,2.500006 0.4825,0.391015 0.39815,0.491417 -1.55146,1.846797 -2.00321,1.392635 -2.08065,1.42087 -2.73016,0.995297 -0.36766,-0.240896 -0.77653,-0.706052 -0.90859,-1.033666 -0.13207,-0.327622 -0.79923,-1.296989 -1.4826,-2.154159 -1.00386,-1.259196 -1.3948,-1.558498 -2.03564,-1.558498 -1.10359,0 -1.17422,0.287708 -0.33291,1.356064 0.40009,0.508067 1.3679,1.843931 2.15069,2.968588 l 1.42325,2.044837 -0.87093,0.745366 c -0.47901,0.409954 -0.97515,0.745366 -1.10253,0.745366 -0.12738,0 -0.63138,0.304919 -1.11999,0.677602 -0.48861,0.372683 -0.99884,0.676541 -1.13385,0.675235 -0.135,-0.0015 -0.73332,-0.761263 -1.32962,-1.688795 z m 85.633325,-4.69861 c -2.15564,-1.297073 -2.46176,-1.604381 -2.99866,-3.010239 -0.3791,-0.992631 -0.40778,-1.425134 -0.16442,-2.479395 0.3697,-1.601646 4.41308,-8.875487 5.48009,-9.858402 2.04282,-1.881835 5.23934,-1.518659 8.00483,0.909479 1.29453,1.136612 1.75668,2.10645 1.74952,3.671469 -0.006,1.294951 -0.74417,3.366318 -1.32847,3.727433 -0.30669,0.189549 -1.81348,-0.448183 -3.48161,-1.473555 l -0.88592,-0.544559 0.68264,-1.347123 c 0.7339,-1.448288 0.86076,-2.307232 0.38426,-2.601729 -0.16411,-0.101425 -0.50927,0.04384 -0.76701,0.322807 -0.48453,0.52443 -4.60282,7.536142 -5.183,8.824472 -0.40777,0.905489 -0.1754,1.575777 0.5463,1.575777 0.54884,0 1.99473,-1.704307 2.32279,-2.737924 0.0898,-0.283019 0.29926,-0.51458 0.4654,-0.51458 0.51698,0 3.71729,2.015651 3.72229,2.344402 0.009,0.582777 -2.16077,3.196515 -3.0449,3.668171 -0.51992,0.277367 -1.49745,0.474361 -2.38715,0.481076 -1.25846,0.0095 -1.77198,-0.148275 -3.11698,-0.95758 z M 64.959105,76.74759 c -1.03936,-0.603214 -1.83405,-1.7778 -3.5433,-5.237082 -2.80046,-5.667742 -3.058,-6.827891 -2.00058,-9.012217 1.3505,-2.789771 6.20912,-4.271882 8.94846,-2.72971 1.23938,0.697735 1.45823,1.051023 3.63932,5.87476 2.01281,4.451597 2.27952,5.734559 1.53976,7.406897 -0.96333,2.177785 -4.10996,4.026434 -6.82276,4.008387 -0.68155,-0.0046 -1.47395,-0.144496 -1.7609,-0.311035 z m 4.35888,-3.624002 c 0.0886,-0.230855 -0.24085,-1.298083 -0.73209,-2.371618 -2.74796,-6.005358 -3.80631,-8.076411 -4.20545,-8.229578 -0.55795,-0.214105 -0.97417,0.406474 -0.75648,1.127898 0.32704,1.083796 3.71116,8.422132 4.2185,9.147667 0.57759,0.825975 1.2284,0.969603 1.47552,0.325631 z M 129.0837,74.89542 c -1.09411,-0.422471 -2.04924,-0.82809 -2.12253,-0.901378 -0.0733,-0.07329 0.003,-0.387633 0.16929,-0.698548 0.35163,-0.657031 0.0984,-0.715586 -0.64923,-0.150114 -0.67548,0.51091 -1.54072,0.504247 -2.79914,-0.02156 -1.66553,-0.6959 -2.23109,-1.402808 -2.23109,-2.788668 0,-1.719229 0.77914,-3.980334 1.76424,-5.119933 0.84003,-0.971769 0.84043,-0.971891 3.80396,-1.183413 3.30569,-0.235944 3.62319,-0.417908 4.22313,-2.420321 0.38873,-1.297474 0.16388,-1.957754 -0.62747,-1.842557 -0.44734,0.06512 -0.74996,0.484893 -1.21283,1.682367 -0.33922,0.877579 -0.66466,1.643495 -0.7232,1.702036 -0.12376,0.12376 -4.00527,-1.254419 -4.32838,-1.536846 -0.30198,-0.263955 0.94413,-2.960049 1.7761,-3.842797 0.84275,-0.894184 2.63805,-1.408889 4.13253,-1.184778 1.68675,0.252943 4.23147,1.564952 5.2208,2.691746 1.28135,1.459372 1.19371,2.503723 -0.64407,7.67483 -0.83737,2.356187 -1.86119,5.259728 -2.27514,6.452312 -0.41394,1.192585 -0.91802,2.188006 -1.12016,2.212046 -0.20213,0.02405 -1.2627,-0.301953 -2.35681,-0.724428 z m -1.44619,-3.869821 c 0.49922,-0.601526 1.94546,-4.80041 1.65343,-4.80041 -0.15272,0 -0.61995,0.176992 -1.03828,0.393316 -1.26813,0.655779 -2.49768,4.208338 -1.5841,4.576976 0.54471,0.219798 0.66272,0.19911 0.96895,-0.169882 z m -49.745655,0.629997 c -1.36817,-0.834218 -2.1493,-2.312291 -3.22794,-6.108012 -1.33049,-4.681956 -1.42538,-7.41035 -0.30871,-8.875768 1.74034,-2.283854 6.16266,-3.269933 8.40695,-1.874563 1.24728,0.775484 2.13598,2.259754 2.92486,4.885013 0.4381,1.457926 0.51501,2.047094 0.28572,2.188803 -0.17256,0.106647 -1.66212,0.539306 -3.31013,0.961465 l -2.99639,0.767562 0.17532,0.934544 c 0.0964,0.513999 0.41622,1.714489 0.71066,2.667756 0.46272,1.49811 0.62329,1.733213 1.18378,1.733213 0.91154,0 1.06848,-0.767553 0.56154,-2.746325 -0.23548,-0.919159 -0.39373,-1.705607 -0.35168,-1.747661 0.1221,-0.122101 4.09246,-1.197896 4.42099,-1.197896 0.32944,0 0.93289,2.298265 0.93289,3.552929 0,1.081482 -0.6871,2.654966 -1.55507,3.561142 -1.6197,1.691006 -6.01624,2.417603 -7.85279,1.297798 z m 2.3052,-11.082211 c 0.4951,-0.314082 -0.43872,-3.120625 -1.07808,-3.24008 -0.76708,-0.143322 -1.00878,0.756794 -0.58635,2.183595 0.38197,1.29007 0.83896,1.580144 1.66443,1.056485 z m 36.001955,10.38031 c -1.02518,-0.203694 -1.89939,-0.405775 -1.94268,-0.449067 -0.0433,-0.04329 0.0303,-0.688463 0.16346,-1.433711 0.1332,-0.745248 0.31289,-1.758199 0.39931,-2.251002 l 0.15712,-0.896004 -0.96716,0.181443 c -0.53196,0.09979 -1.65723,0.09523 -2.50062,-0.01015 -1.91988,-0.239873 -3.06746,-1.228991 -3.06746,-2.643898 0,-0.832171 1.4995,-10.230652 1.74549,-10.940272 0.073,-0.210488 0.82415,-0.174391 2.56685,0.123349 1.88439,0.321946 2.46372,0.521396 2.46372,0.848214 0,0.23501 -0.35904,2.474341 -0.79787,4.97629 -0.43883,2.50195 -0.73432,4.714601 -0.65665,4.917003 0.22216,0.578935 0.85769,0.696974 1.31115,0.24352 0.22793,-0.227923 0.41584,-0.497171 0.41759,-0.598328 0.002,-0.101157 0.36766,-2.253542 0.81312,-4.783079 0.44548,-2.529536 0.80995,-4.6335 0.80995,-4.675474 0,-0.230958 4.70546,0.340127 5.09781,0.618703 0.046,0.03262 -0.46579,3.213241 -1.13718,7.068041 -0.67139,3.8548 -1.30239,7.710049 -1.40221,8.567219 -0.20942,1.798174 -0.18588,1.790469 -3.47374,1.1372 z M 99.361085,69.614012 c -0.14908,-0.05056 -0.73104,-0.168915 -1.29325,-0.263013 -0.56221,-0.0941 -1.43016,-0.529276 -1.92877,-0.967064 -1.39069,-1.221039 -1.65674,-2.568813 -1.65674,-8.392712 0,-5.782336 0.14527,-6.282388 2.16974,-7.468807 2.9869,-1.750441 7.584465,-0.827039 8.865015,1.780502 0.25526,0.519789 0.54649,1.646391 0.64716,2.503562 l 0.18304,1.558491 h -2.47669 -2.4767 v -1.202044 c 0,-2.263664 -0.92015,-3.369826 -1.657325,-1.992378 -0.33957,0.634479 -0.17914,9.920405 0.18791,10.876923 0.110735,0.288565 0.404455,0.444947 0.742525,0.395329 0.67947,-0.09972 1.08529,-1.431782 0.95092,-3.121259 l -0.0924,-1.161983 h 2.37356 2.37358 l -0.002,1.28745 c -0.004,3.141735 -1.63887,5.431885 -4.28074,5.995373 -1.42494,0.303927 -2.107815,0.348503 -2.629305,0.17163 z"
         id="path12" /><text
         xml:space="preserve"
         style="font-style:normal;font-variant:normal;font-weight:bold;font-stretch:normal;font-size:35.2778px;font-family:Caladea;-inkscape-font-specification:'Caladea, Bold';font-variant-ligatures:normal;font-variant-caps:normal;font-variant-numeric:normal;font-variant-east-asian:normal;text-align:start;writing-mode:lr-tb;direction:ltr;text-anchor:start;display:inline;fill:#000000;fill-opacity:1;fill-rule:evenodd;stroke:#000000;stroke-width:1;stroke-dasharray:none;stroke-opacity:1"
         x="137.62851"
         y="150.1402"
         id="text16"><tspan
           sodipodi:role="line"
           id="tspan16"
           style="font-style:normal;font-variant:normal;font-weight:bold;font-stretch:normal;font-size:35.2778px;font-family:Caladea;-inkscape-font-specification:'Caladea, Bold';font-variant-ligatures:normal;font-variant-caps:normal;font-variant-numeric:normal;font-variant-east-asian:normal;stroke-width:1"
           x="137.62851"
           y="150.1402">враам</tspan></text><text
         xml:space="preserve"
         style="font-style:normal;font-variant:normal;font-weight:bold;font-stretch:normal;font-size:63.2539px;font-family:'TeX Gyre Termes';-inkscape-font-specification:'TeX Gyre Termes, Bold';font-variant-ligatures:normal;font-variant-caps:normal;font-variant-numeric:normal;font-variant-east-asian:normal;text-align:start;writing-mode:lr-tb;direction:ltr;text-anchor:start;display:inline;fill:#000000;fill-opacity:1;fill-rule:evenodd;stroke:#000000;stroke-width:0.996127;stroke-dasharray:none;stroke-opacity:1"
         x="173.1534"
         y="202.61835"
         id="text16-9"
         transform="scale(0.9778771,1.0226234)"><tspan
           sodipodi:role="line"
           id="tspan16-8"
           style="font-style:normal;font-variant:normal;font-weight:bold;font-stretch:normal;font-size:63.2539px;font-family:'TeX Gyre Termes';-inkscape-font-specification:'TeX Gyre Termes, Bold';font-variant-ligatures:normal;font-variant-caps:normal;font-variant-numeric:normal;font-variant-east-asian:normal;stroke-width:0.996127"
           x="173.1534"
           y="202.61835">ТВ</tspan></text><text
         xml:space="preserve"
         style="font-style:normal;font-variant:normal;font-weight:bold;font-stretch:normal;font-size:139.691px;font-family:'TeX Gyre Termes';-inkscape-font-specification:'TeX Gyre Termes, Bold';font-variant-ligatures:normal;font-variant-caps:normal;font-variant-numeric:normal;font-variant-east-asian:normal;text-align:start;writing-mode:lr-tb;direction:ltr;text-anchor:start;display:inline;fill:#000000;fill-opacity:1;fill-rule:evenodd;stroke:#000000;stroke-width:0.986103;stroke-dasharray:none;stroke-opacity:1"
         x="54.030968"
         y="179.13399"
         id="text16-9-1"
         transform="scale(0.96793749,1.0331246)"><tspan
           sodipodi:role="line"
           id="tspan16-8-9"
           style="font-style:normal;font-variant:normal;font-weight:bold;font-stretch:normal;font-size:139.691px;font-family:'TeX Gyre Termes';-inkscape-font-specification:'TeX Gyre Termes, Bold';font-variant-ligatures:normal;font-variant-caps:normal;font-variant-numeric:normal;font-variant-east-asian:normal;stroke-width:0.986103"
           x="54.030968"
           y="179.13399">А</tspan></text></g></g></svg>
