<?xml version="1.0" encoding="UTF-8" standalone="no"?>
<!-- Created with Inkscape (http://www.inkscape.org/) -->

<svg
   width="1023.9999"
   height="1023.9999"
   viewBox="0 0 270.93333 270.93333"
   version="1.1"
   id="svg1"
   xml:space="preserve"
   inkscape:export-filename="ibrahimlive_fr.png"
   inkscape:export-xdpi="96"
   inkscape:export-ydpi="96"
   xmlns:inkscape="http://www.inkscape.org/namespaces/inkscape"
   xmlns:sodipodi="http://sodipodi.sourceforge.net/DTD/sodipodi-0.dtd"
   xmlns="http://www.w3.org/2000/svg"
   xmlns:svg="http://www.w3.org/2000/svg"><sodipodi:namedview
     id="namedview1"
     pagecolor="#ffffff"
     bordercolor="#ffffff"
     borderopacity="1"
     inkscape:showpageshadow="0"
     inkscape:pageopacity="0"
     inkscape:pagecheckerboard="false"
     inkscape:deskcolor="#505050"
     inkscape:document-units="mm"
     inkscape:zoom="0.38130453"
     inkscape:cx="784.15015"
     inkscape:cy="792.01787"
     inkscape:window-width="1920"
     inkscape:window-height="1043"
     inkscape:window-x="0"
     inkscape:window-y="0"
     inkscape:window-maximized="1"
     inkscape:current-layer="layer1"><inkscape:page
       x="0"
       y="0"
       width="270.93332"
       height="270.93332"
       id="page2"
       margin="0"
       bleed="0" /></sodipodi:namedview><defs
     id="defs1" /><g
     inkscape:label="Слой 1"
     inkscape:groupmode="layer"
     id="layer1"><g
       id="g48"
       transform="translate(0.13571188,5.7832337)"><path
         style="display:inline;fill:#fbc101"
         d="m 87.905603,207.92688 c -14.20423,-1.85081 -26.26842,-7.08997 -36.25439,-15.74435 -4.42785,-3.83741 -10.85221,-11.21346 -12.52649,-14.38214 -0.19917,-0.37694 -0.77353,-1.31412 -1.27636,-2.08262 -1.37888,-2.10743 -4.41234,-8.56791 -5.47831,-11.66739 -1.38883,-4.03821 -1.9682,-6.24639 -2.66448,-10.15523 -1.70755,-9.58599 -1.49664,-18.18509 0.68945,-28.10928 0.62481,-2.83645 2.97402,-9.42411 4.52893,-12.7 2.274,-4.79092 5.82119,-10.35982 9.19311,-14.432757 1.87033,-2.259169 6.77932,-7.017824 9.39271,-9.105063 2.39999,-1.916808 7.0381,-5.169467 7.37137,-5.169467 0.0989,0 0.62389,-0.278736 1.1667,-0.619412 1.72118,-1.080238 3.49431,-2.01899 5.04226,-2.669532 0.82551,-0.346927 2.45342,-1.041864 3.61759,-1.544303 2.31275,-0.998157 7.78499,-2.600481 11.60047,-3.396732 5.89466,-1.230154 18.199737,-1.35214 24.236007,-0.240263 7.68597,1.41575 14.23762,3.741264 20.78435,7.377413 14.57849,8.097111 25.56133,21.264556 30.77611,36.897826 0.68803,2.06261 1.34447,3.89903 1.45877,4.08093 0.16495,0.26252 9.69475,0.33073 46.20642,0.33073 49.24128,0 47.73585,-0.0378 51.27186,1.28662 1.81521,0.67987 4.46538,2.5865 6.02196,4.33239 1.78468,2.00173 3.27706,5.26944 3.79379,8.30687 0.38451,2.26025 0.38496,2.69361 0.005,4.92569 -0.92131,5.41238 -4.07877,9.78701 -8.71283,12.07151 -4.05177,1.99746 -0.94113,1.88526 -52.2674,1.88526 h -45.88621 l -0.37496,0.85989 c -0.20622,0.47295 -0.87092,2.40771 -1.4771,4.29948 -2.45864,7.67296 -6.61991,15.15595 -12.06499,21.69584 -6.11003,7.33853 -13.4549,13.12454 -21.79314,17.16782 -6.43341,3.11962 -11.39198,4.70044 -18.91771,6.03111 -3.33735,0.59009 -14.278407,0.88404 -17.462497,0.46916 z M 72.578673,180.8381 c 0.52205,-0.52205 0.49394,-2.16674 -0.0405,-2.37184 -0.23018,-0.0883 -2.48723,-0.1606 -5.01566,-0.1606 h -4.59714 l 0.94422,-2.57969 c 1.68732,-4.6099 4.99646,-13.90477 7.51215,-21.10052 0.76313,-2.18281 1.50379,-4.11758 1.64591,-4.29948 0.20032,-0.25637 3.10478,-0.33073 12.91922,-0.33073 h 12.66081 l 0.36546,0.72761 c 0.20101,0.40018 0.75666,1.91823 1.234787,3.37344 0.47813,1.4552 1.32069,3.95552 1.87234,5.55625 0.55166,1.60072 1.74701,5.13655 2.65633,7.85738 0.93389,2.79437 1.7654,4.8777 1.91091,4.78777 0.14168,-0.0876 0.17566,-0.0266 0.0755,0.13542 -0.17899,0.28962 0.20384,1.73905 1.18421,4.48349 l 0.49619,1.38906 h -4.34027 c -2.38715,0 -4.528597,0.0723 -4.758777,0.1606 -0.53448,0.2051 -0.5626,1.84979 -0.0405,2.37184 0.32139,0.32139 3.604637,0.37798 21.932107,0.37798 23.68348,0 21.87533,0.12863 21.87533,-1.55623 0,-1.19829 -0.39808,-1.35419 -3.45789,-1.35419 h -2.82289 l -1.24027,-3.37344 c -0.68214,-1.85539 -1.41773,-3.84968 -1.63464,-4.43177 -0.21691,-0.58208 -0.87517,-2.36802 -1.46279,-3.96875 -0.58763,-1.60073 -1.70304,-4.63682 -2.47869,-6.74687 -0.77565,-2.11006 -1.6426,-4.49131 -1.92655,-5.29167 -0.28394,-0.80036 -1.02296,-2.82443 -1.64226,-4.49792 -0.61929,-1.67349 -1.36307,-3.69755 -1.65284,-4.49791 -0.28976,-0.80037 -0.67966,-1.8124 -0.86643,-2.24896 -0.18677,-0.43656 -0.70617,-1.86531 -1.15422,-3.175 -1.42659,-4.17003 -2.2988,-6.24482 -2.53481,-6.02977 -0.12612,0.11491 -0.14941,0.0694 -0.0518,-0.10112 0.0976,-0.17054 -0.37,-1.83741 -1.03924,-3.70417 -2.98482,-8.32581 -3.54814,-9.86494 -4.31795,-11.79775 -0.44987,-1.1295 -1.16637,-3.09404 -1.59222,-4.36563 -0.42586,-1.27159 -1.20044,-3.38272 -1.72129,-4.69141 -0.52086,-1.30869 -0.94701,-2.48918 -0.94701,-2.62332 0,-0.22609 -1.34465,-3.84862 -1.87504,-5.05141 -0.12833,-0.29105 -0.59784,-1.60073 -1.04334,-2.910415 -0.4455,-1.309688 -0.91828,-2.619375 -1.05063,-2.910417 -0.48544,-1.067527 -1.84946,-4.770359 -1.85183,-5.027083 -0.003,-0.300289 -1.08829,-3.002269 -1.40843,-3.505729 -0.27544,-0.433175 -10.762397,-0.482412 -10.762397,-0.05053 0,0.154109 -0.0941,0.222026 -0.20916,0.150926 -0.20922,-0.1293 -1.62962,3.33779 -3.50881,8.564709 -0.54934,1.527968 -1.25766,3.432971 -1.57406,4.233329 -0.31639,0.80036 -0.7927,2.11005 -1.05845,2.91041 -0.26576,0.80037 -0.80401,2.28865 -1.19611,3.3073 -0.3921,1.01864 -1.1195,2.98317 -1.61644,4.36562 -0.49694,1.38245 -1.00845,2.75167 -1.1367,3.04271 -0.65403,1.48423 -1.87377,4.80422 -1.87252,5.09682 7.8e-4,0.18387 -0.11529,0.54106 -0.25793,0.79375 -0.35516,0.62917 -2.64621,6.62199 -2.90669,7.60318 -0.11589,0.43656 -0.82016,2.33159 -1.56505,4.21118 -0.74488,1.87959 -1.35433,3.51926 -1.35433,3.64372 0,0.21619 -1.61469,4.53229 -2.10954,5.63885 -0.13015,0.29104 -0.59354,1.5412 -1.02975,2.77812 -0.43621,1.23693 -1.11039,3.0824 -1.49816,4.10105 -0.38778,1.01864 -1.11376,2.98317 -1.61329,4.36562 -0.89183,2.46815 -1.34443,3.68443 -4.03667,10.84792 -1.72387,4.58688 -3.70334,9.89849 -4.18109,11.2193 -0.20546,0.56807 -0.30969,1.19933 -0.23161,1.40281 0.0781,0.20347 0.0456,0.31038 -0.0722,0.23757 -0.11781,-0.0728 -0.42606,0.45679 -0.685,1.17689 l -0.4708,1.30926 h -2.83093 c -3.06832,0 -3.46593,0.15535 -3.46593,1.35419 0,1.65073 -0.62145,1.55623 10.23367,1.55623 8.23802,0 9.97631,-0.0639 10.29044,-0.37798 z m 2.09705,-34.87775 c 0.092,-0.32742 0.83097,-2.44078 1.6422,-4.69636 3.96256,-11.01761 4.6948,-13.04178 5.69489,-15.7427 0.59271,-1.60073 1.25269,-3.4462 1.46661,-4.10105 0.85256,-2.60975 2.84664,-7.93247 2.9727,-7.93491 0.0737,-0.001 0.28952,0.50343 0.47959,1.12189 0.19006,0.61847 0.73959,2.25558 1.22118,3.63802 0.48158,1.38245 1.32451,3.90908 1.87318,5.61473 0.5876,1.82669 1.10764,3.03317 1.26537,2.93569 0.14851,-0.0918 0.18706,-0.0349 0.0865,0.12779 -0.26306,0.42564 0.10438,1.66876 0.4332,1.46554 0.15248,-0.0942 0.20952,-0.0618 0.12675,0.0722 -0.20846,0.33728 0.35261,2.3888 1.6655,6.08989 0.61284,1.72759 1.31749,3.85545 1.5659,4.72858 0.24842,0.87312 0.88859,2.82166 1.42262,4.33009 0.53402,1.50842 0.97095,2.78834 0.97095,2.84427 0,0.0559 -5.18724,0.10168 -11.5272,0.10168 h -11.5272 z m 87.892287,4.04767 c 1.2407,-0.75651 1.91833,-3.33897 0.87613,-3.33897 -0.36074,0 -0.52916,0.17639 -0.52916,0.5542 0,0.70088 -0.67859,1.65232 -0.97056,1.36081 -0.12104,-0.12085 -0.28937,-1.46359 -0.37407,-2.98386 -0.14912,-2.67636 -0.18158,-2.79257 -1.02238,-3.66005 l -0.86837,-0.89593 0.78826,-0.40762 c 1.70508,-0.88173 2.33058,-4.16751 1.15535,-6.06908 -0.65872,-1.06583 -1.95659,-1.90019 -2.58231,-1.66008 -0.21271,0.0816 -0.32032,0.0409 -0.23913,-0.0904 0.22845,-0.36964 -3.25966,-0.58911 -7.92533,-0.49865 -3.5501,0.0688 -4.23334,0.14614 -4.23334,0.47896 0,0.23679 0.29504,0.43079 0.73146,0.48096 l 0.73146,0.0841 -0.07,7.98319 -0.07,7.98319 -0.79375,0.14041 c -2.22021,0.39274 2.68896,0.96035 5.79149,0.66962 2.00485,-0.18787 2.6717,-0.56186 1.28611,-0.72129 l -0.7276,-0.0837 v -3.83646 -3.83646 l 0.81629,-0.0797 c 1.25581,-0.12255 1.47547,0.38384 1.67318,3.85711 0.24492,4.3028 0.80536,5.01291 3.99282,5.05916 1.27057,0.0184 1.94017,-0.10942 2.56345,-0.48946 z m -9.00164,-9.71417 c -0.097,-0.097 -0.17639,-1.70435 -0.17639,-3.57187 0,-3.76141 -0.0117,-3.74098 1.78761,-3.11373 1.12087,0.39073 1.48826,1.41882 1.32458,3.70654 -0.1044,1.45913 -0.26364,1.99658 -0.74262,2.50643 -0.57591,0.61302 -1.79095,0.87487 -2.19318,0.47263 z m -10.47681,9.30509 c 2.05304,-1.03894 2.89208,-2.3264 2.89208,-4.43772 0,-1.23809 -0.11768,-1.55821 -0.91541,-2.49018 -0.50348,-0.58821 -1.27739,-1.21939 -1.71979,-1.40264 -1.00226,-0.41515 -1.00181,-0.5516 0.004,-1.12384 1.08859,-0.61952 1.94525,-2.5674 1.75452,-3.98943 -0.18572,-1.3846 -1.86737,-3.15248 -3.04017,-3.19604 -0.43632,-0.0162 -0.74823,-0.10296 -0.69313,-0.19278 0.18754,-0.3057 -2.33385,-0.49816 -6.47299,-0.4941 -4.07988,0.004 -5.37536,0.22882 -4.52713,0.78565 0.21828,0.14329 0.60698,0.26235 0.86377,0.26458 0.43733,0.004 0.46247,0.51107 0.39688,8.0077 l -0.07,8.00365 -0.59531,0.0845 c -0.93756,0.13316 -0.69522,0.53378 0.39688,0.65609 0.5457,0.0611 3.20309,0.0825 5.90531,0.0475 4.05082,-0.0525 5.07243,-0.14425 5.82083,-0.52297 z m -5.83917,-4.10161 v -4.03799 l 0.97387,0.15804 c 1.64086,0.26627 1.80426,0.61773 1.80426,3.88078 0,3.2627 -0.16282,3.61275 -1.80426,3.87912 l -0.97387,0.15803 z m 0,-8.62764 v -3.60056 l 0.72761,0.17225 c 1.27529,0.30192 1.65364,1.041 1.65364,3.23021 0,1.11611 -0.16546,2.35957 -0.38337,2.88111 -0.31869,0.76274 -0.51956,0.91754 -1.19062,0.91754 h -0.80726 z m 29.91956,13.12555 c 0.42466,0 0.77211,-0.11906 0.77211,-0.26458 0,-0.14552 -0.2311,-0.26458 -0.51355,-0.26458 -0.83787,0 -0.84661,-0.36601 -0.0642,-2.68633 l 0.74471,-2.20846 2.25999,-0.0759 2.26,-0.0759 0.67229,1.92798 c 1.13117,3.24395 1.11722,3.11861 0.34712,3.11861 -0.37361,0 -0.67929,0.10248 -0.67929,0.22773 0,0.46941 5.07854,0.74849 7.2099,0.39619 1.01845,-0.16833 1.38243,-0.62392 0.49847,-0.62392 -0.36778,0 -0.64066,-0.4218 -1.06982,-1.65365 -0.58954,-1.69219 -1.70486,-4.78396 -2.19525,-6.08542 -0.15079,-0.40018 -0.3858,-0.7276 -0.52226,-0.7276 -0.13645,0 -0.18506,-0.102 -0.10801,-0.22667 0.077,-0.12467 -0.31778,-1.52366 -0.87741,-3.10886 -1.15373,-3.26805 -2.10605,-5.63928 -2.12744,-5.29718 -0.008,0.12696 -0.18814,0.0867 -0.40046,-0.0896 -0.22986,-0.19076 -0.69851,-0.25175 -1.15841,-0.15074 -0.68978,0.1515 -0.8712,0.42983 -1.6967,2.60309 -1.2591,3.31478 -2.6919,7.17452 -3.89898,10.50324 -1.55207,4.28008 -1.52874,4.23334 -2.11374,4.23334 -0.29465,0 -0.53572,0.11152 -0.53572,0.24782 0,0.25995 1.46666,0.52165 2.07216,0.36975 0.1938,-0.0486 0.69982,-0.0884 1.12448,-0.0884 z m 1.65167,-7.0776 c 0.86742,-2.72254 1.74833,-4.88451 1.85966,-4.56406 0.0758,0.21828 0.48838,1.43867 0.91677,2.71198 l 0.77889,2.3151 h -1.85142 c -1.64307,0 -1.83482,-0.0521 -1.7039,-0.46302 z m 19.42721,7.17074 c 1.43091,-0.17187 1.84431,-0.52084 0.79375,-0.67005 -0.58153,-0.0826 -0.59701,-0.17181 -0.66872,-3.85486 l -0.0734,-3.77031 h 2.25622 2.25622 v 3.83646 3.83646 h -0.66145 c -1.1312,0 -0.7253,0.44849 0.56609,0.62549 2.4737,0.33906 6.70995,0.0885 6.70995,-0.39687 0,-0.12574 -0.29766,-0.22862 -0.66146,-0.22862 h -0.66146 v -8.05139 -8.05139 l 0.59531,-0.0846 c 0.32743,-0.0465 0.59532,-0.26314 0.59532,-0.48142 0,-0.33453 -0.60267,-0.39688 -3.83646,-0.39688 -3.2338,0 -3.83646,0.0624 -3.83646,0.39688 0,0.21828 0.26789,0.43492 0.59531,0.48142 0.58372,0.0829 0.59531,0.15398 0.59531,3.64872 v 3.56417 l -2.18281,-0.0768 -2.18281,-0.0769 -0.0738,-3.50573 c -0.0676,-3.2106 -0.0342,-3.50607 0.39688,-3.50978 0.25888,-0.002 0.64929,-0.12129 0.86757,-0.26458 0.8239,-0.54086 -0.39852,-0.7816 -3.96875,-0.7816 -3.57022,0 -4.79264,0.24074 -3.96875,0.7816 0.21829,0.14329 0.60699,0.26235 0.86378,0.26458 0.43732,0.004 0.46246,0.51107 0.39688,8.0077 l -0.07,8.00365 -0.59531,0.0845 c -0.88422,0.12558 -0.7205,0.52785 0.26458,0.6501 1.48238,0.18396 4.2425,0.19364 5.68854,0.0199 z m 15.53104,-0.38864 c 0.15041,-0.13982 -0.0178,-0.23366 -0.41892,-0.23366 -0.36865,0 -0.73451,-0.0642 -0.81301,-0.14274 -0.0785,-0.0785 0.21907,-1.21394 0.66128,-2.5232 l 0.80402,-2.38047 2.26189,0.0758 2.26189,0.0758 0.71848,1.98437 c 0.92381,2.55149 0.93539,2.91042 0.0938,2.91042 -0.3638,0 -0.66146,0.10248 -0.66146,0.22773 0,0.47833 4.98714,0.74269 7.5037,0.39776 1.28932,-0.17672 1.69802,-0.62549 0.56965,-0.62549 -0.68617,0 -0.96561,-0.45149 -1.72045,-2.77979 -0.42997,-1.32621 -1.82595,-5.11421 -2.14453,-5.81917 -0.13153,-0.29104 -0.65054,-1.71979 -1.15337,-3.175 -1.93443,-5.59835 -2.1148,-5.87898 -3.5728,-5.55875 -0.86222,0.18938 -1.38759,1.12022 -2.47431,4.38394 -0.36051,1.08271 -1.1018,3.09965 -1.64731,4.4821 -0.54552,1.38245 -1.42804,3.7637 -1.96116,5.29167 -0.71547,2.0506 -1.12137,2.84652 -1.54999,3.0393 -0.31937,0.14365 -0.58068,0.34373 -0.58068,0.44462 0,0.48599 3.28915,0.42124 3.82323,-0.0753 z m 1.2252,-7.70814 c 0.30159,-0.76399 0.66936,-1.80578 0.81726,-2.31511 0.1479,-0.50932 0.35845,-1.02069 0.46789,-1.13638 0.10943,-0.11568 0.53245,0.77729 0.94003,1.98438 0.40758,1.20709 0.79596,2.34354 0.86307,2.52544 0.0904,0.245 -0.36515,0.33073 -1.75729,0.33073 h -1.87931 z m 16.11824,7.74097 c 0,-0.11263 -0.23812,-0.26705 -0.52917,-0.34316 -0.51194,-0.13387 -0.52851,-0.35226 -0.50904,-6.71158 l 0.0201,-6.57321 0.57878,2.06897 c 0.32982,1.17902 0.68084,1.97569 0.81604,1.85209 0.13528,-0.12366 0.15601,-0.0756 0.0482,0.11175 -0.10397,0.18075 0.2222,1.78809 0.72482,3.57187 0.50262,1.78378 1.06213,3.89808 1.24336,4.69844 0.18123,0.80037 0.46106,1.54269 0.62183,1.6496 0.40276,0.26783 2.85798,0.2452 3.29273,-0.0304 0.37487,-0.2376 1.71462,-5.34795 2.67774,-10.21398 0.31637,-1.59841 0.62672,-2.9577 0.68967,-3.02066 0.063,-0.063 0.11446,2.76289 0.11446,6.27964 0,6.21771 -0.0146,6.3941 -0.52916,6.3941 -0.91197,0 -0.57645,0.45211 0.46302,0.62392 2.9866,0.49366 8.37268,-0.11975 6.15156,-0.70059 -0.51432,-0.13449 -0.52917,-0.36089 -0.52917,-8.06979 0,-7.84119 0.006,-7.93307 0.55705,-8.07708 0.3068,-0.0802 0.50509,-0.30209 0.4414,-0.49388 -0.16837,-0.507 -6.35723,-0.64036 -6.76764,-0.14584 -0.38838,0.46797 -1.43624,5.22172 -1.28147,5.81356 0.0672,0.2569 0.0396,0.41605 -0.0614,0.35366 -0.10095,-0.0624 -0.45701,1.06941 -0.79125,2.51509 -0.33425,1.44569 -0.69599,2.57396 -0.80389,2.50728 -0.10789,-0.0667 -0.40815,-1.10934 -0.66724,-2.31702 -0.25909,-1.20767 -0.63615,-2.79108 -0.83789,-3.51869 -0.20175,-0.7276 -0.60434,-2.2079 -0.89464,-3.28955 -0.29031,-1.08164 -0.6782,-2.06209 -0.862,-2.17876 -0.4792,-0.30419 -6.34278,-0.26255 -6.81646,0.0484 -0.35278,0.23158 -0.35278,0.28947 0,0.52106 0.21828,0.14329 0.60698,0.26235 0.86377,0.26458 0.43733,0.004 0.46247,0.51107 0.39688,8.0077 l -0.07,8.00365 -0.59531,0.0845 c -0.88932,0.12631 -0.71812,0.53155 0.26458,0.6263 1.15953,0.11179 2.57969,-0.06 2.57969,-0.31206 z"
         id="path44" /><path
         style="display:inline;fill:#5b03b3"
         d="m 10.352363,147.67567 -6.6449101,-0.0706 -0.14468,-2.57522 c -0.22634,-4.02859 0.32036,-5.40464 2.42763,-6.11045 1.44794,-0.48497 3.73744,-0.37588 4.7230201,0.22504 0.47294,0.28836 0.85989,0.70463 0.85989,0.92505 0,0.6172 0.33465,0.48354 1.26871,-0.50674 0.70396,-0.74633 1.11829,-0.94028 2.33296,-1.09204 2.21218,-0.27639 4.94697,-0.008 5.96807,0.58657 1.41554,0.82371 1.78001,1.89592 1.79464,5.27953 l 0.0127,2.94051 -2.44739,0.14904 c -1.34607,0.082 -2.68552,0.1875 -2.97656,0.23449 -0.29105,0.047 -3.51938,0.0537 -7.17408,0.0148 z m -0.16811,-3.48939 c 0.77411,-0.0107 0.85989,-0.0901 0.85989,-0.79631 0,-1.01095 -0.60615,-1.33223 -2.5135401,-1.33223 -1.77801,0 -2.51354,0.33565 -2.51354,1.14702 0,0.98276 0.51994,1.2785 1.98438,1.1287 0.7276,-0.0744 1.70987,-0.14066 2.1828101,-0.14718 z m 9.75388,-0.39267 c 0.0804,-0.20944 -0.0144,-0.71546 -0.21055,-1.12448 -0.34953,-0.72878 -0.40429,-0.74443 -2.73412,-0.78109 -2.67437,-0.0421 -3.30348,0.24998 -3.30348,1.53363 v 0.75274 h 3.05101 c 2.41071,0 3.08168,-0.0799 3.19714,-0.3808 z m -2.80857,-8.11046 c -2.22554,-0.42361 -8.2067701,-1.29832 -8.8778501,-1.29832 -0.99784,0 -2.63992,-0.93494 -3.32031,-1.89046 -0.82334,-1.15628 -0.83044,-3.5996 -0.015,-5.18169 1.02424,-1.98732 2.77697,-2.40877 7.1861301,-1.72794 1.0914,0.16853 3.05594,0.4439 4.36562,0.61194 3.51472,0.45096 5.05478,0.94123 6.16907,1.9639 l 0.97468,0.89454 -0.009,2.26029 c -0.009,2.12017 -0.0562,2.30924 -0.76572,3.04984 -0.80742,0.84277 -2.71715,1.62724 -3.83619,1.5758 -0.37426,-0.0172 -1.21625,-0.13326 -1.8711,-0.2579 z m 3.22031,-3.58829 c 1.12013,-1.0137 0.24681,-1.76184 -2.55885,-2.19205 -1.16417,-0.1785 -2.71198,-0.42379 -3.43958,-0.54507 -5.8879101,-0.98141 -6.5692901,-0.97635 -6.8954401,0.0513 -0.35724,1.12558 0.73312,1.64367 4.5333901,2.15403 1.88121,0.25263 4.13475,0.55965 5.00788,0.68226 2.4274,0.34087 2.82967,0.32282 3.3526,-0.15043 z m -0.1776,-8.46821 c -2.03729,-0.65846 -5.68526,-1.84098 -8.10659,-2.62784 -2.4213401,-0.78686 -4.5979601,-1.43065 -4.8369501,-1.43065 -0.23899,0 -0.50136,-0.17417 -0.58305,-0.38704 -0.15828,-0.41247 0.59599,-2.96056 0.93915,-3.17264 0.11241,-0.0695 1.85067,0.0872 3.8627901,0.34817 3.59726,0.46656 4.88819,0.46806 4.88819,0.006 0,-0.21791 -0.47765,-0.33376 -1.25677,-0.30482 -0.1819,0.007 -0.33073,-0.0735 -0.33073,-0.17836 0,-0.10486 -1.39898,-0.64854 -3.10885,-1.2082 -1.7098701,-0.55966 -3.1599101,-1.05739 -3.2223101,-1.10609 -0.0624,-0.0487 0.0954,-0.75121 0.35075,-1.56115 0.37579,-1.19213 0.54858,-1.43718 0.9072,-1.28656 0.24365,0.10234 0.8597201,0.27624 1.3690401,0.38646 0.50933,0.11022 2.95011,0.86134 5.42396,1.66917 2.47386,0.80782 5.89761,1.90587 7.60835,2.44011 1.71074,0.53423 3.16572,1.06079 3.23329,1.17012 0.0676,0.10934 -0.082,0.88054 -0.3323,1.71379 l -0.45517,1.51499 -1.45521,-0.18571 c -6.24804,-0.79737 -7.9375,-0.87584 -7.9375,-0.36867 0,0.21366 0.7917,0.37183 1.38906,0.27751 0.10914,-0.0172 0.19844,0.0797 0.19844,0.21542 0,0.13572 0.20836,0.29861 0.46302,0.36198 0.25466,0.0634 1.80063,0.51789 3.43548,1.01002 3.25681,0.98038 3.24842,0.97126 2.65166,2.88333 -0.24411,0.78218 -0.46598,1.04953 -0.85989,1.03618 -0.29199,-0.01 -2.19777,-0.55673 -4.23506,-1.21519 z m -0.66146,-14.02632 c -4.43838,-2.25865 -8.105,-4.14018 -8.14804,-4.18117 -0.12364,-0.11774 1.10859,-2.63193 1.38848,-2.83299 0.13855,-0.0995 1.47833,0.47395 2.9773,1.27437 2.91614,1.55717 3.48468,1.62223 4.01451,0.45938 0.42932,-0.94224 0.23437,-1.11744 -3.01283,-2.70768 -1.52662,-0.74762 -2.77567,-1.42089 -2.77567,-1.49615 0,-0.332928 1.39983,-2.772924 1.59082,-2.772924 0.42694,0 16.54053,8.242534 16.77582,8.581274 0.16348,0.23537 0.009,0.74854 -0.47418,1.57259 -0.39427,0.67277 -0.78386,1.22321 -0.86576,1.22321 -0.0819,0 -1.80735,-0.83343 -3.83433,-1.85208 -2.02697,-1.01865 -3.79735,-1.85208 -3.93418,-1.85208 -0.33999,0 -1.12287,1.56104 -0.97549,1.9451 0.0654,0.17042 0.69908,0.58386 1.4082,0.91876 0.70912,0.33491 1.50298,0.72483 1.76412,0.86651 0.26115,0.14168 1.30608,0.68643 2.32207,1.21056 1.01599,0.52413 1.90703,1.04969 1.9801,1.16791 0.0731,0.11822 -0.12178,0.75663 -0.43298,1.41868 -0.42091,0.89545 -0.71081,1.19856 -1.13199,1.18356 -0.3114,-0.0111 -4.19758,-1.86817 -8.63597,-4.12683 z M 155.3492,103.71597 c -0.66749,-0.28901 -2.10241,-2.05032 -2.48046,-3.04466 -0.41078,-1.080438 -0.32489,-2.582473 0.19225,-3.36201 0.47393,-0.714398 2.41944,-2.437719 3.25967,-2.887394 0.38883,-0.2081 0.61541,-0.04038 1.28427,0.950681 0.44667,0.661846 0.81213,1.294323 0.81213,1.405503 0,0.11118 -0.52982,0.599123 -1.17738,1.084318 -1.34593,1.008463 -1.57851,1.426574 -1.19361,2.145752 0.47276,0.88337 1.66263,0.65126 2.84505,-0.554998 0.84684,-0.863899 1.10461,-1.37598 1.36517,-2.711974 1.00032,-5.129123 1.2872,-5.794268 3.04106,-7.05092 1.16054,-0.831538 1.49489,-0.937969 2.95851,-0.941772 1.46821,-0.0038 1.73966,0.08144 2.46257,0.773462 1.04267,0.998109 1.86974,2.711063 1.86848,3.869848 -10e-4,1.020732 -0.78396,2.463278 -1.8211,3.355725 -0.3803,0.327244 -0.75099,0.592995 -0.82375,0.590558 -0.0728,-0.0024 -0.52441,-0.604036 -1.00368,-1.336887 l -0.87139,-1.332457 0.672,-0.798626 c 0.54384,-0.646318 0.61842,-0.89874 0.39106,-1.323569 -0.37342,-0.69775 -0.8798,-0.864024 -1.54583,-0.507581 -0.81808,0.437828 -1.23933,1.485307 -1.60108,3.981281 -0.58847,4.06036 -1.383,5.40554 -4.16454,7.05082 -1.20471,0.71259 -3.53611,1.04899 -4.4694,0.6449 z M 32.995113,103.3165 c -0.34231,-0.33279 -2.06161,-1.57031 -8.45722,-6.087319 -3.10425,-2.192439 -6.18884,-4.399165 -6.28848,-4.498803 -0.0538,-0.05379 0.62077,-1.091749 1.49902,-2.306571 2.77897,-3.843947 2.63802,-3.699626 3.2874,-3.36605 0.31681,0.162745 0.8954,0.593575 1.28575,0.957401 l 0.70972,0.661501 -0.91885,1.335775 c -0.50537,0.734676 -0.88312,1.523781 -0.83945,1.753566 0.0976,0.513783 2.46969,2.137583 3.12258,2.137583 0.27508,0 0.79142,-0.500888 1.22687,-1.190152 0.41355,-0.654583 0.9305,-1.185894 1.14878,-1.180691 0.21828,0.0052 0.84175,0.391944 1.38549,0.859423 l 0.98863,0.849962 -0.95326,1.364517 c -0.5243,0.750485 -0.87396,1.492834 -0.77703,1.649664 0.36908,0.597199 3.54867,2.673421 3.89224,2.54158 0.19811,-0.07602 0.76546,-0.732091 1.26077,-1.45793 0.49531,-0.725838 1.01827,-1.319706 1.16214,-1.319706 0.35968,0 2.56496,1.411032 2.56555,1.641551 2.6e-4,0.102488 -0.5894,0.995457 -1.31035,1.984371 -0.72096,0.988918 -1.67723,2.304048 -2.12506,2.922508 -0.86754,1.1981 -1.24601,1.34984 -1.86524,0.74782 z M 148.69362,95.238083 c -0.47294,-0.551077 -0.84939,-1.106545 -0.83655,-1.234375 0.0128,-0.127829 1.07641,-1.184917 2.36349,-2.349083 2.94115,-2.660276 3.5306,-3.415577 3.32009,-4.254299 -0.0969,-0.386128 -0.35332,-0.640493 -0.64564,-0.640493 -0.51861,0 -1.06237,0.462475 -4.45068,3.785349 -2.40782,2.361332 -2.28169,2.346827 -3.79479,0.436379 l -0.78295,-0.98855 3.37263,-3.119795 c 1.85495,-1.715888 4.89819,-4.586478 6.76276,-6.379089 1.86457,-1.792612 3.5974,-3.259294 3.85073,-3.259294 0.51619,0 4.54605,4.223901 4.88035,5.115347 0.40507,1.080164 -0.0628,2.241322 -1.55041,3.848164 -1.56754,1.69313 -2.78014,2.413572 -4.06235,2.413572 -0.70378,0 -0.81991,0.09615 -0.81991,0.678853 0,1.253006 -0.44821,1.818168 -4.05061,5.10743 -1.13643,1.037649 -2.20799,1.876556 -2.38125,1.864238 -0.17325,-0.01232 -0.70196,-0.473277 -1.17491,-1.024354 z m 8.82206,-10.119801 c 0.46813,-0.32077 1.05957,-0.936056 1.31432,-1.367302 0.45869,-0.776498 0.4561,-0.790164 -0.26732,-1.412423 l -0.73049,-0.628339 -1.23314,1.135745 c -1.39572,1.285477 -1.57713,1.877587 -0.75226,2.455351 0.71894,0.503566 0.65694,0.510367 1.66889,-0.183032 z M 37.455713,93.96757 c -0.68056,-0.398995 -3.35947,-2.767751 -5.95312,-5.263902 -2.59366,-2.496151 -5.00966,-4.774566 -5.36891,-5.063144 l -0.65317,-0.524686 0.91775,-1.066023 c 0.50477,-0.586313 1.1304,-1.076102 1.39028,-1.088419 0.26245,-0.01244 1.85047,1.307872 3.57188,2.969731 5.0606,4.885525 6.82335,6.536576 7.4398,6.968352 0.7334,0.513695 1.78283,0.278866 2.0144,-0.450763 0.19491,-0.614109 -0.79788,-1.777818 -4.2902,-5.028817 -1.13556,-1.057087 -3.16437,-2.99105 -4.50848,-4.297696 l -2.44383,-2.37572 0.85633,-0.993906 c 0.47098,-0.546648 0.99131,-1.056312 1.15628,-1.132585 0.31744,-0.146764 3.31872,2.571453 8.85867,8.023174 3.52051,3.464441 4.00114,4.238733 3.73916,6.023727 -0.14186,0.966585 -1.8586,3.055783 -2.99306,3.642437 -1.1226,0.580517 -2.3527,0.467923 -3.73378,-0.34176 z M 140.0847,86.924475 c -1.13327,-0.908493 -2.36965,-1.960967 -2.74751,-2.338832 l -0.68703,-0.687028 0.62053,-0.884495 c 0.6716,-0.957292 2.66159,-3.498162 3.90462,-4.985537 0.86284,-1.032434 5.96272,-7.486109 6.46771,-8.184593 0.65403,-0.904627 0.97229,-0.851799 2.59043,0.429983 0.88341,0.699775 2.10385,1.639543 2.71209,2.088373 0.60824,0.44883 1.1059,0.949818 1.1059,1.113307 0,0.163488 -0.39972,0.780531 -0.88826,1.371205 l -0.88825,1.073954 -1.29517,-0.93049 c -0.71235,-0.511769 -1.46337,-0.930489 -1.66895,-0.930489 -0.51197,0 -2.53542,2.342313 -2.53542,2.934957 0,0.270199 0.5193,0.836487 1.19063,1.298376 0.65484,0.450545 1.19062,0.878896 1.19062,0.951892 0,0.340365 -0.79527,1.61331 -1.28455,2.056103 -0.53576,0.484853 -0.56706,0.477003 -1.84848,-0.463645 -0.71692,-0.526268 -1.42403,-0.95685 -1.57136,-0.95685 -0.39056,0 -2.96852,3.168449 -2.96852,3.648465 0,0.141613 0.38695,0.55713 0.85989,0.923369 0.47295,0.366239 1.12894,0.921863 1.45777,1.23472 l 0.59787,0.56883 -0.98463,1.177933 c -0.54154,0.647863 -1.04871,1.169915 -1.12703,1.160115 -0.0783,-0.0098 -1.06963,-0.761131 -2.2029,-1.669623 z M 45.357523,85.767646 c -0.96649,-1.273308 -3.13921,-4.101042 -4.82827,-6.283855 -3.75031,-4.846647 -4.74656,-6.202026 -4.74656,-6.457612 0,-0.282835 3.81932,-3.441814 4.73174,-3.913644 1.80106,-0.931364 3.27284,-0.329536 5.11641,2.092166 1.50165,1.972561 1.73526,2.50982 1.54116,3.54445 -0.14835,0.790755 -0.10169,0.898182 0.39005,0.898182 0.76168,0 1.59858,0.480282 2.23853,1.284649 1.64507,2.067746 4.36855,5.752968 4.36952,5.912536 0.001,0.227479 -2.25797,1.803636 -2.56008,1.785951 -0.11931,-0.007 -0.67407,-0.650832 -1.23282,-1.430776 -0.55875,-0.779943 -1.21359,-1.637529 -1.45521,-1.905747 -0.24162,-0.268218 -0.7902,-0.963822 -1.21907,-1.545787 -0.42887,-0.581965 -0.90512,-1.145591 -1.05833,-1.252504 -0.46881,-0.327134 -1.38616,-0.224468 -1.73346,0.194002 -0.35085,0.422744 -0.18409,0.677882 3.28599,5.027468 1.69893,2.129533 1.95183,2.575483 1.53867,2.713201 -0.16352,0.05451 -0.73709,0.4486 -1.27461,0.875763 -0.53751,0.427164 -1.06034,0.776661 -1.16185,0.776661 -0.1015,0 -0.97531,-1.041797 -1.94181,-2.315104 z m -1.37769,-10.36932 c 0.1949,-0.6141 -0.9154,-2.49814 -1.72873,-2.933421 -0.42807,-0.229095 -0.68924,-0.204034 -1.17231,0.112486 -0.89121,0.583937 -0.63296,1.38138 1.01908,3.14683 0.56424,0.602975 0.78514,0.687919 1.20484,0.463302 0.28266,-0.151275 0.58736,-0.506413 0.67712,-0.789197 z m 86.785367,4.990759 c -1.01562,-0.593495 -1.89315,-1.125653 -1.95007,-1.182574 -0.10566,-0.105662 0.50158,-1.597531 1.85526,-4.557991 0.41755,-0.91315 0.75917,-1.812071 0.75917,-1.997604 0,-0.185533 0.0996,-0.450442 0.22134,-0.588687 0.12173,-0.138245 0.49448,-0.906198 0.82833,-1.706563 0.33385,-0.800364 0.92556,-2.169583 1.31491,-3.042708 0.38934,-0.873125 1.11792,-2.568754 1.61906,-3.768065 0.50113,-1.19931 1.00876,-2.181576 1.12807,-2.182812 0.1193,-0.0012 0.74376,0.360236 1.38769,0.803272 1.17011,0.805058 1.17057,0.806007 0.79662,1.653646 -2.1857,4.954353 -2.86227,6.472583 -3.57815,8.029413 -0.45891,0.998 -0.95563,2.0345 -1.10383,2.303332 -0.31441,0.570345 -0.19483,0.777014 0.32465,0.56108 0.34746,-0.144425 1.28614,-1.358756 4.5431,-5.877211 0.75997,-1.054311 1.76875,-2.44835 2.24175,-3.097864 l 0.85999,-1.180934 1.32254,0.822133 c 0.83909,0.521609 1.24446,0.928636 1.10895,1.113488 -0.11747,0.160246 -1.09961,1.463581 -2.18253,2.896302 -1.08292,1.432721 -2.4452,3.238962 -3.02728,4.013869 -1.70217,2.266039 -2.77309,3.671396 -3.12187,4.096809 -0.17896,0.218282 -0.91897,1.200545 -1.64446,2.182809 -0.7255,0.982263 -1.44004,1.785935 -1.58787,1.785937 -0.14783,3e-6 -1.09974,-0.485582 -2.11537,-1.079077 z M 60.513153,77.953929 c -0.28551,-0.468263 -0.51956,-0.972223 -0.5201,-1.11991 -5.4e-4,-0.147688 -0.37084,-1.040656 -0.82288,-1.984375 -1.09638,-2.288902 -1.72663,-3.670363 -3.67979,-8.065853 -0.90529,-2.037291 -1.82129,-4.085134 -2.03557,-4.550761 -0.3878,-0.842709 -0.296,-1.402364 0.23003,-1.402364 0.15187,0 1.29241,-0.47625 2.53455,-1.058333 2.91058,-1.363947 4.41056,-1.438073 5.57321,-0.275419 0.63108,0.631073 3.49113,5.954364 3.49113,6.49788 0,0.07843 0.40529,1.00241 0.90065,2.053296 1.52413,3.233364 1.74518,3.911257 1.74518,5.351809 0,1.274595 -0.0839,1.467295 -0.99382,2.282792 -0.54661,0.489876 -1.64794,1.173151 -2.4474,1.518388 -0.79946,0.345237 -1.90413,0.847424 -2.45482,1.115971 l -1.00125,0.488266 z m 3.38879,-3.776807 c 0.77512,-0.542913 0.74649,-1.409689 -0.10184,-3.083796 -0.37944,-0.748779 -0.8434,-1.786617 -1.03104,-2.306308 -0.68946,-1.909623 -3.12048,-6.680319 -3.47305,-6.815613 -0.19991,-0.07671 -0.66085,-0.06483 -1.02433,0.02639 -0.89228,0.223946 -0.84941,0.822469 0.22489,3.139875 0.48716,1.050886 1.57757,3.458514 2.42312,5.350285 2.00201,4.479116 1.94866,4.41312 2.98225,3.689164 z m 59.391677,2.520704 c -0.61846,-0.274795 -1.12448,-0.577146 -1.12448,-0.67189 0,-0.219913 3.40235,-7.957738 4.89082,-11.122985 0.62332,-1.325504 1.29583,-2.873317 1.49447,-3.439584 0.19865,-0.566266 0.6028,-1.465285 0.89812,-1.997818 l 0.53694,-0.968242 1.3815,0.63492 c 0.75982,0.349206 1.38149,0.709351 1.38149,0.800323 0,0.09097 -0.41672,1.055252 -0.92604,2.142843 -0.50933,1.087592 -0.92605,2.063607 -0.92605,2.168923 0,0.105315 -0.28249,0.779312 -0.62776,1.49777 -1.33564,2.779304 -2.28265,4.863115 -2.28265,5.022773 0,0.09167 -0.37205,0.95984 -0.82678,1.929262 -0.45472,0.969423 -1.10807,2.387665 -1.45187,3.15165 -0.3438,0.763984 -0.77543,1.380652 -0.95916,1.370373 -0.18374,-0.01028 -0.84008,-0.243522 -1.45855,-0.518318 z m -5.09323,-2.153401 c -0.50932,-0.143788 -1.01092,-0.342951 -1.11467,-0.442583 -0.10375,-0.09963 -0.0697,-1.251171 0.0756,-2.558975 0.14536,-1.307804 0.31432,-3.24395 0.37547,-4.302546 0.0612,-1.058596 0.18938,-2.051236 0.28495,-2.205866 0.0956,-0.15463 0.0413,-0.413647 -0.12069,-0.575592 -0.2162,-0.216207 -0.29445,-0.139776 -0.29445,0.287637 0,0.320146 -0.10798,0.582083 -0.23995,0.582083 -0.13198,0 -0.43849,0.684609 -0.68113,1.521354 -1.01479,3.499453 -1.74108,5.775413 -1.94366,6.090841 -0.17191,0.267659 -0.50855,0.244502 -1.65214,-0.113647 -0.78993,-0.24739 -1.47046,-0.47257 -1.51229,-0.5004 -0.0418,-0.02783 0.0344,-0.333876 0.16943,-0.680103 0.13502,-0.346227 0.60743,-1.820128 1.04981,-3.275337 1.7758,-5.841478 3.02942,-9.86389 3.51003,-11.262407 0.27839,-0.810053 0.50798,-1.703022 0.51021,-1.984375 0.008,-1.032043 0.30249,-1.153242 1.83509,-0.755689 0.7911,0.205209 1.55567,0.490411 1.69904,0.633782 0.17118,0.171178 0.14215,1.257351 -0.0846,3.16366 -0.18988,1.596641 -0.27445,3.087429 -0.18794,3.312861 0.0865,0.225432 0.0419,0.409877 -0.099,0.409877 -0.14095,0 -0.25628,0.416718 -0.25628,0.926041 0,1.995744 0.7706,0.760425 2.08991,-3.35026 0.45128,-1.406081 0.82051,-2.805066 0.82051,-3.108855 0,-0.620017 0.2538,-0.665634 1.5875,-0.285335 1.59992,0.456212 1.72579,0.616865 1.38151,1.763282 -0.16723,0.55683 -0.55855,1.905387 -0.86961,2.996793 -0.31106,1.091407 -0.66029,2.2225 -0.77608,2.513542 -0.11578,0.291042 -0.56851,1.719792 -1.00605,3.175 -0.43755,1.455208 -1.19008,3.925755 -1.6723,5.490104 -0.95786,3.107364 -0.932,3.08458 -2.87831,2.535113 z M 71.364923,73.651836 c -0.1432,-0.376632 -0.26036,-0.802941 -0.26036,-0.947353 0,-0.144412 -0.34363,-1.357052 -0.76362,-2.694755 -0.73349,-2.336251 -1.00314,-3.277796 -2.02255,-7.062395 -0.25479,-0.945885 -0.61302,-2.196042 -0.79609,-2.778125 -0.18306,-0.582083 -0.46856,-1.564349 -0.63444,-2.182812 -0.16589,-0.618464 -0.41225,-1.12448 -0.54747,-1.12448 -0.57135,0 0.24646,-1.183266 0.95353,-1.379631 2.90595,-0.807029 5.69841,-1.530785 5.90622,-1.530785 0.3122,0 1.12301,2.72131 0.87057,2.921878 -0.10341,0.08216 -0.78334,0.298754 -1.51094,0.481312 -0.7276,0.182558 -1.43603,0.44403 -1.57429,0.58105 -0.32287,0.319993 0.28794,3.366163 0.77205,3.850277 0.29348,0.293481 0.6023,0.287313 1.847,-0.03689 0.82203,-0.214111 1.53713,-0.389293 1.58911,-0.389293 0.21057,0 0.9039,2.426855 0.78319,2.741401 -0.0715,0.186308 -0.71383,0.488376 -1.42742,0.671264 -0.71359,0.182887 -1.43325,0.496173 -1.59925,0.69619 -0.32231,0.388366 -0.11701,1.447395 0.28059,1.447395 0.13115,0 0.17137,0.174818 0.0894,0.388484 -0.16155,0.420991 0.64775,2.786516 0.95333,2.786516 0.10262,0 0.77105,-0.177305 1.48541,-0.394011 2.02705,-0.614929 2.15459,-0.567335 2.6126,0.974974 0.22454,0.756092 0.31845,1.451596 0.20869,1.545565 -0.10976,0.09397 -1.09253,0.43597 -2.18393,0.760001 -1.09141,0.324031 -2.28203,0.690411 -2.64584,0.814178 -1.75651,0.597572 -2.11302,0.576655 -2.38547,-0.139954 z m 32.547967,-2.165507 c -1.06747,-0.193966 -2.31295,-1.310838 -2.65909,-2.384513 -0.17644,-0.547309 -0.39132,-1.11417 -0.47751,-1.259691 -0.21532,-0.36356 -0.21548,-1.004379 -3.4e-4,-1.322917 0.0983,-0.145521 0.37081,-1.871927 0.60561,-3.836458 0.41552,-3.476611 1.47252,-10.934767 1.56256,-11.02538 0.0247,-0.02484 0.69924,0.03469 1.49902,0.132292 l 1.45413,0.177463 0.14932,1.118801 c 0.0821,0.615341 0.0688,1.151122 -0.0296,1.190625 -0.21459,0.08612 -1.85053,11.311073 -1.84403,12.652761 0.007,1.494385 0.88208,2.025964 1.82883,1.11125 0.502,-0.485012 0.85001,-2.041822 1.34558,-6.019271 1.08444,-8.703906 1.2755,-9.705307 1.82252,-9.552178 0.23737,0.06645 0.93759,0.199508 1.55606,0.29569 0.63408,0.09861 1.12447,0.31998 1.12447,0.507602 0,0.182999 -0.31016,2.345425 -0.68925,4.80539 -0.37909,2.459964 -0.70651,5.097024 -0.7276,5.860132 -0.0211,0.763109 -0.11111,1.388187 -0.20004,1.389063 -0.0889,8.76e-4 -0.22647,0.716015 -0.30565,1.589197 -0.3294,3.632705 -2.42237,5.222935 -6.01496,4.570142 z M 86.291323,70.755973 c -0.0519,-0.147408 -0.2107,-1.93489 -0.35292,-3.972182 -0.14221,-2.037291 -0.39919,-5.728229 -0.57106,-8.202083 -0.17187,-2.473854 -0.39131,-4.587128 -0.48765,-4.696164 -0.0963,-0.109037 -0.12777,-0.604242 -0.0698,-1.100457 0.0759,-0.649663 0.26465,-0.944953 0.6745,-1.054911 0.93501,-0.250852 2.50985,-0.180103 2.69601,0.121118 0.0955,0.154574 0.288,2.08934 0.4277,4.299479 0.13971,2.210139 0.30865,4.182073 0.37542,4.382076 0.0668,0.200002 0.14982,1.807346 0.18456,3.571875 0.0347,1.764529 0.16812,3.372011 0.2964,3.572182 0.18133,0.282934 0.67009,0.324362 2.19573,0.186113 l 1.96248,-0.177836 -0.0804,1.398871 -0.0804,1.398871 -1.32291,0.179507 c -2.36934,0.321497 -5.74836,0.375549 -5.84762,0.09354 z m 10.09375,-13.079596 c -0.24319,-0.393493 -0.76915,-5.741799 -0.60637,-6.165997 0.12393,-0.322945 0.37811,-0.340461 1.52657,-0.1052 l 1.3779,0.282257 -0.17506,1.462761 c -0.0963,0.804518 -0.24558,2.206901 -0.33177,3.116406 -0.15146,1.598058 -0.18167,1.653646 -0.89864,1.653646 -0.40805,0 -0.80973,-0.109743 -0.89263,-0.243873 z"
         id="path43" /><path
         style="display:inline;fill:#020000;stroke:#000000;stroke-opacity:1"
         d="m 217.43975,202.3166 c -0.12698,-0.32742 -0.76476,-1.96453 -1.41729,-3.63802 -0.65252,-1.67349 -1.27366,-3.34037 -1.38031,-3.70417 -0.10665,-0.3638 -0.81881,-2.32833 -1.58257,-4.36562 -0.76377,-2.0373 -2.0678,-5.54964 -2.89785,-7.80521 -1.9442,-5.28315 -4.05424,-10.98533 -5.9723,-16.13959 -0.83938,-2.25557 -1.59561,-4.3094 -1.68053,-4.56406 -0.11977,-0.35916 -0.453,-0.46302 -1.48562,-0.46302 -1.15755,0 -1.33122,-0.0695 -1.33122,-0.53243 0,-0.52511 0.13356,-0.53147 9.71988,-0.46302 9.01483,0.0644 9.72634,0.10299 9.80898,0.53243 0.0789,0.4101 -0.15505,0.46302 -2.04696,0.46302 -1.17483,0 -2.13607,0.0781 -2.13607,0.17355 0,0.24716 9.54388,28.73131 9.75731,29.12113 0.0972,0.17754 0.84599,-1.6084 1.66397,-3.96875 0.81798,-2.36036 1.87826,-5.42265 2.35619,-6.8051 1.73742,-5.0257 3.65959,-10.53448 4.9853,-14.2875 0.74535,-2.11005 1.35302,-3.92575 1.35038,-4.03489 -0.003,-0.10914 -1.01684,-0.19844 -2.25377,-0.19844 -2.07257,0 -2.24896,-0.0415 -2.24896,-0.52917 0,-0.50841 0.17639,-0.52916 4.49792,-0.52916 4.2813,0 4.49791,0.0248 4.49791,0.51534 0,0.43476 -0.21612,0.52784 -1.38228,0.59531 l -1.38229,0.08 -0.68782,1.98438 c -0.3783,1.0914 -1.07676,3.11547 -1.55212,4.49791 -0.47537,1.38245 -1.5761,4.53761 -2.44606,7.01146 -0.86996,2.47386 -2.15622,6.16479 -2.85836,8.20209 -0.70213,2.03729 -2.07333,5.96635 -3.04711,8.73125 -0.97377,2.76489 -2.19893,6.307 -2.72258,7.87135 l -0.9521,2.84427 h -2.47139 c -2.31813,0 -2.48572,-0.0369 -2.70228,-0.59531 z m -48.26297,-0.11025 c -0.097,-0.097 -0.17639,-0.4542 -0.17639,-0.79375 0,-0.60343 0.0567,-0.61736 2.51355,-0.61736 h 2.51354 v -19.44687 -19.44688 h -0.80888 c -3.16776,0 -5.26056,1.71373 -7.31901,5.99332 -0.78058,1.62284 -1.74608,4.00409 -2.14555,5.29167 -0.65612,2.11478 -0.78932,2.34106 -1.37801,2.34106 -0.47541,0 -0.65158,-0.14313 -0.65131,-0.52917 0.001,-2.13524 0.45502,-12.87126 0.57285,-13.5599 l 0.14713,-0.85989 h 17.4098 17.4098 l 0.14391,0.99218 c 0.0792,0.54571 0.21229,3.37344 0.29587,6.28386 0.0836,2.91042 0.21905,5.85721 0.30105,6.54844 0.14409,1.21461 0.12606,1.25677 -0.5372,1.25677 -0.44972,0 -0.68629,-0.14442 -0.68629,-0.41897 0,-0.65717 -3.06057,-8.13918 -3.8512,-9.41481 -1.58018,-2.54954 -3.17905,-3.62789 -5.72079,-3.85836 l -1.54051,-0.13969 v 19.48362 19.48362 h 2.51355 2.51354 v 0.79375 0.79375 H 180.0247 c -5.86934,0 -10.7509,-0.0794 -10.84792,-0.17639 z M 52.319143,179.76087 v -1.19063 l 3.10886,-0.004 3.10885,-0.004 0.55698,-1.51747 c 2.82338,-7.69223 6.17322,-16.74105 7.66296,-20.69977 0.68453,-1.81901 1.63039,-4.37885 2.10191,-5.68854 0.90265,-2.50719 2.08078,-5.66962 3.99198,-10.71562 0.63385,-1.67349 1.37319,-3.69756 1.64298,-4.49792 0.2698,-0.80036 1.05698,-2.94349 1.74931,-4.7625 3.54307,-9.30906 4.38659,-11.56644 4.38659,-11.73914 0,-0.10381 0.64441,-1.88051 1.43202,-3.94824 0.78761,-2.06772 2.11214,-5.60496 2.9434,-7.86054 0.83127,-2.25557 2.15139,-5.77437 2.93361,-7.819558 0.78222,-2.045184 1.42222,-3.803919 1.42222,-3.908297 0,-0.188231 1.36403,-3.793216 2.44514,-6.462239 l 0.56265,-1.389063 h 5.4423 5.442297 l 0.60312,1.785938 c 0.33172,0.982265 1.24562,3.512343 2.03089,5.622395 1.67,4.487356 3.74094,10.124234 5.83234,15.874994 0.82029,2.25557 2.09262,5.69259 2.8274,7.63781 0.73479,1.94522 1.7888,4.80272 2.34225,6.35 0.55346,1.54728 1.61584,4.48011 2.36086,6.5174 0.74501,2.03729 1.87045,5.13292 2.50098,6.87917 0.63052,1.74625 1.587,4.30609 2.12551,5.68854 0.5385,1.38244 1.07444,2.87073 1.19096,3.30729 0.11652,0.43656 0.74463,2.16297 1.3958,3.83646 0.65117,1.67349 1.33499,3.51896 1.5196,4.10104 0.18461,0.58208 0.95985,2.72521 1.72276,4.7625 0.76291,2.03729 2.04206,5.4901 2.84256,7.67292 0.8005,2.18281 2.03713,5.54514 2.74808,7.47184 l 1.29263,3.5031 3.0427,0.003 3.04271,0.003 v 1.19063 1.19062 H 121.04467 99.414983 v -1.19062 -1.19063 h 4.630207 c 2.54661,0 4.6302,-0.0475 4.6302,-0.10556 0,-0.0581 -0.84501,-2.58814 -1.87781,-5.6224 -1.03279,-3.03425 -2.0407,-6.05261 -2.2398,-6.70745 -0.1991,-0.65485 -1.5229,-4.61367 -2.94179,-8.7974 l -2.579787,-7.60677 -13.10592,4e-4 -13.10593,4.1e-4 -1.36914,3.9022 c -0.75303,2.14621 -1.90278,5.39048 -2.555,7.20949 -0.65222,1.81901 -2.07453,5.8076 -3.16069,8.86354 -1.08616,3.05594 -2.2283,6.2111 -2.53809,7.01146 -0.3098,0.80036 -0.56333,1.54451 -0.5634,1.65365 -8e-5,0.10914 2.20252,0.19843 4.89466,0.19843 h 4.89479 v 1.19063 1.19062 h -10.05417 -10.05417 z m 44.41522,-36.57865 c -0.70647,-2.00091 -1.28531,-3.74558 -1.28631,-3.87705 -0.001,-0.13147 -0.63487,-2.096 -1.4086,-4.36563 -0.77373,-2.26962 -2.76407,-8.20448 -4.42299,-13.18857 -1.65892,-4.98409 -3.0797,-9.06147 -3.15729,-9.06085 -0.0776,6.1e-4 -0.77164,1.75678 -1.54235,3.9026 -0.7707,2.14581 -2.04513,5.68742 -2.83207,7.87023 -0.78694,2.18281 -2.15788,5.99281 -3.04652,8.46667 -0.88865,2.47385 -1.98078,5.50206 -2.42697,6.72936 -0.44618,1.22729 -1.20253,3.34065 -1.68077,4.69635 l -0.86952,2.46491 h 11.97894 11.97895 z m 60.989657,6.57236 c -1.07697,-0.65671 -1.42363,-1.73099 -1.42363,-4.4118 0,-2.20367 -0.29358,-3.50029 -0.87644,-3.87091 -0.1728,-0.10988 -0.76066,-0.2016 -1.30637,-0.20382 l -0.99219,-0.004 v 4.21737 4.21736 l 0.99219,0.10378 c 0.54571,0.0571 -0.91281,0.10475 -3.24114,0.10592 -2.32834,0.001 -3.84638,-0.0459 -3.37344,-0.10457 l 0.85989,-0.10672 v -8.31761 -8.31761 h -0.79375 c -0.43656,0 -0.79375,-0.11906 -0.79375,-0.26458 0,-0.34443 8.50975,-0.34355 10.89258,0.001 0.97044,0.14037 2.07469,0.39658 2.45389,0.56935 1.09889,0.50069 1.73478,1.78685 1.73478,3.50879 0,2.33673 -1.0666,3.85824 -2.7047,3.85824 -0.99832,0 -0.92542,0.35396 0.15325,0.74401 1.58139,0.57184 1.8031,1.04598 1.98764,4.2506 0.0918,1.59443 0.26195,2.99394 0.37807,3.11001 0.35186,0.35171 1.09619,-0.29272 1.36494,-1.18176 0.24459,-0.80912 0.67289,-1.15119 0.67289,-0.53741 0,1.00586 -0.6939,2.41739 -1.35693,2.76026 -1.07716,0.55702 -3.62129,0.48778 -4.62778,-0.12596 z m -1.82601,-9.65165 c 0.76432,-0.76432 1.0323,-2.02959 0.87892,-4.14994 -0.14279,-1.97411 -0.70598,-2.62789 -2.43127,-2.82236 l -1.22027,-0.13754 v 3.87087 3.87087 h 1.07036 c 0.77559,0 1.24439,-0.17403 1.70226,-0.6319 z m -24.79918,9.71583 0.8599,-0.12163 v -8.31761 -8.31761 h -0.79375 c -0.43656,0 -0.79375,-0.13296 -0.79375,-0.29548 0,-0.39428 10.06471,-0.14807 11.45046,0.28012 0.54968,0.16984 1.40304,0.6632 1.89636,1.09633 2.14396,1.88242 1.13632,5.42116 -1.83447,6.44247 l -0.98271,0.33784 1.01903,0.16715 c 1.34968,0.22137 2.61918,1.02885 3.285,2.08946 0.42473,0.67656 0.52026,1.19081 0.44347,2.38723 -0.11683,1.82013 -0.68227,2.69892 -2.336,3.63052 -1.13961,0.64199 -1.30781,0.65853 -7.12031,0.70018 -3.27422,0.0235 -5.56617,-0.0121 -5.09323,-0.079 z m 8.1249,-0.3958 c 0.91076,-0.41496 1.27484,-1.87851 1.16042,-4.66463 -0.0841,-2.04764 -0.14784,-2.26609 -0.83341,-2.85579 -0.474,-0.40772 -1.07177,-0.63855 -1.65364,-0.63855 h -0.91129 v 4.23334 4.23333 h 0.7813 c 0.42972,0 1.0852,-0.13846 1.45662,-0.3077 z m 0.0362,-9.24508 c 0.42737,-0.47224 0.50403,-0.97381 0.50403,-3.29784 0,-3.09825 -0.17761,-3.46536 -1.80426,-3.72933 l -0.97387,-0.15804 v 3.87108 3.87108 h 0.88504 c 0.56373,0 1.06801,-0.2022 1.38906,-0.55695 z m 25.29167,9.6295 c 0.73823,-0.11281 0.92848,-0.49328 2.55207,-5.1038 0.55045,-1.56312 2.49618,-6.82123 3.72048,-10.05417 0.74904,-1.97793 0.75489,-1.98463 1.80254,-2.06365 l 1.05107,-0.0793 0.8118,2.06365 c 0.4465,1.13501 1.04806,2.77803 1.33682,3.65116 0.28876,0.87312 1.04766,2.95671 1.68646,4.6302 0.6388,1.67349 1.4491,3.90027 1.80066,4.9484 0.54492,1.62458 0.73884,1.92121 1.31462,2.01088 0.37148,0.0579 -1.22958,0.10301 -3.55791,0.10035 -2.32834,-0.003 -3.7947,-0.0511 -3.25859,-0.10758 l 0.97475,-0.10274 -0.97475,-2.76264 -0.97475,-2.76264 -2.41194,-5.6e-4 -2.41195,-5.5e-4 -0.53582,1.52135 c -0.2947,0.83675 -0.71789,2.08028 -0.94042,2.76341 l -0.40459,1.24206 0.97111,0.10253 c 0.53411,0.0564 0.0186,0.1047 -1.14555,0.10736 -1.16417,0.003 -1.79692,-0.044 -1.40611,-0.10374 z m 8.0921,-6.49287 c -0.0646,-0.1819 -0.57907,-1.63792 -1.14321,-3.23561 l -1.02571,-2.90489 -0.57181,1.84655 c -0.3145,1.01561 -0.82308,2.47164 -1.1302,3.23562 l -0.55838,1.38906 h 2.2734 c 1.705,0 2.24403,-0.0827 2.15591,-0.33073 z m 9.78432,6.48934 0.85989,-0.10672 v -8.31761 -8.31761 h -0.79375 c -0.43656,0 -0.79375,-0.11906 -0.79375,-0.26458 0,-0.16463 1.49931,-0.26459 3.96875,-0.26459 2.46945,0 3.96875,0.1 3.96875,0.26459 0,0.14552 -0.35718,0.26458 -0.79375,0.26458 h -0.79375 v 3.83646 3.83646 h 2.51355 2.51354 v -3.83646 -3.83646 h -0.79375 c -0.43656,0 -0.79375,-0.11906 -0.79375,-0.26458 0,-0.16463 1.4993,-0.26459 3.96875,-0.26459 2.46944,0 3.96875,0.1 3.96875,0.26459 0,0.14552 -0.35719,0.26458 -0.79375,0.26458 H 197.84 v 8.31761 8.31761 l 0.85989,0.10672 c 0.47295,0.0587 -0.98557,0.10671 -3.24114,0.10671 -2.25557,0 -3.71409,-0.048 -3.24115,-0.10671 l 0.8599,-0.10672 v -4.08427 -4.08428 h -2.51354 -2.51355 v 4.08428 4.08427 l 0.8599,0.10672 c 0.47294,0.0587 -0.98557,0.10671 -3.24115,0.10671 -2.25557,0 -3.71408,-0.048 -3.24114,-0.10671 z m 18.07765,0.006 c 0.54162,-0.0841 0.76735,-0.36072 1.10107,-1.34942 0.5173,-1.53255 1.92539,-5.39888 3.24736,-8.91658 0.54687,-1.45521 1.35601,-3.6281 1.79808,-4.82864 l 0.80377,-2.18282 1.079,0.002 1.07901,0.002 1.01794,2.84273 c 0.55988,1.56351 1.6612,4.53451 2.4474,6.60223 0.7862,2.06773 1.42945,3.85114 1.42945,3.96314 0,0.112 0.30532,1.00267 0.6785,1.97926 0.57492,1.50456 0.78698,1.7922 1.38906,1.8842 0.39081,0.0597 -1.25397,0.1064 -3.65506,0.10374 -2.4011,-0.003 -3.91914,-0.0515 -3.37344,-0.10862 0.5457,-0.0571 0.99219,-0.13379 0.99219,-0.17047 0,-0.0998 -1.50119,-4.4585 -1.72348,-5.0041 -0.16836,-0.41325 -0.49459,-0.46304 -2.60033,-0.39688 l -2.40782,0.0756 -0.50243,1.32292 c -0.27634,0.7276 -0.59915,1.6801 -0.71737,2.11667 -0.11821,0.43656 -0.29419,1.05322 -0.39105,1.37036 -0.15305,0.50108 -0.0601,0.59084 0.70974,0.68526 0.48722,0.0598 -0.007,0.10986 -1.09851,0.11135 -1.09141,0.001 -1.67779,-0.0449 -1.30308,-0.10306 z m 7.01174,-9.32259 c -0.588,-1.7367 -1.1073,-3.11942 -1.154,-3.07272 -0.0896,0.0896 -2.17341,5.97213 -2.17341,6.13537 0,0.0522 0.98921,0.095 2.19824,0.095 h 2.19825 z m 10.89394,9.31624 0.8599,-0.10672 v -8.31761 -8.31761 h -0.79375 c -0.43656,0 -0.79375,-0.11906 -0.79375,-0.26458 0,-0.16266 1.30964,-0.26459 3.39975,-0.26459 h 3.39976 l 0.98781,3.77032 c 0.5433,2.07367 1.2985,4.96093 1.67824,6.41614 l 0.69042,2.64584 0.85713,-3.57188 c 0.47142,-1.96453 1.13455,-4.82203 1.47363,-6.35 l 0.61651,-2.77812 3.37025,-0.0741 c 2.18356,-0.048 3.37025,0.0219 3.37025,0.19844 0,0.14987 -0.29766,0.27249 -0.66146,0.27249 h -0.66146 v 8.3168 8.3168 l 0.72761,0.11022 c 0.40018,0.0606 -1.05834,0.11023 -3.24115,0.11023 -2.18281,0 -3.64133,-0.0496 -3.24115,-0.11023 l 0.72761,-0.11022 -0.0286,-7.58919 -0.0286,-7.5892 -0.75898,3.175 c -0.41744,1.74625 -1.18932,5.02047 -1.71529,7.27604 -0.52596,2.25557 -1.01474,4.31483 -1.08617,4.57613 -0.1102,0.40309 -0.37697,0.46323 -1.76052,0.39687 l -1.63064,-0.0782 -0.36089,-1.45521 c -0.44858,-1.80875 -3.11733,-11.61427 -3.60056,-13.22916 -0.31851,-1.06439 -0.35896,-0.35793 -0.38158,6.66315 l -0.0253,7.85378 0.72761,0.11022 c 0.40018,0.0606 -0.10583,0.10901 -1.12448,0.10753 -1.01865,-0.001 -1.46513,-0.0507 -0.99219,-0.10941 z"
         id="path41" /></g></g></svg>
