<?xml version="1.0" encoding="UTF-8" standalone="no"?>
<!-- Created with Inkscape (http://www.inkscape.org/) -->

<svg
   width="1023.9999"
   height="1023.9999"
   viewBox="0 0 270.93333 270.93333"
   version="1.1"
   id="svg1"
   xml:space="preserve"
   inkscape:export-filename="ibrahim_ingiliz.svg"
   inkscape:export-xdpi="96"
   inkscape:export-ydpi="96"
   xmlns:inkscape="http://www.inkscape.org/namespaces/inkscape"
   xmlns:sodipodi="http://sodipodi.sourceforge.net/DTD/sodipodi-0.dtd"
   xmlns="http://www.w3.org/2000/svg"
   xmlns:svg="http://www.w3.org/2000/svg"><sodipodi:namedview
     id="namedview1"
     pagecolor="#ffffff"
     bordercolor="#ffffff"
     borderopacity="1"
     inkscape:showpageshadow="0"
     inkscape:pageopacity="0"
     inkscape:pagecheckerboard="false"
     inkscape:deskcolor="#505050"
     inkscape:document-units="mm"
     inkscape:zoom="0.38130453"
     inkscape:cx="784.15015"
     inkscape:cy="792.01787"
     inkscape:window-width="1920"
     inkscape:window-height="1043"
     inkscape:window-x="0"
     inkscape:window-y="0"
     inkscape:window-maximized="1"
     inkscape:current-layer="layer1"><inkscape:page
       x="0"
       y="0"
       width="270.93332"
       height="270.93332"
       id="page2"
       margin="0"
       bleed="0" /></sodipodi:namedview><defs
     id="defs1" /><g
     inkscape:label="Слой 1"
     inkscape:groupmode="layer"
     id="layer1"><path
       style="display:inline;fill:#fbc100;stroke:#fbc100;stroke-width:0.8895;stroke-dasharray:none;stroke-opacity:1"
       d="M 92.535631,217.76094 C 80.58965,216.41833 70.366424,212.77426 60.763808,206.4359 56.320819,203.50322 53.666016,201.31944 49.647304,197.29167 36.622568,184.23755 29.384231,166.68504 29.384231,148.155 c 0,-4.9648 0.66776,-11.08033 1.688476,-15.46355 3.814258,-16.37939 13.086199,-30.65265 26.341492,-40.550152 9.832746,-7.341941 20.177433,-11.49531 33.552453,-13.471232 2.737739,-0.404452 14.064788,-0.406809 16.605028,-0.0035 1.07867,0.171278 2.78494,0.441061 3.7917,0.599516 1.94789,0.306581 7.33392,1.67207 9.93686,2.519234 14.28032,4.647725 27.61999,14.851444 36.12545,27.632904 3.70733,5.57113 6.9103,12.39287 8.87075,18.89311 l 0.72952,2.41885 43.9495,0.003 c 37.64616,0.003 44.15576,0.0577 45.38772,0.38403 5.78418,1.53198 9.92874,5.8563 11.11148,11.59342 0.50566,2.45283 0.50566,7.05761 0,9.51044 -1.10348,5.3527 -5.0432,9.68307 -10.45774,11.49474 -0.85076,0.28466 -9.31775,0.37485 -45.36336,0.48327 l -44.31737,0.1333 -0.18274,0.65373 c -0.6195,2.21621 -2.89991,9.04003 -3.37685,10.10473 -4.45236,9.93938 -9.05657,16.59311 -16.2936,23.54652 -8.00681,7.69304 -18.02345,13.51873 -28.40548,16.52066 -3.32125,0.96033 -9.89267,2.24519 -13.46706,2.63312 -3.02321,0.32811 -10.030141,0.31185 -13.074829,-0.0303 z"
       id="path5"
       sodipodi:nodetypes="cssssssssssscccsssscscssscc" /><path
       style="display:inline;fill:#5b05b0;fill-opacity:1;stroke:#5b05b0;stroke-width:0.691833;stroke-dasharray:none;stroke-opacity:1"
       d="m 2.9730862,152.886 v -1.93726 l 5.687548,-0.17174 c 3.1281518,-0.0945 6.7837638,-0.17203 8.1235828,-0.17239 2.581898,-6.8e-4 3.447637,-0.25268 3.447637,-1.00353 0,-1.05038 -0.317847,-1.08909 -8.94318,-1.08909 H 2.9730862 v -1.96123 -1.96122 H 11.67781 c 8.50708,0 8.731216,0.0134 9.871492,0.58837 2.69589,1.35945 3.223258,5.97072 0.914658,7.99769 -1.280858,1.12461 -2.582446,1.29105 -11.580605,1.48082 l -7.9102688,0.16683 z M 13.432945,141.22713 c -5.5371877,-0.81352 -10.0643288,-1.59593 -10.0603132,-1.7387 0.00405,-0.14276 0.1002308,-1.04074 0.213814,-1.99552 0.1982418,-1.66642 0.2385362,-1.74235 1.0059986,-1.89585 0.4397164,-0.088 1.5904109,-0.1599 2.5571006,-0.1599 2.0102993,0 6.594203,-0.29934 6.470968,-0.42259 -0.04521,-0.0452 -2.134035,-0.38854 -4.6418401,-0.76297 -2.5078054,-0.37443 -4.5980421,-0.71918 -4.6449701,-0.76611 -0.1339231,-0.13393 0.2494137,-3.18569 0.4346392,-3.46018 0.099498,-0.14745 4.2329914,0.33719 10.320861,1.21009 l 10.154893,1.45605 -0.172035,1.43823 c -0.338047,2.8261 0.225402,2.53802 -5.38509,2.75334 -2.720598,0.10441 -4.946543,0.2925 -4.946543,0.41798 0,0.12547 0.106747,0.22813 0.237216,0.22813 0.130468,0 2.259516,0.29419 4.731217,0.65374 2.471701,0.35956 4.516924,0.65376 4.544942,0.65376 0.02802,0 -0.06096,0.88254 -0.197719,1.96121 -0.136762,1.07867 -0.317704,1.94934 -0.402092,1.93481 -0.08438,-0.0145 -4.683859,-0.69201 -10.221047,-1.50552 z m 11.505846,-10.4996 c -0.359559,-0.12259 -4.713475,-1.30915 -9.675371,-2.63677 -4.961895,-1.32763 -9.1078437,-2.48687 -9.2132178,-2.57608 -0.1053751,-0.0892 0.026062,-0.92325 0.2920841,-1.85341 0.3885286,-1.3585 0.5805351,-1.6804 0.9760788,-1.6364 0.2708231,0.0301 4.2579549,1.07168 8.8602929,2.31456 4.602339,1.24289 8.838582,2.38317 9.413874,2.53398 0.575292,0.1508 1.090917,0.3113 1.145834,0.35667 0.146191,0.12076 -0.828156,3.76536 -1.00012,3.74099 -0.08014,-0.0114 -0.439898,-0.12095 -0.799455,-0.24354 z m -3.7917,-8.91511 c -3.164107,-0.8419 -7.459186,-1.96288 -9.544621,-2.49107 -2.0854342,-0.52817 -3.8209225,-0.98161 -3.8566389,-1.00762 -0.063688,-0.0464 1.2251299,-3.33103 1.365406,-3.47984 0.039296,-0.0417 3.0521779,0.74824 6.6952919,1.75542 3.643113,1.00716 6.669135,1.7859 6.724493,1.73056 0.05536,-0.0553 -2.439932,-1.37483 -5.54509,-2.93215 -3.105157,-1.55732 -5.888373,-3.01413 -6.184922,-3.23736 l -0.539181,-0.40588 0.558274,-1.4246 c 0.30705,-0.78353 0.655058,-1.52392 0.77335,-1.64531 0.152726,-0.15672 17.394858,8.9561 18.2761,9.6593 0.05119,0.0408 -0.356105,1.19931 -0.905107,2.57437 -0.821273,2.05698 -1.092674,2.49432 -1.531309,2.46751 -0.293218,-0.0179 -3.121938,-0.72141 -6.286046,-1.56333 z m 147.614769,-3.64038 c -1.14004,-0.26525 -2.43878,-1.71281 -2.99114,-3.33391 -1.02599,-3.0111 -0.0801,-4.81104 3.4563,-6.57653 l 1.64189,-0.8197 0.79295,1.76733 c 0.43612,0.97204 0.69749,1.80033 0.58083,1.84066 -0.11667,0.0403 -0.82991,0.42753 -1.58498,0.86048 -1.04528,0.59934 -1.37286,0.93427 -1.37286,1.40361 0,1.11932 0.62028,1.3296 1.98016,0.6713 1.4276,-0.69109 1.96168,-1.4859 2.89308,-4.30552 1.29599,-3.92328 2.30477,-5.26103 4.62303,-6.13055 1.30739,-0.49038 3.40552,-0.3406 4.37424,0.31226 1.12672,0.75932 2.14262,2.74862 2.28031,4.4652 0.13476,1.67987 -0.52002,2.77391 -2.42921,4.05886 l -1.30053,0.8753 -0.83972,-1.79054 c -0.46184,-0.98479 -0.84354,-1.84937 -0.84821,-1.92128 -0.005,-0.072 0.34379,-0.33121 0.77435,-0.57621 1.24129,-0.70633 0.80039,-2.32856 -0.51907,-1.90978 -0.78163,0.24808 -1.16111,0.95635 -2.22957,4.16133 -1.38058,4.14122 -2.36087,5.34366 -5.21469,6.39643 -1.75338,0.64682 -2.95594,0.80982 -4.06716,0.55126 z m -143.564689,-7.1012 c -3.521951,-2.0189 -7.550864,-4.32009 -8.953138,-5.11372 -1.402275,-0.79363 -2.549592,-1.49147 -2.549592,-1.55075 0,-0.0932 3.888513,-6.934853 4.015632,-7.065303 0.02592,-0.02659 0.692181,0.353013 1.480577,0.843592 0.788397,0.490579 1.530319,0.927066 1.648717,0.96998 0.118396,0.04289 -0.205206,0.821917 -0.719117,1.731121 -0.51391,0.9092 -0.934383,1.74866 -0.934383,1.86547 0,0.1168 0.78268,0.6426 1.739288,1.16841 1.359599,0.74733 1.788899,0.88101 1.966546,0.61237 0.124992,-0.18902 0.537749,-0.90262 0.917237,-1.58578 0.379488,-0.68316 0.818369,-1.24101 0.975289,-1.23966 0.358329,0.003 3.031025,1.52455 3.031025,1.72546 0,0.0815 -0.409608,0.88078 -0.910239,1.77599 l -0.910238,1.62766 1.966866,1.11906 c 1.081777,0.61549 2.115503,1.06204 2.29717,0.99233 0.181666,-0.0697 0.713308,-0.84535 1.181426,-1.72363 0.468118,-0.87829 0.952509,-1.59687 1.076425,-1.59687 0.374017,0 3.132784,1.6835 3.138328,1.91511 0.0036,0.1508 -3.340429,6.09515 -4.024097,7.15322 -0.0166,0.0257 -2.911771,-1.60514 -6.433722,-3.62406 z m 137.158019,-3.2258 c -1.2059,-0.64982 -1.89813,-1.40124 -2.61369,-2.83719 -0.80966,-1.62479 -0.82647,-2.6443 -0.0666,-4.04325 0.54531,-1.004015 3.75729,-3.798448 4.11319,-3.578494 0.0839,0.05189 0.61717,0.768913 1.18506,1.593469 l 1.03255,1.499205 -0.76066,0.5473 c -1.8062,1.29958 -2.30719,1.87247 -2.12884,2.43441 0.32441,1.02212 1.32119,0.9627 2.59988,-0.155 0.831,-0.72637 1.22166,-1.78528 1.77376,-4.807816 0.59458,-3.255224 0.87255,-3.937213 2.10849,-5.173143 1.75362,-1.75362 4.46871,-2.329007 6.15069,-1.303454 1.92646,1.174615 3.23536,3.972082 2.66586,5.697682 -0.28882,0.875119 -2.41994,3.462371 -2.85197,3.462371 -0.1033,0 -0.69596,-0.72439 -1.31701,-1.60977 l -1.12919,-1.609758 0.69906,-0.55741 c 0.76679,-0.611422 0.90934,-1.475927 0.32352,-1.962118 -0.40989,-0.340174 -1.11164,-0.08885 -1.6867,0.60403 -0.17571,0.21172 -0.59981,1.927803 -0.94243,3.813513 -0.38247,2.104993 -0.83515,3.771903 -1.17264,4.317973 -1.69524,2.74295 -6.0149,4.7276 -7.98229,3.66745 z M 31.18755,101.79643 c -3.07726,-2.409701 -6.712916,-5.254074 -8.079235,-6.320822 -1.366319,-1.066747 -2.524366,-1.975628 -2.573438,-2.019728 -0.04907,-0.04408 0.982593,-1.433844 2.292589,-3.088324 3.161751,-3.99319 3.976273,-4.252754 7.085116,-2.257814 1.951192,1.252077 3.394096,2.948906 3.394096,3.99141 0,0.837958 0.03212,0.864821 0.911304,0.762173 0.605411,-0.07067 1.217763,0.07442 1.824292,0.432287 0.701646,0.413983 4.907191,3.663731 6.509481,5.030062 0.22931,0.195542 -1.823061,3.116946 -2.189745,3.116946 -0.112054,0 -1.704182,-1.17673 -3.538063,-2.614961 -1.833881,-1.438233 -3.528466,-2.614962 -3.765744,-2.614962 -0.443222,0 -1.059008,0.477197 -1.059008,0.820672 0,0.106197 1.588592,1.449608 3.530203,2.985361 1.941611,1.53575 3.530202,2.90586 3.530202,3.04469 0,0.20558 -0.731498,1.21427 -2.106047,2.90409 -0.09404,0.11562 -2.688743,-1.76137 -5.766003,-4.17108 z m -1.280326,-8.218856 c 0,-0.622907 -2.082125,-2.37365 -2.709619,-2.278365 -0.274534,0.04171 -0.660317,0.319834 -0.857294,0.618093 -0.332521,0.503497 -0.251122,0.629005 1.137914,1.75448 1.395003,1.130307 1.527562,1.183667 1.962526,0.790034 0.25656,-0.23218 0.466473,-0.630093 0.466473,-0.884242 z m 123.864406,4.032181 -2.82805,-3.048385 0.60663,-0.591626 c 3.05343,-2.977927 14.4826,-13.439321 14.62372,-13.385455 0.1,0.03815 1.38077,1.359855 2.84624,2.937121 l 2.6645,2.867757 -1.31121,1.250812 c -0.72118,0.687947 -1.41923,1.25081 -1.55123,1.25081 -0.132,0 -0.73612,-0.588364 -1.34248,-1.307479 -0.60638,-0.719115 -1.24258,-1.302996 -1.4138,-1.297513 -0.17121,0.0054 -0.9463,0.602134 -1.72242,1.325891 l -1.41112,1.315926 1.41057,1.42831 1.41057,1.428319 -1.43768,1.294608 -1.43769,1.294608 -1.30748,-1.42749 -1.30748,-1.427499 -1.82057,1.65025 -1.82056,1.65024 1.40981,1.620906 1.40983,1.620905 -1.27915,1.29868 c -0.70353,0.714279 -1.343,1.298679 -1.42103,1.298679 -0.078,0 -1.41449,-1.371766 -2.96992,-3.048375 z M 42.320528,95.167673 c -0.57957,-0.286893 -1.668209,-1.143798 -2.419197,-1.904231 l -1.365433,-1.382609 1.437234,-1.419375 1.437235,-1.419385 1.259256,1.362595 c 1.36121,1.472903 1.405924,1.495507 2.160091,1.091891 0.795589,-0.425784 0.62023,-1.405133 -0.414231,-2.313401 -1.139553,-1.000542 -1.30504,-1.039917 -5.490933,-1.306491 -3.878003,-0.246965 -4.530169,-0.486796 -6.064895,-2.230338 -2.001755,-2.274113 -2.058693,-4.31583 -0.17867,-6.406868 2.159793,-2.402209 4.169526,-2.626427 6.780835,-0.75651 l 1.475615,1.056665 -1.13504,1.165503 c -1.613837,1.657152 -1.973787,1.811286 -2.68017,1.147674 -0.680156,-0.638975 -1.272806,-0.696297 -1.713161,-0.165702 -0.425879,0.513153 -0.13372,1.310649 0.603149,1.646389 0.331931,0.151238 2.183025,0.358127 4.113543,0.459753 3.980738,0.209556 5.100699,0.560491 6.612078,2.07187 2.098405,2.098405 2.950194,4.092987 2.478094,5.802784 -0.516298,1.869877 -3.231907,4.0221 -5.074333,4.021606 -0.422016,-1.08e-4 -1.241497,-0.234936 -1.821067,-0.52182 z M 147.92112,91.956826 c -0.74759,-0.607647 -1.36538,-1.208198 -1.37286,-1.334556 -0.008,-0.126359 0.99739,-2.16507 2.23304,-4.530467 1.23566,-2.365399 2.19469,-4.35268 2.13119,-4.416181 -0.0635,-0.0635 -1.45693,1.587471 -3.0965,3.668827 -1.63959,2.081358 -3.07726,3.789589 -3.19482,3.796062 -0.11757,0.0069 -0.85086,-0.507203 -1.62953,-1.141503 l -1.41578,-1.153281 6.46351,-8.105101 6.4635,-8.105101 1.5727,1.270055 c 0.86498,0.69853 1.54657,1.383516 1.51466,1.52219 -0.0319,0.138675 -1.00824,2.041248 -2.16961,4.227941 -1.16138,2.186693 -2.06195,4.02545 -2.00128,4.086126 0.0607,0.06067 1.42763,-1.538731 3.03767,-3.55424 l 2.92736,-3.664563 1.51637,1.213399 1.51638,1.2134 -4.19999,5.251365 c -2.31,2.88825 -5.19721,6.516356 -6.41605,8.062455 -1.21883,1.546099 -2.28461,2.808131 -2.36839,2.804534 -0.0838,-0.004 -0.76398,-0.503724 -1.51157,-1.111361 z M 46.760079,81.660932 C 43.747312,77.396863 41.075254,73.58893 40.822172,73.198858 l -0.460149,-0.70922 3.307155,-2.303625 3.307155,-2.303626 0.730364,0.894207 c 0.4017,0.491814 0.911583,1.200649 1.133073,1.575189 0.399058,0.674808 0.389672,0.689961 -1.035176,1.671292 -0.790837,0.54467 -1.50295,1.095585 -1.582472,1.224256 -0.157778,0.25529 1.257303,2.592178 1.885244,3.113322 0.320801,0.266241 0.663491,0.134427 1.939275,-0.745936 l 1.549617,-1.069323 1.043327,1.470702 c 1.182731,1.667209 1.176403,1.690973 -0.785743,2.950078 -0.77037,0.494345 -1.216063,0.945905 -1.111097,1.125722 0.140337,0.240408 1.614475,2.420459 2.478227,3.664958 0.09422,0.135753 0.939021,-0.301003 1.877334,-0.970569 0.938313,-0.669567 1.763888,-1.217394 1.83461,-1.217394 0.07073,0 0.606842,0.674163 1.191376,1.498139 0.832167,1.173045 0.992701,1.563592 0.739794,1.799772 -0.332973,0.31095 -6.445682,4.546983 -6.561418,4.546983 -0.03566,0 -2.529821,-3.488783 -5.542589,-7.752853 z m 91.385111,3.097192 -1.45981,-0.966512 2.63655,-4.209601 c 1.45009,-2.31528 3.87211,-6.223215 5.38225,-8.684298 1.51014,-2.461083 2.84565,-4.479404 2.9678,-4.485157 0.12214,-0.0057 0.91136,0.414987 1.75381,0.93498 l 1.53173,0.94544 -0.94885,1.473402 c -0.52186,0.810371 -1.52477,2.41479 -2.22867,3.565374 -0.7039,1.150585 -2.38496,3.857073 -3.73571,6.014419 -1.35073,2.157346 -2.78448,4.481277 -3.18609,5.16429 -0.40162,0.683013 -0.84788,1.235618 -0.9917,1.22801 -0.14382,-0.0076 -0.91842,-0.448764 -1.72131,-0.980347 z m -9.65379,-5.083453 c -0.93485,-0.426225 -1.73111,-0.803944 -1.76946,-0.839374 -0.0931,-0.08596 8.54865,-18.257792 8.81075,-18.527309 0.11255,-0.115739 1.59424,0.472628 3.29264,1.307483 3.80302,1.869393 4.12821,2.271585 3.97586,4.917373 -0.0794,1.377659 -0.3065,2.234768 -0.91835,3.464802 -2.04615,4.113494 -3.74896,5.031328 -6.72328,3.623942 l -1.30749,-0.618673 -1.83047,3.723357 -1.83048,3.723355 z m 9.34201,-10.633818 c 0.32933,-0.490294 0.73881,-1.358827 0.90996,-1.930071 0.28817,-0.961859 0.26656,-1.074753 -0.29243,-1.527397 -0.33198,-0.268825 -0.68585,-0.488773 -0.78637,-0.488773 -0.36491,0 -2.32994,4.677269 -2.02073,4.809835 0.75938,0.325554 1.61841,-0.01326 2.18957,-0.863594 z M 66.124487,79.433255 c -1.694807,-0.937364 -2.193548,-1.821577 -5.120972,-9.078907 -2.317004,-5.744052 -2.515304,-6.875344 -1.475592,-8.418174 1.420055,-2.107219 4.766015,-3.222844 6.674924,-2.225584 1.473308,0.769692 2.136142,1.886963 4.515762,7.611743 2.769086,6.661739 3.065239,8.116669 2.021651,9.931866 -1.105286,1.922515 -4.849715,3.155829 -6.615773,2.179056 z m 3.095944,-3.924107 c 0.211786,-0.336324 0.0249,-1.062379 -0.807713,-3.137957 -2.334298,-5.819059 -3.508063,-8.472413 -3.941916,-8.910901 -0.413554,-0.417968 -0.50307,-0.422345 -1.033888,-0.05054 -0.681776,0.477534 -0.722929,0.912834 -0.192634,2.037593 0.213675,0.453205 1.200219,2.809606 2.192321,5.236445 0.992101,2.426839 1.999364,4.640813 2.238361,4.919942 0.497912,0.581519 1.14465,0.541942 1.545469,-0.09457 z m 7.375065,1.009856 c -1.162744,-3.977996 -4.875173,-19.605148 -4.697113,-19.772103 0.272072,-0.255106 7.486277,-2.144712 7.63196,-1.999029 0.154165,0.154165 0.839236,2.858052 0.842598,3.325628 0.0022,0.30592 -0.396522,0.525947 -1.369753,0.755868 -2.662491,0.629 -2.557088,0.512216 -2.100004,2.32676 0.219597,0.871759 0.514891,1.585016 0.65621,1.585016 0.141318,0 0.963568,-0.183104 1.827221,-0.4069 0.863653,-0.223795 1.624285,-0.352893 1.690293,-0.286884 0.244339,0.244338 0.896192,3.119903 0.77741,3.429442 -0.06769,0.17639 -0.84329,0.473551 -1.723562,0.660358 -0.880273,0.186806 -1.644285,0.411092 -1.697804,0.498414 -0.05352,0.08732 0.406103,2.159214 1.021384,4.604206 0.61528,2.444992 1.10379,4.461582 1.085575,4.481313 -0.01821,0.01973 -0.89272,0.277258 -1.943345,0.572286 -1.392697,0.391085 -1.934839,0.452213 -2.00107,0.225625 z m 40.868124,-0.658948 c -0.81573,-0.239983 -1.54747,-0.501253 -1.62608,-0.5806 -0.0786,-0.07934 0.0896,-0.903061 0.37391,-1.830475 0.28426,-0.927414 1.58836,-5.334084 2.89801,-9.792599 1.30964,-4.458515 2.40274,-8.13158 2.42912,-8.162367 0.12688,-0.148119 5.93619,1.743478 6.65077,2.165592 0.44913,0.265304 0.995,0.858344 1.21306,1.317869 1.09567,2.308959 -0.1985,7.593167 -2.31473,9.451217 -1.09635,0.962602 -1.96678,1.069659 -3.91927,0.482046 -1.48576,-0.447148 -1.30884,-0.711204 -2.65554,3.963394 -0.549,1.905656 -1.12596,3.45525 -1.28214,3.443542 -0.15617,-0.01171 -0.95137,-0.217636 -1.76711,-0.457619 z m 7.33744,-11.055644 c 0.61922,-0.664648 1.19125,-2.873471 0.97121,-3.750183 -0.16422,-0.65429 -1.10879,-1.147707 -1.45088,-0.757903 -0.10721,0.122154 -0.46773,1.203421 -0.80116,2.402817 -0.5129,1.844987 -0.5493,2.216762 -0.23638,2.414838 0.57762,0.365627 0.96106,0.287388 1.51721,-0.309569 z m -13.53469,9.774046 -0.8815,-0.107826 0.1798,-1.589229 c 0.20789,-1.837523 0.062,-2.023747 -1.59044,-2.029864 l -1.08167,-0.0041 -0.18148,1.210166 c -0.29873,1.992106 -0.27019,1.967624 -2.06684,1.772937 -0.88152,-0.09552 -1.73198,-0.246849 -1.88992,-0.336281 -0.19759,-0.111889 0.0163,-1.467558 0.6857,-4.346549 2.19899,-9.457174 3.69677,-15.688328 3.79451,-15.78606 0.14349,-0.143497 6.39397,0.659263 6.57976,0.845051 0.0826,0.0826 -0.004,4.743098 -0.19194,10.356677 l -0.34211,10.206507 -1.06619,-0.04185 c -0.5864,-0.02302 -1.46286,-0.09037 -1.94768,-0.149677 z M 111.0871,61.437149 c 0.10018,-2.514985 0.10742,-4.497983 0.0161,-4.406661 -0.28548,0.285481 -2.22403,9.154826 -2.22403,10.175489 0,0.33964 0.23632,0.49325 0.84986,0.552407 0.78743,0.07592 0.86184,0.01471 1.0129,-0.833295 0.0897,-0.503381 0.24501,-2.972954 0.34518,-5.48794 z M 91.79553,73.527875 C 91.731051,73.420007 91.592252,68.789341 91.487076,63.237506 L 91.295848,53.14326 91.915739,52.97734 c 0.340941,-0.09125 1.234447,-0.167528 1.985568,-0.169492 l 1.365677,-0.0036 0.07255,3.726325 0.07255,3.726325 h 1.033513 1.033513 l -0.07498,-3.726325 -0.07498,-3.726325 h 1.956981 1.956979 l 0.15339,3.203331 c 0.0844,1.761834 0.22667,6.409933 0.31623,10.329112 l 0.16284,7.125779 h -1.950193 -1.950186 l -0.168835,-2.549591 c -0.09285,-1.402275 -0.169444,-3.520396 -0.170188,-4.706937 l -0.0014,-2.157345 H 96.54745 95.460118 l 0.168341,4.837685 0.16834,4.837684 h -1.942037 c -1.06812,0 -1.994789,-0.08826 -2.059262,-0.196122 z"
       id="path3" /><path
       style="display:inline;fill:#000000;stroke:#000000;stroke-width:0.988333;stroke-opacity:1"
       d="m 81.422031,197.93482 v -1.30748 h 3.922447 3.922447 v -46.02337 -46.0234 h -3.922447 -3.922447 v -1.30747 -1.30748 h 21.181219 21.18121 v 1.30748 1.30747 h -3.7917 -3.7917 v 46.0234 46.02337 h 3.7917 3.7917 v 1.30748 1.30749 H 102.60325 81.422031 Z"
       id="path2"
       sodipodi:nodetypes="ccccccccccccccccccccccccc" /><text
       xml:space="preserve"
       style="font-style:normal;font-variant:normal;font-weight:bold;font-stretch:normal;font-size:38.8056px;font-family:Vrinda;-inkscape-font-specification:'Vrinda, Bold';font-variant-ligatures:normal;font-variant-caps:normal;font-variant-numeric:normal;font-variant-east-asian:normal;text-align:start;writing-mode:lr-tb;direction:ltr;text-anchor:start;fill:#000000;fill-opacity:1;fill-rule:evenodd;stroke:#000000;stroke-width:1;stroke-dasharray:none;stroke-opacity:1"
       x="123.08285"
       y="159.42651"
       id="text9-0"><tspan
         sodipodi:role="line"
         id="tspan9-2"
         style="font-style:normal;font-variant:normal;font-weight:bold;font-stretch:normal;font-size:38.8056px;font-family:Vrinda;-inkscape-font-specification:'Vrinda, Bold';font-variant-ligatures:normal;font-variant-caps:normal;font-variant-numeric:normal;font-variant-east-asian:normal;stroke-width:1"
         x="123.08285"
         y="159.42651">brahims</tspan></text><text
       xml:space="preserve"
       style="font-style:normal;font-variant:normal;font-weight:bold;font-stretch:normal;font-size:56.6944px;font-family:C059;-inkscape-font-specification:'C059, Bold';font-variant-ligatures:normal;font-variant-caps:normal;font-variant-numeric:normal;font-variant-east-asian:normal;text-align:start;writing-mode:lr-tb;direction:ltr;text-anchor:start;fill:#000000;fill-opacity:1;fill-rule:evenodd;stroke:#000000;stroke-width:0.934352;stroke-dasharray:none;stroke-opacity:1"
       x="179.42397"
       y="199.27965"
       id="text9-0-5"
       transform="scale(0.94210523,1.0614525)"><tspan
         sodipodi:role="line"
         id="tspan9-2-2"
         style="font-style:normal;font-variant:normal;font-weight:bold;font-stretch:normal;font-size:56.6944px;font-family:C059;-inkscape-font-specification:'C059, Bold';font-variant-ligatures:normal;font-variant-caps:normal;font-variant-numeric:normal;font-variant-east-asian:normal;stroke-width:0.934352"
         x="179.42397"
         y="199.27965">TV</tspan></text></g></svg>
