<?xml version="1.0" encoding="UTF-8" standalone="no"?>
<!-- Created with Inkscape (http://www.inkscape.org/) -->

<svg
   width="1023.9999"
   height="1023.9999"
   viewBox="0 0 270.93333 270.93333"
   version="1.1"
   id="svg1"
   xml:space="preserve"
   inkscape:export-filename="ibrahimlive_fa.png"
   inkscape:export-xdpi="96"
   inkscape:export-ydpi="96"
   xmlns:inkscape="http://www.inkscape.org/namespaces/inkscape"
   xmlns:sodipodi="http://sodipodi.sourceforge.net/DTD/sodipodi-0.dtd"
   xmlns="http://www.w3.org/2000/svg"
   xmlns:svg="http://www.w3.org/2000/svg"><sodipodi:namedview
     id="namedview1"
     pagecolor="#ffffff"
     bordercolor="#ffffff"
     borderopacity="1"
     inkscape:showpageshadow="0"
     inkscape:pageopacity="0"
     inkscape:pagecheckerboard="false"
     inkscape:deskcolor="#505050"
     inkscape:document-units="mm"
     inkscape:zoom="0.38130453"
     inkscape:cx="784.15015"
     inkscape:cy="792.01787"
     inkscape:window-width="1920"
     inkscape:window-height="1043"
     inkscape:window-x="0"
     inkscape:window-y="0"
     inkscape:window-maximized="1"
     inkscape:current-layer="layer1"><inkscape:page
       x="0"
       y="0"
       width="270.93332"
       height="270.93332"
       id="page2"
       margin="0"
       bleed="0" /></sodipodi:namedview><defs
     id="defs1" /><g
     inkscape:label="Слой 1"
     inkscape:groupmode="layer"
     id="layer1"><g
       id="g109"
       transform="translate(-2.4039947,9.9030248)"><path
         style="display:inline;fill:#fbc100;stroke:#fbc100;stroke-width:0.849528;stroke-dasharray:none;stroke-opacity:1"
         d="m 177.87159,203.09706 c 11.53719,-1.26804 21.41055,-4.70974 30.68456,-10.69612 4.29095,-2.7698 6.85491,-4.83233 10.7361,-8.63641 12.57903,-12.32918 19.56966,-28.90691 19.56966,-46.40792 0,-4.68907 -0.64491,-10.46497 -1.6307,-14.60477 -3.68373,-15.46977 -12.63839,-28.950399 -25.44007,-38.29825 -9.49626,-6.93421 -19.48696,-10.856923 -32.40426,-12.723127 -2.64404,-0.381993 -13.58348,-0.384218 -16.03679,-0.0038 -1.04177,0.161781 -2.68964,0.416576 -3.66197,0.566237 -1.88122,0.289551 -7.08293,1.579202 -9.59679,2.379319 -13.79166,4.389622 -26.67483,14.026681 -34.88924,26.098351 -3.58048,5.26173 -6.67383,11.70463 -8.5672,17.84391 l -0.70454,2.2845 -42.445562,0.003 c -36.3579,0.003 -42.64474,0.0544 -43.83453,0.36271 -5.58624,1.4469 -9.58898,5.53108 -10.7312696,10.94959 -0.48834,2.31661 -0.48834,6.66568 0,8.98228 1.06574,5.05545 4.8706196,9.14534 10.0998896,10.85639 0.82165,0.26887 8.9989,0.35404 43.81104,0.45644 l 42.800812,0.12595 0.17649,0.61743 c 0.59831,2.09313 2.80068,8.53801 3.26129,9.54358 4.29999,9.3874 8.74665,15.67163 15.73602,22.23887 7.73282,7.26583 17.40669,12.76799 27.43342,15.60322 3.20762,0.907 9.55417,2.1205 13.00624,2.48688 2.91976,0.3099 9.68691,0.29454 12.6274,-0.0288 z"
         id="path5"
         sodipodi:nodetypes="cssssssssssscccsssscscssscc" /><path
         style="display:inline;fill:#5908ac"
         d="m 228.71087,205.90844 c -0.10914,-0.10914 -0.27781,-0.20265 -0.37483,-0.20781 -0.097,-0.005 -0.42862,-0.1498 -0.73691,-0.32142 -0.30829,-0.17163 -0.61874,-0.25383 -0.6899,-0.18267 -0.0712,0.0712 -0.29517,-0.0819 -0.49781,-0.34004 -0.34287,-0.43685 -0.33172,-0.44188 0.16074,-0.0725 0.49777,0.37333 0.50626,0.36777 0.14316,-0.0937 -0.2123,-0.26982 -0.65392,-0.59244 -0.98137,-0.71694 -0.65982,-0.25086 -1.59144,-1.87308 -1.74828,-3.04425 -0.16248,-1.21322 0.89665,-2.88889 2.00118,-3.16611 0.39267,-0.0986 0.64638,-0.2885 0.56381,-0.4221 -0.0826,-0.1336 -0.052,-0.21893 0.068,-0.18962 0.41594,0.10164 2.40666,-0.57479 2.6545,-0.90198 0.13699,-0.18085 0.40209,-0.86461 0.58912,-1.51945 0.18702,-0.65485 0.66137,-1.48828 1.05412,-1.85209 0.78075,-0.72321 0.99235,-1.72747 0.41098,-1.95056 -0.73333,-0.28141 -1.74204,-2.77522 -1.76136,-4.3546 -0.0346,-2.8269 0.92372,-4.54393 3.19024,-5.71599 0.73917,-0.38224 0.9084,-0.38595 1.58749,-0.0348 1.26998,0.65673 1.20435,1.29501 -0.26012,2.52986 -0.71156,0.6 -1.29375,1.31202 -1.29375,1.58227 0,0.27026 -0.14169,0.5386 -0.31486,0.59633 -0.37005,0.12335 -0.52567,2.32039 -0.16436,2.32039 0.13523,0 0.17737,0.11084 0.0937,0.2463 -0.0837,0.13547 -0.0312,0.32109 0.11667,0.41249 0.1479,0.0914 0.2689,0.35367 0.2689,0.58281 0,0.22914 0.3166,0.68867 0.70356,1.02117 0.71253,0.61226 1.47717,0.83271 3.67327,1.05904 0.66769,0.0688 1.61707,0.29353 2.10971,0.49937 0.81795,0.34176 0.87628,0.43908 0.67173,1.12081 -0.48632,1.6209 -0.57463,1.72342 -1.30715,1.51751 -1.07948,-0.30343 -3.30222,-0.32768 -3.6683,-0.04 -0.1819,0.14294 -0.33073,0.15666 -0.33073,0.0305 0,-0.12617 -0.47625,0.27621 -1.05834,0.89418 -1.10777,1.17606 -1.41776,2.50932 -0.74083,3.18626 0.17463,0.17462 0.21958,0.3175 0.0999,0.3175 -0.11969,0 -0.10179,0.14882 0.0398,0.33073 0.14155,0.1819 0.40631,1.05503 0.58836,1.94028 0.31565,1.53499 0.29975,1.67119 -0.34303,2.93966 -0.46715,0.92189 -0.95456,1.46322 -1.58814,1.76388 -0.94815,0.44992 -2.58283,0.58128 -2.92877,0.23534 z m 1.39336,-2.73775 c 0.45811,-0.1597 0.76599,-0.39866 0.68418,-0.53104 -0.0818,-0.13237 0.0197,-0.30533 0.22567,-0.38435 0.41864,-0.16065 0.31312,-1.31929 -0.17795,-1.9539 -0.23516,-0.30389 -0.21448,-0.33668 0.10165,-0.16116 0.28711,0.15941 0.27197,0.0877 -0.0547,-0.25909 -0.40491,-0.42986 -0.5688,-0.44434 -1.58456,-0.14001 -0.62311,0.18669 -1.39646,0.62379 -1.71855,0.97134 -0.3221,0.34754 -0.51721,0.6319 -0.43358,0.6319 0.0836,0 -0.006,0.19012 -0.19857,0.42248 -0.2929,0.35292 -0.28734,0.45885 0.0337,0.64334 0.21141,0.12148 0.6225,0.40383 0.91354,0.62744 0.63633,0.48892 1.10701,0.51726 2.20916,0.13305 z m 24.3632,-13.26954 c -1.30771,-1.12634 -1.5483,-1.63337 -1.2881,-2.71462 0.40689,-1.69075 0.58282,-4.03094 0.39646,-5.27365 -0.15313,-1.02115 -0.23791,-1.13365 -0.75576,-1.00286 -0.32081,0.081 -0.64282,0.23045 -0.71558,0.33205 -0.14324,0.20001 -1.76092,1.06527 -1.98087,1.05952 -0.0739,-0.002 -0.60674,0.18551 -1.18414,0.41654 -0.97021,0.3882 -2.84497,0.41152 -4.32099,0.0537 -0.68716,-0.16656 -1.45657,-0.93012 -2.42206,-2.40364 -0.57462,-0.87698 -0.45689,-2.93878 0.26016,-4.55614 0.25806,-0.58209 0.45082,-1.14763 0.42834,-1.25677 -0.0225,-0.10914 0.0782,-0.19844 0.22372,-0.19844 0.14553,0 0.24186,-0.0893 0.21408,-0.19844 -0.0278,-0.10914 0.32346,-0.9673 0.78054,-1.90703 0.58955,-1.21207 0.75239,-1.80338 0.56034,-2.03479 -0.1489,-0.17941 -0.41318,-0.27154 -0.58728,-0.20473 -0.57075,0.21902 -3.01514,-2.34135 -3.24033,-3.39407 -0.0233,-0.10914 -0.0664,-0.22821 -0.0958,-0.26459 -0.0824,-0.10228 -0.26252,-1.01736 -0.42955,-2.18281 -0.12384,-0.8641 0.001,-1.33788 0.68257,-2.58155 0.45884,-0.83777 1.05948,-1.64376 1.33476,-1.79108 0.46668,-0.24976 1.90264,-0.14839 2.41904,0.17076 0.32142,0.19865 0.15398,0.9543 -0.31548,1.42375 -0.4402,0.44019 -0.59852,0.89597 -0.62038,1.78593 -0.008,0.32743 -0.10987,0.59532 -0.22629,0.59532 -0.3284,0 -0.24946,1.70255 0.11907,2.56807 0.1819,0.42722 0.78255,1.17228 1.33477,1.6557 l 1.00405,0.87895 2.03866,-0.19009 c 3.73261,-0.34805 4.23128,-0.29869 4.57363,0.45268 0.45583,1.00045 -0.0583,1.91459 -1.11713,1.98608 -2.55986,0.17286 -3.1208,0.5683 -4.34904,3.06588 -0.49181,1.00007 -1.03033,1.98234 -1.19671,2.18281 -0.16638,0.20048 -0.22029,0.3645 -0.1198,0.3645 0.10049,0 -0.0711,0.35637 -0.38121,0.79194 -0.31015,0.43557 -0.48983,0.91182 -0.39928,1.05834 0.0905,0.14651 0.0641,0.26639 -0.0589,0.26639 -0.38914,0 -0.24983,1.17699 0.17848,1.50796 0.38012,0.29373 1.79813,0.29151 3.05736,-0.005 0.29151,-0.0686 1.42507,-0.59611 2.51903,-1.17225 1.90877,-1.00528 2.03342,-1.03442 3.08978,-0.72252 0.60542,0.17876 1.40662,0.65504 1.78044,1.05841 0.59787,0.64511 0.68353,0.97554 0.71165,2.74527 0.0387,2.43223 0.0328,2.53161 -0.30133,5.16338 -0.32967,2.59622 -0.73292,3.21857 -1.60099,2.4709 z m 2.64986,-18.33955 c -0.46175,-0.55638 -0.53419,-1.08834 -0.25,-1.83584 0.32687,-0.85971 2.02911,-1.04936 2.51144,-0.2798 0.38857,0.61995 0.36589,1.60992 -0.0463,2.02213 -0.50419,0.50419 -1.8279,0.56007 -2.21511,0.0935 z m -0.48298,-28.9675 c -0.94259,-0.20974 -1.34411,-0.61617 -1.35081,-1.3673 -0.005,-0.59243 -0.83337,-2.32408 -1.11139,-2.32408 -0.11857,0 -0.21558,-0.16402 -0.21558,-0.36448 0,-0.20046 -0.18547,-0.51841 -0.41216,-0.70654 -0.22669,-0.18814 -0.58817,-0.70873 -0.80328,-1.15688 -0.21512,-0.44814 -0.57774,-1.15438 -0.80584,-1.5694 -0.22809,-0.41503 -0.43738,-0.90903 -0.46508,-1.09779 -0.0277,-0.18876 -0.1879,-0.5089 -0.35599,-0.71143 -0.16808,-0.20254 -0.3764,-0.77007 -0.46292,-1.2612 -0.0865,-0.49113 -0.21843,-0.99183 -0.29311,-1.11267 -0.19696,-0.31868 -0.79362,-3.48066 -1.0154,-5.38107 -0.051,-0.43656 -0.11936,-0.85328 -0.15201,-0.92604 -0.0327,-0.0728 -0.0453,-0.22159 -0.028,-0.33073 0.0172,-0.10914 -0.058,-0.18434 -0.16711,-0.16711 -0.64665,0.10211 -1.66359,-0.0658 -1.54647,-0.25527 0.0761,-0.12317 -0.32706,-0.1774 -0.89597,-0.12051 -0.74807,0.0748 -1.42238,-0.0932 -2.43621,-0.60693 -2.52687,-1.28046 -3.97172,-3.35461 -4.31362,-6.19237 -0.1829,-1.5181 0.18542,-3.07109 0.65897,-2.77843 0.14579,0.0901 0.26507,0.0377 0.26507,-0.11637 0,-0.31351 1.57593,-0.39365 1.60775,-0.0818 0.0111,0.10914 0.0796,0.43656 0.15223,0.7276 0.0726,0.29105 0.15279,0.88636 0.1782,1.32292 0.0254,0.43656 0.11986,0.91281 0.20989,1.05833 0.09,0.14553 0.30566,0.70512 0.47918,1.24355 0.26539,0.82353 0.99297,1.63226 2.53213,2.81455 0.31382,0.24106 1.50517,0.20682 1.92955,-0.0555 0.20911,-0.12923 0.22104,-0.39044 0.0396,-0.86759 -0.33839,-0.89004 -0.16199,-2.86457 0.30763,-3.4433 0.31963,-0.3939 0.3159,-0.42764 -0.0279,-0.25207 -0.22955,0.11724 -0.20166,0.0427 0.0661,-0.17682 0.25466,-0.20873 0.46302,-0.47149 0.46302,-0.5839 0,-0.11241 0.26789,-0.43721 0.59532,-0.72178 1.61411,-1.40289 4.42931,-1.66742 5.91195,-0.55553 0.4503,0.33769 0.92655,0.61535 1.05833,0.61702 0.3245,0.004 1.10198,1.82264 1.12988,2.6428 0.0416,1.22274 -0.49109,2.26658 -1.82933,3.5847 -0.73155,0.72055 -1.41484,1.29644 -1.51843,1.27976 -0.10359,-0.0167 -0.45623,0.0917 -0.78365,0.24091 -0.68683,0.31293 -0.7604,1.03053 -0.23959,2.3368 0.19565,0.49071 0.34447,1.45772 0.33073,2.1489 -0.0137,0.69118 0.0643,1.25673 0.17344,1.25677 0.10914,4e-5 0.17954,0.0894 0.15643,0.19852 -0.0231,0.10914 0.0264,0.37703 0.10995,0.59531 0.0836,0.21828 0.21515,1.01544 0.2924,1.77146 0.1657,1.6216 1.30258,5.03194 1.86492,5.59427 0.32376,0.32377 0.46714,0.33333 0.80417,0.0536 0.22558,-0.18721 0.41015,-0.60363 0.41015,-0.92536 0,-0.32173 0.0828,-0.66778 0.18405,-0.76901 0.46164,-0.46164 0.70098,-5.01332 0.33138,-6.30204 -0.33705,-1.17524 -0.22167,-1.22723 2.29269,-1.03317 0.49616,0.0383 0.96638,2.98993 0.81017,5.08551 -0.14165,1.90034 -0.45423,3.11908 -1.13796,4.43699 -0.18512,0.35681 -0.27612,0.74658 -0.20221,0.86616 0.0739,0.11957 -0.0116,0.2174 -0.18993,0.2174 -0.17837,0 -0.25506,0.0692 -0.17043,0.15388 0.0846,0.0846 -0.0146,0.55705 -0.22048,1.04983 -0.2059,0.49278 -0.37619,1.28674 -0.37841,1.76436 -0.007,1.40303 -0.28293,1.59364 -1.81609,1.25248 z m -2.67778,-23.20703 c 0.71503,-0.70511 0.94247,-1.81448 0.48501,-2.36568 -0.15687,-0.18902 -0.19653,-0.34367 -0.0881,-0.34367 0.10839,0 0.0489,-0.17859 -0.1323,-0.39688 -0.4194,-0.50534 -1.82784,-0.4984 -2.50334,0.0123 -0.42129,0.31854 -0.51531,0.69853 -0.49952,2.01897 0.0299,2.49826 0.93471,2.85346 2.73828,1.07491 z m 10.51076,16.29958 c -0.41058,-0.7154 -0.40065,-0.77856 0.24263,-1.54306 1.11714,-1.32764 2.59395,-1.00399 2.8909,0.63356 0.1596,0.88015 -0.65301,1.60437 -1.83313,1.63373 -0.69104,0.0172 -0.96125,-0.13328 -1.3004,-0.72423 z m -20.03576,-28.8522 c 0,-0.14025 -0.14883,-0.20163 -0.33073,-0.13641 -0.56797,0.20366 -1.1732,-0.28228 -1.90336,-1.52819 -0.58613,-1.00016 -0.68625,-1.44243 -0.59819,-2.64255 0.0582,-0.79275 0.0183,-1.38733 -0.0885,-1.3213 -0.10684,0.066 -0.33552,-0.0502 -0.50817,-0.25817 -0.17265,-0.20803 -0.45403,-0.32704 -0.62529,-0.26445 -0.40883,0.14939 -0.69574,-0.0791 -1.56589,-1.247131 -0.69851,-0.937613 -0.70974,-1.005295 -0.34051,-2.051813 0.42904,-1.216027 0.58859,-1.016755 -1.97686,-2.468949 -1.06436,-0.602486 -2.9027,-2.31485 -2.48515,-2.31485 0.0906,0 -0.0153,-0.274791 -0.23535,-0.610648 -0.28039,-0.427926 -0.32387,-0.746883 -0.14532,-1.065941 0.30688,-0.548354 0.1924,-1.620457 -0.17689,-1.656593 -1.41837,-0.13879 -2.5743,-0.519304 -2.78745,-0.917585 -0.14008,-0.261743 -0.49295,-0.551514 -0.78414,-0.643936 -0.2912,-0.09242 -0.52945,-0.277718 -0.52945,-0.411769 0,-0.134051 -0.17957,-0.45345 -0.39904,-0.709774 -0.21947,-0.256325 -0.37778,-0.525577 -0.3518,-0.598337 0.026,-0.07276 -0.29054,-0.667376 -0.70339,-1.321368 -0.79595,-1.260869 -0.99542,-2.807233 -0.40887,-3.169741 0.35004,-0.216336 0.632,-1.596906 0.31756,-1.554915 -0.0958,0.0128 -0.23378,-0.0036 -0.30654,-0.03641 -0.0728,-0.03283 -0.54901,-0.08716 -1.05834,-0.120751 -0.50932,-0.03359 -1.34276,-0.160119 -1.85208,-0.281181 -0.50932,-0.121062 -1.10463,-0.239532 -1.32292,-0.263267 -1.51955,-0.165228 -4.77446,-1.665032 -6.14703,-2.832445 -0.46335,-0.394095 -0.88838,-0.670615 -0.94451,-0.614489 -0.0561,0.05613 -0.45535,-0.300344 -0.88717,-0.792158 -0.43182,-0.491814 -1.01592,-0.967458 -1.298,-1.056987 -0.28208,-0.08953 -0.51287,-0.327433 -0.51287,-0.528677 0,-0.201244 -0.16121,-0.461111 -0.35825,-0.577483 -0.67863,-0.400801 -0.92938,-1.306426 -0.82293,-2.972069 0.0587,-0.918527 -0.0122,-1.892337 -0.15764,-2.164023 -0.78644,-1.469471 -5.26321,-2.061709 -6.46911,-0.855807 -0.62208,0.622082 -0.475,1.001273 0.73033,1.882822 0.61846,0.452332 1.46329,1.121234 1.87739,1.48645 0.41411,0.365216 0.86768,0.702281 1.00793,0.749033 0.52366,0.174551 0.30667,2.345153 -0.32068,3.208017 -0.54227,0.745828 -1.19949,1.317846 -1.57246,1.36859 -0.0728,0.0099 -0.54901,0.250629 -1.05833,0.534954 -1.33021,0.742578 -4.6622,0.667209 -7.00072,-0.158356 -0.95179,-0.336012 -1.73053,-0.707974 -1.73053,-0.826584 0,-0.118609 -0.16147,-0.215653 -0.35883,-0.215653 -0.7249,0 -2.69799,-1.803259 -3.3067,-3.022095 -0.50946,-1.020095 -0.58907,-1.471734 -0.43814,-2.485689 0.10144,-0.6815 0.28531,-1.361852 0.40859,-1.511893 0.12328,-0.150041 0.28434,-0.604793 0.35792,-1.01056 0.12263,-0.676238 1.55559,-2.52699 2.5167,-3.25045 0.51259,-0.385846 1.61614,0.07602 1.60964,0.673677 -0.003,0.231303 -0.30017,0.700939 -0.66146,1.043634 -0.36129,0.342696 -0.67177,0.78918 -0.68996,0.992188 -0.0651,0.726728 -0.10192,0.856875 -0.29765,1.052611 -0.53013,0.530128 0.0257,3.549826 0.65339,3.549826 0.13075,0 0.17484,0.101756 0.098,0.226124 -0.17692,0.286268 1.01362,1.426414 1.2464,1.193636 0.0949,-0.09492 0.24739,0.02237 0.33883,0.260643 0.0914,0.238274 0.27283,0.367351 0.4031,0.286838 0.13027,-0.08051 0.23686,-0.02201 0.23686,0.130002 0,0.152014 0.5378,0.41181 1.19512,0.577324 0.65732,0.165514 1.25966,0.405354 1.33853,0.532976 0.19689,0.318573 2.5055,0.29254 3.45649,-0.03898 0.95856,-0.334154 1.23321,-1.70075 0.39526,-1.966704 -0.51567,-0.163668 -3.64623,-2.789362 -3.32569,-2.789362 0.099,0 0.0606,-0.148828 -0.0855,-0.330729 -0.40052,-0.498697 -0.162,-1.779551 0.45337,-2.434584 0.30033,-0.319679 0.45566,-0.680788 0.34519,-0.802464 -0.11047,-0.121675 -0.0602,-0.140616 0.11177,-0.04209 0.17478,0.100154 0.49784,-0.0853 0.7327,-0.420601 0.23104,-0.329857 0.44754,-0.552368 0.48112,-0.494471 0.0336,0.0579 0.58014,-0.159549 1.21457,-0.483215 1.12607,-0.574477 2.70873,-0.767284 4.46888,-0.544416 0.47294,0.05988 0.85989,0.202616 0.85989,0.317183 0,0.114568 0.0893,0.189078 0.19844,0.16558 0.10914,-0.0235 0.53361,0.09556 0.94327,0.264583 0.40965,0.16902 0.82637,0.311071 0.92604,0.31567 0.0997,0.0046 0.49605,0.285715 0.88084,0.624703 0.63331,0.55792 0.69797,0.789112 0.68218,2.439035 -0.017,1.779685 0.34813,3.013317 0.89197,3.013317 0.34218,0 2.21303,1.459348 3.27076,2.551339 1.42152,1.467552 3.64171,2.718764 6.22942,3.510652 1.58537,0.485153 2.38125,0.449057 2.38125,-0.108 0,-0.486434 -1.65912,-2.623969 -3.00138,-3.866835 -1.8686,-1.730228 -2.13247,-1.939505 -2.5165,-1.995869 -0.8596,-0.126163 -0.92582,-0.605222 -0.1793,-1.297081 1.44331,-1.337612 2.64898,-0.974488 5.27411,1.588463 0.79007,0.771357 1.67664,1.873187 1.97015,2.448511 0.84358,1.653564 2.71676,4.390918 3.43181,5.015058 0.79215,0.691436 0.66675,1.117258 -0.61746,2.096776 -0.79345,0.605196 -1.05545,0.684174 -1.45072,0.437319 -0.37298,-0.23293 -0.513,-0.221534 -0.61729,0.05024 -0.19263,0.502011 0.43792,1.599742 1.59906,2.783801 0.55127,0.562155 1.19368,1.274979 1.42757,1.584053 0.45258,0.598052 2.35287,1.026244 2.35287,0.53017 0,-0.153218 0.11083,-0.210077 0.2463,-0.126355 0.13546,0.08372 0.31418,0.0424 0.39714,-0.09184 0.21027,-0.340232 1.09082,-0.06872 1.59929,0.493128 0.39313,0.434413 0.37463,0.529287 -0.24745,1.268587 -1.01232,1.203071 -0.89094,2.153727 0.45135,3.535038 0.61804,0.636011 1.12406,1.255278 1.12448,1.37615 0.001,0.318469 0.96756,0.9769 1.21208,0.825776 0.11403,-0.07047 0.2789,-0.01233 0.36637,0.129212 0.0875,0.141539 0.30407,0.208645 0.48131,0.149126 0.66181,-0.22225 2.02406,-0.342816 1.97771,-0.175038 -0.0265,0.09574 0.088,0.418615 0.25424,0.717498 0.28427,0.510947 0.0974,1.262987 -0.29496,1.187103 -0.52043,-0.10065 -1.48245,1.056317 -1.48245,1.782851 0,1.055077 0.95167,1.660045 2.72589,1.732826 2.2615,0.09277 2.6354,0.729011 1.21059,2.059988 -0.69929,0.65323 -0.80029,0.90026 -0.65831,1.61014 0.21418,1.07094 0.93189,1.8671 1.53981,1.70812 0.26024,-0.068 0.54169,-0.0129 0.62544,0.12266 0.0838,0.13552 0.72741,-0.37587 1.43034,-1.13643 1.39114,-1.50518 1.56867,-1.50521 2.452,-4.3e-4 l 0.4622,0.7874 -0.90612,0.7543 c -1.82866,1.52226 -2.86762,2.00746 -4.45006,2.07822 -0.84679,0.0379 -1.52136,-0.045 -1.52136,-0.18698 z m 6.58213,-8.140143 c -0.76869,-0.768695 -0.77545,-0.799013 -0.32992,-1.47898 0.49529,-0.755911 1.4682,-1.241805 2.04403,-1.020838 0.55864,0.214372 1.03272,1.428715 0.70971,1.817918 -0.14856,0.179003 -0.19177,0.403802 -0.096,0.499553 0.0958,0.09575 -0.0244,0.174093 -0.26688,0.174093 -0.24254,0 -0.44098,0.106324 -0.44098,0.236276 0,0.625827 -0.8916,0.500326 -1.61995,-0.228022 z m -23.98405,-2.831172 c -0.18496,-0.07442 -0.51451,-0.479944 -0.73234,-0.901166 -0.45564,-0.881121 -0.13048,-1.698919 0.8034,-2.020554 1.20682,-0.41564 2.0278,0.05507 2.15718,1.236817 0.14117,1.28958 -1.02295,2.169847 -2.22824,1.684903 z m 21.91014,-0.931139 c -0.29671,-0.318482 -0.53947,-0.776513 -0.53947,-1.017849 0,-0.654087 0.90896,-1.578094 1.55239,-1.578094 0.59121,0 1.69064,0.902113 1.42417,1.168576 -0.0849,0.08489 -0.018,0.154341 0.14867,0.154341 0.52234,0 -0.20395,1.233027 -0.9179,1.558323 -0.88866,0.404903 -1.05065,0.377194 -1.66786,-0.285297 z m 4.31999,-0.04147 c -0.7665,-0.893242 0.23071,-2.881791 1.31343,-2.619107 0.78569,0.190619 1.50003,0.84896 1.50003,1.382434 0,1.058074 -2.15419,2.004958 -2.81346,1.236673 z M 117.56382,83.348342 c -0.8833,-0.264908 -2.08734,-0.903786 -2.62958,-1.395286 -0.2821,-0.255706 -0.58947,-0.464919 -0.68304,-0.464919 -0.29925,0 -1.92423,-2.688763 -1.99065,-3.293811 -0.0379,-0.345378 0.14915,-0.716163 0.45889,-0.9096 0.46449,-0.290079 0.66079,-0.181772 1.75759,0.969759 1.68319,1.767164 2.83515,2.090044 5.33575,1.495541 0.3638,-0.08649 0.69548,-0.143266 0.73705,-0.126165 0.0416,0.0171 0.25954,-0.152849 0.48436,-0.377665 0.22481,-0.224816 0.52117,-0.339281 0.65856,-0.254366 0.13739,0.08491 0.21709,0.0021 0.17711,-0.183979 -0.04,-0.186103 0.075,-0.343781 0.25546,-0.350396 0.18049,-0.0066 1.00541,-0.607339 1.83317,-1.334943 0.82775,-0.727604 1.63257,-1.283229 1.7885,-1.234722 0.15592,0.04851 0.20917,0.01387 0.11833,-0.07698 -0.0908,-0.09085 0.47029,-0.826544 1.24698,-1.634885 0.77668,-0.808341 1.48807,-1.708909 1.58086,-2.001262 0.21718,-0.684267 -1.3773,-2.365595 -2.94001,-3.100158 -0.61054,-0.286985 -1.18442,-0.71557 -1.27531,-0.952413 -0.24478,-0.637894 0.24634,-1.358527 1.13759,-1.669219 0.6488,-0.226174 0.90063,-0.184666 1.43638,0.236753 0.3573,0.281056 0.72119,0.511011 0.80864,0.511011 0.63144,0 3.85607,3.576623 4.15021,4.603243 0.32798,1.144681 -1.98665,4.162815 -5.98017,7.797799 -0.9028,0.821745 -2.51354,1.958278 -2.51354,1.773543 0,-0.09665 -0.30307,0.127347 -0.67349,0.497763 -0.37041,0.370417 -0.87643,0.674219 -1.12448,0.675115 -0.24804,8.97e-4 -0.78883,0.177834 -1.20174,0.393195 -0.8689,0.453183 -2.19169,0.635494 -2.95342,0.407047 z m -3.15539,-11.939324 c -0.86195,-1.024367 -0.85416,-1.13868 0.12519,-1.836035 0.70952,-0.505225 0.901,-0.534857 1.59598,-0.246986 0.43435,0.179914 0.73057,0.386277 0.65827,0.458583 -0.0723,0.07231 -0.0183,0.342881 0.11996,0.601276 0.18256,0.341109 0.11895,0.633419 -0.23218,1.067055 -0.73305,0.905275 -1.48073,0.890799 -2.26722,-0.04389 z m 116.94773,-1.370932 c -0.60444,-0.772335 -0.61458,-0.844469 -0.19706,-1.403034 0.24208,-0.323861 0.48408,-0.546638 0.53778,-0.495059 0.0537,0.05158 0.27057,-0.07914 0.48192,-0.290497 0.51369,-0.513692 0.68728,-0.488163 1.43498,0.211037 0.53516,0.500451 0.7426,1.036614 0.51183,1.322916 -0.0293,0.03638 -0.0948,0.285415 -0.14551,0.553411 -0.12817,0.677397 -0.29673,0.798419 -1.19901,0.860886 -0.60135,0.04163 -0.93849,-0.1381 -1.42493,-0.75966 z m -112.734,-0.551635 c -1.24067,-0.706742 -1.48034,-2.019523 -0.50829,-2.784133 0.63181,-0.496981 0.75998,-0.51186 1.429,-0.165892 0.40423,0.209031 0.80311,0.557675 0.88642,0.774765 0.13795,0.359495 0.0331,1.502303 -0.14519,1.581711 -0.0409,0.01824 -0.31257,0.227076 -0.60361,0.464077 -0.41947,0.341582 -0.63887,0.368422 -1.05833,0.129472 z m 19.53989,-0.663296 c -1.27957,-1.14384 -2.88536,-3.56298 -3.43415,-5.17358 -0.217,-0.63687 -0.62559,-1.367028 -0.90796,-1.622574 -0.28238,-0.255546 -0.51348,-0.654535 -0.51356,-0.886642 -8e-5,-0.232108 -0.47709,-1.19592 -1.06002,-2.141806 -0.58292,-0.945885 -1.25646,-2.232564 -1.49674,-2.859286 -0.50589,-1.319534 -0.28006,-1.727431 1.11777,-2.018955 0.67297,-0.140349 0.85859,-0.06659 1.09841,0.436446 2.03752,4.273928 3.61117,7.255937 4.13386,7.833502 0.22137,0.244613 0.40261,0.504283 0.40275,0.577043 0.002,0.962715 2.02564,3.296507 2.87077,3.31051 0.75965,0.01259 3.4401,-1.391926 3.89448,-2.04064 0.22877,-0.326624 0.41595,-1.088573 0.41595,-1.693219 0,-1.141791 0.29746,-1.578958 1.18005,-1.734322 0.34724,-0.06112 0.62831,0.13282 0.85068,0.586972 0.70759,1.445143 1.97055,2.04481 3.11979,1.481304 0.28617,-0.140317 0.98719,-0.294706 1.55784,-0.343086 1.61706,-0.137098 2.94706,-0.894197 2.95861,-1.684185 0.01,-0.677537 -0.54428,-1.941404 -1.13415,-2.586515 -0.1819,-0.198934 -0.33073,-0.525037 -0.33073,-0.724673 0,-0.199635 -0.2162,-0.518552 -0.48045,-0.708705 -0.90351,-0.650173 -0.87898,-1.194152 0.0742,-1.646479 0.97022,-0.460397 1.72914,-0.54489 1.72914,-0.192509 0,0.124594 0.42218,0.779438 0.93817,1.455208 0.51598,0.67577 0.87508,1.228673 0.79799,1.228673 -0.0771,0 0.11359,0.486825 0.42372,1.081834 0.31014,0.595009 0.60921,1.339149 0.66461,1.653646 0.38435,2.18202 0.38645,2.594224 0.0161,3.159462 -0.40896,0.624151 -2.65796,1.846405 -4.0312,2.190818 -0.43656,0.109491 -0.97234,0.243055 -1.19063,0.29681 -1.55133,0.382034 -2.91697,0.374096 -3.47994,-0.02023 -0.772,-0.540731 -1.81172,-0.556781 -1.81172,-0.02797 0,0.218281 -0.11906,0.396875 -0.26459,0.396875 -0.14552,0 -0.26458,0.211664 -0.26458,0.470365 0,0.515449 -0.5411,1.045943 -1.65735,1.624865 -0.39814,0.206491 -0.7239,0.481408 -0.7239,0.610927 0,0.129519 -0.11997,0.16134 -0.26661,0.07071 -0.14664,-0.09063 -0.43879,0.0074 -0.64923,0.217841 -0.24639,0.246393 -0.93263,0.382617 -1.92745,0.382617 -1.40254,0 -1.64387,-0.08852 -2.61994,-0.96106 z m 27.57605,-5.888386 c 0.0789,-0.127627 -0.0296,-0.232049 -0.2411,-0.232049 -0.21148,0 -0.75011,-0.341522 -1.19695,-0.758938 -0.44685,-0.417416 -0.87616,-0.715072 -0.95403,-0.661458 -0.0779,0.05361 -0.0831,0.01914 -0.0116,-0.07661 0.0715,-0.09575 0.0225,-0.304111 -0.10884,-0.463021 -0.26845,-0.324752 -0.64247,-2.316278 -1.09775,-5.845177 -0.16897,-1.309688 -0.34182,-2.642338 -0.3841,-2.961446 -0.0423,-0.319107 -0.14278,-0.686816 -0.22332,-0.817129 -0.0805,-0.130313 -0.2248,-1.178912 -0.32058,-2.330221 -0.22635,-2.720669 -0.20313,-2.592164 -0.50894,-2.816841 -0.15214,-0.111774 -0.0816,-0.196108 0.16604,-0.198438 0.23684,-0.0022 0.56502,-0.16599 0.72928,-0.363915 0.48573,-0.58527 1.60026,-0.215097 1.77544,0.589688 0.0834,0.38292 0.21196,0.874811 0.28578,1.093093 0.0738,0.218281 0.18373,1.11125 0.24424,1.984375 0.0605,0.873125 0.22426,2.182812 0.3639,2.910417 0.13963,0.727604 0.31984,1.858698 0.40045,2.513542 0.30899,2.509877 0.46893,3.317962 0.71777,3.626431 0.14159,0.175526 0.16857,0.473182 0.06,0.661458 -0.10861,0.188276 -0.0988,0.252763 0.0219,0.143304 0.12066,-0.109458 0.4505,0.0096 0.73298,0.264584 0.42294,0.381769 1.02089,0.463598 3.38766,0.463598 2.63202,0 2.92445,-0.05039 3.47227,-0.598297 0.52228,-0.522371 0.55429,-0.668585 0.25229,-1.152166 -0.28602,-0.457993 -0.28526,-0.52278 0.004,-0.37427 0.19264,0.09878 0.11213,-0.01295 -0.17891,-0.248286 -0.29104,-0.235337 -0.52916,-0.526745 -0.52916,-0.647574 0,-0.120829 -0.65485,-0.733638 -1.45521,-1.361797 -0.80037,-0.62816 -1.4949,-1.238549 -1.54341,-1.356422 -0.0485,-0.117872 -0.21586,-0.214313 -0.3719,-0.214313 -0.15603,0 -0.69375,-0.31276 -1.19492,-0.695021 -0.8645,-0.659387 -0.90418,-0.760523 -0.77388,-1.972578 0.0768,-0.714353 0.35085,-1.502124 0.62166,-1.786961 0.6531,-0.686921 3.08895,-2.156995 3.8014,-2.2942 0.31595,-0.06085 0.98792,-0.354582 1.49327,-0.652746 0.50535,-0.298165 1.04714,-0.462813 1.20397,-0.365884 0.16942,0.104709 0.20853,0.05226 0.0964,-0.129231 -0.12249,-0.198196 0.049,-0.317077 0.48829,-0.338536 0.76943,-0.03758 0.89482,-0.06604 1.53697,-0.348814 0.25466,-0.112142 0.64578,-0.133763 0.86915,-0.04805 0.3645,0.139873 0.36395,0.2374 -0.005,0.951576 -0.22632,0.437652 -0.40908,0.85651 -0.40613,0.930795 0.0275,0.692225 -0.11535,0.88837 -0.92966,1.276685 -0.51426,0.245233 -1.1691,0.445879 -1.45521,0.445879 -0.2861,0 -0.52019,0.115325 -0.52019,0.256279 0,0.140954 -0.16324,0.193638 -0.36276,0.117075 -0.19951,-0.07656 -0.5482,0.04624 -0.77485,0.272888 -0.22665,0.22665 -0.71122,0.412091 -1.07683,0.412091 -0.36561,0 -0.73953,0.121005 -0.83093,0.268899 -0.0914,0.147895 -0.26349,0.208765 -0.38241,0.135268 -0.1821,-0.112546 -0.52515,0.662668 -0.53735,1.21432 -0.002,0.0898 0.47533,0.480229 1.06071,0.867613 1.84195,1.218951 2.35353,1.684818 3.63126,3.306849 0.69551,0.882921 0.90785,1.451472 0.96443,2.582307 0.0157,0.313526 0.11782,0.514859 0.22696,0.447406 0.3221,-0.199068 0.22858,0.145793 -0.22886,0.843939 -0.23502,0.358683 -0.33951,0.65215 -0.23219,0.65215 0.10731,0 0.0469,0.178594 -0.13426,0.396875 -0.18116,0.218281 -0.25952,0.396875 -0.17414,0.396875 0.0854,0 -0.1084,0.275571 -0.43063,0.61238 -0.32222,0.336809 -0.66692,0.572992 -0.76601,0.524851 -0.0991,-0.04814 -0.2461,0.01918 -0.32671,0.1496 -0.0806,0.130421 -0.75361,0.435687 -1.49556,0.678368 -1.4364,0.469822 -6.72128,0.567359 -6.44413,0.118933 z m 52.72949,-0.896113 c -0.88232,-0.479404 -1.06,-0.946511 -0.66395,-1.745426 0.39466,-0.796088 1.96189,-1.037849 2.445,-0.377164 0.3978,0.544022 0.1718,1.459847 -0.50811,2.05905 -0.28896,0.254661 -0.53693,0.458254 -0.55105,0.452428 -0.0141,-0.0058 -0.33896,-0.180826 -0.72189,-0.388888 z m -4.14725,-2.134358 c -0.45352,-0.317657 -0.60089,-1.407191 -0.30145,-2.228661 0.0265,-0.07276 0.0369,-0.213262 0.0231,-0.312227 -0.0138,-0.09896 0.47807,-0.130142 1.09314,-0.06928 1.09419,0.108263 1.78483,0.627495 1.67179,1.256858 -0.15097,0.840494 -0.48758,1.507892 -0.76974,1.526147 -0.1721,0.01113 -0.51179,0.05874 -0.75488,0.105792 -0.24309,0.04705 -0.67595,-0.07833 -0.96192,-0.278624 z m -71.66428,-3.59967 c -0.76327,-0.369217 -0.93569,-1.165398 -0.48562,-2.242555 0.2947,-0.705324 0.52004,-0.884353 1.11311,-0.884353 0.74267,0 1.54031,0.814514 1.48983,1.521354 -0.013,0.181901 -0.0385,0.549743 -0.0567,0.817427 -0.0253,0.37183 -1.11046,1.190987 -1.43459,1.082895 -0.0295,-0.0099 -0.31125,-0.142494 -0.62604,-0.294768 z m 5.12587,-4.006504 c -0.0592,-0.171066 0.0122,-0.578436 0.15879,-0.905266 0.19806,-0.441735 0.16812,-0.713343 -0.11665,-1.058335 -0.54678,-0.662411 -0.60008,-1.811585 -0.11606,-2.502613 0.22835,-0.326022 0.41519,-0.508494 0.41519,-0.405493 0,0.103002 0.38695,-0.04866 0.85989,-0.337014 0.87383,-0.532781 1.96072,-0.676052 2.45625,-0.323778 0.50468,0.358775 0.26588,0.986922 -0.40573,1.067256 -0.3638,0.04352 -0.84005,0.140499 -1.05833,0.215516 -0.21828,0.07502 -0.44309,0.118542 -0.49958,0.09672 -0.0565,-0.02182 -0.2035,0.11932 -0.32668,0.31365 -0.36513,0.576016 -0.26338,1.475323 0.18644,1.647937 0.6813,0.26144 2.44032,0.183057 2.53905,-0.113142 0.0583,-0.17492 0.25563,-0.151041 0.54658,0.06615 0.69499,0.518787 0.058,1.603809 -0.9906,1.68722 -0.43656,0.03473 -1.15094,0.208324 -1.5875,0.385771 -1.13425,0.461032 -1.93647,0.525419 -2.06106,0.165425 z"
         id="path104" /><path
         style="display:inline;fill:#040304"
         d="m 164.12442,199.76861 c 0.21585,-0.4174 0.77568,-1.05884 1.24407,-1.42541 l 0.85162,-0.66649 -0.71486,-0.17942 c -1.02153,-0.25639 -2.03622,-1.56528 -2.03622,-2.62661 0,-1.30453 1.44451,-3.2294 3.14405,-4.18957 3.20529,-1.81087 5.77836,-0.47546 4.36184,2.26378 l -0.43161,0.83464 -0.57052,-0.71549 c -0.45964,-0.57645 -0.78966,-0.71549 -1.69819,-0.71549 -1.30151,0 -2.6889,0.62403 -2.6889,1.20944 0,1.39004 2.73998,2.33145 6.35643,2.18396 1.16131,-0.0474 2.1112,-0.0504 2.11086,-0.007 -0.002,0.2629 -0.82227,1.59886 -1.14714,1.86848 -0.21321,0.17695 -1.56898,0.60777 -3.01282,0.95738 -1.44384,0.34961 -3.42075,0.9351 -4.39312,1.3011 l -1.76794,0.66546 z M 43.348198,188.38189 c -1.89217,-0.34233 -3.58426,-1.20311 -4.35727,-2.21658 -1.44012,-1.88809 -1.83095,-4.77582 -1.03183,-7.62388 0.40838,-1.45546 0.47639,-1.53852 1.25678,-1.5351 1.90032,0.008 1.98494,0.10967 1.8405,2.20422 -0.1121,1.62552 -0.0435,2.05878 0.48531,3.06425 0.89771,1.70693 1.96198,2.19831 4.4789,2.06793 1.49487,-0.0774 2.25874,-0.25733 2.97656,-0.70097 1.16421,-0.71952 1.13133,-0.0116 0.572,-12.31344 -0.21137,-4.64889 -0.3581,-8.47238 -0.32607,-8.49664 0.23065,-0.1747 3.63133,-0.35239 3.63588,-0.18998 0.003,0.11319 0.17968,3.65862 0.39225,7.87872 0.65578,13.01901 0.61368,13.46185 -1.47299,15.49434 -1.92981,1.87969 -5.5456,2.89259 -8.45002,2.36713 z M 166.94658,186.9743 c -0.68733,-0.3175 -0.68684,0.12933 -0.006,-5.60596 0.4309,-3.63027 0.59097,-25.74816 0.25562,-35.32187 -0.31549,-9.0068 -1.03726,-21.88028 -1.75043,-31.22083 -0.57251,-7.49825 -1.41537,-17.422762 -1.58738,-18.691129 -0.13863,-1.022184 -0.0553,-1.210081 1.23251,-2.778125 0.75966,-0.924985 2.52123,-2.867575 3.9146,-4.316867 1.39336,-1.449293 2.96705,-3.087586 3.49708,-3.640652 1.11316,-1.16154 1.72819,-1.114069 1.93965,0.149712 0.15772,0.942604 0.78098,9.02678 1.18624,15.386431 0.82263,12.90954 1.32961,31.55073 1.32763,48.81563 -0.002,16.58281 -0.41644,22.90674 -1.73039,26.3976 -0.96359,2.56 -4.39384,7.56575 -7.50035,10.94521 -0.0854,0.0929 -0.43579,0.0393 -0.77871,-0.11915 z M 62.310108,184.36774 c -0.55778,-0.15632 -1.46758,-0.71654 -2.0218,-1.24494 -1.61828,-1.54288 -1.83401,-2.68673 -2.27253,-12.04968 -0.21068,-4.4982 -0.35262,-8.20716 -0.31542,-8.24213 0.0372,-0.035 0.85622,-0.14711 1.82006,-0.24921 l 1.75243,-0.18562 0.16101,2.47463 c 0.0886,1.36105 0.23747,4.67729 0.33091,7.36942 0.19638,5.65763 0.46796,6.72649 1.85654,7.30667 0.92408,0.38611 3.24033,0.47539 4.96059,0.19121 l 1.02432,-0.16921 -0.15869,-1.33986 c -0.0873,-0.73692 -0.62369,-2.30896 -1.19203,-3.49341 l -1.03334,-2.15355 1.49062,-0.46954 c 0.81984,-0.25825 1.62987,-0.52282 1.80007,-0.58794 0.40944,-0.15666 1.32395,1.92374 1.99259,4.53293 0.40597,1.58416 0.50871,2.64641 0.4198,4.34033 -0.10656,2.03019 -0.18477,2.3005 -0.8249,2.85112 -0.38895,0.33456 -1.15347,0.74483 -1.69893,0.91172 -1.35882,0.41573 -6.84573,0.55614 -8.0913,0.20706 z m 18.24506,-0.0808 c -1.40288,-0.50006 -2.70545,-1.834 -3.21343,-3.29082 -0.48206,-1.38249 -0.79623,-5.18041 -1.06901,-12.92308 -0.18112,-5.14082 -0.16855,-5.35791 0.31054,-5.36012 0.27461,-0.001 1.10934,-0.0756 1.85493,-0.16518 l 1.35563,-0.16289 0.1917,6.05217 c 0.26425,8.34304 0.44127,9.78122 1.311,10.65107 0.61582,0.6159 0.93418,0.7023 2.86956,0.77878 2.7136,0.10723 4.25355,-0.33256 4.38351,-1.25187 0.0707,-0.50029 -0.33097,-1.04242 -1.8798,-2.53697 -1.08336,-1.0454 -2.71357,-2.35257 -3.62269,-2.90483 l -1.65294,-1.00411 0.18254,-1.75037 c 0.27969,-2.68192 0.435,-2.8695 3.76624,-4.54876 2.44614,-1.23308 8.50102,-3.54716 8.71677,-3.3314 0.0651,0.0651 -0.32306,1.89123 -0.72315,3.40195 -0.25467,0.96162 -0.30133,0.9903 -3.09691,1.90327 -2.73232,0.89232 -5.35188,1.93724 -5.35188,2.13482 0,0.0522 0.81836,0.70154 1.81857,1.44303 3.56816,2.64519 5.14439,4.92269 5.14439,7.43318 0,2.80771 -1.8319,4.88506 -4.88535,5.53991 -1.81057,0.38829 -5.17732,0.33169 -6.41022,-0.10778 z m -13.5737,-15.94185 c -0.8755,-0.16015 -1.23188,-0.77153 -1.23188,-2.11332 0,-1.45083 0.70523,-2.19363 2.08267,-2.19363 1.13776,0 1.97427,1.0067 1.97427,2.37592 0,1.42593 -1.17936,2.23206 -2.82506,1.93103 z m -6.43536,-11.9158 c 0,-0.25581 -0.60293,-2.19058 -1.33985,-4.29948 -2.67141,-7.64498 -2.74282,-7.91266 -2.75231,-10.31666 -0.008,-1.91349 0.10001,-2.48144 0.72109,-3.80745 0.74918,-1.59951 1.01593,-1.89624 4.52497,-5.0337 l 2.04639,-1.82968 1.33866,1.30052 c 0.73627,0.71528 2.17288,2.37208 3.19249,3.68176 2.45088,3.14818 2.70937,3.30339 5.50501,3.30555 3.0564,0.002 3.64694,-0.3803 4.37784,-2.83677 0.24676,-0.82935 0.6858,-1.59901 1.09633,-1.92194 0.37661,-0.29624 0.7262,-0.49717 0.77686,-0.44651 0.0507,0.0507 -0.014,0.66011 -0.1437,1.35434 -0.31964,1.71095 0.0487,2.94876 1.02832,3.45533 0.78594,0.40642 5.29887,0.56563 6.54752,0.23099 0.53765,-0.1441 0.57504,-0.26218 0.39688,-1.25316 -0.28434,-1.58153 -0.19807,-3.43541 0.20698,-4.44773 0.51608,-1.28982 1.79281,-3.01114 2.52343,-3.40216 0.41769,-0.22354 0.6956,-0.66747 0.8078,-1.2904 0.25137,-1.39559 0.32835,-1.43426 1.24985,-0.62777 0.46283,0.40507 2.4271,1.85953 4.36504,3.23215 1.93795,1.37262 3.863922,2.90861 4.279942,3.41331 1.56415,1.89758 1.59468,4.73373 0.0667,6.19148 -0.9705,0.92587 -1.933282,1.26221 -3.593322,1.25528 -1.35442,-0.006 -5.21758,-0.75612 -6.56198,-1.27474 -0.54848,-0.21159 -1.07045,-0.12748 -2.51354,0.40503 -1.2456,0.45963 -2.57402,0.71381 -4.20256,0.80413 -3.02283,0.16764 -4.38811,-0.18272 -5.33465,-1.36898 l -0.71244,-0.89288 -0.52754,0.67066 c -0.78189,0.99401 -2.4511,1.64999 -4.21564,1.65669 -1.80767,0.007 -3.06944,-0.46109 -3.82162,-1.41733 -0.65678,-0.83496 -0.86624,-0.87153 -0.86624,-0.15122 0,0.76492 -0.68456,1.99704 -1.38028,2.48434 -0.32425,0.22712 -0.97202,0.41294 -1.43949,0.41294 -2.51698,0 -4.69698,-2.24538 -5.4106,-5.57289 l -0.29103,-1.35703 -0.86999,0.84322 c -0.47849,0.46378 -1.08621,1.24474 -1.35049,1.73547 -0.60676,1.12669 -0.39259,2.29107 1.51474,8.23512 1.35466,4.2217 1.77189,6.64683 1.44414,8.39393 -0.18221,0.97122 -0.68367,1.32787 -0.68367,0.48624 z m 6.99991,-16.03019 c 0.34198,-0.25006 0.43778,-0.54474 0.32257,-0.99218 -0.20504,-0.7963 -2.49717,-3.60391 -3.61791,-4.43154 l -0.83966,-0.62005 -0.6387,0.60003 c -1.08608,1.02031 -0.75195,3.0375 0.72522,4.37822 1.45331,1.31906 3.10665,1.75421 4.04848,1.06552 z m 33.185672,-0.95057 c 0.46376,-0.24819 0.50353,-0.3969 0.27106,-1.01364 -0.35738,-0.94819 -1.644942,-2.28446 -3.261272,-3.38467 -1.42207,-0.96798 -1.7412,-0.95832 -1.7412,0.0527 0,0.36677 -0.30916,1.43965 -0.68703,2.38416 -0.37786,0.94452 -0.64314,1.76118 -0.58951,1.81482 0.0536,0.0536 0.69022,0.21735 1.41463,0.36382 1.53034,0.30941 3.81086,0.20159 4.593322,-0.21717 z m -8.094312,-1.63496 c 1.72755,-0.86846 2.0401,-1.24518 2.039,-2.45758 -0.002,-2.02637 -1.52682,-3.64381 -2.93185,-3.10962 -1.03223,0.39246 -2.24985,1.52667 -2.73383,2.54658 -0.3937,0.82967 -0.39791,1.00136 -0.0415,1.69063 0.3593,0.6948 1.82658,1.87446 2.34525,1.88553 0.11494,0.002 0.71025,-0.24754 1.32291,-0.55554 z m -17.30696,12.37913 -1.22298,-1.12827 0.69382,-0.97303 c 0.3816,-0.53517 0.77159,-0.97608 0.86665,-0.97981 0.0951,-0.004 0.72248,0.49924 1.39425,1.1177 l 1.22141,1.12448 -0.86508,0.9836 -0.86508,0.9836 z m 62.117682,-0.19707 -1.22459,-1.07793 0.83475,-1.03873 c 0.45911,-0.57131 0.90412,-1.03629 0.98891,-1.0333 0.0848,0.003 0.72514,0.50901 1.42301,1.12448 l 1.26886,1.11904 -0.8251,0.99219 c -0.4538,0.5457 -0.91873,0.99218 -1.03317,0.99218 -0.11444,0 -0.75914,-0.48507 -1.43267,-1.07793 z m -57.912762,-0.21273 -1.24169,-1.02608 0.87499,-1.01222 0.875,-1.01223 0.79054,0.64924 c 0.4348,0.35709 0.98825,0.90884 1.22989,1.22611 0.41728,0.54791 0.40503,0.61765 -0.24408,1.38906 -0.37588,0.44671 -0.76431,0.8122 -0.86318,0.8122 -0.0989,0 -0.73853,-0.46174 -1.42147,-1.02608 z m 43.584732,0.59513 c -1.71208,-0.39135 -4.36562,-1.51999 -4.36562,-1.85684 0,-0.30247 0.20662,-0.3382 0.99219,-0.1716 2.60858,0.55324 4.54778,-0.13042 6.80249,-2.39821 1.24914,-1.25638 1.94639,-2.36624 2.3681,-3.76945 0.11664,-0.38811 -0.10303,-0.9505 -0.72366,-1.85275 -1.78074,-2.58873 -1.84886,-2.82967 -1.18584,-4.19437 0.32088,-0.66046 0.6584,-1.20083 0.75005,-1.20083 0.0916,0 0.44914,0.60317 0.79443,1.34038 0.34529,0.73721 1.08036,1.74924 1.63349,2.24896 l 1.00569,0.90858 h 3.18273 c 3.79318,0 5.01783,-0.35927 5.01783,-1.47205 0,-0.38792 -0.47733,-1.78068 -1.06073,-3.09502 l -1.06073,-2.38972 0.68399,-1.16715 c 0.3762,-0.64193 0.82376,-1.12248 0.99459,-1.06787 0.17082,0.0546 0.72387,1.1033 1.229,2.33044 0.76321,1.85412 0.9197,2.56649 0.92604,4.21553 0.007,1.74899 -0.0849,2.1306 -0.77223,3.21706 -1.09083,1.72422 -2.05693,2.12624 -5.47695,2.27905 -2.20584,0.0986 -2.99535,0.037 -3.63802,-0.28358 l -0.8208,-0.40947 v 1.16751 c 0,3.97669 -4.15962,8.33375 -7.27604,7.6214 z m -10.98128,-13.22885 c -9.6e-4,-5.17294 -0.29493,-11.55236 -0.65104,-14.1285 -0.11199,-0.81015 0.014,-1.08901 0.95659,-2.11666 l 1.08557,-1.18359 0.25022,0.66146 c 0.13762,0.3638 0.27134,5.00724 0.29716,10.31875 0.0467,9.60958 0.044,9.66204 -0.55156,10.61973 -1.36614,2.19685 -1.38577,2.13783 -1.38694,-4.17119 z m 38.83354,-0.16446 c 0.0401,-3.32171 -0.0866,-7.84729 -0.29064,-10.38513 l -0.36163,-4.49791 0.66243,-0.87257 c 0.36433,-0.47991 0.8715,-0.98446 1.12704,-1.12122 0.42029,-0.22493 0.48468,-0.028 0.67482,2.06319 0.11562,1.27152 0.21548,5.82419 0.22192,10.11706 0.0107,7.13216 -0.031,7.88506 -0.48321,8.73125 -0.53177,0.99498 -1.20922,1.85194 -1.46431,1.85231 -0.0866,1.3e-4 -0.12548,-2.64901 -0.0864,-5.88698 z"
         id="path102" /></g></g></svg>
