<?xml version="1.0" encoding="UTF-8" standalone="no"?>
<!-- Created with Inkscape (http://www.inkscape.org/) -->

<svg
   width="1023.9999"
   height="1023.9999"
   viewBox="0 0 270.93333 270.93333"
   version="1.1"
   id="svg1"
   xml:space="preserve"
   inkscape:export-filename="ibrahimlive_es.svg"
   inkscape:export-xdpi="96"
   inkscape:export-ydpi="96"
   xmlns:inkscape="http://www.inkscape.org/namespaces/inkscape"
   xmlns:sodipodi="http://sodipodi.sourceforge.net/DTD/sodipodi-0.dtd"
   xmlns="http://www.w3.org/2000/svg"
   xmlns:svg="http://www.w3.org/2000/svg"><sodipodi:namedview
     id="namedview1"
     pagecolor="#ffffff"
     bordercolor="#ffffff"
     borderopacity="1"
     inkscape:showpageshadow="0"
     inkscape:pageopacity="0"
     inkscape:pagecheckerboard="false"
     inkscape:deskcolor="#505050"
     inkscape:document-units="mm"
     inkscape:zoom="0.38130453"
     inkscape:cx="784.15015"
     inkscape:cy="792.01787"
     inkscape:window-width="1920"
     inkscape:window-height="1043"
     inkscape:window-x="0"
     inkscape:window-y="0"
     inkscape:window-maximized="1"
     inkscape:current-layer="layer1"><inkscape:page
       x="0"
       y="0"
       width="270.93332"
       height="270.93332"
       id="page2"
       margin="0"
       bleed="0" /></sodipodi:namedview><defs
     id="defs1" /><g
     inkscape:label="Слой 1"
     inkscape:groupmode="layer"
     id="layer1"><g
       id="g40"
       transform="translate(0.46817199,0.41857662)"><path
         style="display:inline;fill:#fac102;stroke-width:0.966604"
         d="M 89.458436,212.18881 C 73.003273,210.59306 56.516542,202.11653 45.860038,189.77297 34.727715,176.87829 28.994001,161.69645 29.005156,145.14426 29.017432,126.9449 36.34524,109.74052 49.53935,96.933728 63.218908,83.65574 81.796608,76.828335 100.6759,78.14077 c 6.4157,0.446002 11.45757,1.429097 17.09488,3.333256 20.72595,7.000799 36.81123,23.697404 43.09235,44.730124 l 0.70507,2.36095 46.05429,0.0686 46.05429,0.0686 1.69294,0.65946 c 3.44088,1.34035 5.82638,3.2035 7.61343,5.94639 1.84287,2.82854 2.16629,4.06806 2.28024,8.739 0.11487,4.70826 -0.0982,6.03664 -1.4153,8.82329 -1.16355,2.46178 -4.01196,5.36216 -6.46297,6.58092 -3.4412,1.71111 -0.058,1.603 -50.16208,1.603 h -45.45116 l -0.41598,1.47054 c -3.72507,13.16861 -10.32251,23.97806 -19.85911,32.53773 -10.95528,9.83302 -23.98451,15.61964 -38.5831,17.13577 -2.79974,0.29075 -10.413563,0.28527 -13.455254,-0.009 z"
         id="path39"
         sodipodi:nodetypes="csssssscccsssssscssscc" /><path
         style="display:inline;fill:#4e358a;stroke-width:0.966604"
         d="m 14.780104,176.9159 c -1.270775,-0.51345 -2.33636,-2.87173 -2.005375,-4.43815 0.216635,-1.02527 0.988633,-1.87252 2.27383,-2.49547 1.414838,-0.6858 1.621392,-0.62614 1.940961,0.56065 0.318931,1.18441 0.337132,1.14608 -0.817892,1.72287 -1.017409,0.50805 -1.205521,1.29203 -0.469789,1.95784 0.545019,0.49324 1.117858,0.4183 2.943088,-0.38499 0.28132,-0.12381 1.566865,-0.57859 2.85676,-1.01061 4.236327,-1.41888 4.879679,-1.81491 4.563996,-2.80956 -0.23648,-0.74508 -1.110638,-0.87529 -2.5734,-0.38331 -1.415205,0.476 -1.965454,0.83501 -1.768412,1.15383 0.151891,0.24578 -0.472708,0.6077 -1.451772,0.84125 -0.624621,0.14899 -0.717201,0.0557 -1.2507,-1.25862 -0.332318,-0.8188 -0.479773,-1.51026 -0.348432,-1.63395 0.125234,-0.11792 1.321029,-0.57759 2.657302,-1.02146 1.336282,-0.44387 2.659777,-0.90162 2.941097,-1.0172 1.630768,-0.67008 1.989155,-0.78536 2.441633,-0.78536 0.274709,0 0.499463,0.17262 0.499463,0.38361 0,0.211 -0.102774,0.38363 -0.228388,0.38363 -0.125612,0 -0.303089,0.19468 -0.394395,0.43263 -0.114532,0.29846 0.07685,0.6227 0.61707,1.04549 1.614442,1.26348 1.954843,2.91705 0.888359,4.31528 -0.861651,1.12968 -1.773894,1.53137 -9.239529,4.06851 -1.887122,0.64134 -3.129971,0.75511 -4.075475,0.37309 z m -4.020658,-10.14824 c -0.08699,-0.39937 -0.227423,-0.96764 -0.311972,-1.26281 -0.133827,-0.46719 0.0058,-0.57691 1.08077,-0.84733 0.678972,-0.17085 1.637292,-0.413 2.129603,-0.5381 0.492321,-0.1251 1.240376,-0.29561 1.662357,-0.37892 0.421991,-0.0833 1.227587,-0.26209 1.790238,-0.3973 0.562641,-0.1352 1.540873,-0.35403 2.173855,-0.48626 4.614501,-0.96405 4.596832,-0.952 4.120489,-2.81057 -0.179595,-0.70077 -0.260558,-1.38088 -0.179904,-1.51136 0.08062,-0.1305 0.542284,-0.28345 1.025857,-0.3399 0.965492,-0.11272 0.892678,-0.25015 1.65065,3.11509 0.65673,2.91572 0.746925,2.67694 -1.165377,3.08545 -0.677541,0.14473 -1.692234,0.36724 -2.254875,0.49446 -3.428265,0.77518 -6.029204,1.34979 -7.033052,1.55382 -1.039186,0.2112 -1.810159,0.38834 -3.863613,0.88772 -0.579306,0.14088 -0.687537,0.0668 -0.825026,-0.56399 z m -5.5412631,-9.27858 c 0,-1.39474 0.046396,-1.45871 1.1508677,-1.58779 0.751554,-0.0879 0.7688661,-0.064 0.8467943,1.16434 0.08757,1.3797 -0.1409217,1.67676 -1.2943513,1.68318 -0.6728821,0.004 -0.7033107,-0.0508 -0.7033107,-1.25973 z m 3.7471088,-0.0131 c -0.337171,-1.68583 -0.316948,-1.71017 1.5596563,-1.87689 5.991448,-0.53234 7.256182,-0.67177 7.508601,-0.82777 0.155159,-0.0959 0.80089,-0.16394 1.434944,-0.15121 1.397555,0.028 2.884772,-0.547 2.884772,-1.11544 0,-0.62768 -0.722961,-1.22084 -1.489972,-1.22249 -0.376134,-8e-4 -1.949834,0.13439 -3.497106,0.30043 -1.547274,0.16605 -3.966829,0.40516 -5.376785,0.53137 -1.409957,0.12621 -2.7232643,0.26691 -2.9184503,0.31268 -0.359876,0.0844 -0.711286,-0.72688 -0.758301,-1.75063 -0.03045,-0.66307 0.328791,-0.76446 3.9467133,-1.11374 7.874849,-0.76025 9.771799,-0.85027 10.609044,-0.50348 1.214132,0.50291 1.784487,1.61451 1.785627,3.48013 8.31e-4,1.36513 -0.08825,1.65293 -0.702354,2.26786 -0.955807,0.95717 -1.582979,1.16325 -4.411641,1.44958 -1.336282,0.13526 -3.407831,0.35197 -4.603453,0.48156 -1.195622,0.12961 -2.99078,0.31114 -3.989252,0.40343 l -1.8154093,0.16781 z m -4.2585978,-4.56266 c 0,-1.34727 0.2101204,-1.57729 1.4408882,-1.57729 0.6015086,0 0.6281093,0.0644 0.5545117,1.34267 l -0.077331,1.34268 -0.9590552,0.0793 -0.9590461,0.0793 z M 15.06446,147.5087 c -4.995314,-0.15713 -5.9238543,-0.43408 -6.6605713,-1.98659 -0.533807,-1.12491 -0.358726,-3.20069 0.350568,-4.1566 0.755788,-1.01855 1.5393573,-1.29197 3.4967783,-1.22016 l 1.790238,0.0656 v 1.15086 1.15086 l -1.355894,0.0777 c -1.32361,0.0759 -2.352445,0.60866 -2.352445,1.21818 0,0.15792 0.21046,0.4776 0.467692,0.7104 0.400821,0.36273 1.16585,0.42326 5.349778,0.42326 2.685149,0 5.064127,-0.0698 5.286629,-0.15523 0.486889,-0.18685 0.535104,-1.20827 0.07501,-1.59008 -0.181219,-0.15041 -1.073134,-0.30834 -1.982041,-0.351 l -1.652546,-0.0776 v -1.27873 -1.27874 l 2.021479,0.0493 c 3.44611,0.0838 4.349478,0.83406 4.323545,3.59002 -0.02368,2.51944 -0.938448,3.51165 -3.403927,3.69219 -0.773641,0.0566 -3.363077,0.0415 -5.754321,-0.0337 z m 8.18392,-9.14538 c -0.421982,-0.0401 -1.400224,-0.18156 -2.173855,-0.3143 -0.773632,-0.13274 -2.327303,-0.36825 -3.452595,-0.52334 -1.125282,-0.15511 -2.678953,-0.38529 -3.452584,-0.51151 -0.773632,-0.12622 -2.304134,-0.36771 -3.401104,-0.53666 l -1.9944913,-0.30718 0.07636,-1.1765 c 0.0755,-1.16334 0.08642,-1.1763 0.971496,-1.15909 0.4923203,0.009 1.7511973,0.14699 2.7975073,0.3054 2.552687,0.38646 3.069945,0.0736 1.264598,-0.76504 -0.757217,-0.35171 -2.100855,-0.91399 -2.985869,-1.24949 l -1.6091163,-0.61 0.164893,-1.02299 c 0.09067,-0.56265 0.260597,-1.1248 0.377585,-1.24923 0.12098,-0.12867 1.6604713,0.35473 3.5700083,1.12101 3.181733,1.27679 3.440077,1.33833 4.93987,1.1768 2.908657,-0.31328 6.952214,-0.61694 7.043433,-0.52895 0.04959,0.0478 0.01009,0.66978 -0.08796,1.3821 l -0.178116,1.29511 -1.958051,0.005 c -1.936108,0.005 -5.389447,0.39998 -5.633833,0.64438 -0.455204,0.45521 1.190895,0.83672 5.657834,1.31132 l 1.470553,0.15625 v 1.21586 c 0,1.31045 -0.156686,1.45981 -1.406612,1.34097 z m -2.109914,-9.58947 c -0.6634,-0.31995 -0.680355,-0.4292 -0.276023,-1.77872 0.229751,-0.76687 0.393349,-0.95701 0.7033,-0.81735 0.222145,0.10013 0.870776,0.22977 1.441401,0.28818 1.197265,0.12254 1.793167,-0.35542 1.519212,-1.21857 -0.371881,-1.17172 -2.462145,-1.33764 -4.346945,-0.34505 -3.483565,1.83456 -4.15868,2.12142 -4.987079,2.11909 -1.159481,-0.003 -3.02379,-0.93743 -3.688234,-1.84811 -0.982504,-1.3466 -0.356792,-4.00177 1.213601,-5.14987 0.752405,-0.55007 2.800359,-0.70736 3.221789,-0.24745 0.116389,0.12702 0.08168,0.74883 -0.07713,1.38182 -0.264908,1.05593 -0.348451,1.14451 -1.012808,1.0738 -1.415206,-0.1506 -1.970491,1.12917 -0.81768,1.88452 0.594017,0.38923 0.706568,0.37498 1.982042,-0.25078 0.743734,-0.36489 2.042773,-1.0584 2.886734,-1.54114 1.940827,-1.11014 3.565523,-1.19871 5.555211,-0.30283 2.559694,1.15252 3.103766,2.16755 2.384661,4.44882 -0.680654,2.1593 -1.28076,2.61946 -3.388731,2.59845 -0.955856,-0.009 -1.99686,-0.14218 -2.313345,-0.29481 z m 144.106484,-5.34893 c -0.99332,-0.74093 -1.4675,-1.78527 -1.5018,-3.30758 -0.0359,-1.58976 0.49431,-2.40239 2.10441,-3.2259 1.65225,-0.84506 2.19802,-0.77668 2.6619,0.33355 0.51884,1.24176 0.49905,1.33805 -0.31626,1.53884 -1.23591,0.30436 -1.85416,0.85927 -1.85416,1.66421 0,0.83417 0.44923,1.12082 1.38747,0.88533 1.15334,-0.28947 2.24233,-1.50732 3.29927,-3.68966 0.57506,-1.18735 1.37176,-2.48503 1.77045,-2.88371 1.20558,-1.20559 3.3804,-1.5861 4.91183,-0.85939 0.89861,0.42642 1.22589,0.92666 1.69882,2.5966 0.47423,1.67459 -0.27068,3.10273 -2.12012,4.06473 -0.76984,0.40043 -0.7928,0.38066 -1.31371,-1.1313 l -0.37248,-1.08113 0.73993,-0.38263 c 1.14032,-0.58968 0.85212,-1.90398 -0.4175,-1.90398 -0.7912,0 -1.4951,0.88433 -2.54455,3.19683 -1.1302,2.49043 -2.10957,3.54947 -3.90293,4.22046 -1.77191,0.66296 -3.31169,0.65012 -4.23057,-0.0353 z M 26.317348,120.50759 c -0.843971,-0.34576 -1.764662,-0.7283 -2.045982,-0.85008 -0.28132,-0.1218 -0.799208,-0.34046 -1.150859,-0.48592 -0.35166,-0.14546 -1.184777,-0.50613 -1.851385,-0.80146 -0.666609,-0.29534 -1.329912,-0.53699 -1.474014,-0.53699 -0.144102,0 -0.461843,-0.10746 -0.706095,-0.2388 -0.24425,-0.13134 -1.537413,-0.69484 -2.873685,-1.25223 -2.685671,-1.12023 -2.656219,-1.06956 -1.809938,-3.11242 0.262211,-0.63297 0.679118,-1.63998 0.926442,-2.23779 0.50509,-1.22086 0.587173,-1.25153 1.803896,-0.67416 0.855058,0.40575 1.111963,1.03304 0.623228,1.52177 -0.135624,0.13563 -0.279484,0.63755 -0.319685,1.11538 -0.07008,0.83319 -0.01546,0.89228 1.333528,1.44142 1.684221,0.68561 2.093181,0.53795 2.527814,-0.91273 0.302674,-1.01022 0.350386,-1.0475 1.123533,-0.87769 1.607057,0.35298 1.722238,0.54865 1.143136,1.94212 -0.416791,1.0029 -0.453,1.30713 -0.192886,1.62054 0.176125,0.21222 0.450002,0.38657 0.608603,0.38744 0.1586,8.6e-4 0.579218,0.15336 0.934686,0.33889 1.654566,0.86352 2.262812,0.6447 2.944625,-1.05934 0.417457,-1.04331 1.143223,-1.43173 1.524007,-0.81561 0.0869,0.14066 0.381441,0.25575 0.654459,0.25575 0.273027,0 0.4964,0.16837 0.4964,0.37414 0,0.35211 -0.645238,2.12557 -1.399179,3.84568 -0.18496,0.42199 -0.402543,0.96865 -0.483515,1.2148 -0.190983,0.58057 -0.488136,0.55479 -2.337134,-0.20271 z m 135.501542,-5.23748 -0.55607,-1.02431 0.81181,-0.41726 c 4.5052,-2.31555 7.9544,-4.27891 8.64117,-4.91873 l 0.55705,-0.51899 -0.74061,0.13189 c -0.79745,0.142 -1.23945,0.2886 -5.72769,1.89976 -4.72902,1.69758 -4.39082,1.64203 -5.04973,0.82971 -0.70179,-0.86519 -0.72983,-1.42925 -0.0941,-1.89144 1.65451,-1.2027 6.40687,-5.02477 6.97824,-5.61221 0.37599,-0.38658 0.7358,-0.65068 0.79958,-0.5869 0.0638,0.0638 0.18701,-0.0691 0.27383,-0.2954 0.26349,-0.68667 -0.57801,-0.3577 -4.57025,1.78661 -1.26595,0.67996 -2.96964,1.62197 -3.78598,2.09334 -0.81633,0.47139 -1.52426,0.85707 -1.57316,0.85707 -0.0934,0 -1.16241,-1.75496 -1.16241,-1.90842 0,-0.0489 0.48911,-0.37182 1.08692,-0.71755 1.00438,-0.58084 1.85879,-1.05261 5.49857,-3.03606 0.73847,-0.40241 2.00442,-1.09283 2.81321,-1.53427 0.80881,-0.44145 1.98844,-1.08502 2.62142,-1.430178 0.63298,-0.345156 1.25119,-0.72304 1.37384,-0.839748 0.25755,-0.245111 0.92789,-0.04611 0.92789,0.275425 0,0.119424 0.32346,0.768856 0.71882,1.443191 0.39535,0.67433 0.78762,1.4094 0.87169,1.63348 0.11352,0.30256 -0.82676,1.12539 -3.65318,3.19683 -2.09333,1.53419 -3.80908,2.92315 -3.81279,3.08659 -0.0118,0.5227 1.54687,0.0852 5.36396,-1.50574 1.40568,-0.58586 1.7058,-0.6984 2.80835,-1.05314 l 1.14599,-0.36872 0.58031,1.02164 c 0.31917,0.5619 0.58029,1.07844 0.58029,1.14786 0,0.0694 0.2288,0.44754 0.50843,0.84024 0.58771,0.82536 0.58944,0.82316 -1.56952,1.99064 -0.79459,0.4297 -1.71527,0.94883 -2.04598,1.15367 -0.33069,0.20483 -1.80966,1.00631 -3.28661,1.78107 -1.47694,0.77476 -3.11692,1.65322 -3.64439,1.95213 -0.52749,0.29892 -1.36537,0.77365 -1.86195,1.05498 -0.4966,0.28132 -0.98571,0.51055 -1.08693,0.50938 -0.10126,-9.7e-4 -0.43426,-0.46305 -0.74011,-1.02644 z M 29.897805,113.25838 c -0.804882,-0.46843 -3.87474,-2.11837 -7.54454,-4.05491 -3.102626,-1.63725 -4.859206,-2.64222 -4.859206,-2.78004 0,-0.26582 1.044715,-2.1449 1.192509,-2.1449 0.08748,0 1.379895,0.64755 2.871955,1.439 1.49207,0.79145 3.806169,2.01747 5.142441,2.7245 1.336282,0.70701 2.548269,1.37614 2.693299,1.48694 0.145028,0.11079 0.558049,0.25482 0.917819,0.32006 0.574395,0.10416 0.741918,-0.0492 1.374221,-1.25775 l 0.720092,-1.37637 0.955392,0.53697 0.955391,0.53696 -1.041507,1.95073 c -0.572828,1.07292 -1.16439,2.20881 -1.314571,2.52419 -0.324103,0.68063 -1.002872,0.71175 -2.063295,0.0947 z m 0.883563,-8.53497 c -2.186594,-1.44031 -5.092525,-3.33527 -6.457613,-4.21105 -1.365096,-0.87578 -2.481987,-1.721167 -2.481987,-1.878627 0,-0.401517 1.006679,-1.771872 1.301638,-1.771872 0.302837,0 1.613949,0.824281 9.635682,6.057819 l 3.648516,2.38038 -0.677474,1.02372 c -0.372606,0.56304 -0.748489,1.02251 -0.835291,1.02102 -0.0868,-0.002 -1.946866,-1.1811 -4.133471,-2.62139 z m 122.938362,-2.73687 c -0.60459,-0.55729 -1.22501,-1.423 -1.37871,-1.9238 -0.59209,-1.929224 0.27997,-3.113257 4.83699,-6.567359 1.36152,-1.031987 3.34516,-2.552816 4.40809,-3.379616 l 1.93261,-1.503274 0.51935,0.608157 c 1.20756,1.414004 1.34291,1.215137 -3.26254,4.793722 -6.20504,4.821529 -6.05394,4.68081 -5.85926,5.45646 0.20113,0.80135 0.7904,1.06802 1.50955,0.68314 0.29445,-0.15758 2.57489,-1.883467 5.06762,-3.835293 2.49273,-1.951825 4.69779,-3.548771 4.90009,-3.548771 0.46943,0 1.48293,1.068852 1.47064,1.550965 -0.005,0.201923 -0.7648,0.942564 -1.68814,1.645876 -0.92333,0.703301 -3.00026,2.327051 -4.6154,3.608323 -4.85149,3.84865 -5.92393,4.17848 -7.84089,2.41147 z m -118.501512,-0.015 c -0.730995,-0.42967 -4.265925,-3.15177 -7.153336,-5.508496 -1.213263,-0.990268 -1.875406,-2.142102 -1.875406,-3.262358 0,-1.236474 1.115897,-2.863752 2.385164,-3.478192 1.040375,-0.503636 1.184534,-0.514111 2.190558,-0.159164 1.406303,0.496171 2.585202,1.200779 2.585202,1.54513 0,0.150813 -0.324383,0.662766 -0.720855,1.137674 l -0.720855,0.863469 -0.814799,-0.602404 c -1.038762,-0.76799 -2.219072,-0.492663 -2.219072,0.517632 0,0.487324 0.599313,1.109808 2.702596,2.807068 5.067839,4.089521 5.438822,4.330891 6.059498,3.942271 0.244648,-0.15317 0.479852,-0.569122 0.522682,-0.924339 0.06177,-0.512677 -0.215041,-0.896072 -1.342827,-1.859563 -1.168363,-0.998164 -1.487516,-1.158263 -1.797004,-0.901417 -0.304499,0.252719 -0.521396,0.197661 -1.136562,-0.288492 -0.418134,-0.330444 -0.766614,-0.704036 -0.774395,-0.830217 -0.01788,-0.290533 1.745436,-2.455935 1.999952,-2.455935 0.436896,0 6.975848,5.433608 6.774128,5.629027 -0.121386,0.117596 -0.565957,0.251433 -0.987937,0.297424 -0.616279,0.06718 -0.772704,0.209415 -0.794975,0.722981 -0.01528,0.351651 -0.04408,0.886141 -0.06399,1.187751 -0.01991,0.30161 -0.370094,0.90582 -0.778185,1.34268 -0.639824,0.68493 -0.912697,0.79179 -1.982041,0.77614 -0.723262,-0.0105 -1.580766,-0.21841 -2.057591,-0.49867 z m 2.541589,-11.057936 c -2.987813,-2.990246 -5.432393,-5.58521 -5.432393,-5.766583 0,-0.370586 1.263873,-1.563425 1.669741,-1.575892 0.144729,-0.0044 1.007878,0.748217 1.91811,1.672581 2.946886,2.992635 3.277804,2.693155 1.07267,-0.970771 -0.734697,-1.220734 -1.335809,-2.317621 -1.335809,-2.437525 0,-0.119904 0.384612,-0.590784 0.854682,-1.046401 1.004833,-0.973916 0.772597,-1.177547 3.000282,2.630706 1.595583,2.727658 1.691779,2.833399 3.838724,4.219831 1.211174,0.782137 2.906859,1.824869 3.76818,2.317183 0.861322,0.492312 1.569457,0.983052 1.573642,1.090531 0.01063,0.274201 -1.596869,1.706097 -1.925601,1.715193 -0.148964,0.0039 -1.414916,-0.738825 -2.813215,-1.650996 -1.398309,-0.91217 -2.686232,-1.660231 -2.862058,-1.662358 -0.175834,-0.0022 -0.319685,-0.118952 -0.319685,-0.259613 0,-0.140661 -0.180464,-0.255747 -0.401033,-0.255747 -0.580988,0 0.327475,1.205353 2.776193,3.683472 l 1.99714,2.021111 -0.829714,0.856044 c -0.456334,0.470823 -0.894447,0.856044 -0.973574,0.856044 -0.07916,0 -2.588459,-2.446562 -5.576282,-5.43681 z m 110.587303,4.811589 c -1.18128,-0.638635 -2.44297,-2.389957 -2.4588,-3.413017 -0.0129,-0.833157 0.82332,-2.343382 1.83569,-3.315322 l 0.86659,-0.831975 0.85593,0.883094 0.85592,0.883095 -0.80498,0.916831 c -0.90833,1.034525 -1.03215,1.912874 -0.33136,2.350523 0.68585,0.428312 1.56194,-0.08536 2.26604,-1.328469 0.49701,-0.877538 0.57721,-1.392367 0.58084,-3.728128 0.005,-2.95889 0.24729,-3.760926 1.46491,-4.841214 1.04726,-0.929132 1.76023,-1.272078 2.6446,-1.272078 1.01949,0 1.71074,0.372242 2.73594,1.473321 0.7051,0.757287 0.83118,1.084337 0.83118,2.156101 0,1.242765 -0.27605,2.053857 -0.91724,2.695048 -0.47324,0.473238 -0.69581,0.410021 -1.49562,-0.424809 -0.64974,-0.678185 -0.69137,-0.827102 -0.43599,-1.559719 0.62648,-1.797079 -0.96723,-2.462804 -1.81815,-0.75948 -0.34463,0.689889 -0.44724,1.543041 -0.44755,3.721082 -3.7e-4,2.605685 -0.0518,2.904713 -0.66013,3.836215 -1.46879,2.249172 -3.99404,3.409745 -5.56782,2.558901 z m -5.86536,-5.444442 c -0.51347,-0.389218 -0.8924,-0.828073 -0.84206,-0.975229 0.0504,-0.147158 0.98534,-1.442854 2.07774,-2.879326 1.82088,-2.394373 1.96203,-2.664806 1.69587,-3.248967 -0.15969,-0.350462 -0.45881,-0.637201 -0.66472,-0.637201 -0.20593,0 -1.37053,1.265317 -2.58799,2.811817 l -2.21358,2.811818 -0.99251,-0.701903 c -0.54587,-0.386045 -0.99495,-0.796533 -0.99796,-0.912194 -0.005,-0.189673 1.04094,-1.566805 7.56083,-9.955666 1.06589,-1.371446 2.0361,-2.493537 2.15598,-2.493537 0.22138,0 2.97098,2.117251 4.02661,3.100579 0.86868,0.809173 0.93721,1.533301 0.27792,2.936787 -0.83978,1.787722 -2.54278,3.425288 -3.56215,3.425288 -0.72817,0 -0.78693,0.05884 -0.64067,0.641575 0.0972,0.387629 -0.006,0.963765 -0.2599,1.455563 -0.32613,0.630644 -2.58616,3.582149 -3.92976,5.132092 -0.0935,0.107897 -0.59018,-0.122276 -1.10365,-0.511496 z m 6.18422,-9.923476 c 0.86495,-0.985113 1.00022,-1.675211 0.4224,-2.154768 -0.5292,-0.439197 -1.31757,-0.108894 -2.05844,0.862422 -0.68928,0.903704 -0.83364,1.819525 -0.31951,2.026985 0.73523,0.296665 1.20501,0.12018 1.95555,-0.734639 z M 48.921652,89.342353 C 47.964065,87.976541 43.664735,82.378807 41.73286,79.982554 L 39.980301,77.8087 40.821246,77.0878 c 0.46252,-0.396496 1.529593,-1.242524 2.371284,-1.880064 l 1.530337,-1.159164 0.707448,0.847413 c 0.389097,0.466078 0.704993,0.966848 0.701997,1.112823 -0.0029,0.145974 -0.463352,0.589359 -1.022997,0.9853 -0.559634,0.39594 -1.017524,0.902566 -1.017524,1.125835 0,0.223269 0.374027,0.901504 0.831183,1.507191 0.828775,1.09807 1.470543,1.58451 1.470543,1.114635 0,-0.136247 0.154792,-0.247721 0.343986,-0.247721 0.189193,0 0.552289,-0.230173 0.806872,-0.511494 0.6657,-0.735583 1.278847,-0.631952 1.891452,0.319684 l 0.535054,0.831179 -1.036355,0.896441 c -1.182061,1.022467 -1.170683,1.160246 0.258615,3.132895 0.998589,1.37819 1.290165,1.39411 2.863624,0.156349 0.512551,-0.403203 0.997526,-0.733096 1.077706,-0.733096 0.257155,0 1.424957,1.868206 1.297115,2.075067 -0.205501,0.332499 -4.449889,3.551376 -4.682831,3.551376 -0.119385,0 -0.491576,-0.391544 -0.827103,-0.870096 z m 2.794878,-10.32162 -4.26752,-6.582728 0.668842,-0.55756 c 1.293278,-1.078106 1.35518,-1.031718 3.947302,2.957829 1.335664,2.055717 2.648738,4.069378 2.917938,4.4748 0.269199,0.405425 0.604543,0.929523 0.745203,1.164666 0.14066,0.235143 0.760621,1.201583 1.377682,2.147645 0.617061,0.946063 1.077406,1.753954 1.022986,1.795315 -0.732889,0.557035 -1.758871,1.1877 -1.928656,1.185529 -0.11894,-0.0015 -2.13664,-2.964996 -4.483777,-6.585496 z m 82.27046,5.15925 c -1.26595,-0.775584 -2.40343,-1.51178 -2.52774,-1.635989 -0.13082,-0.130708 1.04407,-2.306752 2.78914,-5.165913 1.65835,-2.717042 3.46754,-5.716909 4.02041,-6.66637 0.55288,-0.949463 1.11596,-1.726296 1.2513,-1.726296 0.33373,0 4.52396,2.533564 4.72306,2.855736 0.22216,0.359436 -0.70667,2.003465 -1.13188,2.003465 -0.19244,0 -0.68898,-0.24144 -1.1034,-0.536533 -1.05278,-0.749641 -1.84028,-0.484916 -2.64567,0.889358 -0.78501,1.339519 -0.66133,1.799136 0.66639,2.476488 0.5453,0.278189 0.99102,0.589775 0.99049,0.692411 -0.002,0.419357 -1.03751,1.848852 -1.33795,1.847286 -0.1779,-9.27e-4 -0.66871,-0.230341 -1.09069,-0.50981 -1.33854,-0.886475 -1.58883,-0.745248 -2.93878,1.658228 -0.63437,1.129433 -0.40731,1.706055 0.91974,2.335782 0.50333,0.238845 0.97028,0.577937 1.03766,0.753535 0.11544,0.300805 -0.91732,2.158516 -1.19248,2.14504 -0.0704,-0.0035 -1.16365,-0.640833 -2.4296,-1.416418 z m -74.177459,-4.00562 c -0.667354,-1.301115 -1.525766,-2.941094 -1.907574,-3.6444 -0.381819,-0.703305 -1.141851,-2.127344 -1.688958,-3.16453 -1.006158,-1.907431 -1.665614,-2.458717 -2.449936,-2.048071 -0.236905,0.124039 -0.524625,0.224207 -0.639361,0.222593 -0.234874,-0.0033 -1.245546,-1.996435 -1.081437,-2.132666 0.31291,-0.259744 5.655322,-3.009501 5.70663,-2.937215 0.03345,0.04716 0.318467,0.535178 0.633338,1.084492 0.452854,0.790019 0.502596,1.043085 0.238016,1.210884 -0.183964,0.116673 -0.416741,0.213895 -0.517287,0.216049 -0.10055,0.0022 -0.302905,0.2283 -0.449674,0.502549 -0.207704,0.388087 -0.133054,0.742452 0.336697,1.598421 1.29177,2.353799 3.145717,5.805027 4.295309,7.995946 l 1.203007,2.292705 -1.02895,0.584453 c -0.565918,0.32145 -1.120633,0.584455 -1.232701,0.584455 -0.112059,0 -0.749767,-1.06455 -1.417119,-2.365665 z m 66.505049,-0.05831 c -0.7033,-0.338531 -1.4226,-0.622145 -1.59842,-0.630252 -0.45156,-0.02082 -0.43159,-0.126085 0.66444,-3.503615 1.20326,-3.707919 2.97729,-9.296885 3.41827,-10.769045 0.36212,-1.208867 0.49531,-1.258454 1.85462,-0.690495 0.72231,0.301798 0.90822,0.500214 0.77884,0.83118 -0.0934,0.23911 -0.56831,1.643153 -1.05521,3.120096 -0.48688,1.47694 -0.98698,2.915519 -1.11133,3.196841 -0.20334,0.460059 -0.54391,1.629549 -0.67028,2.301727 -0.0265,0.140661 -0.0702,0.31329 -0.0971,0.38362 -0.14254,0.371435 -0.20426,1.022991 -0.0969,1.022991 0.35544,0 1.4255,-1.63317 3.35137,-5.114949 1.10195,-1.992249 2.39434,-4.091958 2.51863,-4.091958 0.0657,0 0.58407,0.236986 1.15184,0.526636 1.01887,0.519792 1.02687,0.534898 0.6159,1.162146 -0.22904,0.34953 -0.76794,1.231704 -1.19759,1.960388 -0.42964,0.728684 -1.09712,1.788156 -1.48327,2.354382 -0.38614,0.566225 -0.74792,1.155296 -0.80395,1.309046 -0.28278,0.77597 -4.48498,7.248941 -4.70533,7.247937 -0.14066,-6.41e-4 -0.83116,-0.278146 -1.53447,-0.616676 z M 70.48264,77.233225 c -0.333768,-0.872858 -0.968034,-2.80768 -2.326519,-7.096991 -0.579132,-1.828593 -1.296323,-4.086796 -1.593758,-5.018228 -0.297424,-0.931431 -0.493624,-1.834981 -0.435986,-2.007889 0.141202,-0.423594 3.40612,-1.522964 4.733519,-1.593876 2.205511,-0.117823 2.59945,0.453318 4.656607,6.751212 1.555963,4.763498 1.727331,6.631281 0.697192,7.599044 -0.54298,0.510104 -4.417024,2.057646 -5.17346,2.066611 -0.158764,0.0019 -0.409686,-0.313065 -0.557595,-0.699883 z m 3.480442,-2.67256 c 0.168799,-0.168794 0.306897,-0.54366 0.306897,-0.833036 0,-0.683957 -2.738032,-9.07483 -3.105815,-9.51799 -0.354135,-0.426706 -0.983694,-0.42193 -1.554735,0.0118 -0.448495,0.340649 -0.40491,0.68186 0.330802,2.590083 0.108461,0.281322 0.737296,2.209017 1.39741,4.283769 1.063631,3.343033 1.263825,3.772274 1.759374,3.772274 0.307544,0 0.697279,-0.138105 0.866067,-0.306897 z m 46.213558,3.025668 c -1.56639,-0.59037 -1.57891,-0.122463 0.12742,-4.764751 0.43947,-1.195619 1.3118,-3.727518 1.9385,-5.626442 0.62673,-1.898925 1.25265,-3.65243 1.39095,-3.896679 0.1383,-0.244247 0.25147,-0.618277 0.25147,-0.831178 0,-0.492364 0.45903,-0.489771 1.65356,0.0094 0.72567,0.303203 0.90782,0.498671 0.77454,0.831177 -0.0958,0.239112 -0.38657,1.067723 -0.64609,1.841359 -0.25951,0.773637 -1.06242,3.075363 -1.78427,5.114948 -0.72184,2.039586 -1.6103,4.600257 -1.97437,5.69038 -0.36406,1.090123 -0.73,1.968311 -0.8132,1.951528 -0.0832,-0.01678 -0.49654,-0.16064 -0.91851,-0.319683 z m -4.85921,-1.48453 -0.76724,-0.248025 0.0649,-4.073572 c 0.0356,-2.240464 0.0103,-4.073571 -0.0574,-4.073571 -0.2422,0 -0.81435,1.43488 -1.12175,2.813221 -0.39693,1.77977 -0.79557,3.266247 -1.10392,4.116444 -0.23077,0.636274 -0.28532,0.652668 -1.31302,0.394604 -0.58973,-0.148086 -1.11413,-0.296898 -1.16531,-0.330692 -0.0512,-0.03379 0.42979,-2.167833 1.06888,-4.74231 0.63909,-2.574477 1.46849,-5.946818 1.84312,-7.49409 0.37462,-1.547271 0.75677,-2.892428 0.84921,-2.989236 0.0924,-0.09681 0.73187,-0.05507 1.42094,0.09276 l 1.25287,0.268782 -0.14966,3.498965 c -0.0822,1.924431 -0.0613,3.641964 0.0468,3.816738 0.27779,0.449481 0.8733,-1.101908 1.57863,-4.112584 0.5378,-2.295593 0.6327,-2.493537 1.19533,-2.493537 0.49102,0 1.40985,0.324936 1.79611,0.635184 0.0721,0.0579 -1.40046,6.1469 -2.22759,9.211092 -0.11392,0.421982 -0.48015,1.946824 -0.81385,3.388538 -0.66053,2.853643 -0.68297,2.87537 -2.39698,2.321283 z M 79.625431,75.091341 c -0.0087,-0.19341 -0.113325,-0.869542 -0.233212,-1.502517 -0.525814,-2.776277 -1.358958,-7.11723 -1.546181,-8.056043 -0.437475,-2.193731 -0.798955,-4.131321 -0.931961,-4.995452 l -0.139065,-0.903495 2.008266,-0.337308 c 1.104548,-0.185518 2.388063,-0.433008 2.852265,-0.549978 0.756851,-0.190709 0.869083,-0.146691 1.086928,0.426273 0.536591,1.411347 0.343385,1.811366 -1.047008,2.167711 -1.636015,0.419299 -1.901116,0.726188 -1.569358,1.816687 0.140728,0.462594 0.326132,1.158291 0.411995,1.545997 0.153468,0.692953 0.18034,0.702073 1.582699,0.537252 1.611445,-0.189392 1.877155,0.0035 1.88367,1.367651 0.0039,0.750302 -0.07713,0.832544 -0.95514,0.97281 -1.578775,0.252227 -1.736563,0.427481 -1.639003,1.820463 0.04803,0.685485 0.267265,1.63037 0.487236,2.099744 0.3421,0.72994 0.495974,0.830955 1.063584,0.698217 2.111691,-0.493827 2.581722,-0.485617 2.581722,0.04509 0,0.282259 0.06863,0.856208 0.152453,1.275441 0.144333,0.721709 0.100137,0.770872 -0.831183,0.924567 -1.171002,0.193251 -3.216531,0.578128 -4.37228,0.822671 -0.617128,0.130579 -0.835108,0.08531 -0.846427,-0.175784 z M 103.38104,73.93207 c -1.70076,-0.292752 -2.62349,-2.356904 -2.24961,-5.032331 0.12119,-0.867199 0.34498,-2.727589 0.49731,-4.1342 0.15232,-1.40661 0.41266,-3.575644 0.57852,-4.820075 l 0.30155,-2.2626 0.90574,0.14987 c 0.49817,0.08243 1.06467,0.151137 1.2589,0.152685 0.26818,0.0022 0.31145,0.233562 0.17985,0.961866 -0.0953,0.52748 -0.28313,1.994831 -0.4174,3.260781 -0.13427,1.265949 -0.34753,3.27996 -0.4739,4.475579 -0.12638,1.195618 -0.3007,2.576655 -0.38741,3.068968 -0.3227,1.832422 1.47196,2.75236 2.10385,1.078422 0.14423,-0.382139 0.33196,-1.442862 0.41716,-2.357157 0.0852,-0.914298 0.26749,-2.58305 0.40509,-3.708339 0.13762,-1.125288 0.32393,-2.937427 0.41405,-4.026976 0.0901,-1.089548 0.2941,-2.089087 0.45328,-2.221197 0.15917,-0.132108 0.74909,-0.178543 1.31091,-0.103186 l 1.02151,0.137011 -0.17299,1.828437 c -0.0951,1.005641 -0.30219,2.979301 -0.46006,4.385911 -0.1579,1.406611 -0.38267,3.420621 -0.49948,4.47558 -0.37586,3.394509 -1.23404,4.633287 -3.28598,4.743321 -0.66956,0.03591 -1.52496,0.01234 -1.90089,-0.05237 z m -15.08479,-0.6642 c -0.904723,-0.764789 -1.152464,-1.318782 -1.369786,-3.063046 -0.17914,-1.437857 -0.168952,-1.471097 0.532793,-1.737901 1.34415,-0.511042 1.746374,-0.262775 1.981973,1.22333 0.240598,1.517607 0.828738,2.067453 1.708077,1.596845 0.397265,-0.212606 0.511499,-0.53549 0.511499,-1.445704 0,-1.145193 -0.05732,-1.228223 -2.510224,-3.635402 -2.071133,-2.032533 -2.560795,-2.662719 -2.799305,-3.602674 -0.367416,-1.447954 8.7e-5,-3.320215 0.799053,-4.070807 1.139056,-1.070089 4.245616,-1.029409 5.303225,0.06945 0.470611,0.488966 1.370887,2.682001 1.178175,2.870004 -0.029,0.02834 -0.61999,0.08613 -1.31319,0.128395 -1.193243,0.07277 -1.281793,0.03342 -1.662365,-0.738834 -0.465835,-0.945259 -1.021111,-1.044672 -1.692331,-0.302984 -0.452902,0.500454 -0.454439,0.561584 -0.03374,1.342674 0.242424,0.450091 1.082635,1.336238 1.867122,1.969212 2.901513,2.341116 3.421043,3.234787 3.421043,5.884703 0,3.037759 -0.96818,4.090566 -3.759568,4.088175 -1.16382,-9.67e-4 -1.62952,-0.124921 -2.162457,-0.575431 z"
         id="path35" /><path
         style="display:inline;fill:#000000;stroke-width:0.966604"
         d="m 218.38066,203.32556 c -8.01818,-21.89993 -13.79018,-37.31737 -14.0288,-37.47192 -0.15954,-0.10335 -0.7792,-0.18966 -1.377,-0.19182 -0.79392,-0.003 -1.08693,-0.10732 -1.08693,-0.38754 0,-0.33426 1.25032,-0.38361 9.7184,-0.38361 8.46808,0 9.7184,0.0494 9.7184,0.38361 0,0.30835 -0.39309,0.38363 -2.00336,0.38363 -1.10184,0 -2.07264,0.0693 -2.15732,0.15396 -0.0847,0.0847 2.10958,6.86718 4.87612,15.07218 2.76654,8.20503 5.08867,14.85963 5.16029,14.78802 0.2648,-0.2648 10.42866,-29.63747 10.31945,-29.82235 -0.0623,-0.1055 -1.08472,-0.19181 -2.27204,-0.19181 -1.7484,0 -2.15876,-0.0729 -2.15876,-0.38363 0,-0.32638 0.66778,-0.38361 4.47558,-0.38361 3.80779,0 4.47558,0.0573 4.47558,0.38361 0,0.28661 -0.30722,0.38462 -1.2148,0.38754 -0.66813,0.002 -1.33922,0.0885 -1.4913,0.19182 -0.15206,0.10334 -1.68251,4.27345 -3.40096,9.26692 -1.71847,4.99347 -4.93155,14.25792 -7.14018,20.58767 l -4.01572,11.50863 -2.4593,0.0728 -2.45933,0.0728 z m -47.69391,2.74044 c 0,-0.4774 0.17049,-0.5115 2.55747,-0.5115 h 2.55748 v -19.82042 -19.82042 h -0.97657 c -1.85334,0 -3.60328,0.71847 -4.87435,2.00127 -1.4946,1.5084 -2.55174,3.50713 -4.26808,8.0696 -1.12208,2.98281 -1.45508,3.62645 -1.91256,3.69686 -0.51979,0.08 -0.54482,0.008 -0.4061,-1.15086 0.0813,-0.67987 0.21513,-3.71047 0.29741,-6.73468 0.0822,-3.02421 0.20964,-5.81506 0.28305,-6.20188 l 0.13346,-0.7033 h 17.5896 17.5896 l 0.17296,5.94612 c 0.0951,3.27038 0.24156,6.60788 0.32542,7.41668 0.13989,1.34916 0.11042,1.47054 -0.35702,1.47054 -0.41855,0 -0.72689,-0.58218 -1.72707,-3.26078 -2.9483,-7.89591 -4.85236,-10.17741 -8.75518,-10.4907 l -1.60594,-0.1289 v 19.85543 19.85544 h 2.55747 c 2.38697,0 2.55747,0.0341 2.55747,0.5115 0,0.50347 -0.1705,0.51149 -10.86926,0.51149 -10.69877,0 -10.86926,-0.008 -10.86926,-0.51149 z M 53.298697,184.1996 v -1.15087 l 2.877155,-0.004 c 1.582438,-0.002 2.998716,-0.0885 3.147284,-0.19182 0.148567,-0.10334 0.628032,-1.16612 1.065468,-2.36175 3.174271,-8.67591 7.278453,-19.77526 14.516077,-39.25722 4.598543,-12.37817 10.412609,-28.02992 12.920146,-34.78165 2.507545,-6.75173 4.807521,-12.937608 5.111064,-13.746414 l 0.551892,-1.470548 h 5.440098 5.440089 l 7.11569,19.372862 c 3.91362,10.65509 8.8664,24.14895 11.00615,29.98638 10.46549,28.55059 15.2791,41.599 15.49639,42.00652 0.20599,0.38633 0.63966,0.44755 3.17072,0.44755 h 2.9321 v 1.15086 1.15087 h -21.73853 -21.73853 v -1.15091 -1.15087 h 4.58836 c 2.5236,0 4.64899,-0.0981 4.72308,-0.21799 0.0742,-0.11991 -2.04819,-6.65019 -4.71623,-14.51175 -2.66802,-7.86157 -4.85096,-14.3234 -4.85096,-14.3596 0,-0.0363 -5.970518,-0.0658 -13.267829,-0.0658 H 73.820547 l -0.280044,0.70331 c -1.384932,3.47818 -9.974565,28.04967 -9.866594,28.22436 0.07733,0.12515 2.320469,0.22753 4.98472,0.22753 h 4.844109 v 1.15086 1.15087 H 63.400717 53.298697 Z m 40.195901,-50.51011 c -3.187541,-9.56496 -5.859119,-17.39083 -5.936825,-17.39083 -0.09965,0 -10.238795,28.03256 -12.464605,34.46197 -0.08748,0.25281 2.431571,0.31968 12.043156,0.31968 h 12.153817 z m 65.996822,20.20297 c -1.13623,-0.69278 -1.36906,-1.4283 -1.52938,-4.83151 -0.16,-3.39641 -0.41536,-3.86284 -2.11482,-3.86284 h -1.02918 l 0.07,4.2815 0.0701,4.28149 0.76724,0.16383 c 0.42199,0.0901 -1.07413,0.15902 -3.32471,0.15316 -2.25057,-0.006 -3.71793,-0.0572 -3.26078,-0.11381 l 0.83117,-0.10316 v -8.40726 -8.40725 l -0.83117,-0.10315 c -0.45715,-0.0568 1.70861,-0.12157 4.81278,-0.14409 6.43966,-0.0467 7.79206,0.18351 8.91445,1.51739 0.55915,0.66452 0.65856,1.03256 0.65856,2.4381 0,2.5734 -0.74633,3.56232 -3.0659,4.06252 l -0.89204,0.19237 1.34818,0.59499 c 1.72334,0.76057 2.09827,1.57427 2.09827,4.55397 0,1.60059 0.10177,2.26558 0.39102,2.55482 0.56821,0.56821 1.06074,0.25883 1.51542,-0.95192 l 0.39992,-1.06493 -0.1185,0.98611 c -0.14766,1.22863 -0.74052,2.15929 -1.57852,2.47791 -1.11854,0.42526 -3.21835,0.28896 -4.13225,-0.26824 z m -2.38261,-9.32165 c 0.39518,-0.20436 0.87716,-0.75102 1.07105,-1.2148 0.38267,-0.91532 0.47762,-3.74368 0.16337,-4.86661 -0.23514,-0.84023 -1.35641,-1.47521 -2.60501,-1.47521 h -0.90782 v 3.96409 3.9641 h 0.77994 c 0.42897,0 1.10329,-0.16721 1.49847,-0.37157 z m 84.8029,7.48279 c -0.0984,-1.31186 -0.13843,-2.66491 -0.089,-3.00676 0.0836,-0.57878 0.13997,-0.54543 0.81933,0.48443 1.10892,1.68104 2.71897,3.32681 3.78826,3.87232 1.73775,0.88653 4.39345,0.48039 5.06512,-0.77463 0.3395,-0.63438 0.33861,-2.20884 -0.002,-2.84455 -0.33675,-0.62923 -2.17007,-1.54752 -4.4664,-2.23715 -3.40355,-1.02217 -4.78725,-2.35444 -5.14331,-4.95214 -0.31619,-2.30687 0.97709,-4.65324 3.09515,-5.61544 1.26786,-0.57599 4.03675,-0.6223 5.99812,-0.10034 1.0011,0.26643 1.48543,0.29342 1.72326,0.0961 0.50261,-0.41713 0.62479,0.17473 0.53969,2.61404 l -0.075,2.14886 -0.84527,-1.31948 c -1.17893,-1.84031 -2.86943,-3.33465 -4.01563,-3.54968 -2.06219,-0.38686 -3.96237,0.8765 -3.96237,2.63442 0,1.25837 1.05754,2.15372 3.37192,2.85483 4.20215,1.27297 5.54636,2.0865 6.2567,3.78659 0.46437,1.11139 0.43758,3.70846 -0.0503,4.87613 -1.22778,2.93848 -4.1632,3.92208 -8.96385,3.00355 -1.78484,-0.34149 -2.03286,-0.33977 -2.42696,0.0169 -0.41086,0.37183 -0.45041,0.24454 -0.61779,-1.98795 z m -109.20346,1.87117 0.76725,-0.16399 0.0674,-8.35683 0.0674,-8.35682 -0.83465,-0.11464 c -0.45905,-0.0631 1.69725,-0.0982 4.79179,-0.0781 5.30911,0.0345 5.68754,0.0691 6.70963,0.61296 1.24903,0.66464 1.82114,1.42379 2.02644,2.68893 0.30167,1.85896 -0.879,3.66156 -2.86149,4.36884 -0.62985,0.22471 -0.86972,0.41053 -0.63176,0.48942 3.40565,1.12899 4.13814,1.80701 4.29499,3.97565 0.20237,2.79747 -1.14826,4.25804 -4.53064,4.8995 -1.46117,0.27711 -11.16006,0.31156 -9.86637,0.0351 z m 7.76991,-0.31472 c 1.2067,-0.42066 1.56489,-1.35089 1.56489,-4.06422 0,-1.54698 -0.12602,-2.5708 -0.37586,-3.05395 -0.38158,-0.7379 -1.50015,-1.29377 -2.6034,-1.29377 h -0.60122 v 4.34772 4.3477 h 0.60122 c 0.33065,0 0.96712,-0.12757 1.41437,-0.28348 z m -0.0365,-9.05885 c 1.4187,-0.99368 1.4738,-6.52828 0.0725,-7.27824 -0.26591,-0.14231 -0.83632,-0.25877 -1.26754,-0.25877 h -0.78406 v 3.96409 3.9641 h 0.71034 c 0.39068,0 0.96164,-0.17604 1.26879,-0.39118 z m 25.93364,9.41757 c 0.63556,-0.0978 0.85436,-0.58513 3.68511,-8.20954 1.65519,-4.45811 3.10334,-8.3646 3.21814,-8.6811 0.16798,-0.46316 0.40397,-0.57542 1.2096,-0.57542 h 1.00089 l 1.71502,4.66738 c 4.88271,13.2882 4.5847,12.56525 5.257,12.75271 0.34615,0.0965 -1.26954,0.16761 -3.59044,0.15799 -2.32092,-0.009 -3.78827,-0.0626 -3.26079,-0.11781 0.52748,-0.0552 0.95906,-0.1841 0.95906,-0.2865 0,-0.10239 -0.38412,-1.33263 -0.85359,-2.73384 l -0.8536,-2.54768 -2.56555,-0.0725 -2.56556,-0.0725 -0.92856,2.58523 c -0.51071,1.42188 -0.92856,2.68473 -0.92856,2.80636 0,0.12163 0.43158,0.26628 0.95905,0.32147 0.52748,0.0552 0.0384,0.10239 -1.08692,0.10499 -1.12529,0.003 -1.74191,-0.042 -1.3703,-0.0992 z m 8.14761,-6.29085 c 0,-0.0755 -1.67437,-5.29216 -1.94515,-6.06027 -0.19161,-0.54355 -0.38487,-0.14929 -1.60905,3.28245 l -1.0186,2.85549 h 2.28639 c 1.25752,0 2.28641,-0.035 2.28641,-0.0777 z m 9.75319,6.29099 c 0.5135,-0.079 0.71161,-0.29084 0.83119,-0.88877 0.22298,-1.11496 0.18789,-15.36601 -0.0387,-15.72047 -0.10334,-0.16164 -0.4756,-0.34738 -0.82725,-0.41273 -0.35166,-0.0653 1.14447,-0.11609 3.3247,-0.11274 2.18025,0.003 3.59007,0.0525 3.13291,0.10926 l -0.83118,0.10315 v 3.94789 3.94788 h 2.55748 2.55747 v -3.9471 -3.9471 l -0.70331,-0.10655 c -0.38682,-0.0586 1.08054,-0.10537 3.26079,-0.10393 2.18024,9.7e-4 3.58849,0.0491 3.12942,0.10602 l -0.83465,0.10341 0.0674,8.35682 0.0674,8.35683 0.76724,0.16399 c 0.42199,0.0901 -1.01659,0.16037 -3.19683,0.15593 -2.18025,-0.005 -3.6476,-0.0559 -3.26078,-0.1146 l 0.70331,-0.10656 v -4.21209 -4.21211 l -2.49355,0.0731 -2.49353,0.0731 v 4.08945 4.08944 l 0.76724,0.16407 c 0.42198,0.0902 -1.0166,0.16044 -3.19684,0.156 -2.18025,-0.005 -3.66071,-0.0547 -3.28992,-0.11179 z m 18.36495,-0.0451 c 0.55561,-0.15507 0.98147,-1.13691 3.82126,-8.8101 l 3.19595,-8.63558 1.0067,0.0762 1.0067,0.0762 3.14391,8.56632 c 2.73075,7.44053 3.22221,8.58834 3.73958,8.73386 0.32762,0.0921 -1.2457,0.16058 -3.49628,0.15209 -2.25058,-0.008 -3.71793,-0.0619 -3.26078,-0.11858 1.03424,-0.12836 1.03337,-0.30051 -0.0166,-3.26759 l -0.81454,-2.30173 h -2.55748 -2.55746 l -0.80737,2.17386 c -1.15242,3.10294 -1.15397,3.16216 -0.0878,3.35295 0.61545,0.11014 0.29586,0.16273 -1.023,0.16835 -1.10988,0.005 -1.65462,-0.0653 -1.2928,-0.16635 z m 7.94224,-6.50154 c 0,-0.48932 -1.75375,-5.61464 -2.00828,-5.86916 -0.18477,-0.18479 -2.33943,5.31769 -2.33943,5.97435 0,0.1255 0.97823,0.22818 2.17385,0.22818 1.61619,0 2.17386,-0.0855 2.17386,-0.33337 z m 10.03809,6.54388 0.7033,-0.10655 v -8.40569 -8.40568 l -0.7033,-0.1105 c -0.38683,-0.0608 0.84274,-0.0971 2.73235,-0.0809 l 3.43566,0.0296 1.61502,6.24416 c 0.88826,3.4343 1.65144,6.2806 1.69596,6.32511 0.0647,0.0647 1.08899,-4.19959 2.91174,-12.12172 0.12962,-0.56332 0.20316,-0.57463 3.49334,-0.53711 1.8485,0.021 3.04443,0.0862 2.65761,0.14487 l -0.70331,0.10653 v 8.40569 8.40569 l 0.70331,0.10655 c 0.38682,0.0586 -1.023,0.10654 -3.13291,0.10654 -2.10991,0 -3.51972,-0.0479 -3.1329,-0.10654 l 0.7033,-0.10655 v -7.95381 c 0,-4.37459 -0.0475,-7.90585 -0.10548,-7.84724 -0.058,0.0586 -0.94139,3.70301 -1.96304,8.09867 l -1.85754,7.99211 h -1.55818 -1.55817 l -2.14804,-7.92822 c -1.18142,-4.36048 -2.18632,-7.92816 -2.2331,-7.92816 -0.0468,0 -0.0851,3.50249 -0.0851,7.78331 v 7.7833 l 0.7033,0.10655 c 0.38683,0.0586 -0.10229,0.10653 -1.08693,0.10653 -0.98462,0 -1.47374,-0.0479 -1.08691,-0.10653 z"
         id="path33" /></g></g></svg>
