<?xml version="1.0" encoding="UTF-8" standalone="no"?>
<!-- Created with Inkscape (http://www.inkscape.org/) -->

<svg
   version="1.1"
   id="svg2"
   width="1024"
   height="1024"
   viewBox="0 0 1024 1024"
   sodipodi:docname="MIHR-KURAN.svg"
   xml:space="preserve"
   inkscape:export-filename="klv7r.png"
   inkscape:export-xdpi="96"
   inkscape:export-ydpi="96"
   inkscape:version="1.4 (e7c3feb100, 2024-10-09)"
   xmlns:inkscape="http://www.inkscape.org/namespaces/inkscape"
   xmlns:sodipodi="http://sodipodi.sourceforge.net/DTD/sodipodi-0.dtd"
   xmlns="http://www.w3.org/2000/svg"
   xmlns:svg="http://www.w3.org/2000/svg"><defs
     id="defs6" /><sodipodi:namedview
     id="namedview4"
     pagecolor="#505050"
     bordercolor="#eeeeee"
     borderopacity="1"
     inkscape:showpageshadow="0"
     inkscape:pageopacity="0"
     inkscape:pagecheckerboard="0"
     inkscape:deskcolor="#505050"
     showgrid="false"
     inkscape:zoom="0.51420519"
     inkscape:cx="467.71212"
     inkscape:cy="505.63473"
     inkscape:window-width="1920"
     inkscape:window-height="1043"
     inkscape:window-x="0"
     inkscape:window-y="0"
     inkscape:window-maximized="1"
     inkscape:current-layer="layer1" /><g
     inkscape:groupmode="layer"
     id="layer1"
     inkscape:label="KuraniKerim"
     style="display:inline"><rect
       style="display:inline;fill:#00123c;fill-opacity:1;stroke-width:3.05511;stroke-dasharray:none;stroke-opacity:0.967731;paint-order:normal;stop-color:#000000"
       id="rect1213"
       width="1024"
       height="1024"
       x="0"
       y="0"
       inkscape:label="DarkBlue" /><g
       id="g1"
       transform="matrix(1.2487804,0,0,0.77766759,-254.75117,167.48866)"><rect
         style="fill:#00ffff;fill-opacity:1;stroke:none;stroke-width:8.08686;stroke-dasharray:none;stroke-opacity:1;paint-order:normal;stop-color:#000000"
         id="rect1063"
         width="820"
         height="883.45032"
         x="204"
         y="0.030386703"
         ry="0"
         inkscape:label="Blue" /><path
         id="path1279"
         style="display:inline;fill:#ffffff;fill-opacity:1;stroke-width:2.53645;stroke-dasharray:none;stroke-opacity:0.967731;paint-order:normal;stop-color:#000000"
         inkscape:label="White"
         d="M 275.69639,0.0303867 203.99997,63.326345 V 185.01187 L 748.96711,615.15671 1024,372.34577 V 0.0303867 Z m 0,0 H 203.99997 V 63.326345 Z" /></g><path
       id="rect1342"
       style="fill:#dc6002;fill-opacity:1;stroke:#000000;stroke-width:6.26519;stroke-dasharray:none;stroke-opacity:1;paint-order:normal;stop-color:#000000"
       d="M 512,110.9844 A 501.82303,401.01803 0 0 0 264.02834,163.55288 V 860.46131 A 501.82303,401.01803 0 0 0 512,913.0156 501.82303,401.01803 0 0 0 759.97166,860.46131 v -697.022 A 501.82303,401.01803 0 0 0 512,110.9844 Z"
       inkscape:label="Broun" /><rect
       style="fill:#ffff00;fill-opacity:1;stroke:#000000;stroke-width:6.13744;stroke-dasharray:none;stroke-opacity:1;paint-order:normal;stop-color:#000000"
       id="rect1288"
       width="842.77222"
       height="526.27203"
       x="90.613892"
       y="248.86398"
       inkscape:label="Yellow" /><text
       xml:space="preserve"
       style="font-style:normal;font-variant:normal;font-weight:normal;font-stretch:normal;font-size:217.593px;font-family:Impact;-inkscape-font-specification:'Impact, Normal';font-variant-ligatures:normal;font-variant-caps:normal;font-variant-numeric:normal;font-variant-east-asian:normal;text-align:center;text-anchor:middle;fill:#000000;fill-opacity:1;stroke:none;stroke-width:13.0555;stroke-dasharray:none;stroke-opacity:1;paint-order:normal;stop-color:#000000"
       x="517.74603"
       y="456.38065"
       id="text15154"
       transform="scale(0.98900328,1.011119)"><tspan
         sodipodi:role="line"
         id="tspan15152"
         x="517.74603"
         y="456.38065"
         style="font-style:normal;font-variant:normal;font-weight:normal;font-stretch:normal;font-size:217.593px;font-family:Impact;-inkscape-font-specification:'Impact, Normal';font-variant-ligatures:normal;font-variant-caps:normal;font-variant-numeric:normal;font-variant-east-asian:normal;stroke-width:13.0555">KUR'AN-I</tspan><tspan
         sodipodi:role="line"
         x="517.74603"
         y="728.37189"
         id="tspan15156"
         style="font-style:normal;font-variant:normal;font-weight:normal;font-stretch:normal;font-size:217.593px;font-family:Impact;-inkscape-font-specification:'Impact, Normal';font-variant-ligatures:normal;font-variant-caps:normal;font-variant-numeric:normal;font-variant-east-asian:normal;stroke-width:13.0555">KERİM</tspan></text><g
       aria-label="KELIME - KELIME"
       transform="matrix(4.4719287,-0.08018506,0.07961689,3.706458,-4297.225,-708.84081)"
       id="text15312"
       style="font-stretch:condensed;font-size:16px;font-family:Impact;-inkscape-font-specification:'Impact, Condensed';text-align:center;text-anchor:middle;stroke-width:1.11149;stop-color:#000000"><path
         d="m 1025.7993,260.99688 0.4038,5.99973 4.5207,5.6521 -3.1488,1.27839 -3.2702,-4.52405 2.0396,5.02365 -3.0475,1.23724 -4.7579,-11.71943 3.0474,-1.23724 1.8486,4.55313 -0.4949,-5.10269 z"
         id="path15383" /><path
         d="m 1027.3247,260.49576 5.2083,-1.7181 0.7929,2.40384 -2.0848,0.68773 0.7514,2.27771 1.9512,-0.64368 0.7539,2.28513 -1.9513,0.64367 0.8713,2.64126 2.2925,-0.75626 0.793,2.40384 -5.4161,1.78662 z"
         id="path15385" /><path
         d="m 1037.4851,257.39749 2.6434,9.76576 1.9305,-0.52254 0.6614,2.44332 -5.1054,1.3819 -3.3047,-12.20909 z"
         id="path15387" /><path
         d="m 1043.9695,255.86009 2.743,12.34742 -3.2108,0.71328 -2.743,-12.34742 z"
         id="path15389" /><path
         d="m 1056.1587,253.8357 1.8696,12.50951 -2.8434,0.42495 -1.2622,-8.44527 0.1264,8.61501 -2.0167,0.3014 -2.4309,-8.07312 1.2332,8.2521 -2.8434,0.42495 -1.8695,-12.50951 4.211,-0.62934 q 0.3541,1.10039 0.7913,2.59909 l 0.9239,3.11642 -0.1312,-5.95223 z"
         id="path15391" /><path
         d="m 1058.5099,253.6767 5.4721,-0.36634 0.1691,2.5256 -2.1904,0.14664 0.1602,2.39308 2.0501,-0.13724 0.1607,2.40087 -2.0501,0.13725 0.1858,2.77504 2.4086,-0.16126 0.1691,2.5256 -5.6904,0.38095 z"
         id="path15393" /><path
         d="m 1072.6632,259.63814 -0.027,2.17952 -4.1481,-0.0516 0.027,-2.17952 z"
         id="path15395" /><path
         d="m 1085.4444,254.28427 -2.4626,5.48591 1.3348,7.11343 -3.3802,-0.35104 -0.761,-5.53006 -0.56,5.39287 -3.2715,-0.33974 1.3065,-12.58078 3.2715,0.33975 -0.5076,4.88777 1.9607,-4.73687 z"
         id="path15397" /><path
         d="m 1087.1153,254.5778 5.3978,0.97086 -0.4481,2.49128 -2.1607,-0.38862 -0.4246,2.36055 2.0223,0.36373 -0.426,2.36825 -2.0222,-0.36373 -0.4924,2.73733 2.376,0.42734 -0.4481,2.49127 -5.6131,-1.00958 z"
         id="path15399" /><path
         d="m 1097.6186,256.75182 -2.4102,9.82592 1.9424,0.47645 -0.603,2.45837 -5.1368,-1.25997 3.0132,-12.2843 z"
         id="path15401" /><path
         d="m 1104.1094,258.59461 -3.6521,12.10971 -3.1489,-0.94968 3.6521,-12.10971 z"
         id="path15403" /><path
         d="m 1115.7899,262.89406 -4.5785,11.79066 -2.6801,-1.04071 3.0911,-7.95997 -4.1616,7.54425 -1.9008,-0.73812 1.8915,-8.21624 -3.0203,7.7779 -2.6801,-1.04072 4.5786,-11.79065 3.9691,1.54127 q -0.2381,1.13114 -0.6014,2.64947 l -0.7428,3.16449 2.8371,-5.23422 z"
         id="path15405" /><path
         d="m 1117.9444,263.95333 4.9256,2.41175 -1.1131,2.27337 -1.9717,-0.96539 -1.0547,2.15409 1.8454,0.90355 -1.0582,2.1611 -1.8453,-0.90355 -1.2231,2.4979 2.1681,1.06158 -1.1131,2.27337 -5.1221,-2.50795 z"
         id="path15407" /></g><g
       aria-label="LAFZI VE RUHU"
       transform="matrix(5.1967966,0,0,3.0055361,-5042.231,-428.45199)"
       id="text15412"
       style="font-stretch:condensed;font-size:16px;font-family:Impact;-inkscape-font-specification:'Impact, Condensed';text-align:center;text-anchor:middle;stroke-width:2"><path
         d="m 1035.2305,409.51703 -3.985,9.29931 1.8383,0.78777 -0.997,2.32662 -4.8615,-2.08328 4.982,-11.62594 z"
         id="path15421" /><path
         d="m 1042.6837,412.27176 -2.3347,12.57287 -3.184,-1.09551 0.5845,-2.20312 -1.1155,-0.38381 -0.9243,2.08621 -3.221,-1.10822 5.6961,-11.41635 z m -4.2933,7.12353 q 0.4626,-2.11288 1.253,-5.17875 -1.6522,3.2651 -2.3168,4.81274 z"
         id="path15423" /><path
         d="m 1044.1602,412.73034 5.3829,1.43263 -0.651,2.4461 -2.2045,-0.58671 -0.6169,2.31775 1.963,0.52242 -0.6189,2.32531 -1.9629,-0.52242 -1.3664,5.13379 -3.1784,-0.84591 z"
         id="path15425" /><path
         d="m 1054.9504,415.23065 -0.4975,2.48187 -3.8963,6.95583 2.4053,0.48215 -0.4975,2.48187 -5.9443,-1.19155 0.3609,-1.80013 4.1095,-7.62222 -2.1908,-0.43915 0.4975,-2.48188 z"
         id="path15427" /><path
         d="m 1058.3819,415.6971 -1.8161,12.51738 -3.255,-0.47224 1.8161,-12.51739 z"
         id="path15429" /><path
         d="m 1069.1465,416.4869 -2.3344,12.54308 -4.9852,-0.2624 -1.2311,-12.73073 3.464,0.18232 q 0.326,5.25095 0.3938,8.86889 0.4492,-3.62984 0.8791,-6.44708 l 0.3499,-2.3364 z"
         id="path15431" /><path
         d="m 1068.7824,416.42133 5.4832,-0.11504 0.053,2.53069 -2.1949,0.0461 0.05,2.39791 2.0543,-0.0431 0.05,2.40572 -2.0542,0.0431 0.058,2.78064 2.4135,-0.0506 0.053,2.5307 -5.7019,0.11962 z"
         id="path15433" /><path
         d="m 1076.9744,416.15209 2.3109,-0.28294 q 2.3108,-0.28295 3.1469,-0.20429 0.8438,0.0777 1.4458,0.75173 0.6088,0.66532 0.8054,2.27052 0.1794,1.46562 -0.1233,2.01429 -0.3028,0.54867 -1.3605,0.78051 0.9987,0.12171 1.3815,0.48412 0.3828,0.36241 0.5022,0.69412 0.1261,0.323 0.3122,1.8429 l 0.4054,3.31121 -3.032,0.37125 -0.5108,-4.17197 q -0.1235,-1.0081 -0.3158,-1.22855 -0.1845,-0.2214 -0.8591,-0.1388 l 0.6931,5.66085 -3.2647,0.39973 z m 3.5277,1.74829 0.3418,2.79166 q 0.5506,-0.0674 0.7497,-0.24134 0.2059,-0.18263 0.1043,-1.01237 l -0.084,-0.69016 q -0.073,-0.5971 -0.3131,-0.75662 -0.2321,-0.16048 -0.7982,-0.0912 z"
         id="path15435" /><path
         d="m 1091.8313,413.70879 1.7059,8.27921 q 0.2901,1.40793 0.3165,2.00073 0.025,0.58515 -0.302,1.28266 -0.3285,0.68985 -1.0061,1.1565 -0.6715,0.45743 -1.6739,0.66396 -1.1095,0.2286 -2.0345,0.0363 -0.925,-0.19229 -1.4673,-0.69476 -0.5422,-0.50248 -0.7528,-1.13711 -0.2121,-0.64229 -0.644,-2.73887 l -1.5104,-7.3304 3.2214,-0.66373 1.914,9.28924 q 0.1671,0.81109 0.2985,1.0233 0.1376,0.20298 0.4054,0.1478 0.3061,-0.0631 0.3398,-0.32526 0.04,-0.27143 -0.151,-1.19729 l -1.8808,-9.12856 z"
         id="path15437" /><path
         d="m 1099.3601,411.53144 3.5261,12.147 -3.1587,0.91691 -1.481,-5.10189 -0.9453,0.27442 1.481,5.10189 -3.1587,0.91692 -3.5261,-12.147 3.1587,-0.91692 1.261,4.34411 0.9454,-0.27442 -1.2611,-4.34411 z"
         id="path15439" /><path
         d="m 1106.7136,408.78973 2.9601,7.91791 q 0.5034,1.34648 0.6207,1.92815 0.1147,0.57435 -0.101,1.31387 -0.2183,0.7322 -0.816,1.2976 -0.5931,0.55534 -1.5517,0.91372 -1.0611,0.39669 -2.0047,0.3491 -0.9436,-0.0476 -1.5567,-0.4606 -0.6132,-0.41301 -0.9189,-1.00767 -0.3084,-0.60197 -1.058,-2.60706 l -2.6209,-7.0105 3.0808,-1.15175 3.3212,8.88387 q 0.29,0.77569 0.4526,0.96513 0.1671,0.17939 0.4233,0.0836 0.2927,-0.10943 0.2856,-0.3737 0,-0.27431 -0.3335,-1.15977 l -3.2637,-8.73019 z"
         id="path15441" /></g></g></svg>
