<?xml version="1.0" encoding="UTF-8" standalone="no"?>
<svg
   id="svg2"
   viewBox="0 0 1024 1024"
   version="1.1"
   sodipodi:docname="mpl.svg"
   xml:space="preserve"
   width="1024"
   height="1024"
   inkscape:version="1.4 (e7c3feb100, 2024-10-09)"
   inkscape:export-filename="mpl.png"
   inkscape:export-xdpi="96"
   inkscape:export-ydpi="96"
   xmlns:inkscape="http://www.inkscape.org/namespaces/inkscape"
   xmlns:sodipodi="http://sodipodi.sourceforge.net/DTD/sodipodi-0.dtd"
   xmlns:xlink="http://www.w3.org/1999/xlink"
   xmlns="http://www.w3.org/2000/svg"
   xmlns:svg="http://www.w3.org/2000/svg"
   xmlns:rdf="http://www.w3.org/1999/02/22-rdf-syntax-ns#"
   xmlns:cc="http://creativecommons.org/ns#"
   xmlns:dc="http://purl.org/dc/elements/1.1/"><sodipodi:namedview
     id="namedview1"
     pagecolor="#ffffff"
     bordercolor="#ffffff"
     borderopacity="1"
     inkscape:showpageshadow="0"
     inkscape:pageopacity="0"
     inkscape:pagecheckerboard="1"
     inkscape:deskcolor="#505050"
     inkscape:zoom="0.37104692"
     inkscape:cx="315.324"
     inkscape:cy="428.51723"
     inkscape:window-width="1920"
     inkscape:window-height="1043"
     inkscape:window-x="0"
     inkscape:window-y="0"
     inkscape:window-maximized="1"
     inkscape:current-layer="svg2" /><defs
     id="defs4"><clipPath
   id="clipPathFlag"
   clipPathUnits="userSpaceOnUse"><rect
     id="rect3918"
     fill-opacity="0.67"
     ry="57"
     height="511"
     width="511"
     y="0.5"
     x="0.5" /></clipPath><linearGradient
   id="linearGradient3852-0"><stop
     id="stop3854-6"
     stop-color="#dbe3db"
     offset="0" /><stop
     id="stop3856-1"
     stop-color="#dbe3db"
     stop-opacity="0"
     offset="1" /></linearGradient><linearGradient
   id="linearGradient5122"
   x1="342.19"
   xlink:href="#linearGradient3852-0"
   gradientUnits="userSpaceOnUse"
   y1="705.76001"
   gradientTransform="matrix(1.1571,0,0,1.3167,-91.204,-253.99)"
   x2="358.07999"
   y2="523.40997" /><linearGradient
   id="linearGradient5125"
   x1="405.26001"
   xlink:href="#linearGradient3852-0"
   gradientUnits="userSpaceOnUse"
   y1="118.06"
   gradientTransform="matrix(0.95303,0,0,0.86647,11.575,-4.5016)"
   x2="405.75"
   y2="360.92001" /><filter
   id="filter5740"
   x="-0.04353125"
   y="-0.04353125"
   width="1.0870625"
   height="1.0870625"><feGaussianBlur
     id="feGaussianBlur5742"
     stdDeviation="5.12" /></filter><clipPath
   id="clipPath5796"
   clipPathUnits="userSpaceOnUse"><rect
     id="rect5798"
     ry="57"
     height="512"
     width="512"
     stroke="#00fa00"
     y="0"
     x="0"
     stroke-width="20"
     fill="none" /></clipPath><filter
   id="filter5912"
   x="-0.088882811"
   y="-0.088882811"
   width="1.1777656"
   height="1.1777656"><feGaussianBlur
     id="feGaussianBlur5914"
     stdDeviation="17.92" /></filter>&gt;
  <filter
   id="filter5912-6"
   x="-0.088882813"
   y="-0.088882813"
   width="1.1777656"
   height="1.1777656"><feGaussianBlur
     id="feGaussianBlur5914-7"
     stdDeviation="17.92" /></filter><clipPath
   id="clipPathFlag-5"
   clipPathUnits="userSpaceOnUse"><rect
     id="rect3918-3"
     fill-opacity="0.67"
     ry="57"
     height="511"
     width="511"
     y="0.5"
     x="0.5" /></clipPath><clipPath
   id="clipPath5796-2"
   clipPathUnits="userSpaceOnUse"><rect
     id="rect5798-9"
     ry="57"
     height="512"
     width="512"
     stroke="#00fa00"
     y="0"
     x="0"
     stroke-width="20"
     fill="none" /></clipPath><filter
   id="filter5740-1"
   x="-0.043531249"
   y="-0.043531249"
   width="1.0870625"
   height="1.0870625"><feGaussianBlur
     id="feGaussianBlur5742-2"
     stdDeviation="5.12" /></filter><linearGradient
   inkscape:collect="always"
   xlink:href="#linearGradient3852-0"
   id="linearGradient1"
   gradientUnits="userSpaceOnUse"
   gradientTransform="matrix(0.95303,0,0,0.86647,11.575,-4.5016)"
   x1="405.26001"
   y1="118.06"
   x2="405.75"
   y2="360.92001" /><linearGradient
   inkscape:collect="always"
   xlink:href="#linearGradient3852-0"
   id="linearGradient2"
   gradientUnits="userSpaceOnUse"
   gradientTransform="matrix(1.1571,0,0,1.3167,-91.204,-253.99)"
   x1="342.19"
   y1="705.76001"
   x2="358.07999"
   y2="523.40997" /><filter
   id="filter5912-6-1"
   x="-0.088882813"
   y="-0.088882813"
   width="1.1777656"
   height="1.1777656"><feGaussianBlur
     id="feGaussianBlur5914-7-8"
     stdDeviation="17.92" /></filter><clipPath
   id="clipPathFlag-5-8"
   clipPathUnits="userSpaceOnUse"><rect
     id="rect3918-3-7"
     fill-opacity="0.67"
     ry="57"
     height="511"
     width="511"
     y="0.5"
     x="0.5" /></clipPath><clipPath
   id="clipPath5796-2-2"
   clipPathUnits="userSpaceOnUse"><rect
     id="rect5798-9-7"
     ry="57"
     height="512"
     width="512"
     stroke="#00fa00"
     y="0"
     x="0"
     stroke-width="20"
     fill="none" /></clipPath><filter
   id="filter5740-1-9"
   x="-0.043531249"
   y="-0.043531249"
   width="1.0870625"
   height="1.0870625"><feGaussianBlur
     id="feGaussianBlur5742-2-1"
     stdDeviation="5.12" /></filter><linearGradient
   inkscape:collect="always"
   xlink:href="#linearGradient3852-0"
   id="linearGradient5"
   gradientUnits="userSpaceOnUse"
   gradientTransform="matrix(0.95303,0,0,0.86647,11.575,-4.5016)"
   x1="405.26001"
   y1="118.06"
   x2="405.75"
   y2="360.92001" /><linearGradient
   inkscape:collect="always"
   xlink:href="#linearGradient3852-0"
   id="linearGradient6"
   gradientUnits="userSpaceOnUse"
   gradientTransform="matrix(1.1571,0,0,1.3167,-91.204,-253.99)"
   x1="342.19"
   y1="705.76001"
   x2="358.07999"
   y2="523.40997" /><filter
   id="filter5912-6-0"
   x="-0.088882813"
   y="-0.088882813"
   width="1.1777656"
   height="1.1777656"><feGaussianBlur
     id="feGaussianBlur5914-7-0"
     stdDeviation="17.92" /></filter><clipPath
   id="clipPathFlag-5-6"
   clipPathUnits="userSpaceOnUse"><rect
     id="rect3918-3-4"
     fill-opacity="0.67"
     ry="57"
     height="511"
     width="511"
     y="0.5"
     x="0.5" /></clipPath><clipPath
   id="clipPath5796-2-7"
   clipPathUnits="userSpaceOnUse"><rect
     id="rect5798-9-3"
     ry="57"
     height="512"
     width="512"
     stroke="#00fa00"
     y="0"
     x="0"
     stroke-width="20"
     fill="none" /></clipPath><filter
   id="filter5740-1-4"
   x="-0.043531249"
   y="-0.043531249"
   width="1.0870625"
   height="1.0870625"><feGaussianBlur
     id="feGaussianBlur5742-2-7"
     stdDeviation="5.12" /></filter><linearGradient
   inkscape:collect="always"
   xlink:href="#linearGradient3852-0"
   id="linearGradient7"
   gradientUnits="userSpaceOnUse"
   gradientTransform="matrix(0.95303,0,0,0.86647,11.575,-4.5016)"
   x1="405.26001"
   y1="118.06"
   x2="405.75"
   y2="360.92001" /><linearGradient
   inkscape:collect="always"
   xlink:href="#linearGradient3852-0"
   id="linearGradient8"
   gradientUnits="userSpaceOnUse"
   gradientTransform="matrix(1.1571,0,0,1.3167,-91.204,-253.99)"
   x1="342.19"
   y1="705.76001"
   x2="358.07999"
   y2="523.40997" /></defs><metadata
     id="metadata1"><rdf:RDF><cc:Work><dc:format>image/svg+xml</dc:format><dc:type
           rdf:resource="http://purl.org/dc/dcmitype/StillImage" /><cc:license
           rdf:resource="http://creativecommons.org/publicdomain/zero/1.0/" /><dc:publisher><cc:Agent
             rdf:about="http://openclipart.org/"><dc:title>Openclipart</dc:title></cc:Agent></dc:publisher><dc:date>2011-08-21T12:01:03</dc:date><dc:description>country flag buttons (with ISO-3166-1 naming convention)</dc:description><dc:source>http://openclipart.org/detail/156397/gf-by-koppi</dc:source><dc:creator><cc:Agent><dc:title>koppi</dc:title></cc:Agent></dc:creator><dc:subject><rdf:Bag><rdf:li>ISO3166-1</rdf:li><rdf:li>button</rdf:li><rdf:li>clip art</rdf:li><rdf:li>clipart</rdf:li><rdf:li>country</rdf:li><rdf:li>flag</rdf:li><rdf:li>flags</rdf:li><rdf:li>squared</rdf:li></rdf:Bag></dc:subject></cc:Work><cc:License
         rdf:about="http://creativecommons.org/publicdomain/zero/1.0/"><cc:permits
           rdf:resource="http://creativecommons.org/ns#Reproduction" /><cc:permits
           rdf:resource="http://creativecommons.org/ns#Distribution" /><cc:permits
           rdf:resource="http://creativecommons.org/ns#DerivativeWorks" /></cc:License></rdf:RDF></metadata><g
     id="g10"
     transform="matrix(0.49453483,0,0,0.49453483,142.21859,680.77302)" /><rect
     style="fill:#333333;fill-opacity:1;fill-rule:evenodd;stroke:none;stroke-width:2.64674;stroke-dasharray:none;stroke-opacity:1"
     id="rect15"
     width="910.49817"
     height="193.77702"
     x="56.750885"
     y="590.34515" /><g
     id="g15"
     transform="translate(-2.8997786e-5,40.034364)"><g
       id="01-3"
       transform="matrix(0.6273792,0,0,0.6273792,672.23105,199.84346)"
       clip-path="url(#clipPathFlag-5)"><rect
         id="mask-6"
         ry="57"
         height="512"
         width="512"
         y="0"
         x="0"
         fill="#0000ff" /><g
         id="flag-0"
         transform="matrix(0.48166,0,0,0.72249,0,2.4116e-6)"><rect
           id="rect171-6"
           fill-rule="evenodd"
           height="708.65997"
           width="1063"
           y="0"
           x="0"
           stroke-width="1pt"
           fill="#ffffff"
           style="fill:#0066ff;fill-opacity:1" /><rect
           id="rect403-2"
           fill-rule="evenodd"
           height="708.65997"
           width="354.32999"
           y="0"
           x="0"
           stroke-width="1pt"
           fill="#00267f"
           style="fill:#0066ff;fill-opacity:1" /><rect
           id="rect135-6"
           fill-rule="evenodd"
           height="708.65997"
           width="354.32999"
           y="0"
           x="708.65997"
           stroke-width="1pt"
           fill="#f31830"
           style="fill:#0066ff" /></g></g><g
       id="02-1"
       transform="matrix(0.6273792,0,0,0.6273792,591.92656,143.37933)"><path
         id="path3862-8-8"
         style="color:#000000;fill:url(#linearGradient1)"
         fill="url(#linearGradient5125)"
         d="m 214.21,111.21 c -45.245,0.18809 -68.716,7.7308 -64.094,83.553 l 2.8252,46.345 c 47.474,5.5124 56.664,18.445 104.36,21.914 68.073,4.9513 67.937,5.4209 130.56,-14.384 62.628,-19.805 5.8248,-65.247 207.32,-57.82 4.6033,0.16968 17.314,-3.0527 27.462,-12.15 5.5817,-46.524 -2.7842,-69.143 -66.934,-68.876 z" /><path
         id="path3079-9-7"
         style="color:#000000;fill:url(#linearGradient2)"
         fill="url(#linearGradient5122)"
         d="m 531.03,495.17 c -31.605,19.022 -27.601,31.26 -37.913,32.573 -94.704,12.053 -145.98,-0.72701 -165.8,-12.061 -59.588,-34.078 -68.468,-13.014 -100.22,-16.574 -20.115,-2.2551 -59.245,12.984 -73.388,44.344 3.4722,27.608 18.111,32.098 44.281,31.986 l 356.06,-1.5268 c 69.692,-0.29885 56.335,-8.4926 65.543,-56.039 -14.772,-21.671 -13.157,9.109 -44.224,-30.717 z" /><rect
         id="rect5734-9"
         transform="translate(128,90)"
         clip-path="url(#clipPath5796-2)"
         ry="57"
         height="512"
         filter="url(#filter5740)"
         width="512"
         stroke="#000000"
         y="0"
         x="0"
         stroke-width="20"
         fill="none"
         style="filter:url(#filter5740-1)" /></g><g
       id="g8"
       transform="matrix(0.49453483,0,0,0.49453483,293.82048,675.7889)"><g
         id="01-3-6"
         transform="matrix(1.2686249,0,0,1.2686249,117.19402,-962.41042)"
         clip-path="url(#clipPathFlag-5-8)"><rect
           id="mask-6-8"
           ry="57"
           height="512"
           width="512"
           y="0"
           x="0"
           fill="#0000ff" /><g
           id="flag-0-4"
           transform="matrix(0.48166,0,0,0.72249,0,2.4116e-6)"><rect
             id="rect171-6-6"
             fill-rule="evenodd"
             height="708.65997"
             width="1063"
             y="0"
             x="0"
             stroke-width="1pt"
             fill="#ffffff"
             style="fill:#ffff00" /><rect
             id="rect403-2-6"
             fill-rule="evenodd"
             height="708.65997"
             width="354.32999"
             y="0"
             x="0"
             stroke-width="1pt"
             fill="#00267f"
             style="fill:#ffff00;fill-opacity:1" /><rect
             id="rect135-6-7"
             fill-rule="evenodd"
             height="708.65997"
             width="354.32999"
             y="0"
             x="708.65997"
             stroke-width="1pt"
             fill="#f31830"
             style="fill:#ffff00;fill-opacity:1" /></g></g><g
         id="02-1-2"
         transform="matrix(1.2686249,0,0,1.2686249,-45.189879,-1076.5866)"><path
           id="path3862-8-8-7"
           style="color:#000000;fill:url(#linearGradient5)"
           fill="url(#linearGradient5125)"
           d="m 214.21,111.21 c -45.245,0.18809 -68.716,7.7308 -64.094,83.553 l 2.8252,46.345 c 47.474,5.5124 56.664,18.445 104.36,21.914 68.073,4.9513 67.937,5.4209 130.56,-14.384 62.628,-19.805 5.8248,-65.247 207.32,-57.82 4.6033,0.16968 17.314,-3.0527 27.462,-12.15 5.5817,-46.524 -2.7842,-69.143 -66.934,-68.876 z" /><path
           id="path3079-9-7-4"
           style="color:#000000;fill:url(#linearGradient6)"
           fill="url(#linearGradient5122)"
           d="m 531.03,495.17 c -31.605,19.022 -27.601,31.26 -37.913,32.573 -94.704,12.053 -145.98,-0.72701 -165.8,-12.061 -59.588,-34.078 -68.468,-13.014 -100.22,-16.574 -20.115,-2.2551 -59.245,12.984 -73.388,44.344 3.4722,27.608 18.111,32.098 44.281,31.986 l 356.06,-1.5268 c 69.692,-0.29885 56.335,-8.4926 65.543,-56.039 -14.772,-21.671 -13.157,9.109 -44.224,-30.717 z" /><rect
           id="rect5734-9-1"
           transform="translate(128,90)"
           clip-path="url(#clipPath5796-2-2)"
           ry="57"
           height="512"
           filter="url(#filter5740)"
           width="512"
           stroke="#000000"
           y="0"
           x="0"
           stroke-width="20"
           fill="none"
           style="filter:url(#filter5740-1-9)" /></g></g><g
       id="g9"
       transform="matrix(0.49453483,0,0,0.49453483,534.29161,686.02736)"><g
         id="01-3-9"
         transform="matrix(1.2686249,0,0,1.2686249,-1018.6155,-983.1136)"
         clip-path="url(#clipPathFlag-5-6)"><rect
           id="mask-6-5"
           ry="57"
           height="512"
           width="512"
           y="0"
           x="0"
           fill="#0000ff" /><g
           id="flag-0-6"
           transform="matrix(0.48166,0,0,0.72249,0,2.4116e-6)"><rect
             id="rect171-6-8"
             fill-rule="evenodd"
             height="708.65997"
             width="1063"
             y="0"
             x="0"
             stroke-width="1pt"
             fill="#ffffff"
             style="fill:#ff0000;fill-opacity:1" /><rect
             id="rect403-2-9"
             fill-rule="evenodd"
             height="708.65997"
             width="354.32999"
             y="0"
             x="0"
             stroke-width="1pt"
             fill="#00267f"
             style="fill:#ff0000" /><rect
             id="rect135-6-5"
             fill-rule="evenodd"
             height="708.65997"
             width="354.32999"
             y="0"
             x="708.65997"
             stroke-width="1pt"
             fill="#f31830"
             style="fill:#ff0000;fill-opacity:1" /></g></g><g
         id="02-1-5"
         transform="matrix(1.2686249,0,0,1.2686249,-1180.9994,-1097.2898)"><path
           id="path3862-8-8-2"
           style="color:#000000;fill:url(#linearGradient7)"
           fill="url(#linearGradient5125)"
           d="m 214.21,111.21 c -45.245,0.18809 -68.716,7.7308 -64.094,83.553 l 2.8252,46.345 c 47.474,5.5124 56.664,18.445 104.36,21.914 68.073,4.9513 67.937,5.4209 130.56,-14.384 62.628,-19.805 5.8248,-65.247 207.32,-57.82 4.6033,0.16968 17.314,-3.0527 27.462,-12.15 5.5817,-46.524 -2.7842,-69.143 -66.934,-68.876 z" /><path
           id="path3079-9-7-1"
           style="color:#000000;fill:url(#linearGradient8)"
           fill="url(#linearGradient5122)"
           d="m 531.03,495.17 c -31.605,19.022 -27.601,31.26 -37.913,32.573 -94.704,12.053 -145.98,-0.72701 -165.8,-12.061 -59.588,-34.078 -68.468,-13.014 -100.22,-16.574 -20.115,-2.2551 -59.245,12.984 -73.388,44.344 3.4722,27.608 18.111,32.098 44.281,31.986 l 356.06,-1.5268 c 69.692,-0.29885 56.335,-8.4926 65.543,-56.039 -14.772,-21.671 -13.157,9.109 -44.224,-30.717 z" /><rect
           id="rect5734-9-5"
           transform="translate(128,90)"
           clip-path="url(#clipPath5796-2-7)"
           ry="57"
           height="512"
           filter="url(#filter5740)"
           width="512"
           stroke="#000000"
           y="0"
           x="0"
           stroke-width="20"
           fill="none"
           style="filter:url(#filter5740-1-4)" /></g></g><text
       xml:space="preserve"
       style="font-style:normal;font-variant:normal;font-weight:bold;font-stretch:normal;font-size:217.999px;font-family:'Alte Haas Grotesk';-inkscape-font-specification:'Alte Haas Grotesk, Bold';font-variant-ligatures:normal;font-variant-caps:normal;font-variant-numeric:normal;font-variant-east-asian:normal;text-align:start;writing-mode:lr-tb;direction:ltr;text-anchor:start;fill:#ffffff;fill-rule:evenodd;stroke:#000000;stroke-width:2.51538;stroke-dasharray:none;stroke-opacity:1"
       x="762.93506"
       y="439.50955"
       id="text2-0"><tspan
         sodipodi:role="line"
         id="tspan2-5"
         x="762.93506"
         y="439.50955"
         style="stroke-width:2.51538">L</tspan></text><text
       xml:space="preserve"
       style="font-style:normal;font-variant:normal;font-weight:bold;font-stretch:normal;font-size:217.999px;font-family:'Alte Haas Grotesk';-inkscape-font-specification:'Alte Haas Grotesk, Bold';font-variant-ligatures:normal;font-variant-caps:normal;font-variant-numeric:normal;font-variant-east-asian:normal;text-align:start;writing-mode:lr-tb;direction:ltr;text-anchor:start;fill:#ffffff;fill-rule:evenodd;stroke:#000000;stroke-width:2.51538;stroke-dasharray:none;stroke-opacity:1"
       x="435.6893"
       y="439.40054"
       id="text2-7-3"><tspan
         sodipodi:role="line"
         id="tspan2-2-2"
         x="435.6893"
         y="439.40054"
         style="stroke-width:2.51538">P</tspan></text><text
       xml:space="preserve"
       style="font-style:normal;font-variant:normal;font-weight:bold;font-stretch:normal;font-size:217.999px;font-family:'Alte Haas Grotesk';-inkscape-font-specification:'Alte Haas Grotesk, Bold';font-variant-ligatures:normal;font-variant-caps:normal;font-variant-numeric:normal;font-variant-east-asian:normal;text-align:start;writing-mode:lr-tb;direction:ltr;text-anchor:start;fill:#ffffff;fill-rule:evenodd;stroke:#000000;stroke-width:2.51538;stroke-dasharray:none;stroke-opacity:1"
       x="92.297234"
       y="439.40054"
       id="text2-9-1"><tspan
         sodipodi:role="line"
         id="tspan2-0-9"
         x="92.297234"
         y="439.40054"
         style="stroke-width:2.51538">M</tspan></text></g><g
     id="g14"
     transform="matrix(1.2296177,0,0,1.2296177,63.328749,-65.611796)"><text
       xml:space="preserve"
       style="font-style:normal;font-variant:normal;font-weight:bold;font-stretch:normal;font-size:106.667px;font-family:'Built Titling';-inkscape-font-specification:'Built Titling, Bold';font-variant-ligatures:normal;font-variant-caps:normal;font-variant-numeric:normal;font-variant-east-asian:normal;text-align:start;writing-mode:lr-tb;direction:ltr;text-anchor:start;fill:#ffffff;fill-opacity:1;fill-rule:evenodd;stroke:#000000;stroke-width:2;stroke-dasharray:none;stroke-opacity:1"
       x="434.00873"
       y="651.24658"
       id="text3"><tspan
         sodipodi:role="line"
         x="434.00873"
         y="651.24658"
         id="tspan4">KANALI</tspan></text><text
       xml:space="preserve"
       style="font-style:normal;font-variant:normal;font-weight:bold;font-stretch:normal;font-size:106.667px;font-family:'Built Titling';-inkscape-font-specification:'Built Titling, Bold';font-variant-ligatures:normal;font-variant-caps:normal;font-variant-numeric:normal;font-variant-east-asian:normal;text-align:start;writing-mode:lr-tb;direction:ltr;text-anchor:start;fill:#ffffff;fill-opacity:1;fill-rule:evenodd;stroke:#000000;stroke-width:2;stroke-dasharray:none;stroke-opacity:1"
       x="36.670666"
       y="652.63324"
       id="text3-7"><tspan
         sodipodi:role="line"
         x="36.670666"
         y="652.63324"
         id="tspan4-3">TASAVVUF</tspan></text></g></svg>
