<?xml version="1.0" encoding="UTF-8" standalone="no"?>
<!-- Created with Inkscape (http://www.inkscape.org/) -->

<svg
   width="768"
   height="768.00006"
   viewBox="0 0 768 768.00006"
   version="1.1"
   id="svg1"
   inkscape:version="1.4 (e7c3feb100, 2024-10-09)"
   sodipodi:docname="social-facebook.svg"
   inkscape:export-filename="social-tiktok.png"
   inkscape:export-xdpi="96"
   inkscape:export-ydpi="96"
   xmlns:inkscape="http://www.inkscape.org/namespaces/inkscape"
   xmlns:sodipodi="http://sodipodi.sourceforge.net/DTD/sodipodi-0.dtd"
   xmlns="http://www.w3.org/2000/svg"
   xmlns:svg="http://www.w3.org/2000/svg">
  <sodipodi:namedview
     id="namedview1"
     pagecolor="#505050"
     bordercolor="#ffffff"
     borderopacity="1"
     inkscape:showpageshadow="0"
     inkscape:pageopacity="0"
     inkscape:pagecheckerboard="1"
     inkscape:deskcolor="#505050"
     inkscape:document-units="px"
     inkscape:zoom="0.41796875"
     inkscape:cx="267.96262"
     inkscape:cy="194.99065"
     inkscape:window-width="1920"
     inkscape:window-height="1002"
     inkscape:window-x="0"
     inkscape:window-y="0"
     inkscape:window-maximized="1"
     inkscape:current-layer="layer1">
    <inkscape:page
       x="0"
       y="0"
       width="768"
       height="768.00006"
       id="page2"
       margin="0"
       bleed="0" />
  </sodipodi:namedview>
  <defs
     id="defs1" />
  <g
     inkscape:label="Слой 1"
     inkscape:groupmode="layer"
     id="layer1"
     transform="translate(4.904e-6,3.7411999e-5)">
    <path
       id="XMLID_1633_"
       style="fill:#000000;stroke-width:16.1933"
       d="M 630.85889,767.99998 H 137.14112 C 61.405019,767.99998 -4.9040001e-6,706.59496 -4.9040001e-6,630.85886 V 137.14109 C -4.9040001e-6,61.404987 61.405019,-3.7412e-5 137.14112,-3.7412e-5 h 493.71777 c 75.7361,0 137.14112,61.405024412 137.14112,137.141127412 v 493.71777 c 0,75.75229 -61.38883,137.14112 -137.14112,137.14112 z" />
    <g
       id="g6676"
       transform="matrix(6.5252119,0,0,6.5252119,-260.69094,-249.89171)">
      <g
         id="g6675">
			<path
   style="clip-rule:evenodd;fill:#ee1d51;fill-rule:evenodd"
   d="m 110.723,136.29 c 2.836,0 5.135,-2.281 5.135,-5.093 0,-2.813 -2.299,-5.094 -5.135,-5.094 h -0.774 c 2.836,0 5.135,2.281 5.135,5.094 0,2.813 -2.299,5.093 -5.135,5.093 z"
   id="path6669" />

			<path
   style="clip-rule:evenodd;fill:#66c8cf;fill-rule:evenodd"
   d="m 109.879,126.103 h -0.774 c -2.836,0 -5.136,2.281 -5.136,5.094 0,2.813 2.3,5.093 5.136,5.093 h 0.774 c -2.836,0 -5.136,-2.281 -5.136,-5.093 0,-2.813 2.3,-5.094 5.136,-5.094 z"
   id="path6670" />

			<path
   style="clip-rule:evenodd;fill:#ffffff;fill-rule:evenodd"
   d="m 70.839,123.801 v 2.582 h 3.024 v 9.838 h 3.025 v -9.768 h 2.462 l 0.844,-2.651 h -9.355 z m 24.761,0 v 2.582 h 3.024 v 9.838 h 3.025 v -9.768 h 2.462 l 0.844,-2.651 H 95.6 Z m -14.842,1.466 c 0,-0.809 0.66,-1.465 1.476,-1.465 0.816,0 1.477,0.656 1.477,1.465 0,0.809 -0.661,1.465 -1.477,1.465 -0.816,-0.001 -1.476,-0.656 -1.476,-1.465 z m 0,2.512 h 2.953 v 8.442 h -2.953 z m 4.22,-3.978 v 12.419 h 2.955 v -3.209 l 0.915,-0.838 2.884,4.117 h 3.165 l -4.15,-6 3.728,-3.629 h -3.587 l -2.954,2.93 v -5.79 z m 31.864,0 v 12.419 h 2.955 v -3.209 l 0.914,-0.838 2.884,4.117 h 3.166 l -4.15,-6 3.728,-3.629 h -3.587 l -2.955,2.93 v -5.79 z"
   id="path6671" />

			<g
   id="g6674">
				<path
   style="clip-rule:evenodd;fill:#ee1d52;fill-rule:evenodd"
   d="m 112.284,80.811 c 4.08,2.915 9.079,4.63 14.477,4.63 V 75.058 c -1.022,0 -2.041,-0.106 -3.04,-0.318 v 8.173 c -5.398,0 -10.396,-1.715 -14.477,-4.63 v 21.189 c 0,10.6 -8.597,19.192 -19.202,19.192 -3.957,0 -7.634,-1.196 -10.69,-3.246 3.487,3.563 8.349,5.774 13.729,5.774 10.605,0 19.203,-8.592 19.203,-19.192 z m 3.75,-10.475 c -2.085,-2.277 -3.454,-5.219 -3.75,-8.473 v -1.335 h -2.881 c 0.725,4.134 3.198,7.667 6.631,9.808 z m -29.975,36.948 c -1.165,-1.527 -1.795,-3.395 -1.792,-5.315 0,-4.848 3.932,-8.779 8.784,-8.779 0.904,-0.001 1.803,0.138 2.665,0.411 V 82.987 c -1.007,-0.138 -2.023,-0.196 -3.039,-0.175 v 8.262 c -0.862,-0.273 -1.761,-0.412 -2.666,-0.411 -4.851,0 -8.783,3.931 -8.783,8.779 0,3.428 1.965,6.396 4.831,7.842 z"
   id="path6672" />

				<path
   style="clip-rule:evenodd;fill:#ffffff;fill-rule:evenodd"
   d="m 109.243,78.283 c 4.081,2.915 9.079,4.63 14.477,4.63 V 74.74 c -3.013,-0.641 -5.68,-2.215 -7.686,-4.404 -3.433,-2.141 -5.906,-5.673 -6.632,-9.808 h -7.568 v 41.471 c -0.017,4.835 -3.943,8.749 -8.784,8.749 -2.853,0 -5.387,-1.359 -6.992,-3.464 -2.866,-1.446 -4.832,-4.414 -4.832,-7.842 0,-4.848 3.932,-8.779 8.783,-8.779 0.929,0 1.825,0.145 2.666,0.411 V 82.812 C 82.257,83.027 73.878,91.535 73.878,102 c 0,5.224 2.087,9.959 5.473,13.419 3.055,2.05 6.733,3.246 10.69,3.246 10.605,0 19.202,-8.593 19.202,-19.192 z"
   id="path6673" />

				<path
   style="clip-rule:evenodd;fill:#69c9d0;fill-rule:evenodd"
   d="m 123.72,74.74 v -2.21 c -2.717,0.004 -5.381,-0.757 -7.686,-2.195 2.041,2.233 4.728,3.773 7.686,4.405 z M 109.403,60.528 c -0.069,-0.395 -0.122,-0.793 -0.159,-1.192 V 58 h -10.45 v 41.472 c -0.017,4.834 -3.942,8.749 -8.784,8.749 -1.422,0 -2.763,-0.337 -3.952,-0.937 1.605,2.105 4.139,3.464 6.992,3.464 4.841,0 8.767,-3.914 8.784,-8.749 V 60.528 Z M 92.677,82.812 V 80.459 C 91.804,80.34 90.924,80.28 90.042,80.28 c -10.606,0 -19.203,8.592 -19.203,19.191 0,6.645 3.379,12.501 8.513,15.946 -3.386,-3.46 -5.473,-8.195 -5.473,-13.419 0,-10.463 8.379,-18.971 18.798,-19.186 z"
   id="path6674" />

			</g>

			<path
   style="clip-rule:evenodd;fill:#ffffff;fill-rule:evenodd"
   d="m 109.949,136.29 c 2.836,0 5.135,-2.281 5.135,-5.093 0,-2.813 -2.299,-5.094 -5.135,-5.094 h -0.07 c -2.836,0 -5.135,2.281 -5.135,5.094 0,2.813 2.299,5.093 5.135,5.093 z m -2.532,-5.093 c 0,-1.368 1.118,-2.477 2.498,-2.477 1.378,0 2.497,1.108 2.497,2.477 0,1.368 -1.118,2.477 -2.497,2.477 -1.38,0 -2.498,-1.109 -2.498,-2.477 z"
   id="path6675" />

		</g>
    </g>
  </g>
</svg>
