<?xml version="1.0" encoding="UTF-8" standalone="no"?>
<svg
   id="svg2"
   viewBox="0 0 768 768"
   version="1.1"
   sodipodi:docname="social-instagram.svg"
   inkscape:export-filename="social-youtube.svg"
   inkscape:export-xdpi="96"
   inkscape:export-ydpi="96"
   inkscape:version="1.4 (e7c3feb100, 2024-10-09)"
   width="768"
   height="768"
   xmlns:inkscape="http://www.inkscape.org/namespaces/inkscape"
   xmlns:sodipodi="http://sodipodi.sourceforge.net/DTD/sodipodi-0.dtd"
   xmlns:xlink="http://www.w3.org/1999/xlink"
   xmlns="http://www.w3.org/2000/svg"
   xmlns:svg="http://www.w3.org/2000/svg"
   xmlns:rdf="http://www.w3.org/1999/02/22-rdf-syntax-ns#"
   xmlns:cc="http://creativecommons.org/ns#"
   xmlns:dc="http://purl.org/dc/elements/1.1/">
  <sodipodi:namedview
     id="namedview1"
     pagecolor="#505050"
     bordercolor="#ffffff"
     borderopacity="1"
     inkscape:showpageshadow="0"
     inkscape:pageopacity="0"
     inkscape:pagecheckerboard="1"
     inkscape:deskcolor="#505050"
     inkscape:zoom="0.55729167"
     inkscape:cx="382.20561"
     inkscape:cy="384.89719"
     inkscape:window-width="1920"
     inkscape:window-height="1002"
     inkscape:window-x="0"
     inkscape:window-y="0"
     inkscape:window-maximized="1"
     inkscape:current-layer="svg2">
    <inkscape:page
       x="0"
       y="0"
       width="768"
       height="768"
       id="page2"
       margin="0"
       bleed="0" />
  </sodipodi:namedview>
  <defs
     id="defs4">
    <linearGradient
       id="linearGradient3852-0">
      <stop
         id="stop3854-6"
         stop-color="#dbe3db"
         offset="0" />
      <stop
         id="stop3856-1"
         stop-color="#dbe3db"
         stop-opacity="0"
         offset="1" />
    </linearGradient>
    <linearGradient
       id="linearGradient5122"
       x1="342.19"
       xlink:href="#linearGradient3852-0"
       gradientUnits="userSpaceOnUse"
       y1="705.76001"
       gradientTransform="matrix(1.1571,0,0,1.3167,-91.204,-253.99)"
       x2="358.07999"
       y2="523.40997" />
    <linearGradient
       id="linearGradient5125"
       x1="405.26001"
       xlink:href="#linearGradient3852-0"
       gradientUnits="userSpaceOnUse"
       y1="118.06"
       gradientTransform="matrix(0.95303,0,0,0.86647,11.575,-4.5016)"
       x2="405.75"
       y2="360.92001" />
    <filter
       id="filter5740"
       x="-0.043531249"
       y="-0.043531249"
       width="1.0870625"
       height="1.0870625">
      <feGaussianBlur
         id="feGaussianBlur5742"
         stdDeviation="5.12" />
    </filter>
    <clipPath
       id="clipPath5796"
       clipPathUnits="userSpaceOnUse">
      <rect
         id="rect5798"
         ry="57"
         height="512"
         width="512"
         stroke="#00fa00"
         y="0"
         x="0"
         stroke-width="20"
         fill="none" />
    </clipPath>
    <filter
       id="filter5912"
       x="-0.088882813"
       y="-0.088882813"
       width="1.1777656"
       height="1.1777656">
      <feGaussianBlur
         id="feGaussianBlur5914"
         stdDeviation="17.92" />
    </filter>
    <radialGradient
       id="XMLID_00000121250496968336030570000009564704228836539542_"
       cx="82.815598"
       cy="152.7458"
       r="87.687798"
       gradientUnits="userSpaceOnUse">
      <stop
         offset="0"
         style="stop-color:#F5EC53"
         id="stop1" />
      <stop
         offset="0.2412"
         style="stop-color:#E48244"
         id="stop2" />
      <stop
         offset="0.3974"
         style="stop-color:#D15767"
         id="stop3" />
      <stop
         offset="0.4888"
         style="stop-color:#C84278"
         id="stop4" />
      <stop
         offset="1"
         style="stop-color:#192CFA"
         id="stop5" />
    </radialGradient>
  </defs>
  <g
     id="00"
     transform="matrix(1.4790871,0,0,1.4790871,-49.954421,-51.400421)"
     style="display:none">
    <rect
       id="shadow"
       ry="57"
       height="512"
       filter="url(#filter5912)"
       width="512"
       stroke="#a8a8a8"
       y="56"
       x="38"
       stroke-width="5" />
  </g>
  <g
     id="02"
     transform="matrix(1.4790871,0,0,1.4790871,-183.07226,-128.31295)"
     style="display:none">
    <path
       id="path3862-8"
       style="color:#000000;fill:url(#linearGradient5125)"
       fill="url(#linearGradient5125)"
       d="m 214.21,111.21 c -45.245,0.18809 -68.716,7.7308 -64.094,83.553 l 2.8252,46.345 c 47.474,5.5124 56.664,18.445 104.36,21.914 68.073,4.9513 67.937,5.4209 130.56,-14.384 62.628,-19.805 5.8248,-65.247 207.32,-57.82 4.6033,0.16968 17.314,-3.0527 27.462,-12.15 5.5817,-46.524 -2.7842,-69.143 -66.934,-68.876 z" />
    <path
       id="path3079-9"
       style="color:#000000;fill:url(#linearGradient5122)"
       fill="url(#linearGradient5122)"
       d="m 531.03,495.17 c -31.605,19.022 -27.601,31.26 -37.913,32.573 -94.704,12.053 -145.98,-0.72701 -165.8,-12.061 -59.588,-34.078 -68.468,-13.014 -100.22,-16.574 -20.115,-2.2551 -59.245,12.984 -73.388,44.344 3.4722,27.608 18.111,32.098 44.281,31.986 l 356.06,-1.5268 c 69.692,-0.29885 56.335,-8.4926 65.543,-56.039 -14.772,-21.671 -13.157,9.109 -44.224,-30.717 z" />
    <rect
       id="rect5734"
       transform="translate(128,90)"
       clip-path="url(#clipPath5796)"
       ry="57"
       height="512"
       filter="url(#filter5740)"
       width="512"
       stroke="#000000"
       y="0"
       x="0"
       stroke-width="20"
       fill="none" />
  </g>
  <metadata
     id="metadata1">
    <rdf:RDF>
      <cc:Work>
        <dc:format>image/svg+xml</dc:format>
        <dc:type
           rdf:resource="http://purl.org/dc/dcmitype/StillImage" />
        <cc:license
           rdf:resource="http://creativecommons.org/publicdomain/zero/1.0/" />
        <dc:publisher>
          <cc:Agent
             rdf:about="http://openclipart.org/">
            <dc:title>Openclipart</dc:title>
          </cc:Agent>
        </dc:publisher>
        <dc:title>gb</dc:title>
        <dc:date>2011-08-21T12:01:02</dc:date>
        <dc:description>country flag buttons (with ISO-3166-1 naming convention)</dc:description>
        <dc:source>http://openclipart.org/detail/156379/gb-by-koppi</dc:source>
        <dc:creator>
          <cc:Agent>
            <dc:title>koppi</dc:title>
          </cc:Agent>
        </dc:creator>
        <dc:subject>
          <rdf:Bag>
            <rdf:li>ISO3166-1</rdf:li>
            <rdf:li>button</rdf:li>
            <rdf:li>clip art</rdf:li>
            <rdf:li>clipart</rdf:li>
            <rdf:li>country</rdf:li>
            <rdf:li>flag</rdf:li>
            <rdf:li>flags</rdf:li>
            <rdf:li>squared</rdf:li>
          </rdf:Bag>
        </dc:subject>
      </cc:Work>
      <cc:License
         rdf:about="http://creativecommons.org/publicdomain/zero/1.0/">
        <cc:permits
           rdf:resource="http://creativecommons.org/ns#Reproduction" />
        <cc:permits
           rdf:resource="http://creativecommons.org/ns#Distribution" />
        <cc:permits
           rdf:resource="http://creativecommons.org/ns#DerivativeWorks" />
      </cc:License>
    </rdf:RDF>
  </metadata>
  <g
     id="XMLID_1621_"
     transform="matrix(16.193308,0,0,16.193308,-1360.2702,-1702.9044)">
    <radialGradient
       id="radialGradient10"
       cx="82.815598"
       cy="152.7458"
       r="87.687798"
       gradientUnits="userSpaceOnUse">
      <stop
         offset="0"
         style="stop-color:#F5EC53"
         id="stop6" />
      <stop
         offset="0.2412"
         style="stop-color:#E48244"
         id="stop7" />
      <stop
         offset="0.3974"
         style="stop-color:#D15767"
         id="stop8" />
      <stop
         offset="0.4888"
         style="stop-color:#C84278"
         id="stop9" />
      <stop
         offset="1"
         style="stop-color:#192CFA"
         id="stop10" />
    </radialGradient>
    <path
       id="XMLID_1630_"
       style="fill:url(#XMLID_00000121250496968336030570000009564704228836539542_)"
       d="M 122.96,152.588 H 92.471 c -4.677,0 -8.469,-3.792 -8.469,-8.469 V 113.63 c 0,-4.677 3.792,-8.469 8.469,-8.469 h 30.489 c 4.677,0 8.469,3.792 8.469,8.469 v 30.489 c 0,4.678 -3.791,8.469 -8.469,8.469 z" />
    <g
       id="XMLID_1622_">
      <path
         id="XMLID_1627_"
         style="fill:#ffffff"
         d="m 107.716,118.215 c 3.472,0 3.883,0.013 5.254,0.076 1.268,0.058 1.956,0.27 2.414,0.448 0.607,0.236 1.04,0.517 1.495,0.973 0.455,0.455 0.737,0.888 0.973,1.495 0.178,0.458 0.39,1.147 0.448,2.415 0.062,1.371 0.076,1.782 0.076,5.254 0,3.472 -0.013,3.883 -0.076,5.254 -0.058,1.268 -0.27,1.956 -0.448,2.414 -0.236,0.607 -0.518,1.04 -0.973,1.495 -0.455,0.455 -0.888,0.737 -1.495,0.972 -0.458,0.178 -1.147,0.39 -2.414,0.448 -1.371,0.062 -1.782,0.076 -5.254,0.076 -3.472,0 -3.883,-0.013 -5.254,-0.076 -1.268,-0.058 -1.956,-0.27 -2.414,-0.448 -0.607,-0.236 -1.04,-0.518 -1.495,-0.972 -0.455,-0.455 -0.737,-0.888 -0.973,-1.495 -0.178,-0.458 -0.39,-1.146 -0.448,-2.414 -0.062,-1.371 -0.076,-1.782 -0.076,-5.254 0,-3.472 0.013,-3.883 0.076,-5.254 0.058,-1.268 0.27,-1.956 0.448,-2.415 0.236,-0.607 0.518,-1.04 0.973,-1.495 0.455,-0.455 0.888,-0.737 1.495,-0.973 0.458,-0.178 1.147,-0.39 2.414,-0.448 1.371,-0.062 1.782,-0.076 5.254,-0.076 m 0,-2.342 c -3.531,0 -3.974,0.015 -5.361,0.078 -1.384,0.063 -2.329,0.283 -3.156,0.604 -0.855,0.332 -1.58,0.777 -2.303,1.5 -0.723,0.723 -1.167,1.448 -1.499,2.303 -0.322,0.827 -0.541,1.772 -0.604,3.156 -0.063,1.387 -0.078,1.83 -0.078,5.361 0,3.531 0.015,3.974 0.078,5.361 0.063,1.384 0.283,2.329 0.604,3.156 0.332,0.855 0.777,1.58 1.499,2.303 0.723,0.723 1.448,1.167 2.303,1.5 0.827,0.321 1.772,0.541 3.156,0.604 1.387,0.063 1.83,0.078 5.361,0.078 3.531,0 3.974,-0.015 5.361,-0.078 1.384,-0.063 2.329,-0.283 3.156,-0.604 0.855,-0.332 1.58,-0.777 2.303,-1.5 0.723,-0.723 1.167,-1.448 1.5,-2.303 0.321,-0.827 0.541,-1.772 0.604,-3.156 0.063,-1.387 0.078,-1.83 0.078,-5.361 0,-3.531 -0.015,-3.974 -0.078,-5.361 -0.063,-1.384 -0.283,-2.329 -0.604,-3.156 -0.332,-0.855 -0.777,-1.58 -1.5,-2.303 -0.723,-0.723 -1.448,-1.167 -2.303,-1.5 -0.827,-0.321 -1.772,-0.541 -3.156,-0.604 -1.387,-0.063 -1.83,-0.078 -5.361,-0.078" />
      <path
         id="XMLID_1624_"
         style="fill:#ffffff"
         d="m 107.716,122.198 c -3.687,0 -6.677,2.989 -6.677,6.677 0,3.688 2.989,6.677 6.677,6.677 3.688,0 6.677,-2.989 6.677,-6.677 0,-3.688 -2.99,-6.677 -6.677,-6.677 m 0,11.011 c -2.394,0 -4.334,-1.941 -4.334,-4.334 0,-2.394 1.94,-4.334 4.334,-4.334 2.394,0 4.334,1.94 4.334,4.334 0,2.393 -1.941,4.334 -4.334,4.334" />
      <path
         id="XMLID_1623_"
         style="fill:#ffffff"
         d="m 116.217,121.934 c 0,0.862 -0.699,1.56 -1.56,1.56 -0.862,0 -1.56,-0.699 -1.56,-1.56 0,-0.862 0.698,-1.56 1.56,-1.56 0.861,0 1.56,0.699 1.56,1.56" />
    </g>
  </g>
</svg>
