<?xml version="1.0" encoding="utf-8"?>
<!-- Generator: Adobe Illustrator 27.5.0, SVG Export Plug-In . SVG Version: 6.00 Build 0)  -->
<svg version="1.1" id="Capa_1" xmlns="http://www.w3.org/2000/svg" xmlns:xlink="http://www.w3.org/1999/xlink" x="0px" y="0px"
	 viewBox="0 0 500 500" style="enable-background:new 0 0 500 500;" xml:space="preserve">
<g id="XMLID_1_">
	<g id="XMLID_523_">
		<g id="XMLID_1636_">
			<path id="XMLID_1638_" style="fill:#29A9E1;" d="M181.991,152.588h-30.489c-4.677,0-8.469-3.792-8.469-8.469V113.63
				c0-4.677,3.792-8.469,8.469-8.469h30.489c4.677,0,8.469,3.792,8.469,8.469v30.489
				C190.46,148.797,186.668,152.588,181.991,152.588z"/>
			<path id="XMLID_1637_" style="fill:#FFFFFF;" d="M154.112,136.813c2.294,1.471,5.019,2.33,7.947,2.33
				c9.626,0,15.063-8.13,14.736-15.422c1.012-0.73,1.892-1.643,2.587-2.684c-0.93,0.412-1.929,0.691-2.977,0.816
				c1.07-0.64,1.892-1.656,2.279-2.868c-1.002,0.594-2.111,1.026-3.291,1.259c-0.946-1.008-2.293-1.637-3.785-1.637
				c-3.346,0-5.805,3.123-5.05,6.366c-4.309-0.216-8.129-2.28-10.685-5.417c-1.358,2.331-0.704,5.38,1.604,6.922
				c-0.85-0.027-1.651-0.261-2.349-0.649c-0.056,2.402,1.665,4.648,4.158,5.149c-0.73,0.199-1.529,0.243-2.34,0.088
				c0.658,2.06,2.573,3.558,4.842,3.601C159.608,136.376,156.862,137.138,154.112,136.813z"/>
		</g>
		<g id="XMLID_1631_">
			<path id="XMLID_1633_" style="fill:#3E5C9A;" d="M66.52,152.588H36.031c-4.677,0-8.469-3.792-8.469-8.469V113.63
				c0-4.677,3.792-8.469,8.469-8.469H66.52c4.677,0,8.469,3.792,8.469,8.469v30.489C74.989,148.797,71.198,152.588,66.52,152.588z"
				/>
			<path id="XMLID_1632_" style="fill:#FFFFFF;" d="M47.662,143.208h5.772v-14.455h4.027l0.429-4.84h-4.457c0,0,0-1.807,0-2.757
				c0-1.141,0.229-1.592,1.333-1.592c0.888,0,3.124,0,3.124,0v-5.023c0,0-3.294,0-3.997,0c-4.295,0-6.232,1.892-6.232,5.513
				c0,3.154,0,3.859,0,3.859H44.66v4.901h3.003V143.208z"/>
		</g>
		<g id="XMLID_1621_">
			
				<radialGradient id="XMLID_00000121250496968336030570000009564704228836539542_" cx="82.8156" cy="152.7458" r="87.6878" gradientUnits="userSpaceOnUse">
				<stop  offset="0" style="stop-color:#F5EC53"/>
				<stop  offset="0.2412" style="stop-color:#E48244"/>
				<stop  offset="0.3974" style="stop-color:#D15767"/>
				<stop  offset="0.4888" style="stop-color:#C84278"/>
				<stop  offset="1" style="stop-color:#192CFA"/>
			</radialGradient>
			<path id="XMLID_1630_" style="fill:url(#XMLID_00000121250496968336030570000009564704228836539542_);" d="M122.96,152.588
				H92.471c-4.677,0-8.469-3.792-8.469-8.469V113.63c0-4.677,3.792-8.469,8.469-8.469h30.489c4.677,0,8.469,3.792,8.469,8.469
				v30.489C131.429,148.797,127.638,152.588,122.96,152.588z"/>
			<g id="XMLID_1622_">
				<path id="XMLID_1627_" style="fill:#FFFFFF;" d="M107.716,118.215c3.472,0,3.883,0.013,5.254,0.076
					c1.268,0.058,1.956,0.27,2.414,0.448c0.607,0.236,1.04,0.517,1.495,0.973c0.455,0.455,0.737,0.888,0.973,1.495
					c0.178,0.458,0.39,1.147,0.448,2.415c0.062,1.371,0.076,1.782,0.076,5.254c0,3.472-0.013,3.883-0.076,5.254
					c-0.058,1.268-0.27,1.956-0.448,2.414c-0.236,0.607-0.518,1.04-0.973,1.495c-0.455,0.455-0.888,0.737-1.495,0.972
					c-0.458,0.178-1.147,0.39-2.414,0.448c-1.371,0.062-1.782,0.076-5.254,0.076s-3.883-0.013-5.254-0.076
					c-1.268-0.058-1.956-0.27-2.414-0.448c-0.607-0.236-1.04-0.518-1.495-0.972c-0.455-0.455-0.737-0.888-0.973-1.495
					c-0.178-0.458-0.39-1.146-0.448-2.414c-0.062-1.371-0.076-1.782-0.076-5.254c0-3.472,0.013-3.883,0.076-5.254
					c0.058-1.268,0.27-1.956,0.448-2.415c0.236-0.607,0.518-1.04,0.973-1.495c0.455-0.455,0.888-0.737,1.495-0.973
					c0.458-0.178,1.147-0.39,2.414-0.448C103.833,118.229,104.244,118.215,107.716,118.215 M107.716,115.873
					c-3.531,0-3.974,0.015-5.361,0.078c-1.384,0.063-2.329,0.283-3.156,0.604c-0.855,0.332-1.58,0.777-2.303,1.5
					c-0.723,0.723-1.167,1.448-1.499,2.303c-0.322,0.827-0.541,1.772-0.604,3.156c-0.063,1.387-0.078,1.83-0.078,5.361
					c0,3.531,0.015,3.974,0.078,5.361c0.063,1.384,0.283,2.329,0.604,3.156c0.332,0.855,0.777,1.58,1.499,2.303
					c0.723,0.723,1.448,1.167,2.303,1.5c0.827,0.321,1.772,0.541,3.156,0.604c1.387,0.063,1.83,0.078,5.361,0.078
					c3.531,0,3.974-0.015,5.361-0.078c1.384-0.063,2.329-0.283,3.156-0.604c0.855-0.332,1.58-0.777,2.303-1.5
					c0.723-0.723,1.167-1.448,1.5-2.303c0.321-0.827,0.541-1.772,0.604-3.156c0.063-1.387,0.078-1.83,0.078-5.361
					c0-3.531-0.015-3.974-0.078-5.361c-0.063-1.384-0.283-2.329-0.604-3.156c-0.332-0.855-0.777-1.58-1.5-2.303
					c-0.723-0.723-1.448-1.167-2.303-1.5c-0.827-0.321-1.772-0.541-3.156-0.604C111.69,115.888,111.247,115.873,107.716,115.873"/>
				<path id="XMLID_1624_" style="fill:#FFFFFF;" d="M107.716,122.198c-3.687,0-6.677,2.989-6.677,6.677s2.989,6.677,6.677,6.677
					c3.688,0,6.677-2.989,6.677-6.677S111.403,122.198,107.716,122.198 M107.716,133.209c-2.394,0-4.334-1.941-4.334-4.334
					c0-2.394,1.94-4.334,4.334-4.334s4.334,1.94,4.334,4.334C112.05,131.268,110.109,133.209,107.716,133.209"/>
				<path id="XMLID_1623_" style="fill:#FFFFFF;" d="M116.217,121.934c0,0.862-0.699,1.56-1.56,1.56c-0.862,0-1.56-0.699-1.56-1.56
					c0-0.862,0.698-1.56,1.56-1.56C115.518,120.374,116.217,121.073,116.217,121.934"/>
			</g>
		</g>
		<g id="XMLID_1614_">
			<path id="XMLID_1618_" style="fill:#DF4B38;" d="M239.712,152.588h-30.489c-4.677,0-8.469-3.792-8.469-8.469V113.63
				c0-4.677,3.792-8.469,8.469-8.469h30.489c4.677,0,8.469,3.792,8.469,8.469v30.489
				C248.181,148.797,244.389,152.588,239.712,152.588z"/>
			<g id="XMLID_1615_">
				<path id="XMLID_1617_" style="fill:#FFFFFF;" d="M227.432,128.257h-9.581l0.011,2.744h6.46c-0.764,3.341-3.122,5.39-6.287,5.39
					c-4.151,0-7.516-3.365-7.516-7.516c0-4.151,3.365-7.516,7.516-7.516c1.974,0,3.769,0.762,5.11,2.006l2.12-1.827
					c-1.86-1.833-4.412-2.965-7.23-2.965c-5.69,0-10.302,4.612-10.302,10.302c0,5.69,4.612,10.303,10.302,10.303
					c5.464,0,9.412-4.167,9.412-9.857L227.432,128.257z"/>
				<polygon id="XMLID_1616_" style="fill:#FFFFFF;" points="241.201,128.37 237.246,128.37 237.246,124.415 234.723,124.415 
					234.723,128.37 230.768,128.37 230.768,130.893 234.723,130.893 234.723,134.848 237.246,134.848 237.246,130.893 
					241.201,130.893 				"/>
			</g>
		</g>
		<g id="XMLID_1609_">
			<path id="XMLID_1611_" style="fill:#36465D;" d="M408.459,152.588h-30.489c-4.677,0-8.469-3.792-8.469-8.469V113.63
				c0-4.677,3.792-8.469,8.469-8.469h30.489c4.677,0,8.469,3.792,8.469,8.469v30.489
				C416.928,148.797,413.136,152.588,408.459,152.588z"/>
			<path id="XMLID_1610_" style="fill:#FFFFFF;" d="M387.892,135.887c0,1.229,0.129,2.165,0.386,2.812
				c0.257,0.645,0.72,1.257,1.387,1.831c0.666,0.574,1.471,1.016,2.416,1.325c0.945,0.311,2.03,0.466,3.259,0.466
				c1.083,0,2.089-0.109,3.021-0.325c0.93-0.218,1.971-0.597,3.12-1.138v-4.229c-1.347,0.885-2.702,1.328-4.064,1.328
				c-0.765,0-1.447-0.178-2.041-0.536c-0.449-0.263-0.755-0.617-0.921-1.06c-0.165-0.443-0.247-1.443-0.247-3.003v-6.898h6.386
				v-4.221h-6.386v-6.812h-3.809c-0.172,1.386-0.485,2.526-0.939,3.424c-0.454,0.897-1.056,1.665-1.807,2.305
				c-0.75,0.639-1.651,1.13-2.704,1.474v3.831h2.944V135.887z"/>
		</g>
		<g id="XMLID_1604_">
			<path id="XMLID_1606_" style="fill:#FAF807;" d="M349.913,152.588h-30.489c-4.677,0-8.469-3.792-8.469-8.469V113.63
				c0-4.677,3.792-8.469,8.469-8.469h30.489c4.677,0,8.469,3.792,8.469,8.469v30.489
				C358.382,148.797,354.59,152.588,349.913,152.588z"/>
			<path id="XMLID_1605_" style="fill-rule:evenodd;clip-rule:evenodd;fill:#FFFFFF;stroke:#222221;stroke-miterlimit:10;" d="
				M348.41,135.753v-0.006c-0.006-0.007-0.013-0.007-0.026-0.02c0,0,0,0-0.006,0l0,0c-0.335-0.212-0.677-0.245-0.89-0.322
				c-0.006,0-0.013,0-0.013-0.006c-1.456-0.458-2.713-1.45-3.654-2.661c-0.522-0.677-0.96-1.405-1.25-2.185c0-0.007,0-0.007,0-0.013
				c-0.116-0.335-0.123-0.709,0.045-0.935c0,0,0.006,0,0.006-0.006c0.264-0.374,0.748-0.612,1.257-0.799c0.007,0,0.007,0,0.007,0
				c0.574-0.2,1.192-0.425,1.701-0.876c0.006,0,0.006-0.006,0.013-0.006c0.077-0.071,0.174-0.167,0.245-0.316
				c0.013-0.032,0.032-0.071,0.039-0.116c0.039-0.135,0.039-0.303-0.032-0.445c0-0.007,0-0.007,0-0.007
				c-0.148-0.296-0.4-0.458-0.593-0.567h-0.007c-0.316-0.187-0.689-0.2-1.018-0.09l0,0h-0.007c-0.348,0.103-0.638,0.232-0.902,0.264
				c-0.006,0-0.013,0-0.019,0.007c-0.374,0.064-0.741,0.077-1.025-0.026c-0.006-0.039-0.006-0.123-0.019-0.226h0.006
				c-0.026-0.619,0.032-1.257,0.039-1.92c0,0,0,0,0-0.006c0.033-1.005,0.071-2.036-0.077-3.08c0-0.007,0-0.013,0-0.013
				c-0.328-1.759-1.456-3.273-2.887-4.279c-1.037-0.734-2.275-1.141-3.531-1.257l0,0c-0.432-0.039-0.85-0.052-1.27-0.052
				c-1.695,0.013-3.454,0.458-4.826,1.534c-1.031,0.806-1.843,1.875-2.352,3.067v0.007c-0.49,1.224-0.445,2.532-0.38,3.744l0,0
				c0.039,0.851,0.135,1.675,0.058,2.462c-0.007,0.026-0.007,0.039-0.013,0.052c-0.38,0.071-0.799,0.045-1.211-0.032h-0.007
				c-0.283-0.045-0.586-0.161-0.928-0.258c-0.007,0-0.013,0-0.019-0.006c-0.328-0.071-0.657,0.019-0.902,0.206
				c-0.007,0-0.013,0-0.013,0.007c-0.006,0.007-0.013,0.007-0.013,0.013c-0.206,0.129-0.483,0.354-0.496,0.741
				c-0.006,0.026,0,0.045,0,0.071c0.007,0,0,0.006,0.007,0.006c0.038,0.226,0.18,0.393,0.309,0.503
				c0.129,0.11,0.245,0.181,0.316,0.239c0.007,0,0.013,0.006,0.019,0.013c0.618,0.413,1.302,0.593,1.901,0.825l0,0
				c0.412,0.18,0.767,0.458,0.85,0.812c0.103,0.445-0.09,0.96-0.335,1.456v0.007c-0.67,1.315-1.662,2.462-2.887,3.305
				c-0.644,0.438-1.366,0.767-2.12,0.967c-0.007,0-0.02,0.007-0.032,0.013c-0.155,0.058-0.522,0.09-0.754,0.438
				c-0.013,0.026-0.026,0.051-0.039,0.084c-0.077,0.219,0.013,0.458,0.122,0.593c0.103,0.123,0.219,0.2,0.322,0.251
				c0.006,0,0.013,0.007,0.019,0.007c0.631,0.367,1.327,0.522,1.959,0.683c0.006,0,0.006,0.006,0.006,0.006
				c0.458,0.097,0.883,0.155,1.224,0.303c0.013,0.026,0.052,0.142,0.129,0.335c0.116,0.348,0.168,0.754,0.296,1.186
				c0.039,0.116,0.142,0.213,0.264,0.239c0.29,0.064,0.445-0.033,0.47-0.039c0.013,0,0.026,0,0.039,0
				c1.057-0.187,2.12-0.348,3.093-0.11l0,0c1.018,0.27,1.907,0.973,2.906,1.572v0.007l0,0c0.664,0.412,1.43,0.818,2.32,0.85l0,0
				c0,0,0,0,0.007,0c0.67,0.039,1.321-0.006,1.965-0.045c0.007,0,0.007,0,0.013,0c0.548-0.052,1.076-0.239,1.546-0.529
				c0.007-0.007,0.013-0.013,0.019-0.013c1.051-0.599,1.978-1.315,3.003-1.766h0.007c0.328-0.116,0.747-0.11,1.205-0.141
				c0.006,0,0.013,0,0.013,0c0.851-0.026,1.695,0.019,2.539,0.129c0.026,0.007,0.058,0.007,0.084,0
				c0.116-0.013,0.232-0.09,0.29-0.161c0.065-0.071,0.078-0.135,0.09-0.18c0.026-0.084,0.045-0.123,0.007-0.052
				c0.013-0.026,0.026-0.045,0.032-0.071c0.155-0.509,0.238-0.967,0.49-1.25c0.11-0.11,0.303-0.161,0.522-0.161
				c0.013,0,0.032,0,0.045,0c0.734-0.084,1.392-0.348,2.017-0.567c0.007-0.006,0.02-0.006,0.026-0.006
				c0.232-0.103,0.58-0.219,0.819-0.548c0,0,0,0,0-0.006l0,0C348.784,136.301,348.687,135.92,348.41,135.753L348.41,135.753z"/>
		</g>
		<g id="XMLID_1595_">
			<path id="XMLID_1601_" style="fill:#57F676;" d="M293.807,152.588h-30.489c-4.677,0-8.469-3.792-8.469-8.469V113.63
				c0-4.677,3.792-8.469,8.469-8.469h30.489c4.677,0,8.469,3.792,8.469,8.469v30.489
				C302.276,148.797,298.484,152.588,293.807,152.588z"/>
			<g id="XMLID_1596_">
				<path id="XMLID_1598_" style="fill-rule:evenodd;clip-rule:evenodd;fill:#FFFFFF;" d="M291.563,128.217
					c-0.173-6.852-5.817-12.352-12.765-12.352c-6.864,0-12.46,5.375-12.758,12.119c-0.006,0.185-0.012,0.371-0.012,0.556
					c0,2.397,0.669,4.634,1.829,6.547l-2.302,6.798l7.073-2.248c1.83,1.004,3.934,1.579,6.17,1.579
					c7.055,0,12.771-5.674,12.771-12.675C291.569,128.432,291.569,128.325,291.563,128.217z M278.798,139.194
					c-2.182,0-4.209-0.646-5.907-1.764l-4.125,1.315l1.339-3.958c-1.285-1.758-2.045-3.916-2.045-6.248
					c0-0.347,0.018-0.694,0.054-1.034c0.526-5.393,5.118-9.62,10.684-9.62c5.638,0,10.272,4.334,10.702,9.823
					c0.024,0.275,0.036,0.55,0.036,0.831C289.536,134.417,284.717,139.194,278.798,139.194z"/>
				<path id="XMLID_1597_" style="fill-rule:evenodd;clip-rule:evenodd;fill:#FFFFFF;" d="M284.652,131.099
					c-0.317-0.155-1.854-0.909-2.141-1.01c-0.287-0.108-0.496-0.155-0.706,0.156c-0.209,0.311-0.813,1.01-0.993,1.214
					c-0.185,0.209-0.365,0.233-0.681,0.078c-0.311-0.155-1.321-0.478-2.517-1.543c-0.927-0.819-1.56-1.835-1.74-2.146
					c-0.179-0.311-0.018-0.478,0.138-0.634c0.143-0.143,0.311-0.365,0.472-0.544c0.042-0.054,0.078-0.102,0.114-0.15
					c0.072-0.114,0.126-0.221,0.197-0.371c0.108-0.209,0.054-0.388-0.024-0.544c-0.078-0.156-0.706-1.686-0.969-2.308
					c-0.257-0.622-0.52-0.514-0.705-0.514c-0.18,0-0.389-0.03-0.598-0.03c-0.209,0-0.55,0.078-0.837,0.388
					c-0.287,0.311-1.094,1.064-1.094,2.595c0,0.359,0.066,0.717,0.161,1.058c0.317,1.094,0.998,1.997,1.118,2.152
					c0.155,0.203,2.164,3.443,5.345,4.693c3.187,1.238,3.187,0.825,3.761,0.771c0.574-0.048,1.854-0.747,2.11-1.477
					c0.263-0.723,0.263-1.345,0.185-1.477C285.172,131.332,284.962,131.254,284.652,131.099z"/>
			</g>
		</g>
		<g id="XMLID_1588_">
			<path id="XMLID_1592_" style="fill:#00AEF7;" d="M463.969,152.588H433.48c-4.677,0-8.469-3.792-8.469-8.469V113.63
				c0-4.677,3.792-8.469,8.469-8.469h30.489c4.677,0,8.469,3.792,8.469,8.469v30.489
				C472.438,148.797,468.646,152.588,463.969,152.588z"/>
			<path id="XMLID_1589_" style="fill:#FFFFFF;" d="M435.505,128.885c0,7.295,5.913,13.209,13.209,13.209
				c0.847,0,1.674-0.082,2.475-0.235c1.162,0.702,2.524,1.107,3.981,1.107c4.257-0.001,7.708-3.453,7.708-7.711
				c0-1.493-0.426-2.885-1.159-4.066c0.131-0.748,0.203-1.518,0.203-2.304c0-7.296-5.914-13.209-13.209-13.209
				c-0.83,0-1.643,0.08-2.433,0.227c-1.167-0.711-2.537-1.119-4.002-1.119c-4.258,0-7.709,3.451-7.709,7.709
				c0,1.484,0.421,2.869,1.147,4.046C435.58,127.3,435.505,128.084,435.505,128.885z M448.856,119.5
				c4.26,0.25,6.755,2.124,6.997,3.874c0.119,1.144-0.642,2.033-1.961,2.033c-1.927,0-2.124-2.569-5.442-2.569
				c-1.496,0-2.76,0.622-2.76,1.972c0,2.821,10.632,1.183,10.632,7.393c0,3.58-2.866,5.925-7.143,5.925
				c-3.762,0-7.543-1.705-7.523-4.641c0.006-0.886,0.667-1.699,1.546-1.699c2.216,0,2.195,3.292,5.723,3.292
				c2.474,0,3.319-1.35,3.319-2.291c0-3.398-10.695-1.314-10.695-7.705C441.549,121.623,444.391,119.238,448.856,119.5z"/>
		</g>
		<g id="XMLID_1583_">
			<path id="XMLID_1585_" style="fill:#CD2129;" d="M122.96,209.495H92.471c-4.677,0-8.469-3.792-8.469-8.469v-30.489
				c0-4.677,3.792-8.469,8.469-8.469h30.489c4.677,0,8.469,3.792,8.469,8.469v30.489
				C131.429,205.704,127.638,209.495,122.96,209.495z"/>
			<path id="XMLID_1584_" style="fill:#FFFFFF;" d="M100.127,187.985c0.37,0.152,0.702,0.006,0.81-0.404
				c0.074-0.284,0.251-1,0.33-1.299c0.109-0.406,0.067-0.548-0.233-0.901c-0.651-0.769-1.067-1.764-1.067-3.174
				c0-4.088,3.058-7.748,7.965-7.748c4.344,0,6.731,2.654,6.731,6.2c0,4.664-2.064,8.6-5.129,8.6c-1.693,0-2.959-1.399-2.554-3.115
				c0.488-2.049,1.428-4.261,1.428-5.741c0-1.324-0.711-2.429-2.182-2.429c-1.73,0-3.12,1.79-3.12,4.187
				c0,1.527,0.517,2.56,0.517,2.56s-1.771,7.502-2.081,8.815c-0.619,2.616-0.093,5.824-0.049,6.147
				c0.027,0.193,0.273,0.238,0.384,0.093c0.16-0.209,2.22-2.753,2.92-5.295c0.199-0.719,1.139-4.446,1.139-4.446
				c0.562,1.072,2.205,2.016,3.951,2.016c5.201,0,8.729-4.74,8.729-11.087c0-4.799-4.063-9.268-10.241-9.268
				c-7.686,0-11.562,5.511-11.562,10.106C96.814,184.588,97.868,187.064,100.127,187.985z"/>
		</g>
		<g id="XMLID_1569_">
			<path id="XMLID_1580_" style="fill:#0057FF;" d="M66.52,209.495H36.031c-4.677,0-8.469-3.792-8.469-8.469v-30.489
				c0-4.677,3.792-8.469,8.469-8.469H66.52c4.677,0,8.469,3.792,8.469,8.469v30.489C74.989,205.704,71.198,209.495,66.52,209.495z"
				/>
			<g id="XMLID_1570_">
				<path id="XMLID_1576_" style="fill:#FFFFFF;" d="M47.736,193.65c0.72-0.149,1.346-0.427,1.876-0.833
					c0.469-0.353,0.862-0.788,1.176-1.306c0.493-0.782,0.739-1.664,0.739-2.649c0-0.953-0.216-1.765-0.646-2.433
					c-0.432-0.668-1.071-1.157-1.918-1.465c0.558-0.285,0.98-0.6,1.267-0.946c0.512-0.615,0.769-1.431,0.769-2.445
					c0-0.984-0.255-1.829-0.763-2.535c-0.844-1.148-2.279-1.738-4.303-1.768h-8.026v16.604h7.483
					C46.232,193.876,47.016,193.8,47.736,193.65z M41.219,180.155h3.612c0.796,0,1.449,0.086,1.962,0.26
					c0.595,0.247,0.892,0.758,0.892,1.532c0,0.699-0.225,1.185-0.675,1.459c-0.449,0.274-1.035,0.411-1.756,0.411h-4.036V180.155z
					 M41.219,190.992v-4.426h4.087c0.714,0.007,1.266,0.101,1.66,0.281c0.705,0.322,1.058,0.916,1.058,1.779
					c0,1.021-0.364,1.712-1.091,2.074c-0.4,0.195-0.962,0.292-1.681,0.292H41.219z"/>
				<g id="XMLID_1571_">
					<path id="XMLID_1573_" style="fill:#FFFFFF;" d="M54.339,192.782c1.249,1.008,2.691,1.511,4.325,1.511
						c1.98,0,3.521-0.596,4.619-1.791c0.708-0.752,1.105-1.492,1.191-2.219h-3.278c-0.191,0.36-0.411,0.641-0.661,0.844
						c-0.457,0.376-1.051,0.564-1.783,0.564c-0.69,0-1.28-0.154-1.769-0.462c-0.807-0.496-1.235-1.359-1.284-2.592h8.943
						c0.016-1.06-0.02-1.872-0.105-2.436c-0.149-0.963-0.475-1.809-0.979-2.538c-0.557-0.827-1.265-1.433-2.122-1.817
						c-0.855-0.383-1.818-0.575-2.888-0.575c-1.799,0-3.262,0.567-4.39,1.702c-1.128,1.134-1.692,2.765-1.692,4.892
						C52.465,190.135,53.09,191.774,54.339,192.782z M56.632,184.619c0.455-0.467,1.093-0.701,1.916-0.701
						c0.758,0,1.393,0.221,1.905,0.661c0.512,0.441,0.797,1.089,0.855,1.94h-5.531C55.894,185.72,56.179,185.087,56.632,184.619z"/>
					<rect id="XMLID_1572_" x="54.731" y="178.225" style="fill:#FFFFFF;" width="7.216" height="1.676"/>
				</g>
			</g>
		</g>
		<g id="XMLID_1560_">
			<path id="XMLID_1566_" style="fill:#117BB8;" d="M239.712,209.495h-30.489c-4.677,0-8.469-3.792-8.469-8.469v-30.489
				c0-4.677,3.792-8.469,8.469-8.469h30.489c4.677,0,8.469,3.792,8.469,8.469v30.489
				C248.181,205.704,244.389,209.495,239.712,209.495z"/>
			<g id="XMLID_1561_">
				<g id="XMLID_1563_">
					<rect id="XMLID_1565_" x="213.714" y="180.496" style="fill:#FFFFFF;" width="4.908" height="15.855"/>
					<path id="XMLID_1564_" style="fill:#FFFFFF;" d="M216.145,178.42c1.603,0,2.902-1.311,2.902-2.926
						c0-1.615-1.299-2.925-2.902-2.925c-1.603,0-2.902,1.31-2.902,2.925C213.243,177.109,214.541,178.42,216.145,178.42z"/>
				</g>
				<path id="XMLID_1562_" style="fill:#FFFFFF;" d="M226.467,188.028c0-2.229,1.026-3.557,2.99-3.557
					c1.805,0,2.672,1.275,2.672,3.557c0,2.284,0,8.323,0,8.323h4.885c0,0,0-5.792,0-10.039c0-4.247-2.407-6.3-5.769-6.3
					c-3.363,0-4.778,2.62-4.778,2.62v-2.136h-4.708v15.855h4.708C226.467,196.351,226.467,190.471,226.467,188.028z"/>
			</g>
		</g>
		<g id="XMLID_1551_">
			<path id="XMLID_1557_" style="fill:#1EC85A;" d="M181.991,209.495h-30.489c-4.677,0-8.469-3.792-8.469-8.469v-30.489
				c0-4.677,3.792-8.469,8.469-8.469h30.489c4.677,0,8.469,3.792,8.469,8.469v30.489
				C190.46,205.704,186.668,209.495,181.991,209.495z"/>
			<path id="XMLID_1552_" style="fill:#FFFFFF;" d="M166.746,171.918c-7.657,0-13.864,6.207-13.864,13.864
				c0,7.657,6.207,13.864,13.864,13.864c7.657,0,13.864-6.207,13.864-13.864C180.611,178.125,174.403,171.918,166.746,171.918z
				 M173.124,191.951c-0.278,0.416-0.763,0.554-1.179,0.277c-3.258-2.01-7.348-2.426-12.201-1.317
				c-0.485,0.138-0.901-0.208-1.04-0.624c-0.139-0.485,0.208-0.901,0.624-1.04c5.268-1.178,9.844-0.693,13.448,1.525
				C173.263,190.981,173.332,191.535,173.124,191.951z M174.788,188.139c-0.346,0.485-0.97,0.694-1.456,0.347
				c-3.743-2.288-9.428-2.981-13.795-1.594c-0.555,0.138-1.178-0.139-1.317-0.693c-0.139-0.555,0.139-1.178,0.693-1.317
				c5.06-1.525,11.299-0.763,15.598,1.872C174.926,186.96,175.134,187.654,174.788,188.139z M174.926,184.257
				c-4.436-2.634-11.854-2.911-16.082-1.595c-0.693,0.208-1.387-0.208-1.595-0.832c-0.208-0.693,0.208-1.386,0.832-1.594
				c4.922-1.456,13.032-1.178,18.162,1.872c0.624,0.347,0.832,1.178,0.485,1.802C176.382,184.395,175.55,184.603,174.926,184.257z"
				/>
		</g>
		<g id="XMLID_1546_">
			<path id="XMLID_1548_" style="fill:#1EB8EB;" d="M349.913,209.495h-30.489c-4.677,0-8.469-3.792-8.469-8.469v-30.489
				c0-4.677,3.792-8.469,8.469-8.469h30.489c4.677,0,8.469,3.792,8.469,8.469v30.489
				C358.382,205.704,354.59,209.495,349.913,209.495z"/>
			<path id="XMLID_1547_" style="fill:#FFFFFF;" d="M344.197,174.149c-3.728-0.12-6.253,1.984-7.576,6.316
				c0.683-0.293,1.347-0.442,1.991-0.442c1.368,0,1.972,0.77,1.81,2.307c-0.08,0.929-0.684,2.282-1.81,4.062
				c-1.128,1.779-1.973,2.668-2.536,2.668c-0.726,0-1.39-1.369-1.992-4.112c-0.204-0.805-0.565-2.861-1.088-6.167
				c-0.484-3.064-1.772-4.495-3.865-4.294c-0.887,0.081-2.216,0.887-3.986,2.416c-1.289,1.168-2.598,2.336-3.925,3.502l1.266,1.631
				c1.206-0.844,1.91-1.268,2.11-1.268c0.924,0,1.786,1.45,2.592,4.345c0.724,2.655,1.448,5.308,2.172,7.964
				c1.083,2.896,2.41,4.343,3.978,4.343c2.531,0,5.625-2.377,9.282-7.132c3.536-4.553,5.365-8.139,5.485-10.758
				C348.263,176.024,346.96,174.232,344.197,174.149z"/>
		</g>
		<g id="XMLID_1534_">
			<path id="XMLID_1543_" style="fill:#EB4C89;" d="M408.459,209.495h-30.489c-4.677,0-8.469-3.792-8.469-8.469v-30.489
				c0-4.677,3.792-8.469,8.469-8.469h30.489c4.677,0,8.469,3.792,8.469,8.469v30.489
				C416.928,205.704,413.136,209.495,408.459,209.495z"/>
			<path id="XMLID_1535_" style="fill:#FFFFFF;" d="M393.214,170.665c-8.348,0-15.116,6.768-15.116,15.118
				c0,8.348,6.768,15.116,15.116,15.116c8.349,0,15.117-6.768,15.117-15.116C408.331,177.433,401.563,170.665,393.214,170.665z
				 M393.214,173.294c2.867,0,5.503,0.981,7.613,2.611c-1.517,1.957-3.613,3.505-6.282,4.635c-1.28-2.344-2.742-4.63-4.394-6.85
				C391.132,173.441,392.156,173.294,393.214,173.294z M387.58,174.652c1.677,2.195,3.163,4.458,4.456,6.779
				c-3.062,0.901-6.716,1.364-10.941,1.393C381.968,179.253,384.373,176.283,387.58,174.652z M380.726,185.781
				c0-0.108,0.015-0.214,0.017-0.321c4.847-0.007,9.03-0.564,12.533-1.666c0.294,0.598,0.575,1.199,0.844,1.805
				c-4.257,1.33-7.765,4.058-10.502,8.163C381.815,191.596,380.726,188.814,380.726,185.781z M393.214,198.27
				c-2.889,0-5.545-0.994-7.663-2.649c2.48-3.891,5.648-6.424,9.571-7.593c1.168,3.049,2.028,6.185,2.575,9.397
				C396.301,197.964,394.795,198.27,393.214,198.27z M400.145,196.162c-0.552-2.964-1.361-5.861-2.418-8.688
				c2.362-0.334,4.964-0.247,7.809,0.247C404.985,191.231,402.982,194.263,400.145,196.162z M396.719,184.986
				c-0.307-0.709-0.626-1.416-0.966-2.116c2.909-1.26,5.247-2.971,6.99-5.142c1.699,2.008,2.766,4.559,2.924,7.35
				C402.423,184.547,399.439,184.518,396.719,184.986z"/>
		</g>
		<g id="XMLID_1524_">
			<path id="XMLID_1531_" style="fill:#3283C5;" d="M463.969,209.495H433.48c-4.677,0-8.469-3.792-8.469-8.469v-30.489
				c0-4.677,3.792-8.469,8.469-8.469h30.489c4.677,0,8.469,3.792,8.469,8.469v30.489
				C472.438,205.704,468.646,209.495,463.969,209.495z"/>
			<g id="XMLID_1525_" transform="translate(-1)">
				<path id="XMLID_1530_" style="fill:#FFFFFF;" d="M435.162,178.085l7.284,4.64l7.284-4.64l-7.284-4.64L435.162,178.085z"/>
				<path id="XMLID_1529_" style="fill:#FFFFFF;" d="M449.719,178.085l7.284,4.64l7.284-4.64l-7.284-4.64L449.719,178.085z"/>
				<path id="XMLID_1528_" style="fill:#FFFFFF;" d="M435.162,187.301l7.284,4.64l7.284-4.64l-7.284-4.641L435.162,187.301z"/>
				<path id="XMLID_1527_" style="fill:#FFFFFF;" d="M457.003,182.66l-7.284,4.641l7.284,4.64l7.284-4.64L457.003,182.66z"/>
				<path id="XMLID_1526_" style="fill:#FFFFFF;" d="M442.492,193.479l7.284,4.641l7.284-4.641l-7.284-4.64L442.492,193.479z"/>
			</g>
		</g>
		<g id="XMLID_1518_">
			<path id="XMLID_1523_" style="fill:#C3271A;" d="M293.807,209.495h-30.489c-4.677,0-8.469-3.792-8.469-8.469v-30.489
				c0-4.677,3.792-8.469,8.469-8.469h30.489c4.677,0,8.469,3.792,8.469,8.469v30.489
				C302.276,205.704,298.484,209.495,293.807,209.495z"/>
			<g id="XMLID_1519_">
				<path id="XMLID_1521_" style="fill:#FFFFFF;" d="M296.747,176.587c-0.436-1.644-1.723-2.938-3.356-3.378
					c-2.96-0.798-14.83-0.798-14.83-0.798s-11.87,0-14.83,0.798c-1.633,0.439-2.919,1.734-3.356,3.378
					c-0.793,2.979-0.793,9.195-0.793,9.195s0,6.216,0.793,9.195c0.437,1.644,1.723,2.938,3.356,3.378
					c2.96,0.798,14.83,0.798,14.83,0.798s11.869,0,14.83-0.798c1.633-0.439,2.919-1.734,3.356-3.378
					c0.793-2.979,0.793-9.195,0.793-9.195S297.541,179.566,296.747,176.587z"/>
				<polygon id="XMLID_1520_" style="fill:#C3271A;" points="274.68,191.426 274.68,180.138 284.601,185.782 				"/>
			</g>
		</g>
	</g>
	<g id="XMLID_499_">
		<g id="XMLID_1826_">
			<path id="XMLID_1828_" style="fill:#222221;" d="M181.991,276.043h-30.489c-4.677,0-8.469-3.792-8.469-8.469v-30.489
				c0-4.677,3.792-8.469,8.469-8.469h30.489c4.677,0,8.469,3.792,8.469,8.469v30.489
				C190.46,272.251,186.668,276.043,181.991,276.043z"/>
			<path id="XMLID_1827_" style="fill:#FFFFFF;" d="M154.112,260.267c2.294,1.471,5.019,2.329,7.947,2.329
				c9.626,0,15.063-8.13,14.736-15.422c1.012-0.73,1.892-1.643,2.587-2.684c-0.93,0.412-1.929,0.691-2.977,0.816
				c1.07-0.64,1.892-1.656,2.279-2.868c-1.002,0.594-2.111,1.026-3.291,1.259c-0.946-1.008-2.293-1.637-3.785-1.637
				c-3.346,0-5.805,3.123-5.05,6.365c-4.309-0.216-8.129-2.28-10.685-5.417c-1.358,2.331-0.704,5.38,1.604,6.922
				c-0.85-0.027-1.651-0.261-2.349-0.649c-0.056,2.402,1.665,4.648,4.158,5.149c-0.73,0.199-1.529,0.243-2.34,0.088
				c0.658,2.06,2.573,3.558,4.842,3.601C159.608,259.83,156.862,260.592,154.112,260.267z"/>
		</g>
		<g id="XMLID_1821_">
			<path id="XMLID_1823_" style="fill:#222221;" d="M66.52,276.043H36.031c-4.677,0-8.469-3.792-8.469-8.469v-30.489
				c0-4.677,3.792-8.469,8.469-8.469H66.52c4.677,0,8.469,3.792,8.469,8.469v30.489C74.989,272.251,71.198,276.043,66.52,276.043z"
				/>
			<path id="XMLID_1822_" style="fill:#FFFFFF;" d="M47.662,266.663h5.772v-14.455h4.027l0.429-4.84h-4.457c0,0,0-1.807,0-2.757
				c0-1.141,0.229-1.592,1.333-1.592c0.888,0,3.124,0,3.124,0v-5.023c0,0-3.294,0-3.997,0c-4.295,0-6.232,1.892-6.232,5.513
				c0,3.154,0,3.859,0,3.859H44.66v4.901h3.003V266.663z"/>
		</g>
		<g id="XMLID_1811_">
			<path id="XMLID_1820_" style="fill:#222221;" d="M122.96,276.043H92.471c-4.677,0-8.469-3.792-8.469-8.469v-30.489
				c0-4.677,3.792-8.469,8.469-8.469h30.489c4.677,0,8.469,3.792,8.469,8.469v30.489
				C131.429,272.251,127.638,276.043,122.96,276.043z"/>
			<g id="XMLID_1812_">
				<path id="XMLID_1817_" style="fill:#FFFFFF;" d="M107.716,241.67c3.472,0,3.883,0.013,5.254,0.076
					c1.268,0.058,1.956,0.27,2.414,0.448c0.607,0.236,1.04,0.517,1.495,0.972c0.455,0.455,0.737,0.888,0.973,1.495
					c0.178,0.458,0.39,1.147,0.448,2.415c0.062,1.371,0.076,1.782,0.076,5.254c0,3.472-0.013,3.883-0.076,5.254
					c-0.058,1.268-0.27,1.956-0.448,2.414c-0.236,0.607-0.518,1.04-0.973,1.495c-0.455,0.455-0.888,0.737-1.495,0.972
					c-0.458,0.178-1.147,0.39-2.414,0.448c-1.371,0.062-1.782,0.076-5.254,0.076s-3.883-0.013-5.254-0.076
					c-1.268-0.058-1.956-0.27-2.414-0.448c-0.607-0.236-1.04-0.518-1.495-0.972c-0.455-0.455-0.737-0.888-0.973-1.495
					c-0.178-0.458-0.39-1.146-0.448-2.414c-0.062-1.371-0.076-1.782-0.076-5.254c0-3.472,0.013-3.883,0.076-5.254
					c0.058-1.268,0.27-1.956,0.448-2.415c0.236-0.607,0.518-1.04,0.973-1.495c0.455-0.455,0.888-0.737,1.495-0.972
					c0.458-0.178,1.147-0.39,2.414-0.448C103.833,241.683,104.244,241.67,107.716,241.67 M107.716,239.327
					c-3.531,0-3.974,0.015-5.361,0.078c-1.384,0.063-2.329,0.283-3.156,0.604c-0.855,0.332-1.58,0.777-2.303,1.5
					c-0.723,0.723-1.167,1.448-1.499,2.303c-0.322,0.827-0.541,1.772-0.604,3.156c-0.063,1.387-0.078,1.83-0.078,5.361
					c0,3.531,0.015,3.974,0.078,5.361c0.063,1.384,0.283,2.329,0.604,3.156c0.332,0.855,0.777,1.58,1.499,2.303
					c0.723,0.723,1.448,1.167,2.303,1.5c0.827,0.321,1.772,0.541,3.156,0.604c1.387,0.063,1.83,0.078,5.361,0.078
					c3.531,0,3.974-0.015,5.361-0.078c1.384-0.063,2.329-0.283,3.156-0.604c0.855-0.332,1.58-0.777,2.303-1.5
					c0.723-0.723,1.167-1.448,1.5-2.303c0.321-0.827,0.541-1.772,0.604-3.156c0.063-1.387,0.078-1.83,0.078-5.361
					c0-3.531-0.015-3.974-0.078-5.361c-0.063-1.384-0.283-2.329-0.604-3.156c-0.332-0.855-0.777-1.58-1.5-2.303
					c-0.723-0.723-1.448-1.167-2.303-1.5c-0.827-0.321-1.772-0.541-3.156-0.604C111.69,239.342,111.247,239.327,107.716,239.327"/>
				<path id="XMLID_1814_" style="fill:#FFFFFF;" d="M107.716,245.652c-3.687,0-6.677,2.989-6.677,6.677s2.989,6.677,6.677,6.677
					c3.688,0,6.677-2.989,6.677-6.677S111.403,245.652,107.716,245.652 M107.716,256.663c-2.394,0-4.334-1.941-4.334-4.334
					c0-2.394,1.94-4.334,4.334-4.334s4.334,1.94,4.334,4.334C112.05,254.723,110.109,256.663,107.716,256.663"/>
				<path id="XMLID_1813_" style="fill:#FFFFFF;" d="M116.217,245.389c0,0.862-0.699,1.561-1.56,1.561
					c-0.862,0-1.56-0.699-1.56-1.561s0.698-1.56,1.56-1.56C115.518,243.828,116.217,244.527,116.217,245.389"/>
			</g>
		</g>
		<g id="XMLID_1804_">
			<path id="XMLID_1808_" style="fill:#222221;" d="M239.712,276.043h-30.489c-4.677,0-8.469-3.792-8.469-8.469v-30.489
				c0-4.677,3.792-8.469,8.469-8.469h30.489c4.677,0,8.469,3.792,8.469,8.469v30.489
				C248.181,272.251,244.389,276.043,239.712,276.043z"/>
			<g id="XMLID_1805_">
				<path id="XMLID_1807_" style="fill:#FFFFFF;" d="M227.432,251.711h-9.581l0.011,2.744h6.46c-0.764,3.341-3.122,5.39-6.287,5.39
					c-4.151,0-7.516-3.365-7.516-7.516s3.365-7.516,7.516-7.516c1.974,0,3.769,0.762,5.11,2.006l2.12-1.827
					c-1.86-1.833-4.412-2.965-7.23-2.965c-5.69,0-10.302,4.613-10.302,10.302c0,5.69,4.612,10.302,10.302,10.302
					c5.464,0,9.412-4.167,9.412-9.857L227.432,251.711z"/>
				<polygon id="XMLID_1806_" style="fill:#FFFFFF;" points="241.201,251.825 237.246,251.825 237.246,247.87 234.723,247.87 
					234.723,251.825 230.768,251.825 230.768,254.348 234.723,254.348 234.723,258.303 237.246,258.303 237.246,254.348 
					241.201,254.348 				"/>
			</g>
		</g>
		<g id="XMLID_1799_">
			<path id="XMLID_1801_" style="fill:#222221;" d="M408.459,276.043h-30.489c-4.677,0-8.469-3.792-8.469-8.469v-30.489
				c0-4.677,3.792-8.469,8.469-8.469h30.489c4.677,0,8.469,3.792,8.469,8.469v30.489
				C416.928,272.251,413.136,276.043,408.459,276.043z"/>
			<path id="XMLID_1800_" style="fill:#FFFFFF;" d="M387.892,259.341c0,1.229,0.129,2.165,0.386,2.812
				c0.257,0.645,0.72,1.257,1.387,1.831c0.666,0.574,1.471,1.016,2.416,1.325c0.945,0.311,2.03,0.466,3.259,0.466
				c1.083,0,2.089-0.109,3.021-0.325c0.93-0.218,1.971-0.597,3.12-1.138v-4.229c-1.347,0.885-2.702,1.328-4.064,1.328
				c-0.765,0-1.447-0.178-2.041-0.536c-0.449-0.263-0.755-0.617-0.921-1.06c-0.165-0.443-0.247-1.443-0.247-3.003v-6.898h6.386
				v-4.221h-6.386v-6.812h-3.809c-0.172,1.386-0.485,2.526-0.939,3.424c-0.454,0.897-1.056,1.665-1.807,2.305
				c-0.75,0.639-1.651,1.13-2.704,1.474v3.831h2.944V259.341z"/>
		</g>
		<g id="XMLID_1794_">
			<path id="XMLID_1796_" style="fill:#222221;" d="M349.913,276.043h-30.489c-4.677,0-8.469-3.792-8.469-8.469v-30.489
				c0-4.677,3.792-8.469,8.469-8.469h30.489c4.677,0,8.469,3.792,8.469,8.469v30.489
				C358.382,272.251,354.59,276.043,349.913,276.043z"/>
			<path id="XMLID_1795_" style="fill-rule:evenodd;clip-rule:evenodd;fill:#FFFFFF;" d="M348.41,259.207v-0.006
				c-0.006-0.007-0.013-0.007-0.026-0.02c0,0,0,0-0.006,0l0,0c-0.335-0.212-0.677-0.245-0.89-0.322c-0.006,0-0.013,0-0.013-0.006
				c-1.456-0.458-2.713-1.45-3.654-2.661c-0.522-0.677-0.96-1.405-1.25-2.185c0-0.007,0-0.007,0-0.013
				c-0.116-0.335-0.123-0.709,0.045-0.935c0,0,0.006,0,0.006-0.006c0.264-0.374,0.748-0.612,1.257-0.799c0.007,0,0.007,0,0.007,0
				c0.574-0.2,1.192-0.425,1.701-0.877c0.006,0,0.006-0.006,0.013-0.006c0.077-0.071,0.174-0.167,0.245-0.316
				c0.013-0.032,0.032-0.071,0.039-0.116c0.039-0.135,0.039-0.303-0.032-0.445c0-0.007,0-0.007,0-0.007
				c-0.148-0.296-0.4-0.457-0.593-0.567h-0.007c-0.316-0.187-0.689-0.2-1.018-0.09l0,0h-0.007c-0.348,0.103-0.638,0.232-0.902,0.264
				c-0.006,0-0.013,0-0.019,0.006c-0.374,0.064-0.741,0.077-1.025-0.026c-0.006-0.039-0.006-0.123-0.019-0.225h0.006
				c-0.026-0.619,0.032-1.257,0.039-1.92c0,0,0,0,0-0.007c0.033-1.005,0.071-2.036-0.077-3.08c0-0.007,0-0.013,0-0.013
				c-0.328-1.759-1.456-3.273-2.887-4.279c-1.037-0.734-2.275-1.14-3.531-1.257l0,0c-0.432-0.039-0.85-0.052-1.27-0.052
				c-1.695,0.013-3.454,0.458-4.826,1.534c-1.031,0.806-1.843,1.875-2.352,3.067v0.007c-0.49,1.224-0.445,2.532-0.38,3.744l0,0
				c0.039,0.851,0.135,1.676,0.058,2.462c-0.007,0.026-0.007,0.039-0.013,0.052c-0.38,0.071-0.799,0.045-1.211-0.032h-0.007
				c-0.283-0.045-0.586-0.161-0.928-0.258c-0.007,0-0.013,0-0.019-0.006c-0.328-0.071-0.657,0.019-0.902,0.206
				c-0.007,0-0.013,0-0.013,0.007c-0.006,0.007-0.013,0.007-0.013,0.013c-0.206,0.129-0.483,0.354-0.496,0.741
				c-0.006,0.026,0,0.045,0,0.071c0.007,0,0,0.006,0.007,0.006c0.038,0.226,0.18,0.393,0.309,0.503
				c0.129,0.11,0.245,0.181,0.316,0.239c0.007,0,0.013,0.006,0.019,0.013c0.618,0.412,1.302,0.593,1.901,0.825l0,0
				c0.412,0.181,0.767,0.458,0.85,0.812c0.103,0.445-0.09,0.96-0.335,1.456v0.007c-0.67,1.314-1.662,2.462-2.887,3.305
				c-0.644,0.438-1.366,0.767-2.12,0.967c-0.007,0-0.02,0.007-0.032,0.013c-0.155,0.058-0.522,0.09-0.754,0.438
				c-0.013,0.026-0.026,0.051-0.039,0.084c-0.077,0.219,0.013,0.458,0.122,0.593c0.103,0.123,0.219,0.2,0.322,0.251
				c0.006,0,0.013,0.007,0.019,0.007c0.631,0.367,1.327,0.522,1.959,0.683c0.006,0,0.006,0.006,0.006,0.006
				c0.458,0.097,0.883,0.155,1.224,0.303c0.013,0.026,0.052,0.142,0.129,0.335c0.116,0.348,0.168,0.754,0.296,1.186
				c0.039,0.116,0.142,0.213,0.264,0.239c0.29,0.064,0.445-0.033,0.47-0.039c0.013,0,0.026,0,0.039,0
				c1.057-0.187,2.12-0.348,3.093-0.11l0,0c1.018,0.27,1.907,0.973,2.906,1.572v0.007l0,0c0.664,0.412,1.43,0.818,2.32,0.85l0,0
				c0,0,0,0,0.007,0c0.67,0.039,1.321-0.006,1.965-0.045c0.007,0,0.007,0,0.013,0c0.548-0.052,1.076-0.239,1.546-0.529
				c0.007-0.007,0.013-0.013,0.019-0.013c1.051-0.599,1.978-1.315,3.003-1.766h0.007c0.328-0.116,0.747-0.11,1.205-0.141
				c0.006,0,0.013,0,0.013,0c0.851-0.026,1.695,0.019,2.539,0.129c0.026,0.007,0.058,0.007,0.084,0
				c0.116-0.013,0.232-0.09,0.29-0.161c0.065-0.071,0.078-0.135,0.09-0.18c0.026-0.084,0.045-0.123,0.007-0.052
				c0.013-0.026,0.026-0.045,0.032-0.071c0.155-0.509,0.238-0.967,0.49-1.25c0.11-0.11,0.303-0.161,0.522-0.161
				c0.013,0,0.032,0,0.045,0c0.734-0.084,1.392-0.348,2.017-0.567c0.007-0.006,0.02-0.006,0.026-0.006
				c0.232-0.103,0.58-0.219,0.819-0.548c0,0,0,0,0-0.006l0,0C348.784,259.755,348.687,259.374,348.41,259.207L348.41,259.207z"/>
		</g>
		<g id="XMLID_1785_">
			<path id="XMLID_1791_" style="fill:#222221;" d="M293.807,276.043h-30.489c-4.677,0-8.469-3.792-8.469-8.469v-30.489
				c0-4.677,3.792-8.469,8.469-8.469h30.489c4.677,0,8.469,3.792,8.469,8.469v30.489
				C302.276,272.251,298.484,276.043,293.807,276.043z"/>
			<g id="XMLID_1786_">
				<path id="XMLID_1788_" style="fill-rule:evenodd;clip-rule:evenodd;fill:#FFFFFF;" d="M291.563,251.671
					c-0.173-6.852-5.817-12.352-12.765-12.352c-6.864,0-12.46,5.375-12.758,12.119c-0.006,0.185-0.012,0.371-0.012,0.556
					c0,2.398,0.669,4.634,1.829,6.547l-2.302,6.798l7.073-2.248c1.83,1.004,3.934,1.579,6.17,1.579
					c7.055,0,12.771-5.674,12.771-12.675C291.569,251.886,291.569,251.779,291.563,251.671z M278.798,262.648
					c-2.182,0-4.209-0.646-5.907-1.764l-4.125,1.315l1.339-3.958c-1.285-1.758-2.045-3.916-2.045-6.248
					c0-0.347,0.018-0.693,0.054-1.034c0.526-5.393,5.118-9.62,10.684-9.62c5.638,0,10.272,4.335,10.702,9.823
					c0.024,0.275,0.036,0.55,0.036,0.831C289.536,257.871,284.717,262.648,278.798,262.648z"/>
				<path id="XMLID_1787_" style="fill-rule:evenodd;clip-rule:evenodd;fill:#FFFFFF;" d="M284.652,254.553
					c-0.317-0.155-1.854-0.909-2.141-1.01c-0.287-0.108-0.496-0.155-0.706,0.156c-0.209,0.311-0.813,1.01-0.993,1.214
					c-0.185,0.209-0.365,0.233-0.681,0.078c-0.311-0.156-1.321-0.478-2.517-1.543c-0.927-0.819-1.56-1.835-1.74-2.146
					c-0.179-0.311-0.018-0.478,0.138-0.634c0.143-0.143,0.311-0.365,0.472-0.544c0.042-0.054,0.078-0.102,0.114-0.15
					c0.072-0.114,0.126-0.221,0.197-0.371c0.108-0.209,0.054-0.389-0.024-0.544c-0.078-0.155-0.706-1.686-0.969-2.308
					c-0.257-0.622-0.52-0.514-0.705-0.514c-0.18,0-0.389-0.03-0.598-0.03c-0.209,0-0.55,0.078-0.837,0.388
					c-0.287,0.311-1.094,1.064-1.094,2.595c0,0.359,0.066,0.717,0.161,1.058c0.317,1.094,0.998,1.997,1.118,2.152
					c0.155,0.203,2.164,3.444,5.345,4.693c3.187,1.238,3.187,0.825,3.761,0.771c0.574-0.048,1.854-0.747,2.11-1.477
					c0.263-0.723,0.263-1.345,0.185-1.477C285.172,254.786,284.962,254.708,284.652,254.553z"/>
			</g>
		</g>
		<g id="XMLID_1778_">
			<path id="XMLID_1782_" style="fill:#222221;" d="M463.969,276.043H433.48c-4.677,0-8.469-3.792-8.469-8.469v-30.489
				c0-4.677,3.792-8.469,8.469-8.469h30.489c4.677,0,8.469,3.792,8.469,8.469v30.489
				C472.438,272.251,468.646,276.043,463.969,276.043z"/>
			<path id="XMLID_1779_" style="fill:#FFFFFF;" d="M435.505,252.339c0,7.295,5.913,13.209,13.209,13.209
				c0.847,0,1.674-0.082,2.475-0.235c1.162,0.702,2.524,1.107,3.981,1.107c4.257-0.001,7.708-3.453,7.708-7.711
				c0-1.493-0.426-2.885-1.159-4.066c0.131-0.748,0.203-1.518,0.203-2.304c0-7.296-5.914-13.209-13.209-13.209
				c-0.83,0-1.643,0.08-2.433,0.227c-1.167-0.711-2.537-1.119-4.002-1.119c-4.258,0-7.709,3.451-7.709,7.709
				c0,1.484,0.421,2.869,1.147,4.046C435.58,250.754,435.505,251.538,435.505,252.339z M448.856,242.954
				c4.26,0.25,6.755,2.124,6.997,3.874c0.119,1.144-0.642,2.033-1.961,2.033c-1.927,0-2.124-2.569-5.442-2.569
				c-1.496,0-2.76,0.622-2.76,1.972c0,2.821,10.632,1.183,10.632,7.393c0,3.58-2.866,5.925-7.143,5.925
				c-3.762,0-7.543-1.705-7.523-4.641c0.006-0.886,0.667-1.699,1.546-1.699c2.216,0,2.195,3.292,5.723,3.292
				c2.474,0,3.319-1.35,3.319-2.291c0-3.398-10.695-1.314-10.695-7.705C441.549,245.078,444.391,242.692,448.856,242.954z"/>
		</g>
		<g id="XMLID_1773_">
			<path id="XMLID_1775_" style="fill:#222221;" d="M122.96,332.95H92.471c-4.677,0-8.469-3.792-8.469-8.469v-30.489
				c0-4.677,3.792-8.469,8.469-8.469h30.489c4.677,0,8.469,3.792,8.469,8.469v30.489C131.429,329.158,127.638,332.95,122.96,332.95z
				"/>
			<path id="XMLID_1774_" style="fill:#FFFFFF;" d="M100.127,311.44c0.37,0.152,0.702,0.006,0.81-0.404
				c0.074-0.284,0.251-1,0.33-1.299c0.109-0.406,0.067-0.548-0.233-0.901c-0.651-0.769-1.067-1.764-1.067-3.174
				c0-4.088,3.058-7.748,7.965-7.748c4.344,0,6.731,2.654,6.731,6.2c0,4.664-2.064,8.6-5.129,8.6c-1.693,0-2.959-1.399-2.554-3.115
				c0.488-2.049,1.428-4.261,1.428-5.741c0-1.324-0.711-2.429-2.182-2.429c-1.73,0-3.12,1.79-3.12,4.187
				c0,1.527,0.517,2.56,0.517,2.56s-1.771,7.502-2.081,8.815c-0.619,2.616-0.093,5.823-0.049,6.147
				c0.027,0.193,0.273,0.238,0.384,0.093c0.16-0.209,2.22-2.753,2.92-5.295c0.199-0.719,1.139-4.446,1.139-4.446
				c0.562,1.072,2.205,2.016,3.951,2.016c5.201,0,8.729-4.74,8.729-11.087c0-4.799-4.063-9.268-10.241-9.268
				c-7.686,0-11.562,5.511-11.562,10.106C96.814,308.043,97.868,310.518,100.127,311.44z"/>
		</g>
		<g id="XMLID_1759_">
			<path id="XMLID_1770_" style="fill:#222221;" d="M66.52,332.95H36.031c-4.677,0-8.469-3.792-8.469-8.469v-30.489
				c0-4.677,3.792-8.469,8.469-8.469H66.52c4.677,0,8.469,3.792,8.469,8.469v30.489C74.989,329.158,71.198,332.95,66.52,332.95z"/>
			<g id="XMLID_1760_">
				<path id="XMLID_1766_" style="fill:#FFFFFF;" d="M47.736,317.104c0.72-0.149,1.346-0.427,1.876-0.833
					c0.469-0.353,0.862-0.788,1.176-1.306c0.493-0.782,0.739-1.664,0.739-2.649c0-0.953-0.216-1.765-0.646-2.433
					c-0.432-0.668-1.071-1.157-1.918-1.465c0.558-0.285,0.98-0.6,1.267-0.946c0.512-0.615,0.769-1.431,0.769-2.445
					c0-0.984-0.255-1.829-0.763-2.535c-0.844-1.148-2.279-1.738-4.303-1.768h-8.026v16.604h7.483
					C46.232,317.33,47.016,317.254,47.736,317.104z M41.219,303.609h3.612c0.796,0,1.449,0.086,1.962,0.26
					c0.595,0.247,0.892,0.758,0.892,1.532c0,0.699-0.225,1.185-0.675,1.459c-0.449,0.274-1.035,0.411-1.756,0.411h-4.036V303.609z
					 M41.219,314.446v-4.426h4.087c0.714,0.007,1.266,0.101,1.66,0.281c0.705,0.322,1.058,0.916,1.058,1.779
					c0,1.021-0.364,1.712-1.091,2.074c-0.4,0.195-0.962,0.292-1.681,0.292H41.219z"/>
				<g id="XMLID_1761_">
					<path id="XMLID_1763_" style="fill:#FFFFFF;" d="M54.339,316.236c1.249,1.008,2.691,1.511,4.325,1.511
						c1.98,0,3.521-0.596,4.619-1.791c0.708-0.752,1.105-1.492,1.191-2.219h-3.278c-0.191,0.36-0.411,0.641-0.661,0.844
						c-0.457,0.376-1.051,0.564-1.783,0.564c-0.69,0-1.28-0.154-1.769-0.462c-0.807-0.496-1.235-1.359-1.284-2.592h8.943
						c0.016-1.06-0.02-1.872-0.105-2.436c-0.149-0.963-0.475-1.809-0.979-2.538c-0.557-0.827-1.265-1.433-2.122-1.817
						c-0.855-0.383-1.818-0.575-2.888-0.575c-1.799,0-3.262,0.567-4.39,1.703c-1.128,1.134-1.692,2.765-1.692,4.892
						C52.465,313.59,53.09,315.228,54.339,316.236z M56.632,308.073c0.455-0.467,1.093-0.701,1.916-0.701
						c0.758,0,1.393,0.221,1.905,0.661c0.512,0.441,0.797,1.089,0.855,1.94h-5.531C55.894,309.174,56.179,308.541,56.632,308.073z"
						/>
					<rect id="XMLID_1762_" x="54.731" y="301.68" style="fill:#FFFFFF;" width="7.216" height="1.676"/>
				</g>
			</g>
		</g>
		<g id="XMLID_1750_">
			<path id="XMLID_1756_" style="fill:#222221;" d="M239.712,332.95h-30.489c-4.677,0-8.469-3.792-8.469-8.469v-30.489
				c0-4.677,3.792-8.469,8.469-8.469h30.489c4.677,0,8.469,3.792,8.469,8.469v30.489C248.181,329.158,244.389,332.95,239.712,332.95
				z"/>
			<g id="XMLID_1751_">
				<g id="XMLID_1753_">
					<rect id="XMLID_1755_" x="213.714" y="303.95" style="fill:#FFFFFF;" width="4.908" height="15.855"/>
					<path id="XMLID_1754_" style="fill:#FFFFFF;" d="M216.145,301.874c1.603,0,2.902-1.311,2.902-2.926s-1.299-2.925-2.902-2.925
						c-1.603,0-2.902,1.31-2.902,2.925S214.541,301.874,216.145,301.874z"/>
				</g>
				<path id="XMLID_1752_" style="fill:#FFFFFF;" d="M226.467,311.482c0-2.229,1.026-3.557,2.99-3.557
					c1.805,0,2.672,1.275,2.672,3.557c0,2.284,0,8.323,0,8.323h4.885c0,0,0-5.792,0-10.039c0-4.247-2.407-6.3-5.769-6.3
					c-3.363,0-4.778,2.62-4.778,2.62v-2.136h-4.708v15.855h4.708C226.467,319.805,226.467,313.925,226.467,311.482z"/>
			</g>
		</g>
		<g id="XMLID_1741_">
			<path id="XMLID_1747_" style="fill:#222221;" d="M181.991,332.95h-30.489c-4.677,0-8.469-3.792-8.469-8.469v-30.489
				c0-4.677,3.792-8.469,8.469-8.469h30.489c4.677,0,8.469,3.792,8.469,8.469v30.489C190.46,329.158,186.668,332.95,181.991,332.95z
				"/>
			<path id="XMLID_1742_" style="fill:#FFFFFF;" d="M166.746,295.372c-7.657,0-13.864,6.207-13.864,13.864
				c0,7.657,6.207,13.864,13.864,13.864c7.657,0,13.864-6.207,13.864-13.864C180.611,301.579,174.403,295.372,166.746,295.372z
				 M173.124,315.406c-0.278,0.416-0.763,0.554-1.179,0.277c-3.258-2.01-7.348-2.426-12.201-1.317
				c-0.485,0.138-0.901-0.208-1.04-0.624c-0.139-0.485,0.208-0.901,0.624-1.04c5.268-1.178,9.844-0.693,13.448,1.525
				C173.263,314.435,173.332,314.99,173.124,315.406z M174.788,311.593c-0.346,0.485-0.97,0.693-1.456,0.347
				c-3.743-2.288-9.428-2.981-13.795-1.594c-0.555,0.138-1.178-0.139-1.317-0.693c-0.139-0.555,0.139-1.178,0.693-1.317
				c5.06-1.525,11.299-0.762,15.598,1.872C174.926,310.415,175.134,311.108,174.788,311.593z M174.926,307.711
				c-4.436-2.634-11.854-2.911-16.082-1.594c-0.693,0.208-1.387-0.208-1.595-0.832c-0.208-0.693,0.208-1.386,0.832-1.594
				c4.922-1.456,13.032-1.178,18.162,1.872c0.624,0.347,0.832,1.178,0.485,1.802C176.382,307.85,175.55,308.057,174.926,307.711z"/>
		</g>
		<g id="XMLID_1736_">
			<path id="XMLID_1738_" style="fill:#222221;" d="M349.913,332.95h-30.489c-4.677,0-8.469-3.792-8.469-8.469v-30.489
				c0-4.677,3.792-8.469,8.469-8.469h30.489c4.677,0,8.469,3.792,8.469,8.469v30.489C358.382,329.158,354.59,332.95,349.913,332.95z
				"/>
			<path id="XMLID_1737_" style="fill:#FFFFFF;" d="M344.197,297.603c-3.728-0.12-6.253,1.984-7.576,6.316
				c0.683-0.294,1.347-0.442,1.991-0.442c1.368,0,1.972,0.77,1.81,2.307c-0.08,0.929-0.684,2.282-1.81,4.062
				c-1.128,1.779-1.973,2.668-2.536,2.668c-0.726,0-1.39-1.369-1.992-4.112c-0.204-0.805-0.565-2.861-1.088-6.167
				c-0.484-3.064-1.772-4.495-3.865-4.294c-0.887,0.081-2.216,0.887-3.986,2.416c-1.289,1.168-2.598,2.336-3.925,3.502l1.266,1.631
				c1.206-0.844,1.91-1.268,2.11-1.268c0.924,0,1.786,1.45,2.592,4.345c0.724,2.655,1.448,5.308,2.172,7.964
				c1.083,2.896,2.41,4.343,3.978,4.343c2.531,0,5.625-2.377,9.282-7.132c3.536-4.553,5.365-8.139,5.485-10.758
				C348.263,299.478,346.96,297.686,344.197,297.603z"/>
		</g>
		<g id="XMLID_1582_">
			<path id="XMLID_1733_" style="fill:#222221;" d="M408.459,332.95h-30.489c-4.677,0-8.469-3.792-8.469-8.469v-30.489
				c0-4.677,3.792-8.469,8.469-8.469h30.489c4.677,0,8.469,3.792,8.469,8.469v30.489C416.928,329.158,413.136,332.95,408.459,332.95
				z"/>
			<path id="XMLID_1587_" style="fill:#FFFFFF;" d="M393.214,294.119c-8.348,0-15.116,6.768-15.116,15.118
				c0,8.348,6.768,15.116,15.116,15.116c8.349,0,15.117-6.768,15.117-15.116C408.331,300.887,401.563,294.119,393.214,294.119z
				 M393.214,296.748c2.867,0,5.503,0.981,7.613,2.611c-1.517,1.957-3.613,3.505-6.282,4.635c-1.28-2.344-2.742-4.63-4.394-6.85
				C391.132,296.895,392.156,296.748,393.214,296.748z M387.58,298.106c1.677,2.195,3.163,4.458,4.456,6.779
				c-3.062,0.901-6.716,1.364-10.941,1.393C381.968,302.707,384.373,299.738,387.58,298.106z M380.726,309.235
				c0-0.108,0.015-0.214,0.017-0.321c4.847-0.007,9.03-0.564,12.533-1.666c0.294,0.598,0.575,1.199,0.844,1.805
				c-4.257,1.33-7.765,4.058-10.502,8.163C381.815,315.051,380.726,312.269,380.726,309.235z M393.214,321.724
				c-2.889,0-5.545-0.994-7.663-2.649c2.48-3.892,5.648-6.424,9.571-7.593c1.168,3.049,2.028,6.185,2.575,9.397
				C396.301,321.418,394.795,321.724,393.214,321.724z M400.145,319.616c-0.552-2.964-1.361-5.861-2.418-8.688
				c2.362-0.334,4.964-0.247,7.809,0.247C404.985,314.685,402.982,317.717,400.145,319.616z M396.719,308.44
				c-0.307-0.709-0.626-1.416-0.966-2.116c2.909-1.26,5.247-2.971,6.99-5.142c1.699,2.008,2.766,4.559,2.924,7.35
				C402.423,308.001,399.439,307.972,396.719,308.44z"/>
		</g>
		<g id="XMLID_513_">
			<path id="XMLID_1567_" style="fill:#222221;" d="M463.969,332.95H433.48c-4.677,0-8.469-3.792-8.469-8.469v-30.489
				c0-4.677,3.792-8.469,8.469-8.469h30.489c4.677,0,8.469,3.792,8.469,8.469v30.489C472.438,329.158,468.646,332.95,463.969,332.95
				z"/>
			<g id="XMLID_546_" transform="translate(-1)">
				<path id="XMLID_551_" style="fill:#FFFFFF;" d="M435.162,301.539l7.284,4.64l7.284-4.64l-7.284-4.641L435.162,301.539z"/>
				<path id="XMLID_550_" style="fill:#FFFFFF;" d="M449.719,301.539l7.284,4.64l7.284-4.64l-7.284-4.641L449.719,301.539z"/>
				<path id="XMLID_549_" style="fill:#FFFFFF;" d="M435.162,310.755l7.284,4.64l7.284-4.64l-7.284-4.641L435.162,310.755z"/>
				<path id="XMLID_548_" style="fill:#FFFFFF;" d="M457.003,306.114l-7.284,4.641l7.284,4.64l7.284-4.64L457.003,306.114z"/>
				<path id="XMLID_547_" style="fill:#FFFFFF;" d="M442.492,316.933l7.284,4.641l7.284-4.641l-7.284-4.64L442.492,316.933z"/>
			</g>
		</g>
		<g id="XMLID_500_">
			<path id="XMLID_505_" style="fill:#222221;" d="M293.807,332.95h-30.489c-4.677,0-8.469-3.792-8.469-8.469v-30.489
				c0-4.677,3.792-8.469,8.469-8.469h30.489c4.677,0,8.469,3.792,8.469,8.469v30.489C302.276,329.158,298.484,332.95,293.807,332.95
				z"/>
			<g id="XMLID_501_">
				<path id="XMLID_503_" style="fill:#FFFFFF;" d="M296.747,300.041c-0.436-1.644-1.723-2.938-3.356-3.378
					c-2.96-0.798-14.83-0.798-14.83-0.798s-11.87,0-14.83,0.798c-1.633,0.439-2.919,1.734-3.356,3.378
					c-0.793,2.979-0.793,9.195-0.793,9.195s0,6.216,0.793,9.195c0.437,1.644,1.723,2.938,3.356,3.378
					c2.96,0.798,14.83,0.798,14.83,0.798s11.869,0,14.83-0.798c1.633-0.439,2.919-1.734,3.356-3.378
					c0.793-2.979,0.793-9.195,0.793-9.195S297.541,303.02,296.747,300.041z"/>
				<polygon id="XMLID_502_" style="fill:#222221;" points="274.68,314.88 274.68,303.592 284.601,309.236 				"/>
			</g>
		</g>
	</g>
	<g id="XMLID_1568_">
		<g id="XMLID_1950_">
			<path id="XMLID_1952_" style="fill:#9C9B9B;" d="M181.991,399.497h-30.489c-4.677,0-8.469-3.792-8.469-8.469v-30.489
				c0-4.677,3.792-8.469,8.469-8.469h30.489c4.677,0,8.469,3.792,8.469,8.469v30.489
				C190.46,395.705,186.668,399.497,181.991,399.497z"/>
			<path id="XMLID_1951_" style="fill:#FFFFFF;" d="M154.112,383.722c2.294,1.471,5.019,2.329,7.947,2.329
				c9.626,0,15.063-8.13,14.736-15.422c1.012-0.73,1.892-1.643,2.587-2.684c-0.93,0.412-1.929,0.691-2.977,0.816
				c1.07-0.64,1.892-1.656,2.279-2.868c-1.002,0.594-2.111,1.026-3.291,1.259c-0.946-1.008-2.293-1.637-3.785-1.637
				c-3.346,0-5.805,3.123-5.05,6.365c-4.309-0.216-8.129-2.28-10.685-5.417c-1.358,2.331-0.704,5.379,1.604,6.922
				c-0.85-0.027-1.651-0.261-2.349-0.649c-0.056,2.402,1.665,4.648,4.158,5.149c-0.73,0.199-1.529,0.243-2.34,0.088
				c0.658,2.06,2.573,3.558,4.842,3.601C159.608,383.284,156.862,384.047,154.112,383.722z"/>
		</g>
		<g id="XMLID_1945_">
			<path id="XMLID_1947_" style="fill:#9C9B9B;" d="M66.52,399.497H36.031c-4.677,0-8.469-3.792-8.469-8.469v-30.489
				c0-4.677,3.792-8.469,8.469-8.469H66.52c4.677,0,8.469,3.792,8.469,8.469v30.489C74.989,395.705,71.198,399.497,66.52,399.497z"
				/>
			<path id="XMLID_1946_" style="fill:#FFFFFF;" d="M47.662,390.117h5.772v-14.455h4.027l0.429-4.84h-4.457c0,0,0-1.807,0-2.757
				c0-1.141,0.229-1.592,1.333-1.592c0.888,0,3.124,0,3.124,0v-5.023c0,0-3.294,0-3.997,0c-4.295,0-6.232,1.892-6.232,5.513
				c0,3.154,0,3.859,0,3.859H44.66v4.901h3.003V390.117z"/>
		</g>
		<g id="XMLID_1935_">
			<path id="XMLID_1944_" style="fill:#9C9B9B;" d="M122.96,399.497H92.471c-4.677,0-8.469-3.792-8.469-8.469v-30.489
				c0-4.677,3.792-8.469,8.469-8.469h30.489c4.677,0,8.469,3.792,8.469,8.469v30.489
				C131.429,395.705,127.638,399.497,122.96,399.497z"/>
			<g id="XMLID_1936_">
				<path id="XMLID_1941_" style="fill:#FFFFFF;" d="M107.716,365.124c3.472,0,3.883,0.013,5.254,0.076
					c1.268,0.058,1.956,0.27,2.414,0.448c0.607,0.236,1.04,0.518,1.495,0.973c0.455,0.455,0.737,0.888,0.973,1.495
					c0.178,0.458,0.39,1.147,0.448,2.415c0.062,1.371,0.076,1.782,0.076,5.254c0,3.472-0.013,3.883-0.076,5.254
					c-0.058,1.268-0.27,1.956-0.448,2.414c-0.236,0.607-0.518,1.04-0.973,1.495c-0.455,0.455-0.888,0.737-1.495,0.973
					c-0.458,0.178-1.147,0.39-2.414,0.448c-1.371,0.062-1.782,0.076-5.254,0.076s-3.883-0.013-5.254-0.076
					c-1.268-0.058-1.956-0.27-2.414-0.448c-0.607-0.236-1.04-0.518-1.495-0.973c-0.455-0.455-0.737-0.888-0.973-1.495
					c-0.178-0.458-0.39-1.146-0.448-2.414c-0.062-1.371-0.076-1.782-0.076-5.254c0-3.472,0.013-3.883,0.076-5.254
					c0.058-1.268,0.27-1.956,0.448-2.415c0.236-0.607,0.518-1.04,0.973-1.495c0.455-0.455,0.888-0.737,1.495-0.973
					c0.458-0.178,1.147-0.39,2.414-0.448C103.833,365.137,104.244,365.124,107.716,365.124 M107.716,362.781
					c-3.531,0-3.974,0.015-5.361,0.078c-1.384,0.063-2.329,0.283-3.156,0.604c-0.855,0.332-1.58,0.777-2.303,1.5
					s-1.167,1.448-1.499,2.303c-0.322,0.827-0.541,1.772-0.604,3.156c-0.063,1.387-0.078,1.83-0.078,5.361
					c0,3.531,0.015,3.974,0.078,5.361c0.063,1.384,0.283,2.329,0.604,3.156c0.332,0.855,0.777,1.58,1.499,2.303
					c0.723,0.723,1.448,1.168,2.303,1.5c0.827,0.321,1.772,0.541,3.156,0.604c1.387,0.063,1.83,0.078,5.361,0.078
					c3.531,0,3.974-0.015,5.361-0.078c1.384-0.063,2.329-0.283,3.156-0.604c0.855-0.332,1.58-0.777,2.303-1.5
					c0.723-0.723,1.167-1.448,1.5-2.303c0.321-0.827,0.541-1.772,0.604-3.156c0.063-1.387,0.078-1.83,0.078-5.361
					c0-3.531-0.015-3.974-0.078-5.361c-0.063-1.384-0.283-2.329-0.604-3.156c-0.332-0.855-0.777-1.58-1.5-2.303
					c-0.723-0.723-1.448-1.167-2.303-1.5c-0.827-0.321-1.772-0.541-3.156-0.604C111.69,362.796,111.247,362.781,107.716,362.781"/>
				<path id="XMLID_1938_" style="fill:#FFFFFF;" d="M107.716,369.107c-3.687,0-6.677,2.989-6.677,6.677s2.989,6.677,6.677,6.677
					c3.688,0,6.677-2.989,6.677-6.677S111.403,369.107,107.716,369.107 M107.716,380.117c-2.394,0-4.334-1.94-4.334-4.334
					c0-2.394,1.94-4.334,4.334-4.334s4.334,1.94,4.334,4.334C112.05,378.177,110.109,380.117,107.716,380.117"/>
				<path id="XMLID_1937_" style="fill:#FFFFFF;" d="M116.217,368.843c0,0.862-0.699,1.56-1.56,1.56c-0.862,0-1.56-0.699-1.56-1.56
					s0.698-1.56,1.56-1.56C115.518,367.283,116.217,367.981,116.217,368.843"/>
			</g>
		</g>
		<g id="XMLID_1928_">
			<path id="XMLID_1932_" style="fill:#9C9B9B;" d="M239.712,399.497h-30.489c-4.677,0-8.469-3.792-8.469-8.469v-30.489
				c0-4.677,3.792-8.469,8.469-8.469h30.489c4.677,0,8.469,3.792,8.469,8.469v30.489
				C248.181,395.705,244.389,399.497,239.712,399.497z"/>
			<g id="XMLID_1929_">
				<path id="XMLID_1931_" style="fill:#FFFFFF;" d="M227.432,375.165h-9.581l0.011,2.744h6.46c-0.764,3.341-3.122,5.39-6.287,5.39
					c-4.151,0-7.516-3.365-7.516-7.516s3.365-7.516,7.516-7.516c1.974,0,3.769,0.762,5.11,2.006l2.12-1.827
					c-1.86-1.833-4.412-2.965-7.23-2.965c-5.69,0-10.302,4.613-10.302,10.302c0,5.69,4.612,10.302,10.302,10.302
					c5.464,0,9.412-4.167,9.412-9.857L227.432,375.165z"/>
				<polygon id="XMLID_1930_" style="fill:#FFFFFF;" points="241.201,375.279 237.246,375.279 237.246,371.324 234.723,371.324 
					234.723,375.279 230.768,375.279 230.768,377.802 234.723,377.802 234.723,381.757 237.246,381.757 237.246,377.802 
					241.201,377.802 				"/>
			</g>
		</g>
		<g id="XMLID_1923_">
			<path id="XMLID_1925_" style="fill:#9C9B9B;" d="M408.459,399.497h-30.489c-4.677,0-8.469-3.792-8.469-8.469v-30.489
				c0-4.677,3.792-8.469,8.469-8.469h30.489c4.677,0,8.469,3.792,8.469,8.469v30.489
				C416.928,395.705,413.136,399.497,408.459,399.497z"/>
			<path id="XMLID_1924_" style="fill:#FFFFFF;" d="M387.892,382.795c0,1.229,0.129,2.165,0.386,2.813
				c0.257,0.645,0.72,1.257,1.387,1.831c0.666,0.574,1.471,1.016,2.416,1.325c0.945,0.311,2.03,0.466,3.259,0.466
				c1.083,0,2.089-0.109,3.021-0.325c0.93-0.218,1.971-0.597,3.12-1.138v-4.229c-1.347,0.885-2.702,1.328-4.064,1.328
				c-0.765,0-1.447-0.178-2.041-0.536c-0.449-0.263-0.755-0.617-0.921-1.06c-0.165-0.443-0.247-1.443-0.247-3.003v-6.898h6.386
				v-4.221h-6.386v-6.812h-3.809c-0.172,1.386-0.485,2.526-0.939,3.423c-0.454,0.897-1.056,1.665-1.807,2.305
				c-0.75,0.639-1.651,1.13-2.704,1.474v3.831h2.944V382.795z"/>
		</g>
		<g id="XMLID_1918_">
			<path id="XMLID_1920_" style="fill:#9C9B9B;" d="M349.913,399.497h-30.489c-4.677,0-8.469-3.792-8.469-8.469v-30.489
				c0-4.677,3.792-8.469,8.469-8.469h30.489c4.677,0,8.469,3.792,8.469,8.469v30.489
				C358.382,395.705,354.59,399.497,349.913,399.497z"/>
			<path id="XMLID_1919_" style="fill-rule:evenodd;clip-rule:evenodd;fill:#FFFFFF;" d="M348.41,382.661v-0.006
				c-0.006-0.007-0.013-0.007-0.026-0.02c0,0,0,0-0.006,0l0,0c-0.335-0.213-0.677-0.245-0.89-0.322c-0.006,0-0.013,0-0.013-0.006
				c-1.456-0.458-2.713-1.45-3.654-2.661c-0.522-0.677-0.96-1.405-1.25-2.185c0-0.007,0-0.007,0-0.013
				c-0.116-0.335-0.123-0.709,0.045-0.935c0,0,0.006,0,0.006-0.006c0.264-0.374,0.748-0.612,1.257-0.799c0.007,0,0.007,0,0.007,0
				c0.574-0.2,1.192-0.425,1.701-0.877c0.006,0,0.006-0.006,0.013-0.006c0.077-0.071,0.174-0.167,0.245-0.316
				c0.013-0.032,0.032-0.071,0.039-0.116c0.039-0.135,0.039-0.303-0.032-0.445c0-0.007,0-0.007,0-0.007
				c-0.148-0.296-0.4-0.458-0.593-0.567h-0.007c-0.316-0.187-0.689-0.2-1.018-0.09l0,0h-0.007c-0.348,0.103-0.638,0.232-0.902,0.264
				c-0.006,0-0.013,0-0.019,0.006c-0.374,0.064-0.741,0.077-1.025-0.026c-0.006-0.039-0.006-0.123-0.019-0.225h0.006
				c-0.026-0.619,0.032-1.257,0.039-1.92c0,0,0,0,0-0.007c0.033-1.005,0.071-2.036-0.077-3.08c0-0.007,0-0.013,0-0.013
				c-0.328-1.759-1.456-3.273-2.887-4.279c-1.037-0.734-2.275-1.14-3.531-1.257l0,0c-0.432-0.039-0.85-0.052-1.27-0.052
				c-1.695,0.013-3.454,0.457-4.826,1.534c-1.031,0.806-1.843,1.875-2.352,3.067v0.006c-0.49,1.224-0.445,2.533-0.38,3.744l0,0
				c0.039,0.851,0.135,1.676,0.058,2.462c-0.007,0.026-0.007,0.039-0.013,0.052c-0.38,0.071-0.799,0.045-1.211-0.032h-0.007
				c-0.283-0.045-0.586-0.161-0.928-0.258c-0.007,0-0.013,0-0.019-0.006c-0.328-0.071-0.657,0.019-0.902,0.206
				c-0.007,0-0.013,0-0.013,0.007c-0.006,0.006-0.013,0.006-0.013,0.013c-0.206,0.129-0.483,0.354-0.496,0.741
				c-0.006,0.026,0,0.045,0,0.071c0.007,0,0,0.006,0.007,0.006c0.038,0.226,0.18,0.393,0.309,0.503
				c0.129,0.11,0.245,0.181,0.316,0.239c0.007,0,0.013,0.006,0.019,0.013c0.618,0.413,1.302,0.593,1.901,0.825l0,0
				c0.412,0.181,0.767,0.458,0.85,0.812c0.103,0.445-0.09,0.96-0.335,1.456v0.007c-0.67,1.314-1.662,2.461-2.887,3.305
				c-0.644,0.438-1.366,0.767-2.12,0.967c-0.007,0-0.02,0.007-0.032,0.013c-0.155,0.058-0.522,0.09-0.754,0.438
				c-0.013,0.026-0.026,0.052-0.039,0.084c-0.077,0.219,0.013,0.458,0.122,0.593c0.103,0.123,0.219,0.2,0.322,0.251
				c0.006,0,0.013,0.007,0.019,0.007c0.631,0.367,1.327,0.522,1.959,0.683c0.006,0,0.006,0.006,0.006,0.006
				c0.458,0.097,0.883,0.155,1.224,0.303c0.013,0.026,0.052,0.142,0.129,0.335c0.116,0.348,0.168,0.754,0.296,1.186
				c0.039,0.116,0.142,0.213,0.264,0.239c0.29,0.064,0.445-0.033,0.47-0.039c0.013,0,0.026,0,0.039,0
				c1.057-0.187,2.12-0.348,3.093-0.11l0,0c1.018,0.27,1.907,0.973,2.906,1.572v0.007l0,0c0.664,0.412,1.43,0.818,2.32,0.85l0,0
				c0,0,0,0,0.007,0c0.67,0.039,1.321-0.006,1.965-0.045c0.007,0,0.007,0,0.013,0c0.548-0.052,1.076-0.239,1.546-0.529
				c0.007-0.007,0.013-0.013,0.019-0.013c1.051-0.599,1.978-1.315,3.003-1.766h0.007c0.328-0.116,0.747-0.11,1.205-0.141
				c0.006,0,0.013,0,0.013,0c0.851-0.026,1.695,0.019,2.539,0.129c0.026,0.007,0.058,0.007,0.084,0
				c0.116-0.013,0.232-0.09,0.29-0.161c0.065-0.071,0.078-0.135,0.09-0.18c0.026-0.084,0.045-0.122,0.007-0.052
				c0.013-0.026,0.026-0.045,0.032-0.071c0.155-0.509,0.238-0.967,0.49-1.25c0.11-0.11,0.303-0.161,0.522-0.161
				c0.013,0,0.032,0,0.045,0c0.734-0.084,1.392-0.348,2.017-0.567c0.007-0.006,0.02-0.006,0.026-0.006
				c0.232-0.103,0.58-0.219,0.819-0.548c0,0,0,0,0-0.006l0,0C348.784,383.209,348.687,382.829,348.41,382.661L348.41,382.661z"/>
		</g>
		<g id="XMLID_1909_">
			<path id="XMLID_1915_" style="fill:#9C9B9B;" d="M293.807,399.497h-30.489c-4.677,0-8.469-3.792-8.469-8.469v-30.489
				c0-4.677,3.792-8.469,8.469-8.469h30.489c4.677,0,8.469,3.792,8.469,8.469v30.489
				C302.276,395.705,298.484,399.497,293.807,399.497z"/>
			<g id="XMLID_1910_">
				<path id="XMLID_1912_" style="fill-rule:evenodd;clip-rule:evenodd;fill:#FFFFFF;" d="M291.563,375.125
					c-0.173-6.852-5.817-12.352-12.765-12.352c-6.864,0-12.46,5.375-12.758,12.119c-0.006,0.185-0.012,0.371-0.012,0.556
					c0,2.397,0.669,4.634,1.829,6.547l-2.302,6.798l7.073-2.248c1.83,1.004,3.934,1.579,6.17,1.579
					c7.055,0,12.771-5.674,12.771-12.675C291.569,375.341,291.569,375.233,291.563,375.125z M278.798,386.103
					c-2.182,0-4.209-0.646-5.907-1.764l-4.125,1.315l1.339-3.958c-1.285-1.758-2.045-3.916-2.045-6.248
					c0-0.347,0.018-0.694,0.054-1.034c0.526-5.393,5.118-9.62,10.684-9.62c5.638,0,10.272,4.335,10.702,9.823
					c0.024,0.275,0.036,0.55,0.036,0.831C289.536,381.326,284.717,386.103,278.798,386.103z"/>
				<path id="XMLID_1911_" style="fill-rule:evenodd;clip-rule:evenodd;fill:#FFFFFF;" d="M284.652,378.007
					c-0.317-0.155-1.854-0.909-2.141-1.01c-0.287-0.108-0.496-0.155-0.706,0.156c-0.209,0.311-0.813,1.01-0.993,1.214
					c-0.185,0.209-0.365,0.233-0.681,0.078c-0.311-0.155-1.321-0.478-2.517-1.543c-0.927-0.819-1.56-1.835-1.74-2.146
					c-0.179-0.311-0.018-0.478,0.138-0.634c0.143-0.143,0.311-0.365,0.472-0.544c0.042-0.054,0.078-0.102,0.114-0.15
					c0.072-0.114,0.126-0.221,0.197-0.371c0.108-0.209,0.054-0.388-0.024-0.544c-0.078-0.155-0.706-1.686-0.969-2.308
					c-0.257-0.622-0.52-0.514-0.705-0.514c-0.18,0-0.389-0.03-0.598-0.03c-0.209,0-0.55,0.078-0.837,0.388
					c-0.287,0.311-1.094,1.064-1.094,2.595c0,0.359,0.066,0.717,0.161,1.058c0.317,1.094,0.998,1.997,1.118,2.152
					c0.155,0.203,2.164,3.444,5.345,4.693c3.187,1.238,3.187,0.825,3.761,0.771c0.574-0.048,1.854-0.747,2.11-1.477
					c0.263-0.723,0.263-1.345,0.185-1.477C285.172,378.241,284.962,378.163,284.652,378.007z"/>
			</g>
		</g>
		<g id="XMLID_1902_">
			<path id="XMLID_1906_" style="fill:#9C9B9B;" d="M463.969,399.497H433.48c-4.677,0-8.469-3.792-8.469-8.469v-30.489
				c0-4.677,3.792-8.469,8.469-8.469h30.489c4.677,0,8.469,3.792,8.469,8.469v30.489
				C472.438,395.705,468.646,399.497,463.969,399.497z"/>
			<path id="XMLID_1903_" style="fill:#FFFFFF;" d="M435.505,375.794c0,7.294,5.913,13.209,13.209,13.209
				c0.847,0,1.674-0.082,2.475-0.235c1.162,0.702,2.524,1.107,3.981,1.107c4.257-0.001,7.708-3.453,7.708-7.711
				c0-1.493-0.426-2.885-1.159-4.066c0.131-0.748,0.203-1.518,0.203-2.304c0-7.296-5.914-13.209-13.209-13.209
				c-0.83,0-1.643,0.08-2.433,0.227c-1.167-0.711-2.537-1.119-4.002-1.119c-4.258,0-7.709,3.451-7.709,7.709
				c0,1.484,0.421,2.869,1.147,4.046C435.58,374.208,435.505,374.992,435.505,375.794z M448.856,366.408
				c4.26,0.25,6.755,2.124,6.997,3.874c0.119,1.144-0.642,2.033-1.961,2.033c-1.927,0-2.124-2.569-5.442-2.569
				c-1.496,0-2.76,0.622-2.76,1.972c0,2.821,10.632,1.183,10.632,7.393c0,3.58-2.866,5.925-7.143,5.925
				c-3.762,0-7.543-1.705-7.523-4.641c0.006-0.887,0.667-1.699,1.546-1.699c2.216,0,2.195,3.292,5.723,3.292
				c2.474,0,3.319-1.35,3.319-2.291c0-3.398-10.695-1.314-10.695-7.705C441.549,368.532,444.391,366.147,448.856,366.408z"/>
		</g>
		<g id="XMLID_1897_">
			<path id="XMLID_1899_" style="fill:#9C9B9B;" d="M122.96,456.404H92.471c-4.677,0-8.469-3.792-8.469-8.469v-30.489
				c0-4.677,3.792-8.469,8.469-8.469h30.489c4.677,0,8.469,3.792,8.469,8.469v30.489
				C131.429,452.612,127.638,456.404,122.96,456.404z"/>
			<path id="XMLID_1898_" style="fill:#FFFFFF;" d="M100.127,434.894c0.37,0.152,0.702,0.006,0.81-0.404
				c0.074-0.284,0.251-1,0.33-1.299c0.109-0.406,0.067-0.548-0.233-0.901c-0.651-0.769-1.067-1.764-1.067-3.174
				c0-4.088,3.058-7.748,7.965-7.748c4.344,0,6.731,2.655,6.731,6.2c0,4.664-2.064,8.601-5.129,8.601
				c-1.693,0-2.959-1.399-2.554-3.115c0.488-2.049,1.428-4.261,1.428-5.741c0-1.324-0.711-2.429-2.182-2.429
				c-1.73,0-3.12,1.79-3.12,4.187c0,1.527,0.517,2.56,0.517,2.56s-1.771,7.502-2.081,8.815c-0.619,2.616-0.093,5.824-0.049,6.147
				c0.027,0.193,0.273,0.238,0.384,0.093c0.16-0.209,2.22-2.753,2.92-5.295c0.199-0.719,1.139-4.446,1.139-4.446
				c0.562,1.072,2.205,2.016,3.951,2.016c5.201,0,8.729-4.741,8.729-11.087c0-4.798-4.063-9.268-10.241-9.268
				c-7.686,0-11.562,5.511-11.562,10.106C96.814,431.497,97.868,433.972,100.127,434.894z"/>
		</g>
		<g id="XMLID_1883_">
			<path id="XMLID_1894_" style="fill:#9C9B9B;" d="M66.52,456.404H36.031c-4.677,0-8.469-3.792-8.469-8.469v-30.489
				c0-4.677,3.792-8.469,8.469-8.469H66.52c4.677,0,8.469,3.792,8.469,8.469v30.489C74.989,452.612,71.198,456.404,66.52,456.404z"
				/>
			<g id="XMLID_1884_">
				<path id="XMLID_1890_" style="fill:#FFFFFF;" d="M47.736,440.558c0.72-0.149,1.346-0.427,1.876-0.833
					c0.469-0.353,0.862-0.788,1.176-1.306c0.493-0.782,0.739-1.664,0.739-2.649c0-0.953-0.216-1.764-0.646-2.432
					c-0.432-0.668-1.071-1.157-1.918-1.465c0.558-0.285,0.98-0.6,1.267-0.946c0.512-0.615,0.769-1.431,0.769-2.445
					c0-0.984-0.255-1.829-0.763-2.535c-0.844-1.148-2.279-1.738-4.303-1.768h-8.026v16.604h7.483
					C46.232,440.784,47.016,440.709,47.736,440.558z M41.219,427.063h3.612c0.796,0,1.449,0.086,1.962,0.26
					c0.595,0.247,0.892,0.758,0.892,1.532c0,0.699-0.225,1.185-0.675,1.459c-0.449,0.274-1.035,0.411-1.756,0.411h-4.036V427.063z
					 M41.219,437.9v-4.426h4.087c0.714,0.007,1.266,0.101,1.66,0.281c0.705,0.323,1.058,0.916,1.058,1.779
					c0,1.021-0.364,1.713-1.091,2.074c-0.4,0.195-0.962,0.292-1.681,0.292H41.219z"/>
				<g id="XMLID_1885_">
					<path id="XMLID_1887_" style="fill:#FFFFFF;" d="M54.339,439.69c1.249,1.008,2.691,1.511,4.325,1.511
						c1.98,0,3.521-0.596,4.619-1.791c0.708-0.752,1.105-1.492,1.191-2.219h-3.278c-0.191,0.36-0.411,0.641-0.661,0.844
						c-0.457,0.376-1.051,0.564-1.783,0.564c-0.69,0-1.28-0.154-1.769-0.462c-0.807-0.496-1.235-1.359-1.284-2.592h8.943
						c0.016-1.06-0.02-1.872-0.105-2.436c-0.149-0.963-0.475-1.809-0.979-2.538c-0.557-0.827-1.265-1.433-2.122-1.817
						c-0.855-0.383-1.818-0.575-2.888-0.575c-1.799,0-3.262,0.567-4.39,1.703c-1.128,1.134-1.692,2.765-1.692,4.892
						C52.465,437.044,53.09,438.682,54.339,439.69z M56.632,431.527c0.455-0.467,1.093-0.701,1.916-0.701
						c0.758,0,1.393,0.221,1.905,0.661c0.512,0.441,0.797,1.089,0.855,1.94h-5.531C55.894,432.629,56.179,431.995,56.632,431.527z"
						/>
					<rect id="XMLID_1886_" x="54.731" y="425.134" style="fill:#FFFFFF;" width="7.216" height="1.676"/>
				</g>
			</g>
		</g>
		<g id="XMLID_1874_">
			<path id="XMLID_1880_" style="fill:#9C9B9B;" d="M239.712,456.404h-30.489c-4.677,0-8.469-3.792-8.469-8.469v-30.489
				c0-4.677,3.792-8.469,8.469-8.469h30.489c4.677,0,8.469,3.792,8.469,8.469v30.489
				C248.181,452.612,244.389,456.404,239.712,456.404z"/>
			<g id="XMLID_1875_">
				<g id="XMLID_1877_">
					<rect id="XMLID_1879_" x="213.714" y="427.404" style="fill:#FFFFFF;" width="4.908" height="15.855"/>
					<path id="XMLID_1878_" style="fill:#FFFFFF;" d="M216.145,425.328c1.603,0,2.902-1.311,2.902-2.926s-1.299-2.925-2.902-2.925
						c-1.603,0-2.902,1.31-2.902,2.925S214.541,425.328,216.145,425.328z"/>
				</g>
				<path id="XMLID_1876_" style="fill:#FFFFFF;" d="M226.467,434.936c0-2.229,1.026-3.557,2.99-3.557
					c1.805,0,2.672,1.275,2.672,3.557c0,2.284,0,8.323,0,8.323h4.885c0,0,0-5.792,0-10.039c0-4.247-2.407-6.3-5.769-6.3
					c-3.363,0-4.778,2.62-4.778,2.62v-2.136h-4.708v15.855h4.708C226.467,443.259,226.467,437.379,226.467,434.936z"/>
			</g>
		</g>
		<g id="XMLID_1865_">
			<path id="XMLID_1871_" style="fill:#9C9B9B;" d="M181.991,456.404h-30.489c-4.677,0-8.469-3.792-8.469-8.469v-30.489
				c0-4.677,3.792-8.469,8.469-8.469h30.489c4.677,0,8.469,3.792,8.469,8.469v30.489
				C190.46,452.612,186.668,456.404,181.991,456.404z"/>
			<path id="XMLID_1866_" style="fill:#FFFFFF;" d="M166.746,418.826c-7.657,0-13.864,6.207-13.864,13.864
				c0,7.657,6.207,13.864,13.864,13.864c7.657,0,13.864-6.207,13.864-13.864C180.611,425.033,174.403,418.826,166.746,418.826z
				 M173.124,438.86c-0.278,0.416-0.763,0.554-1.179,0.277c-3.258-2.01-7.348-2.426-12.201-1.317
				c-0.485,0.138-0.901-0.208-1.04-0.624c-0.139-0.485,0.208-0.901,0.624-1.04c5.268-1.178,9.844-0.693,13.448,1.525
				C173.263,437.889,173.332,438.444,173.124,438.86z M174.788,435.047c-0.346,0.485-0.97,0.694-1.456,0.347
				c-3.743-2.288-9.428-2.981-13.795-1.594c-0.555,0.138-1.178-0.139-1.317-0.693c-0.139-0.555,0.139-1.178,0.693-1.317
				c5.06-1.525,11.299-0.763,15.598,1.872C174.926,433.869,175.134,434.562,174.788,435.047z M174.926,431.165
				c-4.436-2.634-11.854-2.911-16.082-1.594c-0.693,0.208-1.387-0.208-1.595-0.832c-0.208-0.693,0.208-1.386,0.832-1.595
				c4.922-1.456,13.032-1.178,18.162,1.872c0.624,0.347,0.832,1.178,0.485,1.802C176.382,431.304,175.55,431.512,174.926,431.165z"
				/>
		</g>
		<g id="XMLID_1860_">
			<path id="XMLID_1862_" style="fill:#9C9B9B;" d="M349.913,456.404h-30.489c-4.677,0-8.469-3.792-8.469-8.469v-30.489
				c0-4.677,3.792-8.469,8.469-8.469h30.489c4.677,0,8.469,3.792,8.469,8.469v30.489
				C358.382,452.612,354.59,456.404,349.913,456.404z"/>
			<path id="XMLID_1861_" style="fill:#FFFFFF;" d="M344.197,421.057c-3.728-0.12-6.253,1.984-7.576,6.316
				c0.683-0.293,1.347-0.442,1.991-0.442c1.368,0,1.972,0.77,1.81,2.307c-0.08,0.929-0.684,2.282-1.81,4.062
				c-1.128,1.779-1.973,2.668-2.536,2.668c-0.726,0-1.39-1.369-1.992-4.112c-0.204-0.805-0.565-2.861-1.088-6.167
				c-0.484-3.065-1.772-4.496-3.865-4.294c-0.887,0.081-2.216,0.886-3.986,2.416c-1.289,1.168-2.598,2.336-3.925,3.502l1.266,1.631
				c1.206-0.844,1.91-1.268,2.11-1.268c0.924,0,1.786,1.45,2.592,4.345c0.724,2.655,1.448,5.308,2.172,7.964
				c1.083,2.896,2.41,4.343,3.978,4.343c2.531,0,5.625-2.377,9.282-7.132c3.536-4.553,5.365-8.139,5.485-10.758
				C348.263,422.932,346.96,421.14,344.197,421.057z"/>
		</g>
		<g id="XMLID_1848_">
			<path id="XMLID_1857_" style="fill:#9C9B9B;" d="M408.459,456.404h-30.489c-4.677,0-8.469-3.792-8.469-8.469v-30.489
				c0-4.677,3.792-8.469,8.469-8.469h30.489c4.677,0,8.469,3.792,8.469,8.469v30.489
				C416.928,452.612,413.136,456.404,408.459,456.404z"/>
			<path id="XMLID_1849_" style="fill:#FFFFFF;" d="M393.214,417.573c-8.348,0-15.116,6.768-15.116,15.118
				c0,8.348,6.768,15.116,15.116,15.116c8.349,0,15.117-6.768,15.117-15.116C408.331,424.341,401.563,417.573,393.214,417.573z
				 M393.214,420.202c2.867,0,5.503,0.981,7.613,2.611c-1.517,1.957-3.613,3.505-6.282,4.635c-1.28-2.344-2.742-4.63-4.394-6.85
				C391.132,420.349,392.156,420.202,393.214,420.202z M387.58,421.561c1.677,2.195,3.163,4.458,4.456,6.779
				c-3.062,0.901-6.716,1.364-10.941,1.393C381.968,426.162,384.373,423.192,387.58,421.561z M380.726,432.69
				c0-0.108,0.015-0.214,0.017-0.321c4.847-0.007,9.03-0.564,12.533-1.666c0.294,0.598,0.575,1.199,0.844,1.805
				c-4.257,1.33-7.765,4.058-10.502,8.163C381.815,438.505,380.726,435.723,380.726,432.69z M393.214,445.178
				c-2.889,0-5.545-0.994-7.663-2.649c2.48-3.892,5.648-6.424,9.571-7.593c1.168,3.049,2.028,6.185,2.575,9.397
				C396.301,444.873,394.795,445.178,393.214,445.178z M400.145,443.07c-0.552-2.964-1.361-5.861-2.418-8.688
				c2.362-0.334,4.964-0.247,7.809,0.247C404.985,438.139,402.982,441.171,400.145,443.07z M396.719,431.894
				c-0.307-0.709-0.626-1.416-0.966-2.116c2.909-1.26,5.247-2.971,6.99-5.142c1.699,2.008,2.766,4.559,2.924,7.35
				C402.423,431.455,399.439,431.426,396.719,431.894z"/>
		</g>
		<g id="XMLID_1837_">
			<path id="XMLID_1845_" style="fill:#9C9B9B;" d="M463.969,456.404H433.48c-4.677,0-8.469-3.792-8.469-8.469v-30.489
				c0-4.677,3.792-8.469,8.469-8.469h30.489c4.677,0,8.469,3.792,8.469,8.469v30.489
				C472.438,452.612,468.646,456.404,463.969,456.404z"/>
			<g id="XMLID_1839_" transform="translate(-1)">
				<path id="XMLID_1844_" style="fill:#FFFFFF;" d="M435.162,424.993l7.284,4.64l7.284-4.64l-7.284-4.641L435.162,424.993z"/>
				<path id="XMLID_1843_" style="fill:#FFFFFF;" d="M449.719,424.993l7.284,4.64l7.284-4.64l-7.284-4.641L449.719,424.993z"/>
				<path id="XMLID_1842_" style="fill:#FFFFFF;" d="M435.162,434.209l7.284,4.641l7.284-4.641l-7.284-4.641L435.162,434.209z"/>
				<path id="XMLID_1841_" style="fill:#FFFFFF;" d="M457.003,429.569l-7.284,4.641l7.284,4.641l7.284-4.641L457.003,429.569z"/>
				<path id="XMLID_1840_" style="fill:#FFFFFF;" d="M442.492,440.387l7.284,4.641l7.284-4.641l-7.284-4.64L442.492,440.387z"/>
			</g>
		</g>
		<g id="XMLID_1581_">
			<path id="XMLID_1748_" style="fill:#9C9B9B;" d="M293.807,456.404h-30.489c-4.677,0-8.469-3.792-8.469-8.469v-30.489
				c0-4.677,3.792-8.469,8.469-8.469h30.489c4.677,0,8.469,3.792,8.469,8.469v30.489
				C302.276,452.612,298.484,456.404,293.807,456.404z"/>
			<g id="XMLID_1734_">
				<path id="XMLID_1739_" style="fill:#FFFFFF;" d="M296.747,423.495c-0.436-1.644-1.723-2.938-3.356-3.378
					c-2.96-0.798-14.83-0.798-14.83-0.798s-11.87,0-14.83,0.798c-1.633,0.439-2.919,1.734-3.356,3.378
					c-0.793,2.979-0.793,9.195-0.793,9.195s0,6.216,0.793,9.195c0.437,1.644,1.723,2.938,3.356,3.378
					c2.96,0.798,14.83,0.798,14.83,0.798s11.869,0,14.83-0.798c1.633-0.439,2.919-1.734,3.356-3.378
					c0.793-2.979,0.793-9.195,0.793-9.195S297.541,426.474,296.747,423.495z"/>
				<polygon id="XMLID_1735_" style="fill:#9C9B9B;" points="274.68,438.334 274.68,427.047 284.601,432.69 				"/>
			</g>
		</g>
	</g>
	<g id="XMLID_620_">
		<rect id="XMLID_619_" x="157.135" y="43.596" width="185.731" height="18.535"/>
		<g id="XMLID_553_">
			<path id="XMLID_552_" style="fill:#FFFFFF;" d="M186.773,49.523l-0.923,1.919c-0.864-0.492-2.087-0.935-2.794-0.935
				c-0.42,0-0.696,0.144-0.696,0.456c0,1.235,4.39,0.503,4.39,3.538c0,1.787-1.583,2.638-3.466,2.638
				c-1.427,0-2.986-0.503-4.042-1.331l0.936-1.895c0.863,0.732,2.267,1.283,3.13,1.283c0.528,0,0.864-0.18,0.864-0.563
				c0-1.271-4.39-0.468-4.39-3.43c0-1.619,1.379-2.65,3.478-2.65C184.542,48.552,185.861,48.936,186.773,49.523z"/>
			<path id="XMLID_555_" style="fill:#FFFFFF;" d="M201.148,52.858c0,2.47-1.943,4.317-4.581,4.317
				c-2.639,0-4.581-1.835-4.581-4.317c0-2.471,1.943-4.27,4.581-4.27C199.205,48.588,201.148,50.399,201.148,52.858z M194.539,52.87
				c0,1.272,0.96,2.219,2.063,2.219c1.104,0,1.991-0.947,1.991-2.219c0-1.271-0.888-2.195-1.991-2.195
				C195.487,50.675,194.539,51.598,194.539,52.87z"/>
			<path id="XMLID_558_" style="fill:#FFFFFF;" d="M214.336,50.075l-1.439,1.703c-0.527-0.672-1.307-1.115-2.003-1.115
				c-1.139,0-2.003,0.923-2.003,2.159c0,1.235,0.864,2.171,2.003,2.171c0.648,0,1.427-0.384,2.003-0.972l1.439,1.535
				c-0.912,0.983-2.291,1.619-3.562,1.619c-2.555,0-4.438-1.847-4.438-4.33c0-2.447,1.919-4.258,4.521-4.258
				C212.129,48.588,213.485,49.164,214.336,50.075z"/>
			<path id="XMLID_565_" style="fill:#FFFFFF;" d="M219.896,57.067V48.66h2.495v8.407H219.896z"/>
			<path id="XMLID_567_" style="fill:#FFFFFF;" d="M230.875,55.724l-0.504,1.343h-2.566l3.586-8.407h2.566l3.466,8.407h-2.663
				l-0.492-1.343H230.875z M232.602,51.155l-1.031,2.746h2.039L232.602,51.155z"/>
			<path id="XMLID_570_" style="fill:#FFFFFF;" d="M248.861,54.98v2.087h-6.021V48.66h2.495v6.32H248.861z"/>
			<path id="XMLID_572_" style="fill:#FFFFFF;" d="M269.176,57.067l-0.012-4.977l-1.691,4.149h-1.631l-1.691-4.149v4.977h-2.194
				V48.66h2.675l2.026,4.653l2.027-4.653h2.674v8.407H269.176z"/>
			<path id="XMLID_574_" style="fill:#FFFFFF;" d="M280.074,50.579v1.319h3.97v1.919h-3.97v1.331h4.498v1.919h-6.992V48.66h6.872
				v1.919H280.074z"/>
			<path id="XMLID_576_" style="fill:#FFFFFF;" d="M294.258,48.66c2.723,0,4.522,1.667,4.522,4.198c0,2.53-1.835,4.209-4.605,4.209
				h-3.599V48.66H294.258z M293.071,55.112h1.259c1.14,0,1.907-0.887,1.907-2.23c0-1.356-0.827-2.255-2.026-2.255h-1.14V55.112z"/>
			<path id="XMLID_580_" style="fill:#FFFFFF;" d="M304.52,57.067V48.66h2.495v8.407H304.52z"/>
			<path id="XMLID_582_" style="fill:#FFFFFF;" d="M315.498,55.724l-0.504,1.343h-2.566l3.586-8.407h2.566l3.467,8.407h-2.663
				l-0.491-1.343H315.498z M317.225,51.155l-1.031,2.746h2.039L317.225,51.155z"/>
		</g>
		<g id="XMLID_472_">
			<path id="XMLID_585_" d="M165.888,73.863v0.912h-4.641v-8.396h0.959v7.484H165.888z"/>
			<path id="XMLID_587_" d="M180.25,70.577c0,2.363-1.943,4.246-4.39,4.246c-2.459,0-4.401-1.883-4.401-4.246
				c0-2.374,1.943-4.222,4.401-4.222C178.307,66.355,180.25,68.214,180.25,70.577z M172.43,70.577c0,1.847,1.559,3.322,3.43,3.322
				c1.871,0,3.406-1.475,3.406-3.322s-1.535-3.31-3.406-3.31C173.99,67.267,172.43,68.729,172.43,70.577z"/>
			<path id="XMLID_590_" d="M193.307,70.673v3.046c-0.828,0.66-1.991,1.104-3.118,1.104c-2.435,0-4.378-1.883-4.378-4.246
				s1.955-4.222,4.426-4.222c1.164,0,2.291,0.444,3.094,1.151l-0.552,0.72c-0.684-0.612-1.607-0.972-2.542-0.972
				c-1.919,0-3.454,1.475-3.454,3.322c0,1.859,1.547,3.335,3.466,3.335c0.755,0,1.559-0.264,2.206-0.708v-2.53H193.307z"/>
			<path id="XMLID_592_" d="M208.438,70.577c0,2.363-1.943,4.246-4.39,4.246c-2.458,0-4.402-1.883-4.402-4.246
				c0-2.374,1.943-4.222,4.402-4.222C206.495,66.355,208.438,68.214,208.438,70.577z M200.618,70.577
				c0,1.847,1.559,3.322,3.43,3.322c1.871,0,3.406-1.475,3.406-3.322s-1.535-3.31-3.406-3.31
				C202.178,67.267,200.618,68.729,200.618,70.577z"/>
			<path id="XMLID_595_" d="M229.739,67.578l-0.576,0.732c-0.648-0.66-1.559-1.056-2.483-1.056c-1.895,0-3.418,1.463-3.418,3.311
				c0,1.835,1.523,3.31,3.418,3.31c0.924,0,1.823-0.384,2.483-1.007l0.587,0.66c-0.827,0.779-1.955,1.295-3.118,1.295
				c-2.423,0-4.342-1.883-4.342-4.257c0-2.351,1.943-4.21,4.378-4.21C227.82,66.355,228.935,66.823,229.739,67.578z"/>
			<path id="XMLID_597_" d="M244.078,70.577c0,2.363-1.943,4.246-4.39,4.246c-2.458,0-4.402-1.883-4.402-4.246
				c0-2.374,1.943-4.222,4.402-4.222C242.135,66.355,244.078,68.214,244.078,70.577z M236.258,70.577
				c0,1.847,1.559,3.322,3.43,3.322s3.406-1.475,3.406-3.322s-1.535-3.31-3.406-3.31S236.258,68.729,236.258,70.577z"/>
			<path id="XMLID_600_" d="M255.275,73.863v0.912h-4.641v-8.396h0.96v7.484H255.275z"/>
			<path id="XMLID_602_" d="M266.28,73.863v0.912h-4.642v-8.396h0.96v7.484H266.28z"/>
			<path id="XMLID_604_" d="M273.602,67.303v2.758h4.233v0.923h-4.233v2.878h4.893v0.912h-5.853v-8.396h5.697v0.924H273.602z"/>
			<path id="XMLID_606_" d="M291.91,67.578l-0.575,0.732c-0.648-0.66-1.56-1.056-2.483-1.056c-1.895,0-3.418,1.463-3.418,3.311
				c0,1.835,1.523,3.31,3.418,3.31c0.924,0,1.823-0.384,2.483-1.007l0.587,0.66c-0.827,0.779-1.954,1.295-3.118,1.295
				c-2.423,0-4.342-1.883-4.342-4.257c0-2.351,1.943-4.21,4.378-4.21C289.991,66.355,291.107,66.823,291.91,67.578z"/>
			<path id="XMLID_608_" d="M301.008,67.303v7.472h-0.959v-7.472h-2.734v-0.924h6.44v0.924H301.008z"/>
			<path id="XMLID_610_" d="M309.951,74.774v-8.396h0.959v8.396H309.951z"/>
			<path id="XMLID_613_" d="M326.253,70.577c0,2.363-1.942,4.246-4.39,4.246c-2.458,0-4.401-1.883-4.401-4.246
				c0-2.374,1.943-4.222,4.401-4.222C324.311,66.355,326.253,68.214,326.253,70.577z M318.434,70.577
				c0,1.847,1.559,3.322,3.43,3.322s3.406-1.475,3.406-3.322s-1.535-3.31-3.406-3.31S318.434,68.729,318.434,70.577z"/>
			<path id="XMLID_617_" d="M338.807,74.774l-5.037-6.74v6.74h-0.96v-8.396h0.995l5.038,6.753v-6.753h0.947v8.396H338.807z"/>
		</g>
	</g>
</g>
</svg>
